<?xml version="1.0" standalone="no"?>
<!DOCTYPE svg PUBLIC "-//W3C//DTD SVG 1.1//EN" "http://www.w3.org/Graphics/SVG/1.1/DTD/svg11.dtd" >
<svg>
<metadata>
Created by FontForge 20120731 at Mon Jun 22 07:15:54 2015
 By ,,,
(c) 1992, 1994, 1997, 2000, 2004 Adobe Systems Incorporated. All rights reserved.
</metadata>
<defs>
<font id="26200840da918519b109561e247ef6d92ff8bcc115c205a0f372168e5e1602b" horiz-adv-x="488" >
  <font-face 
    font-family="26200840da918519b109561e247ef6d92ff8bcc115c205a0f372168e5e1602b4"
    font-weight="300"
    font-stretch="normal"
    units-per-em="1000"
    panose-1="2 11 4 3 3 4 3 2 2 4"
    ascent="750"
    descent="-250"
    x-height="480"
    cap-height="674"
    bbox="-153 -250 970 867"
    underline-thickness="50"
    underline-position="-50"
    unicode-range="U+0020-E006"
  />
<missing-glyph horiz-adv-x="500" 
d="M0 700h500v-700h-500v700zM420 650h-340l170 -255zM450 95v510l-170 -255zM420 50l-170 255l-170 -255h340zM50 95l170 255l-170 255v-510z" />
    <glyph glyph-name=".notdef" horiz-adv-x="500" 
d="M0 700h500v-700h-500v700zM420 650h-340l170 -255zM450 95v510l-170 -255zM420 50l-170 255l-170 -255h340zM50 95l170 255l-170 255v-510z" />
    <glyph glyph-name=".null" horiz-adv-x="0" 
 />
    <glyph glyph-name="nonmarkingreturn" horiz-adv-x="333" 
 />
    <glyph glyph-name="space" unicode=" " horiz-adv-x="219" 
 />
    <glyph glyph-name="space" unicode="&#xa0;" horiz-adv-x="219" 
 />
    <glyph glyph-name="exclam" unicode="!" horiz-adv-x="207" 
d="M83 177l-9 497h58l-9 -497h-40zM103 -11q-17 0 -28.5 13t-10.5 31q0 20 11 32.5t29 12.5t29 -12.5t11 -32.5q0 -18 -11 -31t-30 -13z" />
    <glyph glyph-name="quotedbl" unicode="&#x22;" horiz-adv-x="301" 
d="M118 685l-13 -221h-32l-13 221h58zM241 685l-13 -221h-32l-13 221h58z" />
    <glyph glyph-name="numbersign" unicode="#" horiz-adv-x="465" 
d="M278 245l21 165h-112l-20 -165h111zM94 0l26 207h-83v38h88l21 165h-88v38h93l26 202h40l-25 -202h112l26 202h41l-26 -202h83v-38h-88l-20 -165h88v-38h-93l-26 -207h-42l26 207h-111l-26 -207h-42z" />
    <glyph glyph-name="dollar" unicode="$" 
d="M214 -84v103q-40 0 -78.5 12.5t-63.5 32.5l20 37q24 -19 58 -31t72 -12q60 0 96.5 34.5t36.5 85.5q0 49 -30.5 81t-86.5 57q-37 16 -66 33t-49 37t-30.5 44t-10.5 54q0 60 38.5 101t100.5 50v104h41v-103q42 -2 71 -12.5t49 -23.5l-21 -37q-14 9 -42.5 21.5t-73.5 12.5
q-32 0 -54 -9.5t-36.5 -25t-21 -34t-6.5 -36.5q0 -47 30 -74.5t96 -56.5q70 -32 109 -73t39 -106q0 -28 -9.5 -54.5t-27.5 -48.5t-45.5 -37.5t-63.5 -21.5v-104h-41z" />
    <glyph glyph-name="percent" unicode="%" horiz-adv-x="737" 
d="M174 661q29 0 54 -12t43 -36t28 -60.5t10 -85.5q0 -52 -11 -90.5t-30 -64t-44.5 -38t-54.5 -12.5q-27 0 -51.5 11.5t-43 35.5t-30 61t-12.5 88q0 52 12 90.5t32 63.5t45.5 37t52.5 12zM171 627q-23 0 -41 -13t-30 -35.5t-18.5 -52.5t-6.5 -64q-1 -35 5 -65t18.5 -52.5
t30.5 -35.5t41 -13q25 0 43.5 13t30.5 36t17.5 53.5t5.5 65.5q0 33 -5 62.5t-16.5 52t-30 35.5t-44.5 13zM155 -11l386 672h40l-386 -672h-40zM570 392q29 0 54 -12t43 -36t28 -60.5t10 -85.5q0 -52 -11 -90t-30 -63.5t-44.5 -38t-54.5 -12.5q-27 0 -51.5 11.5t-43 35.5
t-30 60.5t-12.5 87.5q0 52 12 90.5t32 63.5t45.5 37t52.5 12zM567 358q-23 0 -41 -13t-30 -35t-18.5 -52.5t-6.5 -64.5q-1 -35 5 -65t18.5 -52t30.5 -35t41 -13q25 0 43.5 13t30.5 35.5t17.5 53t5.5 65.5q0 33 -5 62.5t-16.5 52t-30 35.5t-44.5 13z" />
    <glyph glyph-name="ampersand" unicode="&#x26;" horiz-adv-x="560" 
d="M500 0q-17 17 -33.5 34.5t-40.5 42.5q-51 -50 -101 -69t-104 -19q-41 0 -76 14.5t-60.5 40t-39.5 60t-14 73.5q0 70 38.5 118t95.5 81v3q-29 38 -44 75t-15 72q0 30 10 59t29.5 51t48 35.5t64.5 13.5q27 0 50.5 -9.5t41 -27t27.5 -42t10 -55.5q0 -54 -36 -97.5
t-121 -86.5v-3q25 -30 52 -61t52.5 -60t49 -56t42.5 -48q25 38 41.5 90t27.5 127h46q-14 -81 -34.5 -142t-53.5 -103q26 -26 51.5 -52.5t55.5 -58.5h-60zM232 28q53 0 95.5 21.5t71.5 55.5q-15 17 -37.5 43t-50.5 57.5l-60 67.5t-64 74q-16 -10 -35 -24.5t-35 -34.5t-27 -46
t-11 -59q0 -34 11.5 -62.5t32 -49t48.5 -32t61 -11.5zM251 647q-24 0 -43 -9.5t-31.5 -25.5t-19 -37t-6.5 -44q0 -43 17.5 -75.5t37.5 -60.5q60 31 98 66t38 86q0 18 -5 36t-16.5 32t-28.5 23t-41 9z" />
    <glyph glyph-name="quotesingle" unicode="'" horiz-adv-x="178" 
d="M118 685l-13 -221h-32l-13 221h58z" />
    <glyph glyph-name="parenleft" unicode="(" horiz-adv-x="265" 
d="M254 697q-31 -39 -57 -82.5t-44.5 -94t-29 -109t-10.5 -127.5q0 -68 11 -125t29.5 -107t44.5 -93t56 -82h-45q-26 32 -51.5 72t-45.5 90t-32 111t-12 135t12 135.5t32 112t45.5 91t51.5 73.5h45z" />
    <glyph glyph-name="parenright" unicode=")" horiz-adv-x="265" 
d="M11 -123q30 39 56 82.5t44.5 93.5t29.5 108.5t11 126.5t-10.5 125.5t-29.5 107.5t-44.5 93.5t-56.5 82.5h45q26 -32 51.5 -72.5t45.5 -90.5t32.5 -111.5t12.5 -135.5t-12.5 -135t-32.5 -111t-45.5 -90.5t-51.5 -73.5h-45z" />
    <glyph glyph-name="asterisk" unicode="*" horiz-adv-x="391" 
d="M303 661l-88 -123v-2l146 12v-47l-145 13v-3l88 -118l-46 -26l-63 131h-2l-69 -132l-39 26l88 120v3l-143 -14v47l141 -11v2l-86 120l44 25l66 -130h2l63 131z" />
    <glyph glyph-name="plus" unicode="+" horiz-adv-x="596" 
d="M320 532v-245h236v-40h-236v-247h-43v247h-237v40h237v245h43z" />
    <glyph glyph-name="comma" unicode="," horiz-adv-x="174" 
d="M26 -126q6 16 13.5 42t15 56t14 60.5t9.5 53.5l63 10q-7 -28 -17.5 -61.5t-22 -64.5t-21.5 -56t-16 -35z" />
    <glyph glyph-name="hyphen" unicode="-" horiz-adv-x="298" 
d="M268 296v-42h-238v42h238z" />
    <glyph glyph-name="period" unicode="." horiz-adv-x="174" 
d="M94 -11q-18 0 -29.5 13.5t-10.5 31.5q0 20 11.5 32.5t29.5 12.5t29 -12.5t11 -32.5q0 -18 -11 -31.5t-30 -13.5z" />
    <glyph glyph-name="slash" unicode="/" horiz-adv-x="351" 
d="M-11 -40l318 725h49l-321 -725h-46z" />
    <glyph glyph-name="zero" unicode="0" 
d="M251 661q43 0 79.5 -19.5t63 -59.5t41.5 -102t15 -146q0 -87 -15 -152t-43 -108t-67.5 -64t-88.5 -21q-38 0 -73 19t-62.5 59.5t-44.5 103.5t-18 151q0 89 18 153t47.5 105.5t68 61t79.5 19.5zM244 622q-33 0 -62 -20t-50 -58.5t-33 -94.5t-12 -128q0 -68 11 -122
t31.5 -92t49.5 -58t64 -20q40 0 70 22t49 61.5t28.5 95t9.5 121.5q0 64 -9 117.5t-28 92.5t-48.5 61t-70.5 22z" />
    <glyph glyph-name="one" unicode="1" 
d="M236 602h-2l-106 -63l-12 38l123 73h44v-650h-47v602z" />
    <glyph glyph-name="two" unicode="2" 
d="M46 0v30l60 62q68 66 117 118t81 96.5t47 84t15 81.5q0 28 -6.5 54.5t-22.5 47t-43.5 33t-68.5 12.5q-47 0 -82 -19t-56 -37l-19 33q32 29 73.5 47t92.5 18t85.5 -17t55.5 -43.5t30.5 -58t9.5 -60.5q0 -48 -17 -92.5t-50 -91t-80.5 -97.5t-108.5 -111l-46 -47v-2h320v-41
h-387z" />
    <glyph glyph-name="three" unicode="3" 
d="M64 71q18 -12 56 -26.5t84 -14.5q50 0 82 15.5t50.5 38t25.5 48.5t7 48q-1 40 -17.5 69t-43 48t-60.5 27.5t-70 8.5h-42v39h43q27 0 56 8t53 24t39.5 41t15.5 59q0 22 -7 43t-22 37.5t-39 26t-58 9.5q-38 0 -71 -14t-55 -31l-19 35q23 19 64 35t87 16t78 -13t52 -34.5
t29.5 -48.5t9.5 -55q0 -50 -30.5 -91t-90.5 -63v-2q30 -6 57 -20.5t47 -36.5t31.5 -51t11.5 -64q0 -36 -13 -71t-40 -62t-68.5 -43.5t-98.5 -16.5q-50 0 -91 14t-62 30z" />
    <glyph glyph-name="four" unicode="4" 
d="M320 0v191h-310v32l317 427h39v-419h100v-40h-100v-191h-46zM320 231v263q0 46 3 90l-3 1q-15 -28 -27 -46.5t-23 -35.5l-203 -270v-2h253z" />
    <glyph glyph-name="five" unicode="5" 
d="M406 608h-244l-32 -209q11 2 24 3.5t35 1.5q66 0 121 -28q19 -9 37 -24.5t32.5 -37t23 -48.5t8.5 -59q0 -49 -17 -89t-47 -68.5t-69.5 -44.5t-84.5 -16q-51 0 -90.5 13t-60.5 29l19 38q19 -13 54.5 -26t80.5 -13q35 0 66 12.5t53.5 35t35.5 53t13 67.5q0 35 -11.5 65.5
t-34.5 52.5t-58.5 34.5t-84.5 12.5q-29 0 -52 -2.5t-40 -4.5l42 294h281v-42z" />
    <glyph glyph-name="six" unicode="6" 
d="M391 617q-14 0 -32.5 -1t-38.5 -5q-53 -11 -94 -37.5t-70.5 -64t-47 -83t-21.5 -93.5h2q23 36 65.5 63.5t102.5 27.5q45 0 81 -15.5t61 -43.5t38.5 -66.5t13.5 -83.5q0 -42 -13 -83t-39 -72.5t-64 -51t-87 -19.5q-44 0 -82.5 17.5t-67 52t-45 85.5t-16.5 118
q0 99 30.5 173t75.5 122q35 37 82 61.5t100 35.5q19 4 35.5 5.5t29.5 1.5zM251 29q33 0 61 13t48 37t31 57.5t11 74.5q0 43 -12 75t-33 53.5t-49.5 32.5t-62.5 11q-46 0 -86.5 -25.5t-62.5 -68.5q-5 -8 -8 -17.5t-3 -20.5q0 -49 11 -90t32 -70t52 -45.5t71 -16.5z" />
    <glyph glyph-name="seven" unicode="7" 
d="M442 650v-35l-293 -615h-47l290 608v2h-330v40h380z" />
    <glyph glyph-name="eight" unicode="8" 
d="M243 -11q-44 0 -81 13t-64 36.5t-42 55t-15 68.5q0 63 36 108.5t100 72.5l-1 4q-59 26 -84.5 65.5t-25.5 81.5q0 37 14.5 67.5t39.5 52.5t59 34.5t73 12.5q41 0 73 -12.5t54 -34t33.5 -49.5t11.5 -59q0 -21 -5.5 -42.5t-18.5 -42t-35 -39t-55 -33.5v-4q69 -27 103 -71
t34 -101q0 -41 -16.5 -75t-44.5 -58t-65 -37.5t-78 -13.5zM243 29q36 0 64.5 10t49 28.5t31.5 43.5t11 55q0 34 -11.5 60t-33 45t-53 33t-70.5 25q-69 -20 -105 -61.5t-36 -95.5q-2 -29 8 -55t30 -45.5t49 -31t66 -11.5zM247 622q-32 0 -57 -10t-42 -26.5t-26 -38.5t-9 -46
q0 -59 39 -90.5t105 -48.5q51 18 85 52t34 88q0 22 -7 43.5t-22.5 38.5t-40 27.5t-59.5 10.5z" />
    <glyph glyph-name="nine" unicode="9" 
d="M101 33q26 -3 73 5q40 7 76 25.5t66 50.5q32 35 55 85t32 121l-2 -1q-31 -40 -73.5 -62t-94.5 -22q-45 0 -80 16.5t-58.5 44t-35.5 63.5t-12 74q0 45 15 86t42 72.5t65.5 50.5t86.5 19q42 0 77.5 -17.5t61.5 -52t41 -85t15 -116.5q0 -110 -33 -186.5t-78 -121.5
q-32 -33 -73 -54.5t-79 -29.5q-53 -11 -87 -9v44zM247 621q-34 0 -62 -14t-48 -39t-31 -59t-11 -74q0 -36 10.5 -65.5t30 -50t46.5 -32t59 -11.5q52 0 92.5 24t62.5 61q3 5 5.5 12t2.5 16q0 51 -9.5 94t-29 73.5t-49 47.5t-69.5 17z" />
    <glyph glyph-name="colon" unicode=":" horiz-adv-x="174" 
d="M94 361q-18 0 -29.5 13t-10.5 31q0 20 11.5 33t29.5 13t29 -13t11 -33q0 -18 -11 -31t-30 -13zM94 -11q-18 0 -29.5 13.5t-10.5 31.5q0 20 11.5 32.5t29.5 12.5t29 -12.5t11 -32.5q0 -18 -11 -31.5t-30 -13.5z" />
    <glyph glyph-name="semicolon" unicode=";" horiz-adv-x="174" 
d="M26 -126q6 16 13.5 42t15 56t14 60.5t9.5 53.5l63 10q-7 -28 -17.5 -61.5t-22 -64.5t-21.5 -56t-16 -35zM103 361q-18 0 -29.5 13t-10.5 31q0 20 11.5 33t29.5 13t29 -13t11 -33q0 -18 -11 -31t-30 -13z" />
    <glyph glyph-name="less" unicode="&#x3c;" horiz-adv-x="596" 
d="M71 284l454 248v-46l-408 -219v-2l408 -218v-47l-454 249v35z" />
    <glyph glyph-name="equal" unicode="=" horiz-adv-x="596" 
d="M40 345v40h516v-40h-516zM40 155v40h516v-40h-516z" />
    <glyph glyph-name="greater" unicode="&#x3e;" horiz-adv-x="596" 
d="M525 249l-454 -249v47l408 218v2l-408 219v46l454 -248v-35z" />
    <glyph glyph-name="question" unicode="?" horiz-adv-x="381" 
d="M144 174l-4 26q-6 42 9.5 88.5t54.5 94.5q40 47 58.5 82.5t18.5 74.5q0 46 -27.5 74t-81.5 28q-28 0 -55.5 -8t-46.5 -23l-18 34q25 20 61 30t68 10q39 0 67.5 -12t47.5 -32t28 -45.5t9 -52.5q0 -47 -23 -87t-64 -89q-37 -45 -50.5 -83t-9.5 -79l2 -31h-44zM164 -11
q-18 0 -29.5 13.5t-10.5 31.5q0 20 11.5 32.5t29.5 12.5q19 0 29.5 -12.5t10.5 -32.5q0 -18 -10.5 -31.5t-30.5 -13.5z" />
    <glyph glyph-name="at" unicode="@" horiz-adv-x="717" 
d="M477 382q-9 3 -24 6.5t-38 3.5q-38 0 -72 -16.5t-59 -44.5t-39.5 -65.5t-14.5 -78.5q0 -36 19.5 -60t57.5 -24q26 0 50 15t43.5 38.5t33 50.5t18.5 51zM510 -62q-39 -22 -82.5 -32t-91.5 -10q-62 0 -116 21.5t-94.5 62t-64 98t-23.5 129.5q0 77 25 147t72 123t113.5 84
t149.5 31q65 0 117.5 -22t89 -60.5t56.5 -91t20 -114.5q0 -57 -14.5 -101.5t-38.5 -75t-54.5 -46t-62.5 -15.5q-13 0 -26 5.5t-23 16.5t-15.5 29t-2.5 43h-4q-29 -48 -65 -71t-84 -23q-20 0 -39 8.5t-33.5 24t-23.5 38t-9 51.5q0 47 18 90.5t50 77t75.5 53.5t94.5 20
q32 0 56 -5.5t44 -13.5l-36 -179q-14 -66 -4.5 -96.5t37.5 -30.5q21 -1 41.5 12.5t37 38.5t26.5 60.5t10 79.5q0 58 -16.5 105.5t-47.5 82t-77 53.5t-104 19q-63 0 -119 -24.5t-98 -69.5t-66.5 -108.5t-24.5 -142.5q0 -62 19.5 -113t54 -87t82 -55.5t102.5 -19.5
q93 0 155 38z" />
    <glyph glyph-name="A" unicode="A" horiz-adv-x="585" 
d="M162 236l-83 -236h-49l244 674h46l243 -674h-49l-85 236h-267zM414 276l-82 225q-12 35 -19.5 62.5t-15.5 56.5h-2q-8 -29 -16 -57t-19 -60l-83 -227h237z" />
    <glyph glyph-name="B" unicode="B" horiz-adv-x="505" 
d="M82 665q58 14 135 14q63 0 105.5 -13.5t71.5 -41.5q41 -43 41 -111q0 -52 -32.5 -92.5t-83.5 -58.5v-2q21 -5 46 -17t46 -32.5t35.5 -51t14.5 -71.5q0 -42 -13.5 -73.5t-36.5 -55.5q-33 -35 -86.5 -49.5t-125.5 -14.5q-39 0 -68 2t-49 4v664zM129 378h99q36 0 65.5 10
t50 28t31.5 42t11 52q0 36 -12.5 60.5t-35.5 39.5t-54.5 22t-68.5 7q-34 0 -54.5 -2t-31.5 -5v-254zM129 40q15 -3 36 -4t47 -1q39 0 75 7.5t63.5 25.5t44.5 47t17 72q0 40 -16 68.5t-43 47t-63 27.5t-76 9h-85v-299z" />
    <glyph glyph-name="C" unicode="C" horiz-adv-x="570" 
d="M538 24q-26 -14 -72.5 -24t-108.5 -10q-61 0 -118.5 20t-102 62t-71.5 106.5t-27 154.5q0 75 23.5 139.5t67.5 111.5t107 74t143 27q65 0 103 -11t54 -19l-16 -40q-26 13 -61.5 21t-78.5 8q-68 0 -122.5 -21.5t-92.5 -62t-58 -98t-20 -130.5q0 -69 19 -124.5t56 -94.5
t89.5 -60.5t120.5 -21.5q44 0 83.5 8.5t68.5 22.5z" />
    <glyph glyph-name="D" unicode="D" horiz-adv-x="647" 
d="M82 665q38 6 81 10t91 4q93 0 161.5 -23.5t110.5 -68.5q41 -42 62.5 -99t21.5 -134q0 -75 -21 -140t-67 -116q-45 -49 -119 -76t-172 -27q-39 0 -76 1t-73 5v664zM129 40q21 -3 49 -4t60 -1q81 0 141.5 22t101 63t60.5 99.5t20 131.5q0 64 -18 117t-56 91t-96.5 59
t-139.5 21q-39 0 -69.5 -3t-52.5 -7v-589z" />
    <glyph glyph-name="E" unicode="E" horiz-adv-x="466" 
d="M399 335h-270v-295h302v-40h-349v674h333v-40h-286v-259h270v-40z" />
    <glyph glyph-name="F" unicode="F" horiz-adv-x="462" 
d="M82 674h333v-40h-286v-268h262v-40h-262v-326h-47v674z" />
    <glyph glyph-name="G" unicode="G" horiz-adv-x="624" 
d="M565 30q-26 -11 -76.5 -24t-119.5 -13q-67 0 -127.5 19.5t-111.5 69.5q-42 41 -67 106t-25 147q0 70 22.5 133t67 110t110 75t151.5 28q55 0 96 -10.5t61 -19.5l-15 -40q-26 13 -61 21t-83 8q-70 0 -125.5 -21.5t-94.5 -61.5t-59.5 -95.5t-20.5 -124.5q0 -71 20.5 -127.5
t58 -95.5t91 -59.5t120.5 -20.5q53 0 87.5 6.5t53.5 16.5v238h-157v39h204v-304z" />
    <glyph glyph-name="H" unicode="H" horiz-adv-x="630" 
d="M129 674v-296h372v296h47v-674h-47v337h-372v-337h-47v674h47z" />
    <glyph glyph-name="I" unicode="I" horiz-adv-x="211" 
d="M129 674v-674h-47v674h47z" />
    <glyph glyph-name="J" unicode="J" horiz-adv-x="345" 
d="M223 674h48v-465q0 -65 -15 -107t-40 -67.5t-58 -35.5t-69 -10q-23 0 -46 5t-36 11l10 39q13 -5 31 -9.5t41 -4.5q32 0 57 8.5t42 30t26 58t9 92.5v455z" />
    <glyph glyph-name="K" unicode="K" horiz-adv-x="498" 
d="M82 674h47v-341h4q14 20 28.5 37t28.5 33l239 271h59l-257 -286l281 -388h-58l-256 355l-69 -76v-279h-47v674z" />
    <glyph glyph-name="L" unicode="L" horiz-adv-x="448" 
d="M82 674h47v-634h301v-40h-348v674z" />
    <glyph glyph-name="M" unicode="M" horiz-adv-x="778" 
d="M650 320q-3 38 -5.5 79t-4.5 80.5t-3 75.5t-1 63h-3q-18 -55 -39.5 -115.5t-50.5 -135.5l-142 -367h-33l-133 358q-29 79 -50.5 141.5t-36.5 118.5h-3q-1 -60 -4.5 -141.5t-9.5 -166.5l-21 -310h-47l49 674h55l145 -388q23 -65 41.5 -117.5t32.5 -101.5h2q14 47 32 98.5
t44 119.5l150 389h57l46 -674h-47z" />
    <glyph glyph-name="N" unicode="N" horiz-adv-x="638" 
d="M82 0v674h45l263 -398q41 -63 71 -113t55 -99l2 1q-3 34 -4.5 66t-2 65t-1 68t-0.5 75v335h47v-674h-45l-257 392q-38 59 -71.5 112.5t-59.5 105.5l-2 -1q2 -31 3 -61t2 -62t1 -67.5v-77.5v-341h-46z" />
    <glyph glyph-name="O" unicode="O" horiz-adv-x="671" 
d="M340 685q64 0 117.5 -24t92.5 -68t61 -107.5t22 -141.5q0 -89 -25 -156t-67 -111t-96.5 -66t-112.5 -22q-62 0 -116 23.5t-93.5 68t-62 107.5t-22.5 142q0 83 23.5 149t64 111.5t96 70t118.5 24.5zM337 645q-64 0 -111 -27t-78 -71t-46 -100t-15 -115q0 -57 16 -111.5
t47.5 -97t78 -68.5t106.5 -26t106.5 25.5t78 68t48 99t16.5 119.5q0 53 -15 107.5t-45.5 98t-77 71t-109.5 27.5z" />
    <glyph glyph-name="P" unicode="P" horiz-adv-x="502" 
d="M82 666q29 6 65 9.5t79 3.5q121 0 178 -57q24 -23 38 -56t14 -76q0 -44 -12 -76.5t-35 -57.5q-32 -38 -84 -57t-114 -19q-23 0 -43.5 1.5t-38.5 6.5v-288h-47v666zM129 330q34 -10 86 -10q91 0 142 42.5t51 123.5q0 40 -13.5 68.5t-38 47.5t-58.5 28t-74 9
q-33 0 -57 -2.5t-38 -5.5v-301z" />
    <glyph glyph-name="Q" unicode="Q" horiz-adv-x="671" 
d="M625 -88q-66 16 -132.5 34t-119.5 34q-11 3 -20 6t-18 3q-62 1 -116 24.5t-94.5 66.5t-63.5 106t-23 144q0 84 23.5 150t64.5 111.5t96 69.5t119 24q63 0 116.5 -24t92.5 -68.5t61 -107.5t22 -141q0 -70 -15.5 -126t-43.5 -98t-67 -70.5t-86 -43.5v-3q57 -14 115.5 -26.5
t103.5 -20.5zM333 29q60 0 107 25.5t79 68t48.5 99t16.5 119.5q0 53 -15 107.5t-45 98t-76 71t-109 27.5q-65 0 -112.5 -27t-78.5 -71.5t-46 -101t-15 -115.5q0 -57 16.5 -111t48 -96.5t77 -68t104.5 -25.5z" />
    <glyph glyph-name="R" unicode="R" horiz-adv-x="505" 
d="M82 665q31 7 70.5 10.5t74.5 3.5q66 0 109.5 -14t72.5 -42q22 -21 34.5 -53t12.5 -67q0 -69 -36.5 -112.5t-95.5 -63.5v-2q41 -13 66.5 -49.5t37.5 -93.5q17 -79 28 -120.5t22 -61.5h-50q-8 15 -18.5 57.5t-24.5 106.5q-15 73 -49.5 107.5t-101.5 37.5h-105v-309h-47v665
zM129 348h107q78 0 125 40t47 107q0 39 -13.5 66.5t-37.5 45t-57.5 25.5t-73.5 8q-35 0 -59.5 -3t-37.5 -6v-283z" />
    <glyph glyph-name="S" unicode="S" horiz-adv-x="464" 
d="M60 75q29 -20 67 -32.5t81 -12.5q75 0 118.5 38.5t43.5 101.5q0 28 -7.5 51t-24 42t-42.5 35t-62 30q-82 29 -128 73t-46 113q0 37 14.5 68.5t40.5 54t62 35.5t79 13q48 0 82.5 -10.5t51.5 -21.5l-18 -40q-14 10 -44.5 21t-74.5 11q-41 0 -69 -12t-45 -30t-24.5 -39.5
t-7.5 -41.5q0 -56 33.5 -89.5t106.5 -61.5q42 -17 73.5 -35.5t53 -41.5t32.5 -52t11 -67q0 -37 -13 -70.5t-40 -59t-67 -40.5t-94 -15q-22 0 -45 3.5t-44.5 9.5t-40 14t-31.5 18z" />
    <glyph glyph-name="T" unicode="T" horiz-adv-x="465" 
d="M209 634h-219v40h487v-40h-220v-634h-48v634z" />
    <glyph glyph-name="U" unicode="U" horiz-adv-x="626" 
d="M129 674v-407q0 -64 14 -109t38.5 -73.5t57 -41.5t70.5 -13q42 0 76.5 14t59 43t38.5 73.5t14 106.5v407h48v-402q0 -78 -19.5 -131.5t-52.5 -87.5t-76 -49t-91 -15q-44 0 -84.5 14t-71.5 46t-49.5 85t-18.5 130v410h47z" />
    <glyph glyph-name="V" unicode="V" horiz-adv-x="509" 
d="M224 0l-224 674h50l119 -361q25 -74 45 -137.5t34 -120.5h3q15 57 37.5 121.5t48.5 136.5l131 361h51l-250 -674h-45z" />
    <glyph glyph-name="W" unicode="W" horiz-adv-x="820" 
d="M192 0l-177 674h48l98 -380q17 -66 31.5 -124.5t24.5 -106.5h3q8 48 24.5 106.5t36.5 124.5l111 380h46l100 -377q16 -62 31 -122.5t23 -111.5h3q11 55 26.5 111t34.5 121l111 379h49l-202 -674h-46l-102 388q-20 75 -32 128t-20 101h-2q-8 -48 -22.5 -100.5
t-37.5 -127.5l-114 -389h-46z" />
    <glyph glyph-name="X" unicode="X" horiz-adv-x="546" 
d="M460 0l-102 166q-32 47 -52 79t-36 61h-3q-16 -29 -35 -60.5t-50 -80.5l-96 -165h-56l214 342l-205 332h55l108 -180q21 -34 37.5 -61t32.5 -54h2q16 29 32.5 55t38.5 60l113 180h56l-216 -328l217 -346h-55z" />
    <glyph glyph-name="Y" unicode="Y" horiz-adv-x="503" 
d="M230 0v292l-215 382h54l111 -201q21 -40 40 -74t36 -71h2q16 35 35.5 70.5t42.5 75.5l115 200h54l-228 -383v-291h-47z" />
    <glyph glyph-name="Z" unicode="Z" horiz-adv-x="539" 
d="M34 32l406 599v3h-373v40h434v-32l-407 -599v-3h412v-40h-472v32z" />
    <glyph glyph-name="bracketleft" unicode="[" horiz-adv-x="265" 
d="M90 -112v797h170v-37h-127v-723h127v-37h-170z" />
    <glyph glyph-name="backslash" unicode="\" horiz-adv-x="348" 
d="M312 -40l-316 725h47l316 -725h-47z" />
    <glyph glyph-name="bracketright" unicode="]" horiz-adv-x="265" 
d="M176 686v-798h-171v37h127v724h-127v37h171z" />
    <glyph glyph-name="asciicircum" unicode="^" horiz-adv-x="596" 
d="M479 196l-180 408h-2l-179 -408h-46l204 454h44l205 -454h-46z" />
    <glyph glyph-name="underscore" unicode="_" horiz-adv-x="500" 
d="M500 -75v-50h-500v50h500z" />
    <glyph glyph-name="grave" unicode="`" horiz-adv-x="300" 
d="M103 688l89 -138h-37l-122 138h70z" />
    <glyph glyph-name="a" unicode="a" horiz-adv-x="454" 
d="M343 0l-7 69h-3q-9 -14 -23 -28t-33.5 -25.5t-43.5 -19t-53 -7.5q-36 0 -62.5 11.5t-44 30.5t-26 42.5t-8.5 47.5q0 83 73.5 130t219.5 46v12q0 18 -3 42.5t-15.5 47t-37 37.5t-67.5 15q-32 0 -63 -8.5t-57 -27.5l-15 35q32 22 70 31.5t70 9.5q52 0 84.5 -17.5t50.5 -45
t24 -61.5t6 -66v-187q0 -29 1.5 -57.5t5.5 -56.5h-43zM332 257q-39 1 -82 -2.5t-79 -17t-59 -39.5t-23 -69q0 -26 8 -45t21.5 -31t30.5 -18t36 -6q30 0 53.5 8.5t41 22t29.5 30.5t18 35q5 17 5 29v103z" />
    <glyph glyph-name="b" unicode="b" horiz-adv-x="552" 
d="M77 0q2 26 3 55.5t1 56.5v598h47v-319h2q24 47 68 73.5t108 26.5q45 0 83 -18t65 -50.5t42 -78t15 -99.5q0 -64 -18.5 -112t-49 -80t-69 -48t-77.5 -16q-116 0 -172 98h-2l-3 -87h-43zM128 185q0 -8 1 -17t3 -18q16 -55 58.5 -88t99.5 -33q41 0 73.5 16t54.5 44.5
t33.5 68t11.5 86.5q0 41 -11 79t-32.5 66.5t-53 45.5t-72.5 17q-26 0 -51 -9t-46.5 -25.5t-37.5 -40.5t-25 -54q-2 -9 -4 -19t-2 -23v-96z" />
    <glyph glyph-name="c" unicode="c" horiz-adv-x="446" 
d="M412 21q-16 -8 -52 -19.5t-88 -11.5t-94.5 18t-73 50t-47 77.5t-16.5 99.5q0 57 18.5 104t51.5 81t78.5 52.5t99.5 18.5q45 0 78.5 -10t47.5 -20l-17 -39q-18 10 -46 19t-68 9q-48 0 -84.5 -17t-61 -46.5t-37 -68t-12.5 -80.5q0 -47 14 -85t39.5 -65t60 -42t76.5 -15
q43 0 71.5 9.5t48.5 17.5z" />
    <glyph glyph-name="d" unicode="d" horiz-adv-x="544" 
d="M463 710v-598q0 -27 1 -56.5t3 -55.5h-43l-3 91h-2q-9 -20 -24.5 -38.5t-37 -32.5t-49 -22.5t-60.5 -8.5q-44 0 -82 17.5t-66 49.5t-43.5 76.5t-15.5 98.5q0 60 17 108t46.5 82t69 52t83.5 18q31 0 56.5 -7.5t45 -19.5t33.5 -27t22 -30h2v303h47zM416 290q0 22 -5 44
q-6 24 -19.5 45.5t-33 37.5t-44.5 25.5t-54 9.5q-39 0 -71 -16t-54 -45t-34 -68.5t-12 -86.5q0 -41 10 -78t31 -66t52.5 -46t74.5 -17q52 0 95 32.5t59 92.5q2 10 3.5 19.5t1.5 20.5v96z" />
    <glyph glyph-name="e" unicode="e" horiz-adv-x="485" 
d="M88 245q0 -58 14.5 -98.5t39.5 -66t58.5 -37.5t70.5 -12q53 0 83 8.5t50 18.5l12 -38q-14 -8 -51 -19t-100 -11q-52 0 -93.5 18t-70.5 50t-44.5 76t-15.5 97q0 60 16.5 108t45 82t68 52t86.5 18q59 0 95.5 -24t57 -58.5t27.5 -71.5t7 -63v-16.5t-2 -12.5h-354zM394 283
q0 25 -6 54.5t-22 55t-44 42.5t-71 17q-40 0 -68.5 -16t-48 -41t-30 -54.5t-13.5 -57.5h303z" />
    <glyph glyph-name="f" unicode="f" horiz-adv-x="262" 
d="M84 0v442h-69v38h69v26q0 56 12 100t41 73q22 22 50 32t56 10q23 0 42 -5t30 -11l-15 -38q-10 5 -24.5 9.5t-36.5 4.5q-33 0 -54 -14.5t-33 -38.5t-16.5 -55.5t-4.5 -65.5v-27h129v-38h-129v-442h-47z" />
    <glyph glyph-name="g" unicode="g" horiz-adv-x="544" 
d="M467 480q-2 -27 -3 -56.5t-1 -67.5v-286q0 -92 -17.5 -143t-47.5 -79q-33 -32 -77.5 -44.5t-85.5 -12.5q-42 0 -83.5 10.5t-68.5 30.5l17 39q25 -17 60 -28.5t82 -11.5q38 0 70 10.5t55 33.5t36 60t13 90v68h-2q-19 -37 -60.5 -65t-106.5 -28q-45 0 -83 18.5t-65.5 50.5
t-42.5 75t-15 92q0 63 19 110.5t49.5 79.5t69 48.5t78.5 16.5q36 0 63 -9t46.5 -22.5t32 -29.5t20.5 -31h2l2 81h44zM416 296q0 25 -6 46q-8 22 -21 42t-32 35t-43 24t-53 9q-38 0 -70 -15t-54.5 -43t-35 -66.5t-12.5 -86.5q0 -41 10.5 -77t32 -64t53.5 -44t74 -16
q48 0 89 28t59 80q9 24 9 51v97z" />
    <glyph glyph-name="h" unicode="h" horiz-adv-x="536" 
d="M81 710h47v-316h2q11 20 27.5 38.5t38.5 31.5q20 13 44.5 20t52.5 7q17 0 45 -6.5t55 -27.5t46.5 -60.5t19.5 -106.5v-290h-47v284q0 33 -7 63t-22.5 53t-40.5 36.5t-62 13.5q-26 0 -49 -8.5t-41.5 -23.5t-33 -35t-21.5 -42q-7 -20 -7 -47v-294h-47v710z" />
    <glyph glyph-name="i" unicode="i" horiz-adv-x="209" 
d="M81 0v480h47v-480h-47zM105 659q17 0 27.5 -12.5t10.5 -29.5t-10.5 -29t-29.5 -12q-17 0 -27 12t-10 29t11 29.5t28 12.5z" />
    <glyph glyph-name="j" unicode="j" horiz-adv-x="214" 
d="M-49 -170q32 2 57.5 11.5t42.5 28.5q9 11 16 25t11.5 36t6.5 54t2 80v415h47v-447q0 -65 -9.5 -110.5t-41.5 -79.5q-13 -14 -29.5 -24t-34 -16t-34 -9t-28.5 -3zM112 659q17 0 27 -12.5t10 -29.5q0 -16 -10 -28.5t-30 -12.5q-17 0 -27 12.5t-10 28.5q0 17 11.5 29.5
t28.5 12.5z" />
    <glyph glyph-name="k" unicode="k" horiz-adv-x="423" 
d="M128 249h2q9 11 22.5 26t24.5 27l169 178h58l-194 -199l221 -281h-58l-196 252l-49 -52v-200h-47v710h47v-461z" />
    <glyph glyph-name="l" unicode="l" horiz-adv-x="212" 
d="M81 710h47v-710h-47v710z" />
    <glyph glyph-name="m" unicode="m" horiz-adv-x="819" 
d="M81 365q0 33 -1 59.5t-3 55.5h44l4 -85h2q22 41 59 68.5t96 27.5q51 0 87 -29.5t51 -75.5h2q11 22 23 38t26 27q23 20 50 30t65 10q18 0 44.5 -7t51 -29t42.5 -63t18 -109v-283h-47v278q0 81 -31 126.5t-94 45.5q-45 0 -78.5 -28.5t-47.5 -66.5q-4 -11 -6.5 -22.5
t-2.5 -24.5v-308h-47v300q0 66 -30.5 108t-88.5 42q-24 0 -45.5 -9t-38.5 -24t-29.5 -34.5t-19.5 -40.5q-8 -21 -8 -46v-296h-47v365z" />
    <glyph glyph-name="n" unicode="n" horiz-adv-x="536" 
d="M81 365q0 33 -1 59.5t-3 55.5h44l4 -87h2q20 41 62.5 69.5t102.5 28.5q17 0 45.5 -6.5t55.5 -27.5t46.5 -61.5t19.5 -107.5v-288h-47v284q0 33 -7 63t-22.5 53t-41 36.5t-62.5 13.5q-26 0 -49 -8.5t-41.5 -23.5t-32.5 -35t-21 -43q-3 -9 -5 -20.5t-2 -22.5v-297h-47v365z
" />
    <glyph glyph-name="o" unicode="o" horiz-adv-x="532" 
d="M268 491q50 0 91 -18t70.5 -50t45.5 -77.5t16 -100.5q0 -68 -21 -116t-54 -79.5t-74 -46t-81 -14.5q-47 0 -87 17.5t-69.5 49.5t-46.5 78t-17 102q0 62 18.5 109.5t50 80t72.5 49t86 16.5zM267 452q-46 0 -79.5 -19t-55.5 -49t-32.5 -68t-10.5 -77q0 -45 13.5 -83.5
t37 -66.5t55.5 -44t69 -16t70 16t57 44.5t38 67.5t14 85q0 33 -10 70t-31 68t-54.5 51.5t-80.5 20.5z" />
    <glyph glyph-name="p" unicode="p" horiz-adv-x="552" 
d="M81 327q0 45 -1 82t-3 71h45l4 -91h2q26 48 70 75t107 27q46 0 84 -18t65 -50.5t42 -77t15 -97.5q0 -65 -18 -113.5t-48 -80.5t-69.5 -48.5t-82.5 -16.5q-52 0 -95 22.5t-68 66.5h-2v-276h-47v525zM128 189q0 -10 1 -19.5t3 -18.5q15 -56 58.5 -89t99.5 -33q41 0 73.5 16
t54.5 44.5t33.5 68.5t11.5 88q0 40 -11 77.5t-32.5 66t-53 45.5t-72.5 17q-53 0 -98 -34t-61 -94q-2 -10 -4.5 -20.5t-2.5 -20.5v-94z" />
    <glyph glyph-name="q" unicode="q" horiz-adv-x="542" 
d="M416 83h-3q-17 -37 -59 -65.5t-106 -28.5q-44 0 -82 18t-66 50t-43.5 76.5t-15.5 97.5q0 70 20.5 119t52.5 80.5t71 46t77 14.5q63 0 101.5 -28.5t55.5 -64.5h2l2 82h44q-2 -27 -3 -56.5t-1 -67.5v-554h-47v281zM416 291q0 21 -5 44q-6 24 -19.5 45t-32.5 37t-44 25.5
t-54 9.5q-39 0 -71 -16t-54.5 -44.5t-34.5 -68t-12 -86.5q0 -40 9.5 -77.5t30 -66.5t52.5 -46.5t76 -17.5q49 0 89.5 28.5t60.5 83.5q4 11 6.5 23.5t2.5 23.5v103z" />
    <glyph glyph-name="r" unicode="r" horiz-adv-x="295" 
d="M81 336q0 36 -1 72.5t-3 71.5h44l2 -97h2q16 45 51.5 76.5t85.5 31.5q5 0 9.5 -0.5t9.5 -1.5v-46q-5 2 -10.5 2h-12.5q-50 0 -83 -38t-43 -96q-2 -11 -3 -22.5t-1 -23.5v-265h-47v336z" />
    <glyph glyph-name="s" unicode="s" horiz-adv-x="373" 
d="M61 63q20 -12 48 -22.5t60 -10.5q57 0 84.5 26.5t27.5 64.5q0 40 -24.5 64t-76.5 45q-60 23 -91 55t-31 76q0 26 10 49.5t29 41.5t46.5 28.5t62.5 10.5q33 0 60 -8.5t46 -21.5l-19 -39q-12 9 -35.5 19t-59.5 10q-46 0 -69.5 -25t-23.5 -58q0 -19 6.5 -33t19 -25t31 -21
t42.5 -20q59 -23 91.5 -55t32.5 -87q0 -62 -44 -99.5t-118 -37.5q-35 0 -66.5 9t-55.5 24z" />
    <glyph glyph-name="t" unicode="t" horiz-adv-x="309" 
d="M147 619v-139h137v-38h-137v-312q0 -46 16 -73t54 -27q19 0 32.5 2.5t22.5 5.5l6 -37q-12 -5 -28.5 -8t-38.5 -3q-55 0 -82 34q-17 19 -23.5 48t-6.5 66v304h-81v38h81v124z" />
    <glyph glyph-name="u" unicode="u" horiz-adv-x="531" 
d="M450 117q0 -32 1 -60.5t3 -56.5h-44l-3 85h-2q-9 -17 -24 -34t-35.5 -30.5t-47 -22.5t-58.5 -9q-23 0 -51.5 7.5t-53 30t-41.5 64.5t-17 110v279h47v-270q0 -39 6.5 -72t21.5 -56.5t39.5 -37t60.5 -13.5q26 0 48.5 8.5t40.5 22t31 31t21 35.5q4 11 7 25t3 28v299h47v-363
z" />
    <glyph glyph-name="v" unicode="v" horiz-adv-x="452" 
d="M66 480l112 -298q28 -68 47 -128h2q11 30 23 61.5t26 66.5l114 298h50l-195 -480h-42l-188 480h51z" />
    <glyph glyph-name="w" unicode="w" horiz-adv-x="722" 
d="M72 480l80 -273q13 -42 23 -78.5t18 -71.5h3q9 33 21 70.5t27 79.5l96 273h45l92 -271q14 -44 25.5 -81t21.5 -71h2q8 34 18.5 70.5t24.5 80.5l86 272h49l-160 -480h-42l-90 267q-16 44 -28 83.5t-22 80.5h-2q-11 -43 -24 -83t-28 -82l-96 -266h-42l-147 480h49z" />
    <glyph glyph-name="x" unicode="x" horiz-adv-x="429" 
d="M75 480l82 -117q16 -21 28.5 -40.5t26.5 -41.5h2q14 22 28 42l28 40l82 117h53l-167 -234l173 -246h-54l-86 122q-16 23 -30.5 45t-29.5 45h-2q-14 -23 -28.5 -44.5t-31.5 -45.5l-84 -122h-54l176 245l-166 235h54z" />
    <glyph glyph-name="y" unicode="y" horiz-adv-x="440" 
d="M62 480l126 -314q10 -26 19 -53t16 -50h2q8 23 17 50t20 56l117 311h51l-144 -358q-22 -56 -41 -101t-38 -81t-39 -63t-44 -48q-29 -24 -52 -35.5t-32 -14.5l-15 40q18 7 40.5 20t43.5 34q18 17 40 47t40 73q6 16 6 21q0 6 -6 21l-178 445h51z" />
    <glyph glyph-name="z" unicode="z" horiz-adv-x="403" 
d="M16 29l258 341q14 17 27.5 34t27.5 35v2h-292v39h350l-1 -32l-258 -340q-13 -17 -25.5 -33.5t-25.5 -33.5v-2h311v-39h-372v29z" />
    <glyph glyph-name="braceleft" unicode="{" horiz-adv-x="265" 
d="M27 305q27 0 43.5 6.5t25.5 17.5t12 25t3 29q0 23 -3 44t-6 43q-4 22 -7 43t-3 43q0 34 11 58.5t29.5 40t44.5 23t56 7.5h12v-37h-18q-51 0 -71 -24.5t-20 -71.5q0 -20 3 -40l6 -40q4 -20 6.5 -39.5t2.5 -40.5q1 -43 -17 -68.5t-47 -33.5v-2q29 -9 47 -35.5t17 -69.5
q0 -20 -2.5 -40t-6.5 -40q-3 -20 -6 -40.5t-3 -40.5q0 -97 91 -97h18v-37h-12q-29 0 -55 7t-45 23.5t-30 43t-11 64.5q0 21 3 42t7 41q3 21 6 41.5t3 41.5q0 13 -3 27t-12 25.5t-25.5 19t-43.5 6.5v35z" />
    <glyph glyph-name="bar" unicode="|" horiz-adv-x="212" 
d="M127 750v-1000h-42v1000h42z" />
    <glyph glyph-name="braceright" unicode="}" horiz-adv-x="265" 
d="M239 270q-27 1 -44 -6.5t-26 -19t-12 -25.5t-3 -27q0 -21 3 -41.5t7 -41.5q4 -20 6.5 -41t2.5 -42q0 -38 -11 -64.5t-30 -43t-45 -23.5t-55 -7h-12v37h18q91 3 91 97q0 20 -2.5 40.5t-6.5 40.5l-6 40t-3 40q0 43 17.5 69.5t46.5 35.5v2q-29 8 -46.5 33.5t-17.5 68.5
q0 21 3 40.5t6 39.5q4 20 6.5 40t2.5 40q0 47 -20 71t-71 25h-18v37h12q30 0 56 -7.5t44.5 -23t29.5 -40t11 -58.5q0 -22 -2.5 -43t-6.5 -43t-7 -43t-3 -44q0 -15 3 -29t12 -25t26 -17.5t44 -6.5v-35z" />
    <glyph glyph-name="asciitilde" unicode="~" horiz-adv-x="596" 
d="M52 222q-2 30 6 53.5t23 40.5t35 26t43 9q14 0 27.5 -2.5t30 -7.5t37 -13.5t48.5 -20.5q41 -18 75 -31t67 -13t48 23.5t15 62.5h37q2 -35 -6.5 -59t-23 -39.5t-34 -22.5t-40.5 -7q-12 0 -25.5 2t-31 6.5t-39.5 13t-51 20.5q-38 17 -70.5 31t-65.5 14q-67 0 -67 -86h-38z
" />
    <glyph glyph-name="exclamdown" unicode="&#xa1;" horiz-adv-x="207" 
d="M75 -198l9 491h40l9 -491h-58zM104 484q18 0 29 -12.5t11 -32.5q0 -17 -11 -30.5t-30 -13.5q-17 0 -28.5 13.5t-10.5 30.5q0 20 11 32.5t29 12.5z" />
    <glyph glyph-name="cent" unicode="&#xa2;" 
d="M261 -16v104q-49 5 -82 21t-60 45q-26 27 -41.5 70t-15.5 101q0 51 15 93.5t41 74t62.5 51.5t80.5 26v104h40v-103q40 0 70.5 -9.5t47.5 -18.5l-18 -40q-15 10 -43 20t-71 10q-41 0 -74.5 -16.5t-56.5 -45t-35.5 -66t-12.5 -78.5q0 -46 13 -83t36.5 -63t55 -40t68.5 -14
q47 0 76.5 10t47.5 19l13 -35q-13 -8 -44 -19.5t-73 -13.5v-104h-40z" />
    <glyph glyph-name="sterling" unicode="&#xa3;" 
d="M59 0v31q57 31 86 81.5t29 110.5q0 23 -1 43t-5 46h-106v38h102q-5 25 -9.5 57.5t-4.5 66.5q0 43 13 77.5t36 59t54.5 37.5t67.5 13q38 0 63 -7.5t40 -17.5l-16 -37q-13 8 -35.5 15t-56.5 7q-63 0 -91.5 -40t-28.5 -104q0 -40 4 -70t9 -57h148v-38h-143q4 -35 5.5 -70
t-6.5 -68q-9 -41 -29.5 -73t-51.5 -58v-2h318v-41h-391z" />
    <glyph glyph-name="currency" unicode="&#xa4;" 
d="M243 524q35 0 65 -11.5t50 -31.5l68 69l31 -31l-73 -66q17 -21 26.5 -53.5t9.5 -65.5q0 -40 -10.5 -72.5t-24.5 -51.5l69 -69l-31 -31l-65 70q-23 -23 -55 -33.5t-62 -10.5q-32 0 -63 11t-50 29l-64 -66l-29 31l65 65q-16 20 -27 53t-11 67q0 38 11.5 71t29.5 56l-68 66
l31 31l64 -69q20 20 50.5 31.5t62.5 11.5zM241 485q-32 0 -57 -12.5t-42 -34.5t-26 -50.5t-9 -59.5q0 -41 13 -70t32.5 -47.5t43 -27t44.5 -8.5q24 0 48 8t43.5 27t31.5 49t12 74q0 27 -8 54.5t-24.5 49t-42 35t-59.5 13.5z" />
    <glyph glyph-name="yen" unicode="&#xa5;" 
d="M214 0v188h-154v36h154v75h-154v36h136l-171 315h51l124 -234q13 -23 22 -41t17 -38h4q6 18 16 38.5t23 43.5l130 231h50l-183 -315h136v-36h-155v-75h155v-36h-155v-188h-46z" />
    <glyph glyph-name="brokenbar" unicode="&#xa6;" horiz-adv-x="212" 
d="M127 174v-350h-42v350h42zM127 674v-350h-42v350h42z" />
    <glyph glyph-name="section" unicode="&#xa7;" horiz-adv-x="493" 
d="M111 357q0 -29 24 -55t93 -51q41 -15 67 -27t45 -25q21 17 32 41t11 51q0 34 -22.5 60.5t-79.5 46.5q-29 11 -61 23t-58 29q-29 -23 -40 -45.5t-11 -47.5zM370 612q-17 13 -46 23.5t-67 10.5q-22 0 -42.5 -6t-36 -18t-25 -28.5t-9.5 -37.5q0 -24 10.5 -40.5t29 -29
t43 -22t53.5 -19.5q31 -11 58 -24t46.5 -30t30.5 -40t11 -54q0 -38 -15 -66.5t-44 -53.5q11 -11 23 -34t12 -52q0 -35 -13.5 -62t-37 -45t-55 -27.5t-66.5 -9.5q-46 0 -81.5 11.5t-56.5 28.5l21 36q15 -13 45.5 -26t75.5 -13q52 0 88 26t36 74q0 21 -6 37t-21 30.5
t-40.5 27.5t-64.5 27q-38 14 -67 28t-49.5 31.5t-31 39t-10.5 50.5q0 26 14.5 55.5t52.5 59.5q-15 11 -25 32.5t-10 45.5q0 30 13 55t35 42.5t51.5 27t63.5 9.5q42 0 74.5 -10.5t52.5 -23.5z" />
    <glyph glyph-name="dieresis" unicode="&#xa8;" horiz-adv-x="300" 
d="M65 578q-17 0 -27 12t-10 27q0 16 10.5 27.5t27.5 11.5q16 0 26 -11.5t10 -27.5q0 -15 -10 -27t-27 -12zM235 578q-17 0 -27 12t-10 27q0 16 10.5 27.5t27.5 11.5q16 0 26 -11.5t10 -27.5q0 -15 -10 -27t-27 -12z" />
    <glyph glyph-name="copyright" unicode="&#xa9;" horiz-adv-x="677" 
d="M340 648q63 0 118 -24t95 -66t63 -98t23 -120q0 -65 -23 -121.5t-63 -98.5t-95 -66t-118 -24q-64 0 -119 24t-95.5 66t-63.5 98.5t-23 121.5q0 64 23 120t63.5 98t95.5 66t119 24zM340 616q-56 0 -103.5 -21.5t-82.5 -59t-55 -88.5t-20 -111q0 -58 20 -108t55 -87
t82.5 -58t103.5 -21q55 0 102 21t81.5 58.5t54.5 88t20 110.5q0 58 -20 108.5t-54.5 88t-81.5 58.5t-102 21zM464 463q-11 6 -36 15t-63 9q-39 0 -67 -12t-46 -32.5t-27 -47.5t-9 -58t9 -58.5t28 -48t47.5 -32.5t66.5 -12q31 0 58 7.5t45 19.5l10 -29q-26 -18 -59 -24.5
t-64 -6.5q-43 0 -77 14t-57 38.5t-35.5 57.5t-12.5 71q0 42 15.5 76.5t41.5 59t60 37.5t72 13q41 0 70 -9t40 -17z" />
    <glyph glyph-name="ordfeminine" unicode="&#xaa;" horiz-adv-x="326" 
d="M243 266l-4 47h-2q-13 -17 -39 -34.5t-63 -17.5q-51 0 -76 28t-25 66q0 51 50.5 83.5t151.5 28.5v12q0 7 -3 20t-11.5 25.5t-24.5 21.5t-43 9q-22 0 -42.5 -6t-39.5 -21l-13 30q23 18 51 25.5t52 7.5q36 0 58 -12t35 -31.5t17.5 -45t4.5 -52.5v-106q0 -20 1 -39t4 -39
h-39zM236 433q-26 1 -54 -1t-51.5 -10t-38.5 -24t-15 -42q0 -29 20 -44.5t46 -15.5q28 0 48 12.5t31 28.5q7 8 10.5 16t3.5 13v67z" />
    <glyph glyph-name="guillemotleft" unicode="&#xab;" horiz-adv-x="392" 
d="M80 252l143 -180h-50l-143 180l143 180h49zM225 252l143 -180h-50l-142 180l142 180h50z" />
    <glyph glyph-name="logicalnot" unicode="&#xac;" horiz-adv-x="596" 
d="M556 385v-255h-43v215h-473v40h516z" />
    <glyph glyph-name="uni00AD" unicode="&#xad;" horiz-adv-x="298" 
d="M268 296v-42h-238v42h238z" />
    <glyph glyph-name="registered" unicode="&#xae;" horiz-adv-x="395" 
d="M169 438h-31v167q13 2 27 3.5t31 1.5q21 0 33 -3.5t20 -9.5q17 -12 17 -35q0 -16 -9.5 -25.5t-23.5 -14.5v-2q20 -8 28 -40q4 -20 6.5 -28.5t5.5 -13.5h-32q-7 8 -13 44q-3 14 -12 20t-27 6h-20v-70zM169 532h21q17 0 30 6t13 21q0 12 -8.5 19.5t-31.5 7.5
q-9 0 -14.5 -0.5t-9.5 -1.5v-52zM198 685q34 0 63.5 -12.5t51.5 -34t34.5 -50.5t12.5 -62q0 -34 -12.5 -63.5t-34.5 -51t-51.5 -34t-63.5 -12.5t-64 12.5t-52 34t-34.5 51t-12.5 63.5q0 33 12.5 62t34.5 50.5t52 34t64 12.5zM198 657q-27 0 -50.5 -10.5t-41 -28t-27 -41.5
t-9.5 -51q0 -28 9.5 -52t27 -42t41 -28t51.5 -10q27 0 50 10t39.5 28t26 42t9.5 51t-9.5 51t-26 42t-40 28.5t-50.5 10.5z" />
    <glyph glyph-name="macron" unicode="&#xaf;" horiz-adv-x="300" 
d="M255 629v-40h-209v40h209z" />
    <glyph glyph-name="degree" unicode="&#xb0;" horiz-adv-x="294" 
d="M152 685q29 0 51.5 -10t37.5 -26.5t23 -38.5t8 -45q0 -29 -10.5 -52t-28 -39.5t-39.5 -25.5t-45 -9q-27 0 -49 9.5t-37.5 26t-24 38t-8.5 45.5q0 27 9.5 50.5t26 40.5t38.5 26.5t48 9.5zM150 652q-21 0 -36.5 -8.5t-25.5 -22t-15 -30t-5 -32.5q0 -36 23.5 -61t58.5 -25
q36 0 59.5 25.5t23.5 64.5q0 13 -4 29t-14 29t-25.5 22t-39.5 9z" />
    <glyph glyph-name="plusminus" unicode="&#xb1;" horiz-adv-x="596" 
d="M320 567v-207h236v-40h-236v-215h-43v215h-237v40h237v207h43zM556 40v-40h-516v40h516z" />
    <glyph glyph-name="twosuperior" unicode="&#xb2;" horiz-adv-x="286" 
d="M10 468l64 61q66 61 99 105t33 86q0 33 -20 58t-67 25q-27 0 -48.5 -11.5t-33.5 -21.5l-15 27q17 17 45.5 29t61.5 12q34 0 57 -10.5t37.5 -26.5t20.5 -35t6 -36q0 -29 -10.5 -55.5t-29.5 -52.5t-45.5 -52.5t-58.5 -55.5l-35 -33v-2h185v-36h-246v25z" />
    <glyph glyph-name="threesuperior" unicode="&#xb3;" horiz-adv-x="279" 
d="M29 807q16 11 42 21t58 10q30 0 51 -8t33.5 -20.5t18.5 -29t6 -33.5q0 -29 -19 -53t-54 -38v-2q41 -7 65.5 -34.5t24.5 -65.5q0 -21 -9 -42t-27 -37.5t-45 -26.5t-63 -10q-34 0 -61.5 8.5t-41.5 19.5l16 32q10 -8 35.5 -17t54.5 -9q28 0 46.5 8t30 20t16 26t4.5 27
q0 23 -10.5 39t-27 25.5t-37.5 14t-43 4.5h-25v33h27q15 0 32 4t32 13t25.5 23.5t10.5 35.5t-16 40t-54 19q-27 0 -48.5 -10t-32.5 -18z" />
    <glyph glyph-name="acute" unicode="&#xb4;" horiz-adv-x="300" 
d="M276 688l-122 -138h-37l89 138h70z" />
    <glyph glyph-name="mu" unicode="&#xb5;" horiz-adv-x="534" 
d="M407 80q-9 -15 -22.5 -30.5t-32.5 -29t-42.5 -22t-52.5 -8.5q-42 0 -76.5 15.5t-52.5 52.5v-71q0 -20 0.5 -45.5t1.5 -51.5t3 -49t6 -39h-44q-8 26 -11 72.5t-3 106.5v499h47v-293q0 -30 7 -58.5t22.5 -50t40.5 -34.5t61 -13q26 0 48 8.5t39.5 22t30 31t20.5 35.5
q4 11 7 25t3 28v299h47v-363q0 -45 9.5 -66t39.5 -23l-6 -38q-8 -1 -8.5 -1h-7.5q-12 0 -24.5 4.5t-22.5 15t-16.5 28t-7.5 43.5h-3z" />
    <glyph glyph-name="paragraph" unicode="&#xb6;" horiz-adv-x="493" 
d="M246 -51v315h-8q-35 0 -71 12t-65 36.5t-48 61t-19 84.5q0 38 12 76.5t42 69.5t81 50.5t128 19.5q37 0 61 -1.5t41 -4.5v-719h-42v686h-71v-686h-41z" />
    <glyph glyph-name="periodcentered" unicode="&#xb7;" horiz-adv-x="174" 
d="M87 221q-18 0 -29.5 13t-11.5 31q0 20 12 32.5t29 12.5q19 0 30 -12.5t11 -32.5q0 -18 -11 -31t-30 -13z" />
    <glyph glyph-name="cedilla" unicode="&#xb8;" horiz-adv-x="300" 
d="M182 1l-36 -55q27 -4 47.5 -21.5t20.5 -45.5q0 -42 -28 -59.5t-66 -17.5q-14 0 -31.5 4.5t-28.5 11.5l12 34q22 -13 54 -13q18 0 33 7.5t14 27.5q-1 23 -23.5 32.5t-54.5 12.5l50 82h37z" />
    <glyph glyph-name="onesuperior" unicode="&#xb9;" horiz-adv-x="210" 
d="M101 443v350h-2l-68 -35l-8 34l82 41h36v-390h-40z" />
    <glyph glyph-name="ordmasculine" unicode="&#xba;" horiz-adv-x="337" 
d="M169 591q35 0 63.5 -12.5t48.5 -34t30.5 -51.5t10.5 -65q0 -44 -14.5 -75.5t-36.5 -52t-49 -30t-54 -9.5q-32 0 -60 11.5t-48.5 32.5t-32.5 51t-12 67q0 40 13.5 71t35 52.5t49 33t56.5 11.5zM168 556q-28 0 -49 -12t-34.5 -30.5t-20.5 -42t-7 -46.5q0 -29 9.5 -52.5
t25 -40.5t35.5 -26.5t41 -9.5q48 0 80 35t32 95q0 21 -6 43.5t-19.5 42t-35 32t-51.5 12.5z" />
    <glyph glyph-name="guillemotright" unicode="&#xbb;" horiz-adv-x="392" 
d="M23 432h50l143 -180l-143 -180h-49l142 180zM169 432h49l144 -180l-143 -180h-49l142 180z" />
    <glyph glyph-name="onequarter" unicode="&#xbc;" horiz-adv-x="715" 
d="M126 266v350h-2l-68 -35l-8 34l82 41h36v-390h-40zM117 -11l386 672h40l-386 -672h-40zM573 1v110h-188v27l185 254h45v-246h58v-35h-58v-110h-42zM573 290q0 16 0.5 30t1.5 26l-2 1q-9 -17 -16.5 -29t-15.5 -25l-108 -146v-1h140v144z" />
    <glyph glyph-name="onehalf" unicode="&#xbd;" horiz-adv-x="715" 
d="M111 266v350h-2l-68 -35l-8 34l82 41h36v-390h-40zM101 -11l386 672h40l-386 -672h-40zM413 26l64 61q66 61 99 105t33 86q0 33 -20 58t-67 25q-27 0 -48.5 -11.5t-33.5 -21.5l-15 27q17 17 45.5 29t61.5 12q34 0 57 -10.5t37.5 -26.5t20.5 -35t6 -36q0 -29 -10.5 -55.5
t-29.5 -52.5t-45.5 -52.5t-58.5 -55.5l-35 -33v-2h185v-36h-246v25z" />
    <glyph glyph-name="threequarters" unicode="&#xbe;" horiz-adv-x="715" 
d="M53 630q16 11 42 21t58 10q30 0 51 -8t33.5 -20.5t18.5 -29t6 -33.5q0 -29 -19 -53t-54 -38v-2q41 -7 65.5 -34.5t24.5 -65.5q0 -21 -9 -42t-27 -37.5t-45 -26.5t-63 -10q-34 0 -61.5 8.5t-41.5 19.5l16 32q10 -8 35.5 -17t54.5 -9q28 0 46.5 8t30 20t16 26t4.5 27
q0 23 -10.5 39t-27 25.5t-37.5 14t-43 4.5h-25v33h27q15 0 32 4t32 13t25.5 23.5t10.5 35.5t-16 40t-54 19q-27 0 -48.5 -10t-32.5 -18zM158 -11l386 672h40l-386 -672h-40zM585 1v110h-188v27l185 254h45v-246h58v-35h-58v-110h-42zM585 290q0 16 0.5 30t1.5 26l-2 1
q-9 -17 -16.5 -29t-15.5 -25l-108 -146v-1h140v144z" />
    <glyph glyph-name="questiondown" unicode="&#xbf;" horiz-adv-x="381" 
d="M231 486q18 0 29 -12.5t11 -32.5q0 -18 -11 -31.5t-30 -13.5q-18 0 -29.5 13.5t-10.5 31.5q0 20 11.5 32.5t29.5 12.5zM253 300l3 -26q6 -42 -9.5 -88t-54.5 -94q-40 -47 -58.5 -82.5t-18.5 -73.5q0 -47 27.5 -74.5t81.5 -27.5q28 0 55.5 8.5t47.5 23.5l17 -35
q-24 -19 -60.5 -29.5t-68.5 -10.5q-39 0 -67.5 12t-47 32t-27.5 45.5t-9 52.5q0 47 22.5 86.5t63.5 88.5q37 45 50.5 82.5t9.5 78.5l-2 31h45z" />
    <glyph glyph-name="Agrave" unicode="&#xc0;" horiz-adv-x="585" 
d="M162 236l-83 -236h-49l244 674h46l243 -674h-49l-85 236h-267zM414 276l-82 225q-12 35 -19.5 62.5t-15.5 56.5h-2q-8 -29 -16 -57t-19 -60l-83 -227h237zM239 823l97 -113h-40l-131 113h74z" />
    <glyph glyph-name="Aacute" unicode="&#xc1;" horiz-adv-x="585" 
d="M162 236l-83 -236h-49l244 674h46l243 -674h-49l-85 236h-267zM414 276l-82 225q-12 35 -19.5 62.5t-15.5 56.5h-2q-8 -29 -16 -57t-19 -60l-83 -227h237zM427 823l-131 -113h-40l98 113h73z" />
    <glyph glyph-name="Acircumflex" unicode="&#xc2;" horiz-adv-x="585" 
d="M162 236l-83 -236h-49l244 674h46l243 -674h-49l-85 236h-267zM414 276l-82 225q-12 35 -19.5 62.5t-15.5 56.5h-2q-8 -29 -16 -57t-19 -60l-83 -227h237zM318 819l107 -109h-53l-72 74h-2l-72 -74h-50l104 109h38z" />
    <glyph glyph-name="Atilde" unicode="&#xc3;" horiz-adv-x="585" 
d="M162 236l-83 -236h-49l244 674h46l243 -674h-49l-85 236h-267zM414 276l-82 225q-12 35 -19.5 62.5t-15.5 56.5h-2q-8 -29 -16 -57t-19 -60l-83 -227h237zM181 716q0 35 16 60.5t47 25.5q14 0 27 -5.5t30 -15.5q11 -6 23.5 -11.5t26.5 -5.5q11 0 18 7t9 30h33
q0 -35 -14.5 -57.5t-46.5 -22.5q-13 0 -26.5 5t-31.5 15q-15 8 -27 13.5t-23 5.5q-14 0 -20 -12.5t-8 -31.5h-33z" />
    <glyph glyph-name="Adieresis" unicode="&#xc4;" horiz-adv-x="585" 
d="M162 236l-83 -236h-49l244 674h46l243 -674h-49l-85 236h-267zM414 276l-82 225q-12 35 -19.5 62.5t-15.5 56.5h-2q-8 -29 -16 -57t-19 -60l-83 -227h237zM210 724q-17 0 -27 11.5t-10 28.5q0 16 10.5 27.5t27.5 11.5t27 -11.5t10 -27.5q0 -17 -10 -28.5t-28 -11.5z
M382 724q-17 0 -27 11.5t-10 28.5q0 16 10.5 27.5t27.5 11.5t27 -11.5t10 -27.5q0 -17 -10 -28.5t-28 -11.5z" />
    <glyph glyph-name="Aring" unicode="&#xc5;" horiz-adv-x="585" 
d="M162 236l-83 -236h-49l244 674h46l243 -674h-49l-85 236h-267zM414 276l-82 225q-12 35 -19.5 62.5t-15.5 56.5h-2q-8 -29 -16 -57t-19 -60l-83 -227h237zM297 867q40 0 65 -25t25 -61q0 -18 -7 -33t-19 -26t-28.5 -17.5t-35.5 -6.5q-40 0 -65.5 24t-25.5 59t25 60.5
t66 25.5zM296 839q-23 0 -36.5 -17.5t-13.5 -40.5q0 -21 14 -38t36 -17q23 0 37 16.5t14 40.5q0 23 -14 39.5t-37 16.5z" />
    <glyph glyph-name="AE" unicode="&#xc6;" horiz-adv-x="738" 
d="M-3 0l321 674h365v-40h-292l30 -259h249v-41h-243l35 -294h242v-40h-282l-34 271h-213l-129 -271h-49zM384 310l-25 212q-2 25 -6 58t-6 59h-4q-10 -24 -22.5 -52.5t-25.5 -57.5l-101 -219h190z" />
    <glyph glyph-name="Ccedilla" unicode="&#xc7;" horiz-adv-x="570" 
d="M538 24q-26 -14 -72.5 -24t-108.5 -10q-61 0 -118.5 20t-102 62t-71.5 106.5t-27 154.5q0 75 23.5 139.5t67.5 111.5t107 74t143 27q65 0 103 -11t54 -19l-16 -40q-26 13 -61.5 21t-78.5 8q-68 0 -122.5 -21.5t-92.5 -62t-58 -98t-20 -130.5q0 -69 19 -124.5t56 -94.5
t89.5 -60.5t120.5 -21.5q44 0 83.5 8.5t68.5 22.5zM361 1l-37 -55q29 -4 49 -23t20 -47q0 -38 -28 -56t-65 -18q-17 0 -34 4.5t-28 11.5l12 34q11 -5 24 -9t30 -4q19 0 32.5 8.5t13.5 26.5q0 22 -22.5 32t-54.5 13l50 82h38z" />
    <glyph glyph-name="Egrave" unicode="&#xc8;" horiz-adv-x="466" 
d="M399 335h-270v-295h302v-40h-349v674h333v-40h-286v-259h270v-40zM199 823l97 -113h-40l-131 113h74z" />
    <glyph glyph-name="Eacute" unicode="&#xc9;" horiz-adv-x="466" 
d="M399 335h-270v-295h302v-40h-349v674h333v-40h-286v-259h270v-40zM384 823l-131 -113h-40l98 113h73z" />
    <glyph glyph-name="Ecircumflex" unicode="&#xca;" horiz-adv-x="466" 
d="M399 335h-270v-295h302v-40h-349v674h333v-40h-286v-259h270v-40zM263 819l107 -109h-53l-72 74h-2l-72 -74h-50l104 109h38z" />
    <glyph glyph-name="Edieresis" unicode="&#xcb;" horiz-adv-x="466" 
d="M399 335h-270v-295h302v-40h-349v674h333v-40h-286v-259h270v-40zM160 726q-17 0 -27 11.5t-10 28.5q0 16 10.5 27.5t27.5 11.5t27 -11.5t10 -27.5q0 -17 -10 -28.5t-28 -11.5zM332 726q-17 0 -27 11.5t-10 28.5q0 16 10.5 27.5t27.5 11.5t27 -11.5t10 -27.5
q0 -17 -10 -28.5t-28 -11.5z" />
    <glyph glyph-name="Igrave" unicode="&#xcc;" horiz-adv-x="211" 
d="M129 674v-674h-47v674h47zM51 823l97 -113h-40l-131 113h74z" />
    <glyph glyph-name="Iacute" unicode="&#xcd;" horiz-adv-x="211" 
d="M129 674v-674h-47v674h47zM238 823l-131 -113h-40l98 113h73z" />
    <glyph glyph-name="Icircumflex" unicode="&#xce;" horiz-adv-x="211" 
d="M129 674v-674h-47v674h47zM125 819l107 -109h-53l-72 74h-2l-72 -74h-50l104 109h38z" />
    <glyph glyph-name="Idieresis" unicode="&#xcf;" horiz-adv-x="211" 
d="M129 674v-674h-47v674h47zM21 726q-17 0 -27 11.5t-10 28.5q0 16 10.5 27.5t27.5 11.5t27 -11.5t10 -27.5q0 -17 -10 -28.5t-28 -11.5zM193 726q-17 0 -27 11.5t-10 28.5q0 16 10.5 27.5t27.5 11.5t27 -11.5t10 -27.5q0 -17 -10 -28.5t-28 -11.5z" />
    <glyph glyph-name="Eth" unicode="&#xd0;" horiz-adv-x="651" 
d="M-4 361h89v306q38 7 81 11t91 4q93 0 161.5 -24t110.5 -69q41 -42 62.5 -99.5t21.5 -136.5q0 -75 -21 -140t-67 -116q-45 -49 -119 -76t-172 -27q-39 0 -76 1t-73 5v322h-89v39zM341 322h-209v-283q21 -3 49 -4t60 -1q81 0 141.5 22t101 63.5t60.5 100.5t20 134
q0 64 -18 117t-56 91t-96.5 59t-139.5 21q-39 0 -69.5 -3t-52.5 -8v-270h209v-39z" />
    <glyph glyph-name="Ntilde" unicode="&#xd1;" horiz-adv-x="638" 
d="M82 0v674h45l263 -398q41 -63 71 -113t55 -99l2 1q-3 34 -4.5 66t-2 65t-1 68t-0.5 75v335h47v-674h-45l-257 392q-38 59 -71.5 112.5t-59.5 105.5l-2 -1q2 -31 3 -61t2 -62t1 -67.5v-77.5v-341h-46zM211 716q0 35 16 60.5t47 25.5q14 0 27 -5.5t30 -15.5
q11 -6 23.5 -11.5t26.5 -5.5q11 0 18 7t9 30h33q0 -35 -14.5 -57.5t-46.5 -22.5q-13 0 -26.5 5t-31.5 15q-15 8 -27 13.5t-23 5.5q-14 0 -20 -12.5t-8 -31.5h-33z" />
    <glyph glyph-name="Ograve" unicode="&#xd2;" horiz-adv-x="671" 
d="M340 685q64 0 117.5 -24t92.5 -68t61 -107.5t22 -141.5q0 -89 -25 -156t-67 -111t-96.5 -66t-112.5 -22q-62 0 -116 23.5t-93.5 68t-62 107.5t-22.5 142q0 83 23.5 149t64 111.5t96 70t118.5 24.5zM337 645q-64 0 -111 -27t-78 -71t-46 -100t-15 -115q0 -57 16 -111.5
t47.5 -97t78 -68.5t106.5 -26t106.5 25.5t78 68t48 99t16.5 119.5q0 53 -15 107.5t-45.5 98t-77 71t-109.5 27.5zM280 827l97 -113h-40l-131 113h74z" />
    <glyph glyph-name="Oacute" unicode="&#xd3;" horiz-adv-x="671" 
d="M340 685q64 0 117.5 -24t92.5 -68t61 -107.5t22 -141.5q0 -89 -25 -156t-67 -111t-96.5 -66t-112.5 -22q-62 0 -116 23.5t-93.5 68t-62 107.5t-22.5 142q0 83 23.5 149t64 111.5t96 70t118.5 24.5zM337 645q-64 0 -111 -27t-78 -71t-46 -100t-15 -115q0 -57 16 -111.5
t47.5 -97t78 -68.5t106.5 -26t106.5 25.5t78 68t48 99t16.5 119.5q0 53 -15 107.5t-45.5 98t-77 71t-109.5 27.5zM464 827l-131 -113h-40l98 113h73z" />
    <glyph glyph-name="Ocircumflex" unicode="&#xd4;" horiz-adv-x="671" 
d="M340 685q64 0 117.5 -24t92.5 -68t61 -107.5t22 -141.5q0 -89 -25 -156t-67 -111t-96.5 -66t-112.5 -22q-62 0 -116 23.5t-93.5 68t-62 107.5t-22.5 142q0 83 23.5 149t64 111.5t96 70t118.5 24.5zM337 645q-64 0 -111 -27t-78 -71t-46 -100t-15 -115q0 -57 16 -111.5
t47.5 -97t78 -68.5t106.5 -26t106.5 25.5t78 68t48 99t16.5 119.5q0 53 -15 107.5t-45.5 98t-77 71t-109.5 27.5zM354 823l107 -109h-53l-72 74h-2l-72 -74h-50l104 109h38z" />
    <glyph glyph-name="Otilde" unicode="&#xd5;" horiz-adv-x="671" 
d="M340 685q64 0 117.5 -24t92.5 -68t61 -107.5t22 -141.5q0 -89 -25 -156t-67 -111t-96.5 -66t-112.5 -22q-62 0 -116 23.5t-93.5 68t-62 107.5t-22.5 142q0 83 23.5 149t64 111.5t96 70t118.5 24.5zM337 645q-64 0 -111 -27t-78 -71t-46 -100t-15 -115q0 -57 16 -111.5
t47.5 -97t78 -68.5t106.5 -26t106.5 25.5t78 68t48 99t16.5 119.5q0 53 -15 107.5t-45.5 98t-77 71t-109.5 27.5zM220 720q0 35 16 60.5t47 25.5q14 0 27 -5.5t30 -15.5q11 -6 23.5 -11.5t26.5 -5.5q11 0 18 7t9 30h33q0 -35 -14.5 -57.5t-46.5 -22.5q-13 0 -26.5 5
t-31.5 15q-15 8 -27 13.5t-23 5.5q-14 0 -20 -12.5t-8 -31.5h-33z" />
    <glyph glyph-name="Odieresis" unicode="&#xd6;" horiz-adv-x="671" 
d="M340 685q64 0 117.5 -24t92.5 -68t61 -107.5t22 -141.5q0 -89 -25 -156t-67 -111t-96.5 -66t-112.5 -22q-62 0 -116 23.5t-93.5 68t-62 107.5t-22.5 142q0 83 23.5 149t64 111.5t96 70t118.5 24.5zM337 645q-64 0 -111 -27t-78 -71t-46 -100t-15 -115q0 -57 16 -111.5
t47.5 -97t78 -68.5t106.5 -26t106.5 25.5t78 68t48 99t16.5 119.5q0 53 -15 107.5t-45.5 98t-77 71t-109.5 27.5zM249 726q-17 0 -27 11.5t-10 28.5q0 16 10.5 27.5t27.5 11.5t27 -11.5t10 -27.5q0 -17 -10 -28.5t-28 -11.5zM421 726q-17 0 -27 11.5t-10 28.5
q0 16 10.5 27.5t27.5 11.5t27 -11.5t10 -27.5q0 -17 -10 -28.5t-28 -11.5z" />
    <glyph glyph-name="multiply" unicode="&#xd7;" horiz-adv-x="596" 
d="M70 526l228 -232l228 232l30 -30l-228 -233l228 -233l-31 -30l-227 232l-228 -232l-30 30l228 233l-228 233z" />
    <glyph glyph-name="Oslash" unicode="&#xd8;" horiz-adv-x="671" 
d="M58 -5l66 89q-41 45 -63.5 108t-22.5 140q0 83 24 148.5t65 111t96 69.5t117 24q49 0 95 -16t84 -48l62 81l32 -22l-65 -87q40 -45 62.5 -108.5t22.5 -140.5q0 -92 -25.5 -158.5t-67.5 -110.5t-95 -65t-108 -21q-53 0 -100.5 17t-85.5 50l-64 -84zM493 585
q-31 28 -69.5 44t-86.5 16q-64 0 -111 -27.5t-78 -71.5t-46 -98.5t-15 -109.5q0 -69 17.5 -120t46.5 -95l2 1zM177 92q32 -30 68.5 -46.5t89.5 -16.5q61 0 107.5 26t78 69.5t47.5 100t16 116.5q0 52 -14 106t-49 106h-3z" />
    <glyph glyph-name="Ugrave" unicode="&#xd9;" horiz-adv-x="626" 
d="M129 674v-407q0 -64 14 -109t38.5 -73.5t57 -41.5t70.5 -13q42 0 76.5 14t59 43t38.5 73.5t14 106.5v407h48v-402q0 -78 -19.5 -131.5t-52.5 -87.5t-76 -49t-91 -15q-44 0 -84.5 14t-71.5 46t-49.5 85t-18.5 130v410h47zM263 823l97 -113h-40l-131 113h74z" />
    <glyph glyph-name="Uacute" unicode="&#xda;" horiz-adv-x="626" 
d="M129 674v-407q0 -64 14 -109t38.5 -73.5t57 -41.5t70.5 -13q42 0 76.5 14t59 43t38.5 73.5t14 106.5v407h48v-402q0 -78 -19.5 -131.5t-52.5 -87.5t-76 -49t-91 -15q-44 0 -84.5 14t-71.5 46t-49.5 85t-18.5 130v410h47zM451 823l-131 -113h-40l98 113h73z" />
    <glyph glyph-name="Ucircumflex" unicode="&#xdb;" horiz-adv-x="626" 
d="M129 674v-407q0 -64 14 -109t38.5 -73.5t57 -41.5t70.5 -13q42 0 76.5 14t59 43t38.5 73.5t14 106.5v407h48v-402q0 -78 -19.5 -131.5t-52.5 -87.5t-76 -49t-91 -15q-44 0 -84.5 14t-71.5 46t-49.5 85t-18.5 130v410h47zM335 819l107 -109h-53l-72 74h-2l-72 -74h-50
l104 109h38z" />
    <glyph glyph-name="Udieresis" unicode="&#xdc;" horiz-adv-x="626" 
d="M129 674v-407q0 -64 14 -109t38.5 -73.5t57 -41.5t70.5 -13q42 0 76.5 14t59 43t38.5 73.5t14 106.5v407h48v-402q0 -78 -19.5 -131.5t-52.5 -87.5t-76 -49t-91 -15q-44 0 -84.5 14t-71.5 46t-49.5 85t-18.5 130v410h47zM227 726q-17 0 -27 11.5t-10 28.5q0 16 10.5 27.5
t27.5 11.5t27 -11.5t10 -27.5q0 -17 -10 -28.5t-28 -11.5zM399 726q-17 0 -27 11.5t-10 28.5q0 16 10.5 27.5t27.5 11.5t27 -11.5t10 -27.5q0 -17 -10 -28.5t-28 -11.5z" />
    <glyph glyph-name="Yacute" unicode="&#xdd;" horiz-adv-x="503" 
d="M230 0v292l-215 382h54l111 -201q21 -40 40 -74t36 -71h2q16 35 35.5 70.5t42.5 75.5l115 200h54l-228 -383v-291h-47zM393 816l-131 -113h-40l98 113h73z" />
    <glyph glyph-name="Thorn" unicode="&#xde;" horiz-adv-x="501" 
d="M82 674h46v-138q25 5 52.5 7t51.5 2q60 0 103 -14.5t71 -40.5q23 -23 36.5 -54t13.5 -67q0 -48 -18 -85.5t-50 -64t-78 -40t-101 -13.5q-20 0 -41 1t-40 4v-171h-46v674zM128 213q21 -5 42.5 -6t41.5 -1q94 0 145 41t51 115q0 38 -13.5 65t-37 44.5t-56 25.5t-71.5 8
q-33 0 -60.5 -2.5t-41.5 -6.5v-283z" />
    <glyph glyph-name="germandbls" unicode="&#xdf;" horiz-adv-x="516" 
d="M81 0v465q0 86 18 135t50 78q25 23 56 33t69 10q30 0 57.5 -10t49.5 -29.5t35 -49.5t13 -70q0 -28 -7.5 -49.5t-14.5 -32.5q-36 -14 -58 -36t-22 -52q0 -16 4.5 -28.5t12.5 -23.5t19 -22.5t25 -24.5q16 -16 31 -32t26 -34t18 -39t7 -47q0 -34 -11.5 -62t-33.5 -48
t-52.5 -31t-67.5 -11q-29 0 -56 6t-50 18l14 39q23 -11 46 -17t48 -6q58 0 87.5 30.5t29.5 73.5q0 39 -17 67t-49 57q-35 32 -56 61t-21 67q0 39 24 69.5t70 52.5q8 19 8 48q0 63 -33 94.5t-86 31.5q-68 0 -102 -51t-34 -167v-463h-47z" />
    <glyph glyph-name="agrave" unicode="&#xe0;" horiz-adv-x="454" 
d="M343 0l-7 69h-3q-9 -14 -23 -28t-33.5 -25.5t-43.5 -19t-53 -7.5q-36 0 -62.5 11.5t-44 30.5t-26 42.5t-8.5 47.5q0 83 73.5 130t219.5 46v12q0 18 -3 42.5t-15.5 47t-37 37.5t-67.5 15q-32 0 -63 -8.5t-57 -27.5l-15 35q32 22 70 31.5t70 9.5q52 0 84.5 -17.5t50.5 -45
t24 -61.5t6 -66v-187q0 -29 1.5 -57.5t5.5 -56.5h-43zM332 257q-39 1 -82 -2.5t-79 -17t-59 -39.5t-23 -69q0 -26 8 -45t21.5 -31t30.5 -18t36 -6q30 0 53.5 8.5t41 22t29.5 30.5t18 35q5 17 5 29v103zM161 688l89 -138h-37l-122 138h70z" />
    <glyph glyph-name="aacute" unicode="&#xe1;" horiz-adv-x="454" 
d="M343 0l-7 69h-3q-9 -14 -23 -28t-33.5 -25.5t-43.5 -19t-53 -7.5q-36 0 -62.5 11.5t-44 30.5t-26 42.5t-8.5 47.5q0 83 73.5 130t219.5 46v12q0 18 -3 42.5t-15.5 47t-37 37.5t-67.5 15q-32 0 -63 -8.5t-57 -27.5l-15 35q32 22 70 31.5t70 9.5q52 0 84.5 -17.5t50.5 -45
t24 -61.5t6 -66v-187q0 -29 1.5 -57.5t5.5 -56.5h-43zM332 257q-39 1 -82 -2.5t-79 -17t-59 -39.5t-23 -69q0 -26 8 -45t21.5 -31t30.5 -18t36 -6q30 0 53.5 8.5t41 22t29.5 30.5t18 35q5 17 5 29v103zM342 688l-122 -138h-37l89 138h70z" />
    <glyph glyph-name="acircumflex" unicode="&#xe2;" horiz-adv-x="454" 
d="M343 0l-7 69h-3q-9 -14 -23 -28t-33.5 -25.5t-43.5 -19t-53 -7.5q-36 0 -62.5 11.5t-44 30.5t-26 42.5t-8.5 47.5q0 83 73.5 130t219.5 46v12q0 18 -3 42.5t-15.5 47t-37 37.5t-67.5 15q-32 0 -63 -8.5t-57 -27.5l-15 35q32 22 70 31.5t70 9.5q52 0 84.5 -17.5t50.5 -45
t24 -61.5t6 -66v-187q0 -29 1.5 -57.5t5.5 -56.5h-43zM332 257q-39 1 -82 -2.5t-79 -17t-59 -39.5t-23 -69q0 -26 8 -45t21.5 -31t30.5 -18t36 -6q30 0 53.5 8.5t41 22t29.5 30.5t18 35q5 17 5 29v103zM238 688l94 -138h-48l-62 100h-2l-63 -100h-45l91 138h35z" />
    <glyph glyph-name="atilde" unicode="&#xe3;" horiz-adv-x="454" 
d="M343 0l-7 69h-3q-9 -14 -23 -28t-33.5 -25.5t-43.5 -19t-53 -7.5q-36 0 -62.5 11.5t-44 30.5t-26 42.5t-8.5 47.5q0 83 73.5 130t219.5 46v12q0 18 -3 42.5t-15.5 47t-37 37.5t-67.5 15q-32 0 -63 -8.5t-57 -27.5l-15 35q32 22 70 31.5t70 9.5q52 0 84.5 -17.5t50.5 -45
t24 -61.5t6 -66v-187q0 -29 1.5 -57.5t5.5 -56.5h-43zM332 257q-39 1 -82 -2.5t-79 -17t-59 -39.5t-23 -69q0 -26 8 -45t21.5 -31t30.5 -18t36 -6q30 0 53.5 8.5t41 22t29.5 30.5t18 35q5 17 5 29v103zM116 573q-1 40 15 63.5t45 23.5q14 0 27 -6t33 -17q12 -6 22 -10.5
t20 -4.5q11 0 18.5 8.5t9.5 32.5h33q0 -38 -14 -61t-46 -23q-14 0 -27.5 6t-28.5 14q-17 9 -27 14t-19 5q-13 0 -19.5 -12.5t-8.5 -32.5h-33z" />
    <glyph glyph-name="adieresis" unicode="&#xe4;" horiz-adv-x="454" 
d="M343 0l-7 69h-3q-9 -14 -23 -28t-33.5 -25.5t-43.5 -19t-53 -7.5q-36 0 -62.5 11.5t-44 30.5t-26 42.5t-8.5 47.5q0 83 73.5 130t219.5 46v12q0 18 -3 42.5t-15.5 47t-37 37.5t-67.5 15q-32 0 -63 -8.5t-57 -27.5l-15 35q32 22 70 31.5t70 9.5q52 0 84.5 -17.5t50.5 -45
t24 -61.5t6 -66v-187q0 -29 1.5 -57.5t5.5 -56.5h-43zM332 257q-39 1 -82 -2.5t-79 -17t-59 -39.5t-23 -69q0 -26 8 -45t21.5 -31t30.5 -18t36 -6q30 0 53.5 8.5t41 22t29.5 30.5t18 35q5 17 5 29v103zM142 578q-17 0 -27 12t-10 27q0 16 10.5 27.5t27.5 11.5q16 0 26 -11.5
t10 -27.5q0 -15 -10 -27t-27 -12zM312 578q-17 0 -27 12t-10 27q0 16 10.5 27.5t27.5 11.5q16 0 26 -11.5t10 -27.5q0 -15 -10 -27t-27 -12z" />
    <glyph glyph-name="aring" unicode="&#xe5;" horiz-adv-x="454" 
d="M343 0l-7 69h-3q-9 -14 -23 -28t-33.5 -25.5t-43.5 -19t-53 -7.5q-36 0 -62.5 11.5t-44 30.5t-26 42.5t-8.5 47.5q0 83 73.5 130t219.5 46v12q0 18 -3 42.5t-15.5 47t-37 37.5t-67.5 15q-32 0 -63 -8.5t-57 -27.5l-15 35q32 22 70 31.5t70 9.5q52 0 84.5 -17.5t50.5 -45
t24 -61.5t6 -66v-187q0 -29 1.5 -57.5t5.5 -56.5h-43zM332 257q-39 1 -82 -2.5t-79 -17t-59 -39.5t-23 -69q0 -26 8 -45t21.5 -31t30.5 -18t36 -6q30 0 53.5 8.5t41 22t29.5 30.5t18 35q5 17 5 29v103zM225 536q-40 0 -66.5 25.5t-26.5 62.5q0 38 26 64.5t68 26.5
q38 0 64 -26.5t26 -64.5q0 -19 -7.5 -35t-20 -28t-29 -18.5t-34.5 -6.5zM224 566q24 0 39.5 17.5t15.5 41.5q0 26 -15.5 43t-40.5 17q-24 0 -38 -18t-14 -43q0 -22 15 -40t38 -18z" />
    <glyph glyph-name="ae" unicode="&#xe6;" horiz-adv-x="755" 
d="M378 251q-2 -55 10 -96.5t35 -69t54.5 -41.5t69.5 -14q53 0 83.5 10t44.5 18l13 -37q-21 -12 -58.5 -22t-86.5 -10q-63 0 -113.5 31t-68.5 89h-2q-20 -58 -68.5 -89t-110.5 -31q-36 0 -62.5 11.5t-44 29.5t-25.5 41t-8 46q0 81 72 128t221 45v23q0 11 -4 34t-16.5 46
t-37 40.5t-66.5 17.5q-32 0 -65.5 -10t-55.5 -26l-15 34q36 24 74.5 33t63.5 9q69 0 105.5 -32t47.5 -84h2q22 54 66 85t104 31q56 0 91 -25t54.5 -59t26 -69.5t6.5 -56.5v-16.5t-2 -13.5h-334zM333 251q-37 1 -80 -2t-79.5 -16.5t-61 -39.5t-24.5 -71t28.5 -69t69.5 -24
q30 0 53.5 8t41.5 22t29.5 32.5t17.5 39.5q3 9 4 18.5t1 18.5v83zM665 290q1 22 -5.5 50t-22 53t-41.5 42t-64 17t-66.5 -16t-47 -40t-28.5 -52.5t-11 -53.5h286z" />
    <glyph glyph-name="ccedilla" unicode="&#xe7;" horiz-adv-x="446" 
d="M412 21q-16 -8 -52 -19.5t-88 -11.5t-94.5 18t-73 50t-47 77.5t-16.5 99.5q0 57 18.5 104t51.5 81t78.5 52.5t99.5 18.5q45 0 78.5 -10t47.5 -20l-17 -39q-18 10 -46 19t-68 9q-48 0 -84.5 -17t-61 -46.5t-37 -68t-12.5 -80.5q0 -47 14 -85t39.5 -65t60 -42t76.5 -15
q43 0 71.5 9.5t48.5 17.5zM285 1l-36 -55q27 -4 47.5 -21.5t20.5 -45.5q0 -42 -28 -59.5t-66 -17.5q-14 0 -31.5 4.5t-28.5 11.5l12 34q22 -13 54 -13q18 0 33 7.5t14 27.5q-1 23 -23.5 32.5t-54.5 12.5l50 82h37z" />
    <glyph glyph-name="egrave" unicode="&#xe8;" horiz-adv-x="485" 
d="M88 245q0 -58 14.5 -98.5t39.5 -66t58.5 -37.5t70.5 -12q53 0 83 8.5t50 18.5l12 -38q-14 -8 -51 -19t-100 -11q-52 0 -93.5 18t-70.5 50t-44.5 76t-15.5 97q0 60 16.5 108t45 82t68 52t86.5 18q59 0 95.5 -24t57 -58.5t27.5 -71.5t7 -63v-16.5t-2 -12.5h-354zM394 283
q0 25 -6 54.5t-22 55t-44 42.5t-71 17q-40 0 -68.5 -16t-48 -41t-30 -54.5t-13.5 -57.5h303zM215 688l89 -138h-37l-122 138h70z" />
    <glyph glyph-name="eacute" unicode="&#xe9;" horiz-adv-x="485" 
d="M88 245q0 -58 14.5 -98.5t39.5 -66t58.5 -37.5t70.5 -12q53 0 83 8.5t50 18.5l12 -38q-14 -8 -51 -19t-100 -11q-52 0 -93.5 18t-70.5 50t-44.5 76t-15.5 97q0 60 16.5 108t45 82t68 52t86.5 18q59 0 95.5 -24t57 -58.5t27.5 -71.5t7 -63v-16.5t-2 -12.5h-354zM394 283
q0 25 -6 54.5t-22 55t-44 42.5t-71 17q-40 0 -68.5 -16t-48 -41t-30 -54.5t-13.5 -57.5h303zM376 688l-122 -138h-37l89 138h70z" />
    <glyph glyph-name="ecircumflex" unicode="&#xea;" horiz-adv-x="485" 
d="M88 245q0 -58 14.5 -98.5t39.5 -66t58.5 -37.5t70.5 -12q53 0 83 8.5t50 18.5l12 -38q-14 -8 -51 -19t-100 -11q-52 0 -93.5 18t-70.5 50t-44.5 76t-15.5 97q0 60 16.5 108t45 82t68 52t86.5 18q59 0 95.5 -24t57 -58.5t27.5 -71.5t7 -63v-16.5t-2 -12.5h-354zM394 283
q0 25 -6 54.5t-22 55t-44 42.5t-71 17q-40 0 -68.5 -16t-48 -41t-30 -54.5t-13.5 -57.5h303zM272 688l94 -138h-48l-62 100h-2l-63 -100h-45l91 138h35z" />
    <glyph glyph-name="edieresis" unicode="&#xeb;" horiz-adv-x="485" 
d="M88 245q0 -58 14.5 -98.5t39.5 -66t58.5 -37.5t70.5 -12q53 0 83 8.5t50 18.5l12 -38q-14 -8 -51 -19t-100 -11q-52 0 -93.5 18t-70.5 50t-44.5 76t-15.5 97q0 60 16.5 108t45 82t68 52t86.5 18q59 0 95.5 -24t57 -58.5t27.5 -71.5t7 -63v-16.5t-2 -12.5h-354zM394 283
q0 25 -6 54.5t-22 55t-44 42.5t-71 17q-40 0 -68.5 -16t-48 -41t-30 -54.5t-13.5 -57.5h303zM176 578q-17 0 -27 12t-10 27q0 16 10.5 27.5t27.5 11.5q16 0 26 -11.5t10 -27.5q0 -15 -10 -27t-27 -12zM346 578q-17 0 -27 12t-10 27q0 16 10.5 27.5t27.5 11.5q16 0 26 -11.5
t10 -27.5q0 -15 -10 -27t-27 -12z" />
    <glyph glyph-name="igrave" unicode="&#xec;" horiz-adv-x="209" 
d="M81 0v480h47v-480h-47zM45 688l89 -138h-37l-122 138h70z" />
    <glyph glyph-name="iacute" unicode="&#xed;" horiz-adv-x="209" 
d="M81 0v480h47v-480h-47zM224 688l-122 -138h-37l89 138h70z" />
    <glyph glyph-name="icircumflex" unicode="&#xee;" horiz-adv-x="209" 
d="M81 0v480h47v-480h-47zM122 688l94 -138h-48l-62 100h-2l-63 -100h-45l91 138h35z" />
    <glyph glyph-name="idieresis" unicode="&#xef;" horiz-adv-x="209" 
d="M81 0v480h47v-480h-47zM21 578q-17 0 -27 12t-10 27q0 16 10.5 27.5t27.5 11.5q16 0 26 -11.5t10 -27.5q0 -15 -10 -27t-27 -12zM191 578q-17 0 -27 12t-10 27q0 16 10.5 27.5t27.5 11.5q16 0 26 -11.5t10 -27.5q0 -15 -10 -27t-27 -12z" />
    <glyph glyph-name="eth" unicode="&#xf0;" horiz-adv-x="521" 
d="M255 29q39 0 71 16t54.5 44.5t35 67.5t12.5 86q0 54 -9 89t-32 63q-19 22 -49.5 39.5t-78.5 17.5q-45 0 -77.5 -20.5t-53 -52.5t-30 -70t-9.5 -72q0 -44 13 -82t35.5 -66t53 -44t64.5 -16zM108 558l122 60q-23 18 -52 35t-59 32l22 36q34 -17 67.5 -37.5t62.5 -43.5
l122 61l16 -34l-106 -53q43 -36 75.5 -77.5t55.5 -86.5q20 -43 31.5 -92t11.5 -108q0 -69 -19.5 -118.5t-51 -81t-71.5 -46.5t-80 -15q-46 0 -85.5 17.5t-68 49.5t-44.5 77.5t-16 101.5q0 61 19 109t49.5 80.5t69.5 49.5t79 17q35 0 69.5 -11t69.5 -46l2 3
q-23 43 -56.5 81.5t-79.5 74.5l-141 -68z" />
    <glyph glyph-name="ntilde" unicode="&#xf1;" horiz-adv-x="536" 
d="M81 365q0 33 -1 59.5t-3 55.5h44l4 -87h2q20 41 62.5 69.5t102.5 28.5q17 0 45.5 -6.5t55.5 -27.5t46.5 -61.5t19.5 -107.5v-288h-47v284q0 33 -7 63t-22.5 53t-41 36.5t-62.5 13.5q-26 0 -49 -8.5t-41.5 -23.5t-32.5 -35t-21 -43q-3 -9 -5 -20.5t-2 -22.5v-297h-47v365z
M157 573q-1 40 15 63.5t45 23.5q14 0 27 -6t33 -17q12 -6 22 -10.5t20 -4.5q11 0 18.5 8.5t9.5 32.5h33q0 -38 -14 -61t-46 -23q-14 0 -27.5 6t-28.5 14q-17 9 -27 14t-19 5q-13 0 -19.5 -12.5t-8.5 -32.5h-33z" />
    <glyph glyph-name="ograve" unicode="&#xf2;" horiz-adv-x="532" 
d="M268 491q50 0 91 -18t70.5 -50t45.5 -77.5t16 -100.5q0 -68 -21 -116t-54 -79.5t-74 -46t-81 -14.5q-47 0 -87 17.5t-69.5 49.5t-46.5 78t-17 102q0 62 18.5 109.5t50 80t72.5 49t86 16.5zM267 452q-46 0 -79.5 -19t-55.5 -49t-32.5 -68t-10.5 -77q0 -45 13.5 -83.5
t37 -66.5t55.5 -44t69 -16t70 16t57 44.5t38 67.5t14 85q0 33 -10 70t-31 68t-54.5 51.5t-80.5 20.5zM223 688l89 -138h-37l-122 138h70z" />
    <glyph glyph-name="oacute" unicode="&#xf3;" horiz-adv-x="532" 
d="M268 491q50 0 91 -18t70.5 -50t45.5 -77.5t16 -100.5q0 -68 -21 -116t-54 -79.5t-74 -46t-81 -14.5q-47 0 -87 17.5t-69.5 49.5t-46.5 78t-17 102q0 62 18.5 109.5t50 80t72.5 49t86 16.5zM267 452q-46 0 -79.5 -19t-55.5 -49t-32.5 -68t-10.5 -77q0 -45 13.5 -83.5
t37 -66.5t55.5 -44t69 -16t70 16t57 44.5t38 67.5t14 85q0 33 -10 70t-31 68t-54.5 51.5t-80.5 20.5zM381 688l-122 -138h-37l89 138h70z" />
    <glyph glyph-name="ocircumflex" unicode="&#xf4;" horiz-adv-x="532" 
d="M268 491q50 0 91 -18t70.5 -50t45.5 -77.5t16 -100.5q0 -68 -21 -116t-54 -79.5t-74 -46t-81 -14.5q-47 0 -87 17.5t-69.5 49.5t-46.5 78t-17 102q0 62 18.5 109.5t50 80t72.5 49t86 16.5zM267 452q-46 0 -79.5 -19t-55.5 -49t-32.5 -68t-10.5 -77q0 -45 13.5 -83.5
t37 -66.5t55.5 -44t69 -16t70 16t57 44.5t38 67.5t14 85q0 33 -10 70t-31 68t-54.5 51.5t-80.5 20.5zM282 688l94 -138h-48l-62 100h-2l-63 -100h-45l91 138h35z" />
    <glyph glyph-name="otilde" unicode="&#xf5;" horiz-adv-x="532" 
d="M268 491q50 0 91 -18t70.5 -50t45.5 -77.5t16 -100.5q0 -68 -21 -116t-54 -79.5t-74 -46t-81 -14.5q-47 0 -87 17.5t-69.5 49.5t-46.5 78t-17 102q0 62 18.5 109.5t50 80t72.5 49t86 16.5zM267 452q-46 0 -79.5 -19t-55.5 -49t-32.5 -68t-10.5 -77q0 -45 13.5 -83.5
t37 -66.5t55.5 -44t69 -16t70 16t57 44.5t38 67.5t14 85q0 33 -10 70t-31 68t-54.5 51.5t-80.5 20.5zM155 573q-1 40 15 63.5t45 23.5q14 0 27 -6t33 -17q12 -6 22 -10.5t20 -4.5q11 0 18.5 8.5t9.5 32.5h33q0 -38 -14 -61t-46 -23q-14 0 -27.5 6t-28.5 14q-17 9 -27 14
t-19 5q-13 0 -19.5 -12.5t-8.5 -32.5h-33z" />
    <glyph glyph-name="odieresis" unicode="&#xf6;" horiz-adv-x="532" 
d="M268 491q50 0 91 -18t70.5 -50t45.5 -77.5t16 -100.5q0 -68 -21 -116t-54 -79.5t-74 -46t-81 -14.5q-47 0 -87 17.5t-69.5 49.5t-46.5 78t-17 102q0 62 18.5 109.5t50 80t72.5 49t86 16.5zM267 452q-46 0 -79.5 -19t-55.5 -49t-32.5 -68t-10.5 -77q0 -45 13.5 -83.5
t37 -66.5t55.5 -44t69 -16t70 16t57 44.5t38 67.5t14 85q0 33 -10 70t-31 68t-54.5 51.5t-80.5 20.5zM181 578q-17 0 -27 12t-10 27q0 16 10.5 27.5t27.5 11.5q16 0 26 -11.5t10 -27.5q0 -15 -10 -27t-27 -12zM351 578q-17 0 -27 12t-10 27q0 16 10.5 27.5t27.5 11.5
q16 0 26 -11.5t10 -27.5q0 -15 -10 -27t-27 -12z" />
    <glyph glyph-name="divide" unicode="&#xf7;" horiz-adv-x="596" 
d="M298 398q-18 0 -29.5 13t-10.5 31q0 19 11.5 31.5t29.5 12.5t29 -12.5t11 -31.5q0 -18 -11 -31t-30 -13zM40 247v40h516v-40h-516zM298 48q-18 0 -29.5 13t-10.5 31q0 19 11.5 31.5t29.5 12.5t29 -12.5t11 -31.5q0 -18 -11 -31t-30 -13z" />
    <glyph glyph-name="oslash" unicode="&#xf8;" horiz-adv-x="532" 
d="M268 491q33 0 65.5 -9.5t60.5 -29.5l39 55l31 -21l-41 -60q33 -34 50.5 -80.5t17.5 -100.5q0 -67 -20.5 -115.5t-52.5 -79.5t-72.5 -46t-79.5 -15q-35 0 -68 9.5t-60 29.5l-41 -55l-28 25l41 56q-32 33 -50.5 79t-18.5 103q0 62 18.5 109.5t50 80t72.5 49t86 16.5z
M370 416q-42 36 -104 36q-47 0 -80.5 -19.5t-55 -50t-31.5 -68.5t-10 -75q0 -39 11 -77t35 -71h2zM163 63q22 -18 46.5 -26t52.5 -8q40 0 73 16.5t57 45t37.5 67.5t13.5 85q0 29 -10 69t-36 75l-2 1z" />
    <glyph glyph-name="ugrave" unicode="&#xf9;" horiz-adv-x="531" 
d="M450 117q0 -32 1 -60.5t3 -56.5h-44l-3 85h-2q-9 -17 -24 -34t-35.5 -30.5t-47 -22.5t-58.5 -9q-23 0 -51.5 7.5t-53 30t-41.5 64.5t-17 110v279h47v-270q0 -39 6.5 -72t21.5 -56.5t39.5 -37t60.5 -13.5q26 0 48.5 8.5t40.5 22t31 31t21 35.5q4 11 7 25t3 28v299h47v-363
zM215 688l89 -138h-37l-122 138h70z" />
    <glyph glyph-name="uacute" unicode="&#xfa;" horiz-adv-x="531" 
d="M450 117q0 -32 1 -60.5t3 -56.5h-44l-3 85h-2q-9 -17 -24 -34t-35.5 -30.5t-47 -22.5t-58.5 -9q-23 0 -51.5 7.5t-53 30t-41.5 64.5t-17 110v279h47v-270q0 -39 6.5 -72t21.5 -56.5t39.5 -37t60.5 -13.5q26 0 48.5 8.5t40.5 22t31 31t21 35.5q4 11 7 25t3 28v299h47v-363
zM394 688l-122 -138h-37l89 138h70z" />
    <glyph glyph-name="ucircumflex" unicode="&#xfb;" horiz-adv-x="531" 
d="M450 117q0 -32 1 -60.5t3 -56.5h-44l-3 85h-2q-9 -17 -24 -34t-35.5 -30.5t-47 -22.5t-58.5 -9q-23 0 -51.5 7.5t-53 30t-41.5 64.5t-17 110v279h47v-270q0 -39 6.5 -72t21.5 -56.5t39.5 -37t60.5 -13.5q26 0 48.5 8.5t40.5 22t31 31t21 35.5q4 11 7 25t3 28v299h47v-363
zM281 688l94 -138h-48l-62 100h-2l-63 -100h-45l91 138h35z" />
    <glyph glyph-name="udieresis" unicode="&#xfc;" horiz-adv-x="531" 
d="M450 117q0 -32 1 -60.5t3 -56.5h-44l-3 85h-2q-9 -17 -24 -34t-35.5 -30.5t-47 -22.5t-58.5 -9q-23 0 -51.5 7.5t-53 30t-41.5 64.5t-17 110v279h47v-270q0 -39 6.5 -72t21.5 -56.5t39.5 -37t60.5 -13.5q26 0 48.5 8.5t40.5 22t31 31t21 35.5q4 11 7 25t3 28v299h47v-363
zM183 578q-17 0 -27 12t-10 27q0 16 10.5 27.5t27.5 11.5q16 0 26 -11.5t10 -27.5q0 -15 -10 -27t-27 -12zM353 578q-17 0 -27 12t-10 27q0 16 10.5 27.5t27.5 11.5q16 0 26 -11.5t10 -27.5q0 -15 -10 -27t-27 -12z" />
    <glyph glyph-name="yacute" unicode="&#xfd;" horiz-adv-x="440" 
d="M62 480l126 -314q10 -26 19 -53t16 -50h2q8 23 17 50t20 56l117 311h51l-144 -358q-22 -56 -41 -101t-38 -81t-39 -63t-44 -48q-29 -24 -52 -35.5t-32 -14.5l-15 40q18 7 40.5 20t43.5 34q18 17 40 47t40 73q6 16 6 21q0 6 -6 21l-178 445h51zM348 688l-122 -138h-37
l89 138h70z" />
    <glyph glyph-name="thorn" unicode="&#xfe;" horiz-adv-x="552" 
d="M128 710v-316h2q26 45 69 71t107 26q45 0 82.5 -18t65 -50.5t42.5 -77t15 -97.5q0 -66 -18.5 -114.5t-49 -80.5t-70 -48t-82.5 -16q-51 0 -93 22t-68 66h-2v-275h-47v908h47zM128 186q0 -11 1.5 -22t5.5 -21q16 -54 59.5 -84t99.5 -30q37 0 68.5 15t53.5 43.5t34.5 69
t12.5 90.5q0 40 -11.5 77.5t-33 65.5t-53 45t-71.5 17q-25 0 -49.5 -8.5t-45.5 -24t-37 -38t-25 -49.5q-3 -12 -6 -26t-3 -28v-92z" />
    <glyph glyph-name="ydieresis" unicode="&#xff;" horiz-adv-x="440" 
d="M62 480l126 -314q10 -26 19 -53t16 -50h2q8 23 17 50t20 56l117 311h51l-144 -358q-22 -56 -41 -101t-38 -81t-39 -63t-44 -48q-29 -24 -52 -35.5t-32 -14.5l-15 40q18 7 40.5 20t43.5 34q18 17 40 47t40 73q6 16 6 21q0 6 -6 21l-178 445h51zM147 578q-17 0 -27 12
t-10 27q0 16 10.5 27.5t27.5 11.5q16 0 26 -11.5t10 -27.5q0 -15 -10 -27t-27 -12zM317 578q-17 0 -27 12t-10 27q0 16 10.5 27.5t27.5 11.5q16 0 26 -11.5t10 -27.5q0 -15 -10 -27t-27 -12z" />
    <glyph glyph-name="OE" unicode="&#x152;" horiz-adv-x="868" 
d="M832 0h-322q-16 0 -33.5 -2t-35.5 -4q-20 -2 -40.5 -3.5t-43.5 -1.5q-74 0 -133 25.5t-100 71.5t-63.5 109t-22.5 138q0 84 24.5 149.5t68 110.5t103 68.5t130.5 23.5q26 0 46.5 -1.5t39.5 -3.5q38 -5 65 -6h301v-40h-285v-259h269v-41h-269v-294h301v-40zM483 630
q-23 6 -51.5 10.5t-71.5 4.5q-67 0 -118 -23.5t-85.5 -65t-52 -98t-17.5 -122.5q0 -69 19 -125.5t55 -97t88 -62.5t118 -22q34 0 65 4t51 11v586z" />
    <glyph glyph-name="oe" unicode="&#x153;" horiz-adv-x="860" 
d="M477 245q-1 -53 12 -93t36.5 -67t56.5 -41t72 -14q46 0 75.5 9t50.5 19l14 -38q-23 -13 -62 -22t-83 -9q-69 0 -120.5 32.5t-77.5 99.5h-2q-12 -34 -32.5 -59t-46 -41t-54.5 -24t-57 -8q-47 0 -87 17.5t-69 50t-45.5 78t-16.5 101.5q0 60 17.5 107.5t48 80t70.5 50
t85 17.5q68 0 118.5 -35t71.5 -98h2q26 67 73.5 100t107.5 33q58 0 94 -24.5t56 -59t27 -71t7 -60.5v-18.5t-2 -12.5h-340zM260 452q-47 0 -79.5 -20.5t-53 -51.5t-29.5 -69t-9 -72q0 -45 13.5 -83t36.5 -66.5t54 -44.5t67 -16q37 0 68.5 15.5t54.5 43t35.5 66.5t12.5 86
q0 38 -10 76t-30.5 68t-53 49t-77.5 19zM769 283q1 25 -5 54.5t-22 55t-43 42.5t-68 17q-39 0 -66.5 -16t-46 -41t-28.5 -54.5t-13 -57.5h292z" />
    <glyph glyph-name="Ydieresis" unicode="&#x178;" horiz-adv-x="503" 
d="M230 0v292l-215 382h54l111 -201q21 -40 40 -74t36 -71h2q16 35 35.5 70.5t42.5 75.5l115 200h54l-228 -383v-291h-47zM175 717q-17 0 -27 11.5t-10 28.5q0 16 10.5 27.5t27.5 11.5t27 -11.5t10 -27.5q0 -17 -10 -28.5t-28 -11.5zM347 717q-17 0 -27 11.5t-10 28.5
q0 16 10.5 27.5t27.5 11.5t27 -11.5t10 -27.5q0 -17 -10 -28.5t-28 -11.5z" />
    <glyph glyph-name="tilde" unicode="&#x2dc;" horiz-adv-x="300" 
d="M39 573q-1 40 15 63.5t45 23.5q14 0 27 -6t33 -17q12 -6 22 -10.5t20 -4.5q11 0 18.5 8.5t9.5 32.5h33q0 -38 -14 -61t-46 -23q-14 0 -27.5 6t-28.5 14q-17 9 -27 14t-19 5q-13 0 -19.5 -12.5t-8.5 -32.5h-33z" />
    <glyph glyph-name="endash" unicode="&#x2013;" horiz-adv-x="500" 
d="M470 273v-38h-440v38h440z" />
    <glyph glyph-name="emdash" unicode="&#x2014;" horiz-adv-x="1000" 
d="M970 273v-38h-940v38h940z" />
    <glyph glyph-name="quoteleft" unicode="&#x2018;" horiz-adv-x="174" 
d="M40 463q7 28 17.5 61.5t21.5 64.5t21.5 55.5t16.5 35.5l33 5q-6 -16 -13.5 -42.5t-15 -56.5t-14 -60t-9.5 -53z" />
    <glyph glyph-name="quoteright" unicode="&#x2019;" horiz-adv-x="174" 
d="M150 685q-7 -28 -17.5 -61.5t-22 -64.5t-21.5 -56t-16 -35l-33 -5q6 16 13.5 42.5t15 56.5t14 60.5t9.5 53.5z" />
    <glyph glyph-name="quotedblleft" unicode="&#x201c;" horiz-adv-x="293" 
d="M40 463q7 28 17.5 61.5t21.5 64.5t21.5 55.5t16.5 35.5l33 5q-6 -16 -13.5 -42.5t-15 -56.5t-14 -60t-9.5 -53zM159 463q7 28 17.5 61.5t21.5 64.5t21.5 55.5t16.5 35.5l33 5q-6 -16 -13.5 -42.5t-15 -56.5t-14 -60t-9.5 -53z" />
    <glyph glyph-name="quotedblright" unicode="&#x201d;" horiz-adv-x="293" 
d="M150 685q-7 -28 -17.5 -61.5t-22 -64.5t-21.5 -56t-16 -35l-33 -5q6 16 13.5 42.5t15 56.5t14 60.5t9.5 53.5zM269 685q-7 -28 -17.5 -61.5t-22 -64.5t-21.5 -56t-16 -35l-33 -5q6 16 13.5 42.5t15 56.5t14 60.5t9.5 53.5z" />
    <glyph glyph-name="quotedblbase" unicode="&#x201e;" horiz-adv-x="293" 
d="M23 -126q6 16 13.5 42t15 56t14 60.5t9.5 53.5l59 10q-7 -28 -17.5 -61.5t-22 -64.5t-21.5 -56t-16 -35zM142 -126q6 16 13.5 42t15 56t14 60.5t9.5 53.5l59 10q-7 -28 -17.5 -61.5t-22 -64.5t-21.5 -56t-16 -35z" />
    <glyph glyph-name="bullet" unicode="&#x2022;" horiz-adv-x="247" 
d="M124 173q-37 0 -63 25.5t-26 63.5q0 18 7 34.5t19 28.5t28.5 19t34.5 7q38 0 64 -26t26 -63t-26 -63t-64 -26z" />
    <glyph glyph-name="ellipsis" unicode="&#x2026;" horiz-adv-x="1000" 
d="M167 -11q-18 0 -29.5 13.5t-10.5 31.5q0 20 11.5 32.5t29.5 12.5t29 -12.5t11 -32.5q0 -18 -11 -31.5t-30 -13.5zM500 -11q-18 0 -29.5 13.5t-10.5 31.5q0 20 11.5 32.5t29.5 12.5t29 -12.5t11 -32.5q0 -18 -11 -31.5t-30 -13.5zM833 -11q-18 0 -29.5 13.5t-10.5 31.5
q0 20 11.5 32.5t29.5 12.5t29 -12.5t11 -32.5q0 -18 -11 -31.5t-30 -13.5z" />
    <glyph glyph-name="guilsinglleft" unicode="&#x2039;" horiz-adv-x="246" 
d="M80 252l143 -180h-50l-143 180l143 180h49z" />
    <glyph glyph-name="guilsinglright" unicode="&#x203a;" horiz-adv-x="246" 
d="M23 432h50l143 -180l-143 -180h-49l142 180z" />
    <glyph glyph-name="Euro" unicode="&#x20ac;" 
d="M478 33q-22 -17 -58 -30.5t-87 -13.5q-107 0 -178 74q-33 35 -54 84.5t-27 112.5h-61v37h58v13q0 14 0.5 27.5t1.5 26.5h-60v37h66q8 60 31.5 107.5t58.5 81.5t78 52.5t98 18.5q45 0 76 -11t48 -22l-15 -37q-19 13 -48.5 21.5t-63.5 8.5q-44 0 -78 -14t-61 -40
q-29 -28 -48.5 -70.5t-28.5 -95.5h298v-37h-303q-2 -11 -2 -23.5v-25.5v-18h305v-37h-303q7 -57 24.5 -98t44.5 -70q29 -32 67 -47t81 -15q44 0 76.5 13t50.5 24z" />
    <glyph glyph-name="trademark" unicode="&#x2122;" horiz-adv-x="600" 
d="M253 674v-31h-92v-241h-36v241h-92v31h220zM548 402l-13 185q-1 12 -1.5 26.5t-1.5 31.5h-2q-5 -12 -11 -30.5t-11 -34.5l-63 -174h-41l-64 179q-4 13 -10 30t-10 30h-2q0 -14 -0.5 -28t-1.5 -30l-13 -185h-36l22 272h53l64 -174q6 -15 10 -29t9 -28h2q5 14 9.5 29
t7.5 26l64 176h54l24 -272h-38z" />
    <glyph glyph-name="G_tildecomb" unicode="&#xe000;" horiz-adv-x="624" 
d="M565 30q-26 -11 -76.5 -24t-119.5 -13q-67 0 -127.5 19.5t-111.5 69.5q-42 41 -67 106t-25 147q0 70 22.5 133t67 110t110 75t151.5 28q55 0 96 -10.5t61 -19.5l-15 -40q-26 13 -61 21t-83 8q-70 0 -125.5 -21.5t-94.5 -61.5t-59.5 -95.5t-20.5 -124.5q0 -71 20.5 -127.5
t58 -95.5t91 -59.5t120.5 -20.5q53 0 87.5 6.5t53.5 16.5v238h-157v39h204v-304zM243 716q0 35 16 60.5t47 25.5q14 0 27 -5.5t30 -15.5q11 -6 23.5 -11.5t26.5 -5.5q11 0 18 7t9 30h33q0 -35 -14.5 -57.5t-46.5 -22.5q-13 0 -26.5 5t-31.5 15q-15 8 -27 13.5t-23 5.5
q-14 0 -20 -12.5t-8 -31.5h-33z" />
    <glyph glyph-name="M_uni0302" unicode="&#xe001;" horiz-adv-x="778" 
d="M650 320q-3 38 -5.5 79t-4.5 80.5t-3 75.5t-1 63h-3q-18 -55 -39.5 -115.5t-50.5 -135.5l-142 -367h-33l-133 358q-29 79 -50.5 141.5t-36.5 118.5h-3q-1 -60 -4.5 -141.5t-9.5 -166.5l-21 -310h-47l49 674h55l145 -388q23 -65 41.5 -117.5t32.5 -101.5h2q14 47 32 98.5
t44 119.5l150 389h57l46 -674h-47zM407 819l107 -109h-53l-72 74h-2l-72 -74h-50l104 109h38z" />
    <glyph glyph-name="N_uni0302" unicode="&#xe002;" horiz-adv-x="638" 
d="M82 0v674h45l263 -398q41 -63 71 -113t55 -99l2 1q-3 34 -4.5 66t-2 65t-1 68t-0.5 75v335h47v-674h-45l-257 392q-38 59 -71.5 112.5t-59.5 105.5l-2 -1q2 -31 3 -61t2 -62t1 -67.5v-77.5v-341h-46zM337 819l107 -109h-53l-72 74h-2l-72 -74h-50l104 109h38z" />
    <glyph glyph-name="f_f_j" unicode="&#xe003;" horiz-adv-x="762" 
d="M636 651q-16 11 -41.5 20.5t-55.5 9.5q-38 0 -62.5 -14t-39 -37.5t-20.5 -55t-6 -66.5v-28h271v-447q0 -65 -9.5 -110.5t-41.5 -79.5q-13 -14 -29.5 -24t-34 -16t-34 -9t-28.5 -3l-6 39q32 2 57.5 11.5t42.5 28.5q9 11 16 25t11.5 36t6.5 54t2 80v377h-224v-442h-48v442
h-232v-442h-47v442h-69v38h69v24q0 47 12.5 89t42.5 73q20 20 47.5 32t62.5 12q25 0 48.5 -8t37.5 -16l-19 -38q-14 8 -32.5 15t-38.5 7q-48 0 -74 -31q-23 -24 -31.5 -61t-8.5 -77v-21h232v31q0 46 11 84.5t33.5 66.5t57.5 43.5t82 15.5q32 0 63 -9.5t48 -23.5z" />
    <glyph glyph-name="f_j" unicode="&#xe004;" horiz-adv-x="483" 
d="M84 0v442h-69v38h69v31q0 46 11 84.5t33.5 66.5t57 43.5t82.5 15.5q31 0 62 -9.5t48 -23.5l-22 -37q-15 11 -41 20.5t-56 9.5q-38 0 -62.5 -14t-39 -37.5t-20.5 -55t-6 -66.5v-28h272v-447q0 -65 -10 -110.5t-41 -79.5q-13 -14 -30 -24t-34.5 -16t-33.5 -9t-28 -3l-6 39
q31 2 56.5 11.5t42.5 28.5q10 11 16.5 25t11 36t6.5 54t2 80v377h-224v-442h-47z" />
    <glyph glyph-name="g_tildecomb" unicode="&#xe005;" horiz-adv-x="544" 
d="M467 480q-2 -27 -3 -56.5t-1 -67.5v-286q0 -92 -17.5 -143t-47.5 -79q-33 -32 -77.5 -44.5t-85.5 -12.5q-42 0 -83.5 10.5t-68.5 30.5l17 39q25 -17 60 -28.5t82 -11.5q38 0 70 10.5t55 33.5t36 60t13 90v68h-2q-19 -37 -60.5 -65t-106.5 -28q-45 0 -83 18.5t-65.5 50.5
t-42.5 75t-15 92q0 63 19 110.5t49.5 79.5t69 48.5t78.5 16.5q36 0 63 -9t46.5 -22.5t32 -29.5t20.5 -31h2l2 81h44zM416 296q0 25 -6 46q-8 22 -21 42t-32 35t-43 24t-53 9q-38 0 -70 -15t-54.5 -43t-35 -66.5t-12.5 -86.5q0 -41 10.5 -77t32 -64t53.5 -44t74 -16
q48 0 89 28t59 80q9 24 9 51v97zM161 573q-1 40 15 63.5t45 23.5q14 0 27 -6t33 -17q12 -6 22 -10.5t20 -4.5q11 0 18.5 8.5t9.5 32.5h33q0 -38 -14 -61t-46 -23q-14 0 -27.5 6t-28.5 14q-17 9 -27 14t-19 5q-13 0 -19.5 -12.5t-8.5 -32.5h-33z" />
    <glyph glyph-name="m_uni0302" unicode="&#xe006;" horiz-adv-x="819" 
d="M81 365q0 33 -1 59.5t-3 55.5h44l4 -85h2q22 41 59 68.5t96 27.5q51 0 87 -29.5t51 -75.5h2q11 22 23 38t26 27q23 20 50 30t65 10q18 0 44.5 -7t51 -29t42.5 -63t18 -109v-283h-47v278q0 81 -31 126.5t-94 45.5q-45 0 -78.5 -28.5t-47.5 -66.5q-4 -11 -6.5 -22.5
t-2.5 -24.5v-308h-47v300q0 66 -30.5 108t-88.5 42q-24 0 -45.5 -9t-38.5 -24t-29.5 -34.5t-19.5 -40.5q-8 -21 -8 -46v-296h-47v365zM425 688l94 -138h-48l-62 100h-2l-63 -100h-45l91 138h35z" />
    <glyph glyph-name="fraction" horiz-adv-x="119" 
d="M-153 -11l386 672h40l-386 -672h-40z" />
    <glyph glyph-name="circumflex" horiz-adv-x="300" 
d="M166 688l94 -138h-48l-62 100h-2l-63 -100h-45l91 138h35z" />
    <glyph glyph-name="ring" horiz-adv-x="300" 
d="M143 536q-40 0 -66.5 25.5t-26.5 62.5q0 38 26 64.5t68 26.5q38 0 64 -26.5t26 -64.5q0 -19 -7.5 -35t-20 -28t-29 -18.5t-34.5 -6.5zM142 566q24 0 39.5 17.5t15.5 41.5q0 26 -15.5 43t-40.5 17q-24 0 -38 -18t-14 -43q0 -22 15 -40t38 -18z" />
    <glyph glyph-name="dotlessi" horiz-adv-x="209" 
d="M81 0v480h47v-480h-47z" />
    <glyph glyph-name="one.numerator" horiz-adv-x="210" 
d="M101 266v350h-2l-68 -35l-8 34l82 41h36v-390h-40z" />
    <glyph glyph-name="two.numerator" horiz-adv-x="286" 
d="M10 291l64 61q66 61 99 105t33 86q0 33 -20 58t-67 25q-27 0 -48.5 -11.5t-33.5 -21.5l-15 27q17 17 45.5 29t61.5 12q34 0 57 -10.5t37.5 -26.5t20.5 -35t6 -36q0 -29 -10.5 -55.5t-29.5 -52.5t-45.5 -52.5t-58.5 -55.5l-35 -33v-2h185v-36h-246v25z" />
    <glyph glyph-name="three.numerator" horiz-adv-x="279" 
d="M29 630q16 11 42 21t58 10q30 0 51 -8t33.5 -20.5t18.5 -29t6 -33.5q0 -29 -19 -53t-54 -38v-2q41 -7 65.5 -34.5t24.5 -65.5q0 -21 -9 -42t-27 -37.5t-45 -26.5t-63 -10q-34 0 -61.5 8.5t-41.5 19.5l16 32q10 -8 35.5 -17t54.5 -9q28 0 46.5 8t30 20t16 26t4.5 27
q0 23 -10.5 39t-27 25.5t-37.5 14t-43 4.5h-25v33h27q15 0 32 4t32 13t25.5 23.5t10.5 35.5t-16 40t-54 19q-27 0 -48.5 -10t-32.5 -18z" />
    <glyph glyph-name="four.numerator" horiz-adv-x="319" 
d="M201 266v110h-188v27l185 254h45v-246h58v-35h-58v-110h-42zM201 555q0 16 0.5 30t1.5 26l-2 1q-9 -17 -16.5 -29t-15.5 -25l-108 -146v-1h140v144z" />
    <glyph glyph-name="acute.cap" horiz-adv-x="300" 
d="M295 823l-131 -113h-40l98 113h73z" />
    <glyph glyph-name="cedilla.cap" horiz-adv-x="300" 
d="M183 1l-37 -55q29 -4 49 -23t20 -47q0 -38 -28 -56t-65 -18q-17 0 -34 4.5t-28 11.5l12 34q11 -5 24 -9t30 -4q19 0 32.5 8.5t13.5 26.5q0 22 -22.5 32t-54.5 13l50 82h38z" />
    <glyph glyph-name="circumflex.cap" horiz-adv-x="300" 
d="M168 819l107 -109h-53l-72 74h-2l-72 -74h-50l104 109h38z" />
    <glyph glyph-name="dieresis.cap" horiz-adv-x="300" 
d="M64 726q-17 0 -27 11.5t-10 28.5q0 16 10.5 27.5t27.5 11.5t27 -11.5t10 -27.5q0 -17 -10 -28.5t-28 -11.5zM236 726q-17 0 -27 11.5t-10 28.5q0 16 10.5 27.5t27.5 11.5t27 -11.5t10 -27.5q0 -17 -10 -28.5t-28 -11.5z" />
    <glyph glyph-name="grave.cap" horiz-adv-x="300" 
d="M79 823l97 -113h-40l-131 113h74z" />
    <glyph glyph-name="ring.cap" horiz-adv-x="400" 
d="M202 867q40 0 65 -25t25 -61q0 -18 -7 -33t-19 -26t-28.5 -17.5t-35.5 -6.5q-40 0 -65.5 24t-25.5 59t25 60.5t66 25.5zM201 839q-23 0 -36.5 -17.5t-13.5 -40.5q0 -21 14 -38t36 -17q23 0 37 16.5t14 40.5q0 23 -14 39.5t-37 16.5z" />
    <glyph glyph-name="tilde.cap" horiz-adv-x="300" 
d="M35 716q0 35 16 60.5t47 25.5q14 0 27 -5.5t30 -15.5q11 -6 23.5 -11.5t26.5 -5.5q11 0 18 7t9 30h33q0 -35 -14.5 -57.5t-46.5 -22.5q-13 0 -26.5 5t-31.5 15q-15 8 -27 13.5t-23 5.5q-14 0 -20 -12.5t-8 -31.5h-33z" />
    <glyph glyph-name="uni03BC" horiz-adv-x="534" 
d="M407 80q-9 -15 -22.5 -30.5t-32.5 -29t-42.5 -22t-52.5 -8.5q-42 0 -76.5 15.5t-52.5 52.5v-71q0 -20 0.5 -45.5t1.5 -51.5t3 -49t6 -39h-44q-8 26 -11 72.5t-3 106.5v499h47v-293q0 -30 7 -58.5t22.5 -50t40.5 -34.5t61 -13q26 0 48 8.5t39.5 22t30 31t20.5 35.5
q4 11 7 25t3 28v299h47v-363q0 -45 9.5 -66t39.5 -23l-6 -38q-8 -1 -8.5 -1h-7.5q-12 0 -24.5 4.5t-22.5 15t-16.5 28t-7.5 43.5h-3z" />
    <glyph glyph-name="uni20BD.taboldstyle" horiz-adv-x="512" 
d="M156 246h83q48 0 80.5 9.5t52.5 26t28.5 37.5t8.5 45q0 21 -8.5 40.5t-28 34.5t-50.5 24t-75 9q-31 0 -54 -2t-37 -4v-220zM156 210v-64h234v-36h-234v-110h-46v110h-77v36h77v64h-77v36h77v255q28 4 62.5 7.5t75.5 3.5q45 0 83.5 -9.5t66 -28t43 -46t15.5 -63.5
q0 -31 -11 -59t-36 -49.5t-67 -34t-103 -12.5h-83z" />
    </font>
</defs>
</svg>
