<?xml version="1.0" standalone="no"?>
<!DOCTYPE svg PUBLIC "-//W3C//DTD SVG 1.1//EN" "http://www.w3.org/Graphics/SVG/1.1/DTD/svg11.dtd" >
<svg>
<metadata>
Created by FontForge 20120731 at Mon Jun 22 07:15:54 2015
 By ,,,
(c) 1992, 1994, 1997, 2000, 2004 Adobe Systems Incorporated. All rights reserved.
</metadata>
<defs>
<font id="556c80bca3d4d51fb66f3a7a82b13cc7dd849917eb287054f4e24e286910430" horiz-adv-x="596" >
  <font-face 
    font-family="556c80bca3d4d51fb66f3a7a82b13cc7dd849917eb287054f4e24e286910430d"
    font-weight="600"
    font-style="italic"
    font-stretch="normal"
    units-per-em="1000"
    panose-1="2 11 6 3 3 4 3 9 2 4"
    ascent="750"
    descent="-250"
    x-height="487"
    cap-height="674"
    bbox="-193 -250 980 882"
    underline-thickness="50"
    underline-position="-50"
    slope="-11"
    unicode-range="U+0020-E006"
  />
<missing-glyph horiz-adv-x="500" 
d="M0 700h500v-700h-500v700zM420 650h-340l170 -255zM450 95v510l-170 -255zM420 50l-170 255l-170 -255h340zM50 95l170 255l-170 255v-510z" />
    <glyph glyph-name=".notdef" horiz-adv-x="500" 
d="M0 700h500v-700h-500v700zM420 650h-340l170 -255zM450 95v510l-170 -255zM420 50l-170 255l-170 -255h340zM50 95l170 255l-170 255v-510z" />
    <glyph glyph-name=".null" horiz-adv-x="0" 
 />
    <glyph glyph-name="nonmarkingreturn" horiz-adv-x="333" 
 />
    <glyph glyph-name="space" unicode=" " horiz-adv-x="183" 
 />
    <glyph glyph-name="space" unicode="&#xa0;" horiz-adv-x="183" 
 />
    <glyph glyph-name="exclam" unicode="!" horiz-adv-x="254" 
d="M74 209l72 465h127l-107 -465h-92zM87 -11q-32 0 -50.5 20.5t-18.5 50.5q0 35 23 60t58 25q32 0 51.5 -20.5t19.5 -52.5q0 -35 -23.5 -59t-59.5 -24z" />
    <glyph glyph-name="quotedbl" unicode="&#x22;" horiz-adv-x="350" 
d="M229 685l-69 -262h-74l30 262h113zM402 685l-69 -262h-74l30 262h113z" />
    <glyph glyph-name="numbersign" unicode="#" horiz-adv-x="519" 
d="M297 262l40 130h-88l-40 -130h88zM51 0l58 187h-82l13 75h94l41 130h-86l13 75h96l58 183h74l-58 -183h89l58 183h74l-57 -183h81l-12 -75h-93l-40 -130h85l-13 -75h-97l-57 -187h-76l59 187h-89l-58 -187h-75z" />
    <glyph glyph-name="dollar" unicode="$" horiz-adv-x="519" 
d="M153 -87l18 98q-42 2 -82.5 17t-62.5 32l38 89q26 -20 62.5 -33.5t84.5 -13.5q49 0 82 24t33 65q0 29 -18.5 52t-65.5 46q-60 31 -99 70.5t-39 95.5q0 36 14 67.5t39 56t60 40t78 20.5l18 93h79l-17 -93q39 -2 71 -12.5t49 -22.5l-38 -87q-18 10 -49 22t-78 12
q-48 0 -74.5 -23.5t-26.5 -55.5q0 -28 22 -48.5t77 -48.5q59 -30 91.5 -70.5t32.5 -94.5q0 -44 -16 -79t-43.5 -60t-64 -40t-77.5 -20l-19 -98h-79z" />
    <glyph glyph-name="percent" unicode="%" horiz-adv-x="826" 
d="M266 660q33 0 58 -11t41.5 -30.5t25 -45.5t8.5 -55q0 -54 -15 -100.5t-41.5 -81.5t-62.5 -55t-79 -20q-61 0 -98.5 40.5t-37.5 109.5q0 48 14 92.5t40.5 79.5t63.5 56t83 21zM255 591q-24 0 -42 -18t-31 -45.5t-19.5 -59.5t-6.5 -59q0 -32 12.5 -55.5t42.5 -23.5
q24 0 42 19t30 47.5t18.5 61t6.5 58.5q0 14 -2.5 27.5t-8.5 24t-16.5 17t-25.5 6.5zM146 -11l486 672h73l-485 -672h-74zM657 392q33 0 58 -11t41.5 -30.5t25 -45.5t8.5 -56q0 -54 -15 -100.5t-41 -81.5t-62 -55t-79 -20q-62 0 -99.5 40t-37.5 110q0 47 14 92t40.5 80
t63.5 56.5t83 21.5zM646 323q-24 0 -42 -18.5t-31 -46t-19.5 -59.5t-6.5 -60q0 -32 12.5 -55t42.5 -23q24 0 42 19t30 47.5t18.5 61t6.5 59.5q0 13 -2.5 26.5t-8.5 24.5t-16.5 17.5t-25.5 6.5z" />
    <glyph glyph-name="ampersand" unicode="&#x26;" horiz-adv-x="631" 
d="M438 0q-11 13 -20.5 26t-20.5 27q-37 -30 -81.5 -47t-103.5 -17q-45 0 -81.5 12.5t-62 35.5t-39 55t-13.5 71t13.5 71.5t36.5 58.5t52.5 46.5t61.5 35.5l1 3q-17 29 -27 58t-10 60q0 39 14.5 73.5t40.5 60t62 40.5t79 15q36 0 65 -10.5t49 -29.5t31 -45t11 -57
q0 -60 -42.5 -106t-127.5 -85v-3q23 -38 52 -80.5t52 -74.5q32 38 55 84.5t41 100.5h108q-27 -79 -62.5 -143.5t-88.5 -116.5q20 -27 43 -57t49 -62h-137zM244 78q33 0 59.5 12t46.5 32q-25 35 -60.5 85t-68.5 104q-14 -9 -29 -21t-28 -28t-21.5 -36t-8.5 -44q0 -44 28 -74
t82 -30zM330 607q-34 0 -57 -28t-23 -71q0 -49 30 -94q49 23 79.5 54t30.5 73q0 26 -14 46t-46 20z" />
    <glyph glyph-name="quotesingle" unicode="'" horiz-adv-x="184" 
d="M233 685l-68 -261h-75l31 261h112z" />
    <glyph glyph-name="parenleft" unicode="(" horiz-adv-x="301" 
d="M359 691q-39 -47 -74.5 -105t-63.5 -125.5t-44.5 -144t-16.5 -159.5q0 -71 10 -136t37 -138h-84q-29 60 -44 128t-15 144q0 88 17 166.5t45.5 146.5t65.5 124t77 99h90z" />
    <glyph glyph-name="parenright" unicode=")" horiz-adv-x="301" 
d="M-41 -117q39 47 75 105t63.5 126t44.5 144.5t17 159.5q0 71 -10 135.5t-38 137.5h86q28 -60 43 -127.5t15 -143.5q0 -89 -17 -167.5t-45.5 -146t-65.5 -124t-77 -99.5h-91z" />
    <glyph glyph-name="asterisk" unicode="*" horiz-adv-x="435" 
d="M415 642l-117 -126l1 -2l159 27l-17 -87l-149 23v-2l89 -122l-81 -45l-44 148h-2l-76 -148l-69 45l116 123v2l-156 -24l16 87l144 -27v3l-86 125l82 43l43 -147h2l73 147z" />
    <glyph glyph-name="plus" unicode="+" 
d="M342 532v-226h213v-78h-213v-228h-81v228h-213v78h213v226h81z" />
    <glyph glyph-name="comma" unicode="," horiz-adv-x="238" 
d="M-51 -121q14 28 29 61.5t29 68t26.5 69t21.5 65.5l131 10q-16 -35 -34.5 -72t-38.5 -72t-40 -66.5t-38 -55.5z" />
    <glyph glyph-name="hyphen" unicode="-" horiz-adv-x="315" 
d="M296 309l-16 -85h-251l17 85h250z" />
    <glyph glyph-name="period" unicode="." horiz-adv-x="238" 
d="M89 -10q-32 0 -51 20.5t-19 51.5q0 35 23 60.5t59 25.5q32 0 51.5 -20.5t19.5 -53.5q0 -36 -23.5 -60t-59.5 -24z" />
    <glyph glyph-name="slash" unicode="/" horiz-adv-x="326" 
d="M-46 -40l372 725h87l-373 -725h-86z" />
    <glyph glyph-name="zero" unicode="0" horiz-adv-x="519" 
d="M337 661q49 0 83 -18.5t54 -48.5t29 -68.5t9 -78.5q0 -52 -8.5 -106t-25 -105t-41 -96t-57 -78.5t-73.5 -53t-89 -19.5t-81.5 18t-55 48.5t-31 72.5t-9.5 90q0 79 20 158t57.5 142.5t92.5 103t126 39.5zM323 568q-26 0 -48.5 -17.5t-41 -47t-33 -66.5t-24.5 -76.5
t-15 -77.5t-5 -69q0 -22 2.5 -45t11 -42.5t23.5 -32t40 -12.5q27 0 50 19.5t41 51t31.5 71t22.5 79.5t13.5 77t4.5 63q0 18 -2 40t-9.5 40.5t-22 31.5t-39.5 13z" />
    <glyph glyph-name="one" unicode="1" horiz-adv-x="519" 
d="M284 538h-2l-120 -56l-7 91l166 77h97l-123 -650h-113z" />
    <glyph glyph-name="two" unicode="2" horiz-adv-x="519" 
d="M-2 0l14 76l121 96q56 46 101 86.5t76 77t47.5 70.5t16.5 69t-22.5 61.5t-71.5 26.5q-44 0 -78 -13t-58 -30l-26 84q37 25 87.5 41t101.5 16q48 0 83 -14t58.5 -37t35 -53.5t11.5 -64.5q0 -51 -20 -96.5t-54.5 -87.5t-79.5 -82t-94 -80l-60 -45v-2h251l-19 -99h-421z" />
    <glyph glyph-name="three" unicode="3" horiz-adv-x="519" 
d="M48 123q20 -11 54 -23t81 -12q35 0 62 9.5t45 25.5t27.5 37t9.5 43q0 51 -37.5 75t-98.5 24h-29l18 90h27q24 0 51 6t49.5 19t37 32.5t14.5 45.5q0 31 -20.5 49.5t-65.5 18.5q-39 0 -72.5 -10t-56.5 -24l-19 88q34 20 79 32t92 12q41 0 75 -10.5t59 -29.5t38.5 -46
t13.5 -61q0 -31 -11.5 -57.5t-31 -47.5t-46 -36t-55.5 -23l-1 -2q53 -11 82.5 -50.5t29.5 -93.5q0 -49 -22 -89t-59 -68t-86 -43t-102 -15q-58 0 -103.5 13t-65.5 30z" />
    <glyph glyph-name="four" unicode="4" horiz-adv-x="519" 
d="M257 0l32 167h-278l15 78l326 405h138l-74 -392h81l-17 -91h-81l-32 -167h-110zM306 258l36 175q6 29 13.5 58.5t14.5 57.5h-4q-21 -32 -39 -60t-41 -58l-140 -171l-1 -2h161z" />
    <glyph glyph-name="five" unicode="5" horiz-adv-x="519" 
d="M492 550h-226l-40 -130q8 2 15 2h15q29 0 62.5 -8t62.5 -28q37 -23 55.5 -61t18.5 -83q0 -60 -23 -107t-62 -79.5t-91 -49.5t-109 -17q-54 0 -96 11.5t-60 25.5l32 93q19 -11 53 -21.5t75 -10.5q30 0 59 9.5t51.5 27.5t36 42.5t13.5 54.5q0 24 -7.5 44t-26 35t-49 23.5
t-76.5 8.5q-23 0 -40 -1t-37 -3l92 322h322z" />
    <glyph glyph-name="six" unicode="6" horiz-adv-x="519" 
d="M476 563q-12 0 -26 -0.5t-31 -2.5q-88 -12 -150.5 -64t-91.5 -127l2 -1q28 30 65.5 47.5t79.5 17.5q37 0 67 -13.5t51 -37.5t32.5 -57t11.5 -72q0 -50 -18.5 -97.5t-51.5 -84.5t-79 -59.5t-101 -22.5q-51 0 -89 17t-63 46.5t-37.5 70t-12.5 87.5q0 56 13 108.5t35.5 98
t51.5 82.5t62 64q52 42 114.5 66t128.5 29q18 2 30.5 2t23.5 -1zM241 80q29 0 52 15t39.5 38t25 52t8.5 57q0 50 -24.5 76t-66.5 26q-33 0 -63 -20t-50 -53q-9 -16 -11 -32q-3 -21 -3 -43q0 -50 24 -83t69 -33z" />
    <glyph glyph-name="seven" unicode="7" horiz-adv-x="519" 
d="M544 650l-15 -79q-91 -143 -182 -285t-184 -286h-129q92 138 182 274.5t181 273.5l-1 2h-289l19 100h418z" />
    <glyph glyph-name="eight" unicode="8" horiz-adv-x="519" 
d="M324 661q38 0 71 -10.5t57 -30t38 -48t14 -64.5q0 -55 -33.5 -95t-87.5 -66v-3q47 -26 69.5 -65.5t22.5 -82.5q0 -51 -21.5 -89.5t-57 -65t-79.5 -39.5t-89 -13q-49 0 -87.5 12.5t-65 34.5t-40.5 52t-14 66t11.5 65.5t31.5 53t46.5 41t55.5 29.5v3q-35 26 -51 57.5
t-16 66.5q0 43 18.5 78t49 60t71.5 39t86 14zM239 75q23 0 44 8t36.5 22t24.5 34.5t9 45.5q0 43 -25.5 70t-72.5 44q-21 -6 -41.5 -17t-36 -27.5t-25.5 -38t-10 -48.5q0 -38 24.5 -65.5t72.5 -27.5zM311 575q-21 0 -39.5 -8t-32 -21.5t-21 -31t-7.5 -36.5q0 -35 22.5 -58
t61.5 -37q19 6 36.5 17t31 25t21.5 32t8 38q0 31 -19 55.5t-62 24.5z" />
    <glyph glyph-name="nine" unicode="9" horiz-adv-x="519" 
d="M66 88q13 -2 27 -1t34 3q34 4 68 16t65 35q36 25 64.5 61t46.5 82l-2 1q-26 -29 -62.5 -43.5t-71.5 -14.5q-39 0 -70 13.5t-52.5 37t-33 55t-11.5 67.5q0 51 19.5 98.5t54 83.5t81 57.5t99.5 21.5q50 0 86.5 -17t60.5 -46t35.5 -69t11.5 -85q0 -59 -14.5 -114t-38 -102
t-53 -85t-60.5 -63q-47 -38 -105.5 -60.5t-118.5 -27.5q-26 -2 -43 -2t-31 1zM311 570q-26 0 -48.5 -13.5t-39 -35.5t-26.5 -50t-10 -57q0 -44 22.5 -71t63.5 -27q34 0 61.5 16t44.5 41q5 6 8.5 13t5.5 17q3 11 4.5 27t1.5 32q0 46 -20.5 77t-67.5 31z" />
    <glyph glyph-name="colon" unicode=":" horiz-adv-x="238" 
d="M153 326q-32 0 -51 20.5t-19 50.5q0 35 23 60.5t59 25.5q32 0 51 -21t19 -53q0 -35 -23 -59t-59 -24zM89 -11q-32 0 -51 20.5t-19 50.5q0 35 23 60.5t59 25.5q32 0 51 -20.5t19 -52.5q0 -36 -23 -60t-59 -24z" />
    <glyph glyph-name="semicolon" unicode=";" horiz-adv-x="238" 
d="M-51 -121q14 28 29 61.5t29.5 68t27 69t21.5 65.5l129 10q-15 -35 -34 -72t-38.5 -72t-40 -66.5t-38.5 -55.5zM157 326q-31 0 -50 20.5t-19 50.5q0 17 6 32.5t17 27.5t25.5 19t32.5 7q32 0 51.5 -21t19.5 -53q0 -35 -23.5 -59t-59.5 -24z" />
    <glyph glyph-name="less" unicode="&#x3c;" 
d="M64 302l463 230v-89l-366 -176v-2l366 -176v-89l-463 230v72z" />
    <glyph glyph-name="equal" unicode="=" 
d="M48 331v78h507v-78h-507zM48 128v78h507v-78h-507z" />
    <glyph glyph-name="greater" unicode="&#x3e;" 
d="M547 228l-464 -228v89l372 176v2l-372 176v89l464 -228v-76z" />
    <glyph glyph-name="question" unicode="?" horiz-adv-x="413" 
d="M129 209q0 7 0.5 13.5t1.5 12.5q5 41 27 82t66 89q16 16 31 32t27 31t19 30.5t7 32.5q0 23 -14.5 40t-52.5 18q-31 0 -57.5 -7.5t-47.5 -20.5l-17 83q29 17 67.5 28.5t87.5 11.5q36 0 64.5 -10t48.5 -28t30.5 -42t10.5 -51q0 -30 -9 -55t-24 -48.5t-34.5 -45t-41.5 -43.5
q-33 -33 -49.5 -62.5t-22.5 -64.5q-2 -7 -2.5 -13t-2.5 -13h-113zM153 -11q-32 0 -50.5 20.5t-18.5 50.5q0 35 22.5 60t58.5 25q32 0 51 -20.5t19 -52.5q0 -35 -23 -59t-59 -24z" />
    <glyph glyph-name="at" unicode="@" horiz-adv-x="736" 
d="M452 355q-7 2 -16.5 4t-22.5 2q-29 0 -53.5 -13t-43.5 -34.5t-29.5 -50.5t-10.5 -61q0 -31 14.5 -50t42.5 -19q18 0 34.5 10.5t30.5 27t23.5 38t13.5 43.5zM525 -66q-43 -22 -85 -30t-93 -8q-64 0 -120.5 21.5t-98.5 62t-66.5 99t-24.5 131.5q0 76 26.5 145.5t74.5 122
t116.5 83.5t152.5 31q66 0 120.5 -21.5t93.5 -60t61 -91.5t22 -116q0 -56 -14.5 -100t-39.5 -74.5t-58.5 -47t-71.5 -16.5q-33 0 -56 19.5t-25 62.5h-3q-49 -82 -135 -82q-46 0 -78 34t-32 94q0 46 17 88.5t48 75t74.5 52t96.5 19.5q32 0 63 -6.5t50 -16.5l-31 -183
q-18 -98 27 -98q18 -1 36 10t32.5 33t24 55t9.5 76q0 52 -16 95.5t-46.5 75.5t-75.5 50t-103 18q-59 0 -112 -22.5t-93 -64t-63.5 -100.5t-23.5 -133q0 -63 19 -112t53 -83t81.5 -52t104.5 -18q38 0 76.5 8t68.5 25z" />
    <glyph glyph-name="A" unicode="A" 
d="M188 192l-92 -192h-124l338 674h146l85 -674h-122l-19 192h-212zM393 282l-19 168q-2 27 -5 62.5t-5 65.5h-2q-14 -30 -27.5 -64t-27.5 -64l-82 -168h168z" />
    <glyph glyph-name="B" unicode="B" horiz-adv-x="553" 
d="M150 663q34 8 75 12t87 4q53 0 92 -9.5t70 -31.5q29 -18 47 -47.5t18 -67.5q0 -32 -11.5 -58.5t-31 -47.5t-44.5 -35.5t-53 -21.5v-3q48 -14 78 -52t30 -96q0 -54 -25 -93t-62 -65q-42 -30 -101.5 -42.5t-136.5 -12.5q-51 0 -91.5 2.5t-64.5 7.5zM215 398h54
q33 0 60.5 7.5t47.5 21.5t31 34.5t11 46.5q0 42 -29.5 60.5t-77.5 18.5q-42 0 -62 -5zM155 91q28 -3 62 -3q33 0 63 7t53 22t37 38.5t14 57.5q0 27 -10.5 46t-28.5 30.5t-42 17t-51 5.5h-55z" />
    <glyph glyph-name="C" unicode="C" horiz-adv-x="571" 
d="M512 20q-27 -12 -71.5 -21t-104.5 -9q-66 0 -119 19.5t-90.5 56.5t-57.5 89t-20 118q0 106 42 191.5t116 140.5q106 80 251 80q56 0 94.5 -10.5t52.5 -20.5l-34 -94q-17 9 -49.5 16.5t-77.5 7.5q-48 0 -92.5 -16t-79.5 -46q-45 -39 -71 -100t-26 -135q0 -42 11 -78.5
t34.5 -63t59.5 -41.5t86 -15q37 0 72.5 6.5t62.5 19.5z" />
    <glyph glyph-name="D" unicode="D" horiz-adv-x="666" 
d="M151 664q82 15 178 15q164 0 247 -81q35 -32 56 -80t21 -118q0 -96 -36.5 -178t-100.5 -135q-59 -48 -135 -69.5t-180 -21.5q-54 0 -100 3t-75 7zM160 95q17 -2 35.5 -3t38.5 -1q138 0 213 83q40 42 60 100t20 124q0 42 -11.5 76.5t-35.5 59t-62 38t-91 13.5
q-20 0 -40.5 -1.5t-34.5 -4.5z" />
    <glyph glyph-name="E" unicode="E" horiz-adv-x="496" 
d="M440 300h-242l-38 -201h272l-19 -99h-389l128 674h374l-19 -99h-257l-34 -177h243z" />
    <glyph glyph-name="F" unicode="F" horiz-adv-x="490" 
d="M152 674h372l-20 -99h-254l-36 -190h236l-19 -98h-236l-54 -287h-117z" />
    <glyph glyph-name="G" unicode="G" horiz-adv-x="651" 
d="M554 30q-35 -12 -89 -24.5t-117 -12.5q-70 0 -126 19.5t-96 59.5q-40 38 -58.5 91t-18.5 111q0 91 34.5 171t100.5 137q56 48 129.5 73.5t158.5 25.5q64 0 108 -10.5t62 -20.5l-36 -98q-24 12 -60.5 20t-82.5 8q-54 0 -102 -17t-86 -49q-46 -39 -72.5 -100.5
t-26.5 -130.5q0 -91 48.5 -141t143.5 -50q27 0 49 4.5t37 10.5l32 169h-119l19 94h232z" />
    <glyph glyph-name="H" unicode="H" horiz-adv-x="648" 
d="M269 674l-52 -272h274l52 272h117l-128 -674h-117l57 298h-275l-56 -298h-116l128 674h116z" />
    <glyph glyph-name="I" unicode="I" horiz-adv-x="256" 
d="M267 674l-128 -674h-117l128 674h117z" />
    <glyph glyph-name="J" unicode="J" horiz-adv-x="383" 
d="M-10 105q17 -6 37 -9.5t45 -3.5q51 0 82.5 30.5t46.5 111.5l84 440h116l-86 -453q-23 -124 -80 -178t-162 -54q-32 0 -62 5t-44 12z" />
    <glyph glyph-name="K" unicode="K" horiz-adv-x="556" 
d="M152 674h115l-59 -313h4q16 22 32 40.5t31 36.5l210 236h145l-278 -291l164 -383h-127l-128 310l-76 -71l-46 -239h-115z" />
    <glyph glyph-name="L" unicode="L" horiz-adv-x="467" 
d="M152 674h117l-109 -572h265l-19 -102h-382z" />
    <glyph glyph-name="M" unicode="M" horiz-adv-x="802" 
d="M588 0l45 317q8 52 18 118t23 129h-3q-26 -60 -55 -121.5t-57 -115.5l-166 -319h-90l-35 314q-6 57 -10.5 119.5t-7.5 122.5h-2q-7 -29 -14 -61.5t-14 -65.5t-14 -64t-13 -56l-77 -317h-108l171 674h154l36 -315q4 -45 8 -95.5t5 -98.5h4q18 48 40.5 98.5t44.5 94.5
l163 316h156l-89 -674h-113z" />
    <glyph glyph-name="N" unicode="N" horiz-adv-x="651" 
d="M24 0l128 674h134l118 -313q22 -62 36 -111t25 -100h2q3 50 9.5 102.5t20.5 125.5l56 296h110l-128 -674h-119l-121 319q-12 33 -21 60.5t-16.5 53t-14 50.5t-12.5 53l-4 -1q-5 -48 -15 -110t-24 -137l-55 -288h-109z" />
    <glyph glyph-name="O" unicode="O" horiz-adv-x="688" 
d="M411 685q67 0 117 -22t83 -60t49 -88.5t16 -108.5q0 -45 -8 -90t-23.5 -87t-38 -79t-52.5 -66q-46 -45 -106.5 -70t-134.5 -25q-65 0 -114.5 22t-83 60t-50.5 88.5t-17 107.5q0 45 8.5 90.5t24.5 87.5t39.5 79.5t53.5 66.5q46 45 107 69.5t130 24.5zM397 587
q-39 0 -72.5 -15.5t-60.5 -42.5q-22 -22 -39.5 -52.5t-29.5 -65t-18 -70t-6 -68.5q0 -38 9 -72t28 -59.5t49.5 -40t72.5 -14.5q37 0 71 15t60 42q22 22 39 53t28.5 66t17.5 71t6 68q0 33 -7 66.5t-24 59.5t-47.5 42.5t-76.5 16.5z" />
    <glyph glyph-name="P" unicode="P" horiz-adv-x="535" 
d="M150 663q31 8 74 12t89 4q47 0 93.5 -11t78.5 -37q30 -23 46 -56t16 -78q0 -60 -24.5 -107t-61.5 -76q-41 -32 -96 -48t-115 -16q-18 0 -33.5 1.5t-29.5 3.5l-48 -255h-115zM205 351q14 -3 28 -4.5t33 -1.5q37 0 67.5 11t52 30.5t33 45.5t11.5 56q0 27 -9 45.5t-25 30
t-37 16.5t-46 5q-45 0 -64 -6z" />
    <glyph glyph-name="Q" unicode="Q" horiz-adv-x="688" 
d="M571 -109q-34 9 -69.5 20t-68 22.5t-60.5 22t-46 19.5q-24 10 -33 12.5t-14 3.5q-49 3 -91 23t-73.5 55.5t-49.5 86t-18 113.5q0 43 8 86.5t23 84.5t37.5 78t51.5 67q48 48 111 74t132 26t118.5 -23t82 -61.5t48 -89t15.5 -105.5q0 -42 -7.5 -85.5t-22.5 -84.5t-36.5 -78
t-49.5 -65q-23 -23 -52 -41.5t-60 -29.5v-3q37 -8 80 -17.5t85 -16.5zM397 587q-39 0 -72.5 -15.5t-59.5 -41.5q-23 -23 -40.5 -54t-29.5 -66.5t-18 -71.5t-6 -68q0 -38 9 -71t27.5 -58.5t48.5 -40t72 -14.5q39 0 72.5 15t59.5 41q22 22 39 54t29 67.5t18 72.5t6 69
q0 31 -6.5 63t-24 58.5t-47.5 43.5t-77 17z" />
    <glyph glyph-name="R" unicode="R" horiz-adv-x="556" 
d="M151 663q32 8 76.5 12t89.5 4q49 0 93 -10.5t76 -33.5q29 -20 46.5 -50t17.5 -72q0 -37 -12.5 -68t-33.5 -55.5t-49.5 -42t-60.5 -27.5l-1 -3q33 -13 48.5 -46.5t20.5 -81.5q3 -32 5.5 -61.5t5.5 -54.5t6 -44t7 -29h-120q-4 12 -8.5 56t-9.5 105q-4 65 -27.5 91t-70.5 26
h-57l-53 -278h-115zM210 367h66q34 0 62 10t48 27t31 41t11 51q0 47 -32.5 68.5t-82.5 21.5q-41 0 -62 -6z" />
    <glyph glyph-name="S" unicode="S" horiz-adv-x="490" 
d="M45 133q29 -19 68 -31t84 -12q24 0 47 6.5t40 19t27.5 31.5t10.5 43q0 33 -22.5 58t-72.5 51q-59 32 -98 74t-39 102q0 48 19.5 87t53.5 66.5t79 42t96 14.5q57 0 93.5 -11.5t56.5 -22.5l-38 -97q-17 9 -48.5 20t-73.5 10q-56 0 -86 -27t-30 -61q0 -35 26.5 -58.5
t74.5 -50.5q62 -32 96.5 -74.5t34.5 -104.5q0 -51 -19.5 -91t-54 -68.5t-82 -43.5t-104.5 -15q-62 0 -109 14.5t-70 32.5z" />
    <glyph glyph-name="T" unicode="T" horiz-adv-x="503" 
d="M253 572h-187l20 102h491l-20 -102h-188l-108 -572h-117z" />
    <glyph glyph-name="U" unicode="U" horiz-adv-x="639" 
d="M267 674l-75 -393q-8 -40 -8 -82q1 -52 30 -82t81 -30q63 0 104.5 45t61.5 148l75 394h117l-75 -392q-29 -152 -101.5 -222.5t-196.5 -70.5q-48 0 -87 12.5t-66.5 38t-43 65t-15.5 92.5q0 22 2.5 46t6.5 47l73 384h117z" />
    <glyph glyph-name="V" unicode="V" horiz-adv-x="579" 
d="M165 0l-83 674h119l39 -371q6 -53 9.5 -95.5t5.5 -86.5h2q17 42 37 88t46 99l180 366h129l-351 -674h-133z" />
    <glyph glyph-name="W" unicode="W" horiz-adv-x="848" 
d="M124 0l-29 674h117l7 -347q1 -63 0 -111t-3 -88h2q16 42 32.5 88t42.5 108l151 350h127l5 -340q1 -63 0 -112t-3 -91h2q17 48 34 96.5t37 99.5l145 347h123l-304 -674h-126l-10 325q-1 29 -1 55t0.5 50.5t1.5 50t3 54.5h-3q-17 -52 -34.5 -101t-40.5 -104l-148 -330h-128
z" />
    <glyph glyph-name="X" unicode="X" horiz-adv-x="547" 
d="M370 0l-54 150q-11 32 -20.5 59.5t-18.5 56.5h-2q-17 -26 -33.5 -54t-39.5 -64l-99 -148h-139l257 344l-122 330h123l51 -149q10 -31 17.5 -55.5t15.5 -52.5h2q18 31 33.5 57t32.5 52l102 148h139l-252 -331l131 -343h-124z" />
    <glyph glyph-name="Y" unicode="Y" horiz-adv-x="546" 
d="M155 0l53 277l-131 397h124l53 -192q11 -44 17 -69.5t11 -48.5h2q14 24 30.5 53t39.5 67l121 190h138l-289 -395l-53 -279h-116z" />
    <glyph glyph-name="Z" unicode="Z" horiz-adv-x="540" 
d="M-10 69l421 501v4h-295l19 100h452l-14 -73l-416 -497l1 -4h325l-19 -100h-487z" />
    <glyph glyph-name="bracketleft" unicode="[" horiz-adv-x="301" 
d="M9 -112l152 798h189l-14 -70h-99l-126 -658h100l-13 -70h-189z" />
    <glyph glyph-name="backslash" unicode="\" horiz-adv-x="333" 
d="M228 -40l-172 725h84l172 -725h-84z" />
    <glyph glyph-name="bracketright" unicode="]" horiz-adv-x="301" 
d="M308 686l-152 -798h-189l13 70h99l126 658h-100l14 70h189z" />
    <glyph glyph-name="asciicircum" unicode="^" 
d="M450 182l-154 371h-2l-154 -371h-89l206 468h78l205 -468h-90z" />
    <glyph glyph-name="underscore" unicode="_" horiz-adv-x="500" 
d="M448 -75l-10 -50h-500l10 50h500z" />
    <glyph glyph-name="grave" unicode="`" horiz-adv-x="389" 
d="M249 694l71 -148h-83l-107 148h119z" />
    <glyph glyph-name="a" unicode="a" horiz-adv-x="540" 
d="M340 0q1 22 3.5 50t5.5 60h-3q-36 -68 -82 -94.5t-92 -26.5q-66 0 -105 46t-39 120q0 62 21.5 123.5t64.5 110t107.5 79t149.5 30.5q40 0 79.5 -6.5t67.5 -15.5l-50 -254q-5 -27 -9 -57t-7 -59.5t-4 -56.5t0 -49h-108zM388 403q-9 2 -20.5 3.5t-27.5 1.5
q-41 0 -75.5 -20.5t-60.5 -53.5t-40.5 -74.5t-14.5 -83.5q0 -38 16 -65.5t54 -27.5q20 0 42 12.5t41.5 37t35 60t24.5 82.5z" />
    <glyph glyph-name="b" unicode="b" horiz-adv-x="545" 
d="M269 710l-61 -295h2q29 40 70.5 61.5t89.5 21.5q39 0 67 -14.5t45.5 -38.5t26 -55t8.5 -64q0 -58 -20 -118t-59 -108.5t-98 -79.5t-137 -31q-77 0 -120 32.5t-42 98.5q0 21 2.5 42.5t6.5 41.5l102 506h117zM166 198q-2 -13 -4 -27t-1 -31q0 -62 65 -62q38 0 69.5 22
t53.5 55.5t34 73t12 75.5q0 41 -18 70t-59 29q-23 0 -45 -11t-41 -32t-34 -50.5t-22 -66.5z" />
    <glyph glyph-name="c" unicode="c" horiz-adv-x="430" 
d="M368 17q-21 -11 -57 -19t-83 -8q-46 0 -82.5 14t-62 39.5t-39 61t-13.5 79.5q0 64 23 121t64 100t98 68t125 25q32 0 58.5 -6.5t40.5 -12.5l-30 -91q-14 6 -31.5 10.5t-41.5 4.5q-42 0 -76 -18t-58 -47t-37 -65.5t-13 -74.5q0 -55 29 -84.5t78 -29.5q34 0 59.5 7.5
t44.5 15.5z" />
    <glyph glyph-name="d" unicode="d" horiz-adv-x="544" 
d="M567 710l-102 -537q-8 -42 -14 -87.5t-8 -85.5h-107l10 87h-2q-33 -51 -76 -74.5t-91 -23.5q-33 0 -60 13t-46.5 36.5t-30.5 57t-11 74.5q0 64 22.5 123.5t62.5 105t96 72.5t123 27q19 0 39 -3.5t36 -10.5l43 226h116zM391 389q-11 8 -28 13.5t-39 5.5q-38 0 -69.5 -19
t-55 -50t-36.5 -70.5t-13 -80.5q0 -44 18.5 -74.5t59.5 -30.5q19 0 40 10.5t39 30.5t32.5 49.5t22.5 67.5z" />
    <glyph glyph-name="e" unicode="e" horiz-adv-x="479" 
d="M402 28q-36 -19 -81.5 -28.5t-90.5 -9.5q-51 0 -88.5 14.5t-62 41t-37 63.5t-12.5 82q0 55 19.5 110t55.5 98.5t87 71t114 27.5q72 0 114.5 -38t42.5 -99q0 -47 -23.5 -78.5t-65.5 -50.5t-101 -26.5t-129 -5.5q-2 -13 1.5 -34t11.5 -35q29 -50 100 -50q42 0 75 9t59 23z
M353 360q0 24 -17 37.5t-45 13.5q-27 0 -49.5 -11t-40 -29t-29 -40t-16.5 -44q45 -1 81.5 2.5t62 11.5t39.5 22.5t14 36.5z" />
    <glyph glyph-name="f" unicode="f" horiz-adv-x="308" 
d="M34 0l75 397h-63l17 90h63l5 25q8 47 27 90.5t54 73.5q27 23 60.5 34t67.5 11q26 0 44 -4t28 -9l-22 -92q-19 8 -47 8q-41 0 -65 -33.5t-32 -80.5l-4 -23h101l-17 -90h-101l-75 -397h-116z" />
    <glyph glyph-name="g" unicode="g" horiz-adv-x="543" 
d="M39 -87q22 -13 58 -21t71 -8q28 0 53 7.5t45.5 24.5t35.5 46t24 71l12 55h-2q-59 -86 -153 -86q-36 0 -64.5 14t-48 37.5t-30 54.5t-10.5 66q0 61 21.5 119t62.5 103.5t100 73.5t135 28q48 0 91.5 -9.5t77.5 -24.5l-74 -402q-14 -72 -36.5 -127t-63.5 -90
q-19 -16 -41 -26.5t-45.5 -16.5t-47.5 -8.5t-47 -2.5q-47 0 -87.5 9t-64.5 24zM391 395q-9 5 -26.5 8.5t-37.5 3.5q-38 0 -70 -19t-55 -49.5t-36 -69t-13 -77.5q0 -19 4 -37t13 -31.5t24 -22t37 -8.5t43 12t39 33.5t31.5 50t19.5 61.5z" />
    <glyph glyph-name="h" unicode="h" horiz-adv-x="550" 
d="M20 0l134 710h117l-57 -296h2q31 38 71.5 61t91.5 23q25 0 47.5 -8t39 -24t26 -41t9.5 -58q0 -19 -2 -42.5t-6 -43.5l-54 -281h-116l52 273q2 14 4 30t2 34q0 28 -14 47t-47 19q-21 0 -43 -12t-41 -34.5t-34 -54t-22 -70.5l-44 -232h-116z" />
    <glyph glyph-name="i" unicode="i" horiz-adv-x="249" 
d="M20 0l92 487h117l-93 -487h-116zM191 557q-27 0 -44 17.5t-16 44.5q0 32 20.5 51.5t49.5 19.5q27 0 44.5 -17.5t17.5 -45.5q-1 -32 -22 -51t-50 -19z" />
    <glyph glyph-name="j" unicode="j" horiz-adv-x="254" 
d="M239 487l-90 -477q-12 -62 -27.5 -102.5t-38.5 -66.5t-55.5 -38t-67.5 -12q-16 0 -32 1.5t-31 5.5l14 89q13 -3 35 -3q14 0 26.5 4.5t23 17.5t19.5 35t15 57l93 489h116zM196 557q-26 0 -43 17.5t-17 44.5q0 32 20.5 51.5t49.5 19.5q28 0 45 -17.5t17 -45.5
q0 -32 -21 -51t-51 -19z" />
    <glyph glyph-name="k" unicode="k" horiz-adv-x="496" 
d="M20 0l135 710h115l-82 -434h2q11 14 22.5 27.5t21.5 24.5l146 159h144l-210 -201l140 -286h-129l-100 223l-57 -54l-32 -169h-116z" />
    <glyph glyph-name="l" unicode="l" horiz-adv-x="249" 
d="M20 0l136 710h116l-135 -710h-117z" />
    <glyph glyph-name="m" unicode="m" horiz-adv-x="821" 
d="M20 0l62 336q8 44 14 81.5t10 69.5h101l-10 -85h1q35 49 78 72.5t91 23.5q57 0 84.5 -30.5t30.5 -69.5q32 51 76.5 75t95.5 25q50 0 84.5 -32.5t34.5 -97.5q0 -16 -2.5 -39.5t-5.5 -43.5l-54 -285h-113l51 272q2 15 4.5 31t2.5 31q0 31 -14 50t-46 19q-20 0 -40 -12
t-38 -34.5t-32 -53.5t-21 -70l-44 -233h-112l52 276q6 30 6 57q0 28 -11.5 49t-46.5 21q-20 0 -41 -13t-39.5 -36t-32.5 -54.5t-21 -68.5l-42 -231h-113z" />
    <glyph glyph-name="n" unicode="n" horiz-adv-x="550" 
d="M20 0l63 336q9 44 14.5 81.5t10.5 69.5h103l-10 -88h2q34 50 79 74.5t96 24.5q52 0 88 -32.5t36 -101.5q0 -17 -2.5 -39.5t-6.5 -41.5l-54 -283h-116l52 275q2 14 4 29t2 29q0 30 -13 50t-48 20q-20 0 -41.5 -12t-41.5 -34.5t-35.5 -55.5t-23.5 -76l-42 -225h-116z" />
    <glyph glyph-name="o" unicode="o" horiz-adv-x="543" 
d="M313 498q49 0 86.5 -16.5t62.5 -44t38 -64.5t13 -77q0 -62 -20.5 -117.5t-58 -97.5t-89.5 -67t-114 -25q-46 0 -83 15t-62.5 42t-39.5 63.5t-14 80.5q0 62 20.5 118t57.5 98t89 67t114 25zM299 408q-35 0 -62.5 -21t-46 -52.5t-28.5 -69.5t-10 -72q0 -51 25 -82.5
t70 -31.5q33 0 59.5 20.5t45.5 52t29.5 70t10.5 74.5q0 19 -4.5 38.5t-15.5 36t-28.5 27t-44.5 10.5z" />
    <glyph glyph-name="p" unicode="p" horiz-adv-x="545" 
d="M-21 -198l95 504q8 44 15.5 93.5t12.5 87.5h105l-11 -80h2q32 44 74.5 67.5t90.5 23.5q39 0 68 -15t48 -40t28.5 -57.5t9.5 -68.5q0 -64 -21 -123t-58.5 -104.5t-90 -73t-114.5 -27.5q-34 0 -58.5 6.5t-38.5 14.5h-2l-39 -208h-116zM153 103q29 -24 78 -24
q34 0 63.5 20.5t52 53t35.5 73.5t13 82q0 17 -4 34t-13 30.5t-24 22t-36 8.5q-22 0 -44.5 -12.5t-42 -35.5t-34.5 -56.5t-23 -76.5z" />
    <glyph glyph-name="q" unicode="q" horiz-adv-x="545" 
d="M278 -198l59 277h-2q-29 -45 -71.5 -67.5t-86.5 -22.5q-35 0 -62.5 13.5t-46.5 38t-29 57.5t-10 72q0 60 21 118.5t61.5 105t101 75.5t138.5 29q51 0 94 -9.5t75 -20.5l-125 -666h-117zM391 394q-23 13 -67 13q-37 0 -68.5 -19t-55 -50.5t-37 -71.5t-13.5 -82
q0 -48 19.5 -74.5t51.5 -26.5q24 0 46.5 12.5t41.5 34t33 51.5t21 65z" />
    <glyph glyph-name="r" unicode="r" horiz-adv-x="347" 
d="M20 0l57 300q10 52 15 103t10 84h101q-2 -25 -4.5 -50.5t-6.5 -52.5h3q25 50 63.5 82t89.5 32q6 0 12.5 -0.5t12.5 -1.5l-23 -114q-5 1 -10.5 1.5t-11.5 0.5q-31 0 -56.5 -15t-45 -40.5t-33 -59.5t-20.5 -73l-37 -196h-116z" />
    <glyph glyph-name="s" unicode="s" horiz-adv-x="397" 
d="M32 109q19 -11 51.5 -22t65.5 -11q35 1 55 18.5t20 41.5q0 23 -14 39.5t-50 35.5q-42 22 -69 53.5t-27 73.5q0 35 14.5 64.5t41 50.5t62.5 33t79 12q38 0 68 -7.5t47 -17.5l-30 -84q-14 8 -37.5 15t-53.5 7q-33 0 -53.5 -16t-20.5 -41q0 -20 16 -35.5t47 -31.5
q40 -22 70.5 -53.5t30.5 -77.5q0 -40 -16 -71t-43.5 -52t-65.5 -32t-82 -11q-43 0 -79.5 10.5t-56.5 24.5z" />
    <glyph glyph-name="t" unicode="t" horiz-adv-x="333" 
d="M269 621l-25 -134h110l-18 -90h-109l-39 -197q-3 -17 -5.5 -35t-2.5 -34q0 -20 10 -31.5t33 -11.5h21t19 2l-11 -91q-13 -5 -34 -7.5t-42 -2.5q-60 0 -88 29t-28 71q0 21 2.5 42.5t8.5 48.5l42 217h-66l17 90h66l20 105z" />
    <glyph glyph-name="u" unicode="u" horiz-adv-x="545" 
d="M524 487l-64 -336q-8 -44 -13.5 -81.5t-10.5 -69.5h-103l10 85h-2q-35 -48 -79 -72t-90 -24q-27 0 -50 7.5t-40 24t-27 42.5t-10 64q0 40 10 87l52 273h116l-50 -266q-8 -38 -8 -67q0 -30 13.5 -49.5t48.5 -19.5q20 0 41 11.5t40 33t33.5 52t21.5 68.5l45 237h116z" />
    <glyph glyph-name="v" unicode="v" horiz-adv-x="486" 
d="M168 487l31 -242q5 -44 8.5 -73.5t5.5 -53.5h3q9 23 21 51.5t32 72.5l121 245h129l-271 -487h-117l-83 487h120z" />
    <glyph glyph-name="w" unicode="w" horiz-adv-x="721" 
d="M172 487l9 -237q2 -43 1 -75.5t-3 -68.5h2q11 32 25.5 66t31.5 71l118 244h97l20 -238q3 -42 4.5 -76.5t0.5 -66.5h2q11 35 23 69.5t27 73.5l105 238h118l-239 -487h-109l-22 212q-3 36 -4 70.5t-1 73.5h-2q-18 -44 -30 -75.5t-28 -63.5l-108 -217h-109l-45 487h116z" />
    <glyph glyph-name="x" unicode="x" horiz-adv-x="472" 
d="M182 487l38 -88q11 -26 18 -45.5t13 -34.5h3q14 20 25 36.5t28 39.5l70 92h134l-206 -237l114 -250h-127l-39 92q-11 27 -18 46t-15 42h-3q-11 -17 -22 -36t-27 -43l-77 -101h-134l212 251l-114 236h127z" />
    <glyph glyph-name="y" unicode="y" horiz-adv-x="472" 
d="M167 487l38 -235q7 -39 11.5 -67.5t7.5 -53.5h2q9 23 19.5 49.5t27.5 66.5l105 240h123l-178 -359q-45 -90 -87 -155t-91 -113q-21 -21 -43 -35.5t-42 -24.5t-37 -16t-28 -8l-27 100q17 5 40 15t46 27q25 18 47 43t39 54q5 10 2 23l-97 449h122z" />
    <glyph glyph-name="z" unicode="z" horiz-adv-x="434" 
d="M-11 71l193 211q31 33 56 56.5t55 50.5l1 3h-227l19 95h366l-14 -75l-189 -207q-33 -35 -58 -59t-53 -49v-2h247l-19 -95h-390z" />
    <glyph glyph-name="braceleft" unicode="{" horiz-adv-x="301" 
d="M44 320q25 1 41.5 7.5t26.5 16.5t14.5 22.5t7.5 24.5q7 39 8.5 80.5t9.5 81.5q13 70 56.5 101.5t109.5 31.5h31l-14 -70h-18q-35 -1 -54 -21.5t-27 -57.5q-6 -31 -7 -64t-7 -72q-8 -54 -33 -79t-64 -34v-2q29 -7 44.5 -26t15.5 -47q0 -23 -7 -50.5t-16 -54.5t-16 -52
t-7 -44q0 -24 12.5 -38.5t40.5 -14.5h18l-13 -71h-25q-57 0 -91 24.5t-34 80.5q0 27 8 56t17 57t17 53t8 45q0 18 -13.5 34.5t-51.5 16.5z" />
    <glyph glyph-name="bar" unicode="|" horiz-adv-x="229" 
d="M173 750v-1000h-82v1000h82z" />
    <glyph glyph-name="braceright" unicode="}" horiz-adv-x="301" 
d="M270 253q-26 0 -42.5 -6.5t-26 -16.5t-14.5 -22.5t-7 -24.5q-8 -39 -9 -80.5t-9 -81.5q-14 -70 -57 -101.5t-109 -31.5h-31l13 71h19q35 0 53.5 20.5t26.5 57.5q7 31 7.5 64t7.5 72q8 53 32.5 78.5t64.5 33.5v2q-29 8 -44.5 27.5t-15.5 46.5q0 23 7.5 50t15.5 54
q8 28 15.5 53t7.5 44q0 24 -13 38.5t-41 15.5h-17l13 70h24q57 0 91 -24.5t34 -79.5q0 -29 -7.5 -57.5t-16.5 -57.5q-10 -27 -18 -52t-8 -45q0 -19 14 -35t52 -16z" />
    <glyph glyph-name="asciitilde" unicode="~" 
d="M55 201q-2 88 35.5 128.5t93.5 40.5q32 0 63 -11t73 -34q35 -19 60 -30t47 -11q23 0 34.5 19t12.5 62h79q2 -48 -7 -80.5t-26.5 -52.5t-41 -28.5t-50.5 -8.5q-32 0 -66 12.5t-77 37.5q-23 12 -50 25t-50 13q-24 0 -36.5 -22t-14.5 -60h-79z" />
    <glyph glyph-name="exclamdown" unicode="&#xa1;" horiz-adv-x="254" 
d="M-21 -198l107 463h92l-71 -463h-128zM166 492q32 0 50.5 -20t18.5 -51q0 -35 -22.5 -60t-58.5 -25q-32 0 -51 20.5t-19 52.5q0 36 23 59.5t59 23.5z" />
    <glyph glyph-name="cent" unicode="&#xa2;" horiz-adv-x="519" 
d="M218 -13l19 100q-39 7 -67.5 24t-48.5 43q-38 52 -38 127q0 58 19.5 108.5t53.5 89t79.5 63.5t96.5 33l18 98h79l-17 -94q22 -1 47.5 -7t40.5 -15l-36 -88q-17 8 -38 13.5t-52 5.5q-33 0 -63.5 -14.5t-53.5 -40.5t-36.5 -61.5t-13.5 -77.5q0 -54 31 -86t85 -32
q29 0 53 6.5t43 14.5l7 -87q-20 -11 -50 -17.5t-60 -7.5l-19 -98h-79z" />
    <glyph glyph-name="sterling" unicode="&#xa3;" horiz-adv-x="519" 
d="M18 0l12 68q43 19 78.5 57.5t49.5 83.5q5 17 7 34.5t2 37.5h-92l16 85h76q1 26 3 55.5t9 59.5q20 83 76.5 131.5t147.5 48.5q35 0 61 -8t39 -16l-32 -90q-29 17 -75 17q-48 0 -75 -28.5t-36 -74.5q-5 -25 -6 -48.5t0 -46.5h141l-15 -85h-130q-2 -17 -4.5 -33.5
t-7.5 -34.5q-9 -33 -28.5 -61.5t-48.5 -50.5v-2h275l-17 -99h-426z" />
    <glyph glyph-name="currency" unicode="&#xa4;" horiz-adv-x="519" 
d="M272 543q36 0 65.5 -10.5t49.5 -27.5l75 80l56 -59l-83 -75q14 -19 24 -48t10 -68q0 -42 -11 -72t-24 -49l81 -77l-56 -57l-73 82q-22 -20 -53 -30.5t-61 -10.5q-32 0 -62.5 10.5t-50.5 28.5l-70 -80l-57 57l80 75q-14 20 -25.5 49t-11.5 70q0 42 11.5 71t25.5 49l-83 74
l58 60l73 -80q21 18 50.5 28t61.5 10zM272 462q-24 0 -43.5 -10t-34 -27t-22.5 -41t-8 -51q0 -34 10 -59t26 -41t35 -23.5t37 -7.5q19 0 38.5 7.5t35 23.5t25 41t9.5 59q0 26 -7.5 49.5t-21.5 41t-34 28t-45 10.5z" />
    <glyph glyph-name="yen" unicode="&#xa5;" horiz-adv-x="519" 
d="M152 0l31 165h-148l12 63h148l12 65h-148l13 64h118l-104 293h120l48 -181q6 -28 11.5 -52t10.5 -49h4q13 23 27.5 49t31.5 54l118 179h128l-223 -293h117l-13 -64h-150l-11 -65h150l-13 -63h-149l-31 -165h-110z" />
    <glyph glyph-name="brokenbar" unicode="&#xa6;" horiz-adv-x="229" 
d="M173 174v-350h-82v350h82zM173 674v-350h-82v350h82z" />
    <glyph glyph-name="section" unicode="&#xa7;" horiz-adv-x="531" 
d="M168 343q0 -26 16 -45.5t62 -39.5q28 -12 54.5 -24.5t40.5 -22.5q20 12 34.5 32t14.5 43t-14.5 43.5t-49.5 38.5q-25 11 -54.5 24.5t-48.5 24.5q-23 -11 -39 -31t-16 -43zM474 577q-21 12 -52 21.5t-71 9.5q-42 0 -69.5 -19t-27.5 -49q0 -26 23 -42t74 -36
q30 -12 56 -26.5t44.5 -32t29.5 -40t11 -50.5q0 -51 -28 -86.5t-66 -58.5q14 -14 20 -33t6 -38q0 -44 -19 -75.5t-50 -52t-69 -29.5t-77 -9q-44 0 -90 10.5t-79 34.5l33 74q23 -15 58.5 -28.5t78.5 -13.5q46 0 74.5 19.5t28.5 51.5q0 23 -20 43t-75 43q-29 12 -56.5 26.5
t-48.5 32.5t-33.5 40t-12.5 49q0 45 29 83t77 62q-14 16 -19.5 32.5t-5.5 33.5q0 39 18 69.5t48 50.5t68.5 30.5t79.5 10.5q42 0 80 -9.5t63 -25.5z" />
    <glyph glyph-name="dieresis" unicode="&#xa8;" horiz-adv-x="389" 
d="M167 561q-24 0 -41 16t-17 42q0 29 19 47.5t46 18.5q26 0 41.5 -17t15.5 -42q0 -29 -18.5 -47t-45.5 -18zM363 561q-25 0 -42 16t-17 42q0 29 19 47.5t46 18.5q26 0 41.5 -17t15.5 -42q0 -29 -18 -47t-45 -18z" />
    <glyph glyph-name="copyright" unicode="&#xa9;" horiz-adv-x="674" 
d="M362 648q63 0 118.5 -24t96 -66t64 -98t23.5 -120q0 -65 -23.5 -121.5t-64 -98.5t-96 -66t-118.5 -24q-64 0 -119.5 24t-97 66t-65 98.5t-23.5 121.5q0 64 23.5 120t65 98t97 66t119.5 24zM362 598q-52 0 -97 -20t-78.5 -55t-52.5 -82.5t-19 -102.5q0 -54 19 -101.5
t52.5 -82t78.5 -54.5t97 -20q51 0 95.5 20t77.5 55t52 82t19 102q0 54 -19 101.5t-52 82.5t-77.5 55t-95.5 20zM483 444q-10 6 -36 15t-61 9q-63 0 -96.5 -35.5t-33.5 -95.5q0 -28 9 -52t25.5 -42t40.5 -28t55 -10t58 7.5t44 18.5l13 -46q-26 -18 -59 -25t-65 -7
q-44 0 -78 14t-57 38.5t-35.5 57.5t-12.5 71q0 43 16 77.5t42.5 58.5t61 37t72.5 13t69 -9t41 -19z" />
    <glyph glyph-name="ordfeminine" unicode="&#xaa;" horiz-adv-x="378" 
d="M270 266q0 13 0.5 28t1.5 30h-1q-22 -32 -51 -47.5t-62 -15.5q-43 0 -70.5 31t-27.5 86q0 40 13.5 78.5t41 68.5t69 48t97.5 18q32 0 63 -6.5t49 -13.5l-36 -203q-5 -29 -6 -56.5t-1 -45.5h-80zM299 521q-17 6 -39 6q-24 0 -44.5 -11t-35.5 -30t-23.5 -43t-8.5 -49
q0 -27 12 -46t38 -19q27 0 51 25t32 59z" />
    <glyph glyph-name="guillemotleft" unicode="&#xab;" horiz-adv-x="438" 
d="M114 250l98 -186h-85l-100 188l140 188h94zM293 250l99 -186h-85l-100 188l140 188h94z" />
    <glyph glyph-name="logicalnot" unicode="&#xac;" 
d="M547 412v-300h-81v222h-425v78h506z" />
    <glyph glyph-name="uni00AD" unicode="&#xad;" horiz-adv-x="315" 
d="M296 309l-16 -85h-251l17 85h250z" />
    <glyph glyph-name="registered" unicode="&#xae;" horiz-adv-x="403" 
d="M233 432h-44v161q9 2 26.5 4t40.5 2q26 0 39 -3.5t21 -9.5q17 -12 17 -35q0 -13 -9.5 -22.5t-25.5 -14.5v-2q24 -8 31 -41q4 -17 6.5 -25.5t4.5 -13.5h-48q-4 5 -6.5 14.5t-5.5 22.5q-4 24 -30 24h-17v-61zM234 524h16q15 0 24.5 5t9.5 16q0 22 -31 22q-6 0 -10.5 -0.5
t-8.5 -0.5v-42zM257 684q36 0 68 -13t55 -36t36.5 -53.5t13.5 -65.5q0 -36 -13.5 -67t-36.5 -54t-55 -36t-68 -13t-68 13t-55.5 36t-37 54t-13.5 67q0 35 13.5 65.5t37 53.5t55.5 36t68 13zM256 646q-27 0 -50 -10.5t-39.5 -28t-26 -41.5t-9.5 -51t9.5 -50.5t26 -41.5
t40 -28t50.5 -10t50 10t39.5 28t26 41.5t9.5 50.5t-9.5 51t-26 41.5t-40 28t-50.5 10.5z" />
    <glyph glyph-name="macron" unicode="&#xaf;" horiz-adv-x="389" 
d="M392 655l-13 -67h-235l14 67h234z" />
    <glyph glyph-name="degree" unicode="&#xb0;" horiz-adv-x="339" 
d="M231 685q32 0 57.5 -11t43.5 -29t28 -42.5t10 -51.5q0 -32 -12.5 -58t-32.5 -45.5t-46 -30t-54 -10.5q-31 0 -56.5 10.5t-44 29t-28.5 43t-10 52.5q0 29 11.5 55t31.5 45.5t46 31t56 11.5zM230 626q-17 0 -31 -7.5t-23.5 -19t-15 -26.5t-5.5 -30q0 -33 20.5 -55t51.5 -22
q32 0 53 24t21 59q0 28 -17 52.5t-54 24.5z" />
    <glyph glyph-name="plusminus" unicode="&#xb1;" 
d="M339 576v-183h212v-78h-212v-187h-82v187h-212v78h212v183h82zM551 78v-78h-506v78h506z" />
    <glyph glyph-name="twosuperior" unicode="&#xb2;" horiz-adv-x="322" 
d="M45 406l10 49l74 58q66 50 107 90t41 78q0 18 -12.5 32t-42.5 14q-24 0 -47 -9t-40 -20l-17 60q26 19 61 31t74 12q54 0 89.5 -27.5t35.5 -76.5q0 -30 -13 -56t-35 -49.5t-49.5 -45t-56.5 -42.5l-31 -24v-2h152l-14 -72h-286z" />
    <glyph glyph-name="threesuperior" unicode="&#xb3;" horiz-adv-x="315" 
d="M123 766q22 15 55 25t71 10q54 0 88 -25.5t34 -63.5q0 -36 -27 -60.5t-67 -35.5v-2q30 -6 53 -28.5t23 -57.5q0 -30 -14 -53.5t-37.5 -40t-55.5 -25t-69 -8.5q-38 0 -72 8.5t-54 22.5l30 63q14 -10 39 -18.5t52 -8.5q38 0 60 17.5t22 43.5q0 28 -25.5 41.5t-61.5 13.5
h-19l12 57h18q16 0 33 3.5t30.5 11t22 17.5t8.5 24q0 16 -11.5 26.5t-39.5 10.5q-24 0 -48.5 -8.5t-39.5 -19.5z" />
    <glyph glyph-name="acute" unicode="&#xb4;" horiz-adv-x="389" 
d="M408 694l-131 -148h-88l96 148h123z" />
    <glyph glyph-name="mu" unicode="&#xb5;" horiz-adv-x="543" 
d="M170 207q-23 -123 66 -123q16 0 31.5 8t29 20.5t24 28.5t18.5 32q13 22 17 47l51 267h117l-63 -336q-8 -40 -0.5 -54t29.5 -16l-24 -86l-16 -4t-22 -2q-35 0 -55.5 21.5t-21.5 73.5h-4q-21 -38 -54 -65t-79 -27q-27 0 -49.5 10.5t-33.5 32.5l-10 -54q-4 -20 -8 -44.5
t-7 -49.5t-5 -47.5t-1 -37.5h-105q-2 9 -1.5 27.5t2.5 42.5t6 52t10 58l95 505h116z" />
    <glyph glyph-name="paragraph" unicode="&#xb6;" horiz-adv-x="518" 
d="M154 -49l60 312q-3 1 -6 1t-6 1q-23 6 -46 19t-41.5 33.5t-30 49t-11.5 65.5q0 56 22 101t63.5 77t100.5 49t133 17q42 0 75.5 -2t52.5 -7l-137 -716h-79l125 650h-72l-125 -650h-78z" />
    <glyph glyph-name="periodcentered" unicode="&#xb7;" horiz-adv-x="238" 
d="M114 181q-32 0 -50.5 20.5t-18.5 51.5q0 35 22.5 60.5t59.5 25.5q32 0 51 -21t19 -53q0 -37 -23 -60.5t-60 -23.5z" />
    <glyph glyph-name="cedilla" unicode="&#xb8;" horiz-adv-x="389" 
d="M194 3l-36 -50q25 -6 41.5 -23t16.5 -41q0 -25 -10.5 -42.5t-28 -29t-38.5 -16.5t-42 -5q-23 0 -42 5.5t-30 13.5l22 51q22 -15 53 -15q15 0 27 7.5t12 23.5q0 15 -16 24.5t-53 12.5l57 84h67z" />
    <glyph glyph-name="onesuperior" unicode="&#xb9;" horiz-adv-x="253" 
d="M135 406l59 310h-2l-75 -32l-8 66l112 46h83l-74 -390h-95z" />
    <glyph glyph-name="ordmasculine" unicode="&#xba;" horiz-adv-x="366" 
d="M239 591q69 0 106.5 -39t37.5 -98q0 -42 -14 -77.5t-39.5 -61t-60 -40t-75.5 -14.5q-32 0 -58 10.5t-44.5 29t-28.5 43t-10 52.5q0 43 14.5 79t39.5 61.5t59 40t73 14.5zM233 528q-20 0 -37 -12t-29 -30.5t-18.5 -42t-6.5 -47.5q0 -34 17 -53t44 -19q19 0 35.5 11
t28.5 29.5t19 42.5t7 51q0 26 -12.5 48t-47.5 22z" />
    <glyph glyph-name="guillemotright" unicode="&#xbb;" horiz-adv-x="437" 
d="M55 440h85l100 -188l-140 -188h-94l148 191zM235 440h85l100 -188l-141 -188h-93l147 191z" />
    <glyph glyph-name="onequarter" unicode="&#xbc;" horiz-adv-x="793" 
d="M131 266l59 310h-2l-75 -32l-8 66l112 46h83l-74 -390h-95zM110 -11l489 672h74l-489 -672h-74zM568 1l18 97h-184l11 53l209 243h108l-44 -233h53l-13 -63h-52l-19 -97h-87zM616 252q3 18 7.5 36t9.5 34h-2q-13 -18 -24.5 -35t-22.5 -31l-80 -93v-2h94z" />
    <glyph glyph-name="onehalf" unicode="&#xbd;" horiz-adv-x="793" 
d="M124 266l59 310h-2l-75 -32l-8 66l112 46h83l-74 -390h-95zM91 -11l489 672h74l-489 -672h-74zM417 1l10 49l74 58q66 50 107 90t41 78q0 18 -12.5 32t-42.5 14q-24 0 -47 -9t-40 -20l-17 60q26 19 61 31t74 12q54 0 89.5 -27.5t35.5 -76.5q0 -30 -13 -56t-35 -49.5
t-49.5 -45t-56.5 -42.5l-31 -24v-2h152l-14 -72h-286z" />
    <glyph glyph-name="threequarters" unicode="&#xbe;" horiz-adv-x="793" 
d="M107 626q22 15 55 25t71 10q54 0 88 -25.5t34 -63.5q0 -36 -27 -60.5t-67 -35.5v-2q30 -6 53 -28.5t23 -57.5q0 -30 -14 -53.5t-37.5 -40t-55.5 -25t-69 -8.5q-38 0 -72 8.5t-54 22.5l30 63q14 -10 39 -18.5t52 -8.5q38 0 60 17.5t22 43.5q0 28 -25.5 41.5t-61.5 13.5
h-19l12 57h18q16 0 33 3.5t30.5 11t22 17.5t8.5 24q0 16 -11.5 26.5t-39.5 10.5q-24 0 -48.5 -8.5t-39.5 -19.5zM143 -11l489 672h74l-489 -672h-74zM580 1l18 97h-184l11 53l209 243h108l-44 -233h53l-13 -63h-52l-19 -97h-87zM628 252q3 18 7.5 36t9.5 34h-2
q-13 -18 -24.5 -35t-22.5 -31l-80 -93v-2h94z" />
    <glyph glyph-name="questiondown" unicode="&#xbf;" horiz-adv-x="413" 
d="M293 270q-1 -7 -1.5 -13t-1.5 -13q-5 -41 -27 -83t-67 -90q-32 -33 -57 -63.5t-25 -62.5q0 -23 14 -40.5t52 -18.5q61 0 105 28l18 -83q-28 -17 -67 -28.5t-87 -11.5q-37 0 -66 10.5t-49 29t-30.5 43t-10.5 51.5q0 55 31.5 99.5t76.5 90.5q33 33 50.5 63.5t23.5 65.5
l5 26h113zM269 493q31 0 50 -20.5t19 -50.5q0 -35 -23 -60t-59 -25q-32 0 -51 20.5t-19 52.5q0 35 23 59t60 24z" />
    <glyph glyph-name="Agrave" unicode="&#xc0;" 
d="M188 192l-92 -192h-124l338 674h146l85 -674h-122l-19 192h-212zM393 282l-19 168q-2 27 -5 62.5t-5 65.5h-2q-14 -30 -27.5 -64t-27.5 -64l-82 -168h168zM362 832l76 -121h-97l-112 121h133z" />
    <glyph glyph-name="Aacute" unicode="&#xc1;" 
d="M188 192l-92 -192h-124l338 674h146l85 -674h-122l-19 192h-212zM393 282l-19 168q-2 27 -5 62.5t-5 65.5h-2q-14 -30 -27.5 -64t-27.5 -64l-82 -168h168zM557 832l-134 -122h-101l98 122h137z" />
    <glyph glyph-name="Acircumflex" unicode="&#xc2;" 
d="M188 192l-92 -192h-124l338 674h146l85 -674h-122l-19 192h-212zM393 282l-19 168q-2 27 -5 62.5t-5 65.5h-2q-14 -30 -27.5 -64t-27.5 -64l-82 -168h168zM449 832l80 -122h-86l-44 66h-2l-65 -66h-94l122 122h89z" />
    <glyph glyph-name="Atilde" unicode="&#xc3;" 
d="M188 192l-92 -192h-124l338 674h146l85 -674h-122l-19 192h-212zM393 282l-19 168q-2 27 -5 62.5t-5 65.5h-2q-14 -30 -27.5 -64t-27.5 -64l-82 -168h168zM248 715q9 56 33.5 85.5t57.5 29.5q21 0 34.5 -6t27.5 -14q11 -8 21 -13.5t21 -5.5q12 0 20 9.5t14 32.5h59
q-9 -58 -32.5 -84.5t-60.5 -26.5q-20 0 -34 5t-27 13q-12 8 -21 13.5t-21 5.5q-22 -2 -32 -44h-60z" />
    <glyph glyph-name="Adieresis" unicode="&#xc4;" 
d="M188 192l-92 -192h-124l338 674h146l85 -674h-122l-19 192h-212zM393 282l-19 168q-2 27 -5 62.5t-5 65.5h-2q-14 -30 -27.5 -64t-27.5 -64l-82 -168h168zM289 716q-23 0 -40 15.5t-17 40.5q0 28 18.5 46t44.5 18t41.5 -17t15.5 -40q0 -28 -18.5 -45.5t-44.5 -17.5z
M486 716q-23 0 -40 15.5t-17 40.5q0 28 18.5 46t44.5 18t41.5 -17t15.5 -40q0 -28 -18.5 -45.5t-44.5 -17.5z" />
    <glyph glyph-name="Aring" unicode="&#xc5;" 
d="M188 192l-92 -192h-124l338 674h146l85 -674h-122l-19 192h-212zM393 282l-19 168q-2 27 -5 62.5t-5 65.5h-2q-14 -30 -27.5 -64t-27.5 -64l-82 -168h168zM402 882q45 0 74 -23.5t29 -66.5q-1 -45 -34 -70.5t-81 -25.5q-42 0 -71 23.5t-30 62.5q-1 45 31 72.5t82 27.5z
M399 839q-22 0 -35 -15.5t-13 -38.5q0 -19 11.5 -32t31.5 -13q22 0 35 14.5t13 35.5t-11.5 35t-31.5 14z" />
    <glyph glyph-name="AE" unicode="&#xc6;" horiz-adv-x="812" 
d="M-50 0l429 674h437l-18 -99h-254l-18 -180h242l-19 -98h-227l-18 -198h255l-19 -99h-355l18 209h-198l-130 -209h-125zM409 306l17 178q2 23 4.5 50.5t5.5 52.5h-4q-14 -25 -29 -52t-29 -51l-112 -178h147z" />
    <glyph glyph-name="Ccedilla" unicode="&#xc7;" horiz-adv-x="571" 
d="M512 20q-27 -12 -71.5 -21t-104.5 -9q-66 0 -119 19.5t-90.5 56.5t-57.5 89t-20 118q0 106 42 191.5t116 140.5q106 80 251 80q56 0 94.5 -10.5t52.5 -20.5l-34 -94q-17 9 -49.5 16.5t-77.5 7.5q-48 0 -92.5 -16t-79.5 -46q-45 -39 -71 -100t-26 -135q0 -42 11 -78.5
t34.5 -63t59.5 -41.5t86 -15q37 0 72.5 6.5t62.5 19.5zM368 3l-36 -50q26 -6 42 -23t16 -43q0 -24 -11 -41.5t-28 -28.5t-38 -16t-41 -5q-23 0 -42 5.5t-31 14.5l22 50q11 -7 24.5 -11t27.5 -4q15 0 27.5 7.5t12.5 23.5q0 14 -16 24t-53 13l57 84h67z" />
    <glyph glyph-name="Egrave" unicode="&#xc8;" horiz-adv-x="496" 
d="M440 300h-242l-38 -201h272l-19 -99h-389l128 674h374l-19 -99h-257l-34 -177h243zM336 832l76 -121h-97l-112 121h133z" />
    <glyph glyph-name="Eacute" unicode="&#xc9;" horiz-adv-x="496" 
d="M440 300h-242l-38 -201h272l-19 -99h-389l128 674h374l-19 -99h-257l-34 -177h243zM515 832l-134 -122h-101l98 122h137z" />
    <glyph glyph-name="Ecircumflex" unicode="&#xca;" horiz-adv-x="496" 
d="M440 300h-242l-38 -201h272l-19 -99h-389l128 674h374l-19 -99h-257l-34 -177h243zM409 832l80 -122h-86l-44 66h-2l-65 -66h-94l122 122h89z" />
    <glyph glyph-name="Edieresis" unicode="&#xcb;" horiz-adv-x="496" 
d="M440 300h-242l-38 -201h272l-19 -99h-389l128 674h374l-19 -99h-257l-34 -177h243zM255 716q-23 0 -40 15.5t-17 40.5q0 28 18.5 46t44.5 18t41.5 -17t15.5 -40q0 -28 -18.5 -45.5t-44.5 -17.5zM452 716q-23 0 -40 15.5t-17 40.5q0 28 18.5 46t44.5 18t41.5 -17t15.5 -40
q0 -28 -18.5 -45.5t-44.5 -17.5z" />
    <glyph glyph-name="Igrave" unicode="&#xcc;" horiz-adv-x="256" 
d="M267 674l-128 -674h-117l128 674h117zM204 832l76 -121h-97l-112 121h133z" />
    <glyph glyph-name="Iacute" unicode="&#xcd;" horiz-adv-x="256" 
d="M267 674l-128 -674h-117l128 674h117zM386 832l-134 -122h-101l98 122h137z" />
    <glyph glyph-name="Icircumflex" unicode="&#xce;" horiz-adv-x="256" 
d="M267 674l-128 -674h-117l128 674h117zM276 832l80 -122h-86l-44 66h-2l-65 -66h-94l122 122h89z" />
    <glyph glyph-name="Idieresis" unicode="&#xcf;" horiz-adv-x="256" 
d="M267 674l-128 -674h-117l128 674h117zM123 716q-23 0 -40 15.5t-17 40.5q0 28 18.5 46t44.5 18t41.5 -17t15.5 -40q0 -28 -18.5 -45.5t-44.5 -17.5zM320 716q-23 0 -40 15.5t-17 40.5q0 28 18.5 46t44.5 18t41.5 -17t15.5 -40q0 -28 -18.5 -45.5t-44.5 -17.5z" />
    <glyph glyph-name="Eth" unicode="&#xd0;" horiz-adv-x="676" 
d="M31 397h79l51 267q85 15 178 15q80 0 143 -19.5t102 -58.5q36 -32 57.5 -81.5t21.5 -118.5q0 -96 -37.5 -178t-102.5 -135q-57 -47 -133 -69.5t-179 -22.5q-56 0 -101 3t-74 8l56 294h-80zM355 301h-146l-39 -205q17 -3 36 -4t40 -1q63 0 117 21.5t92 62.5q40 42 61 100
t21 121q0 43 -11.5 77.5t-35.5 59.5t-61.5 38.5t-89.5 13.5q-22 0 -41 -1.5t-36 -3.5l-34 -183h146z" />
    <glyph glyph-name="Ntilde" unicode="&#xd1;" horiz-adv-x="651" 
d="M24 0l128 674h134l118 -313q22 -62 36 -111t25 -100h2q3 50 9.5 102.5t20.5 125.5l56 296h110l-128 -674h-119l-121 319q-12 33 -21 60.5t-16.5 53t-14 50.5t-12.5 53l-4 -1q-5 -48 -15 -110t-24 -137l-55 -288h-109zM284 715q9 56 33.5 85.5t57.5 29.5q21 0 34.5 -6
t27.5 -14q11 -8 21 -13.5t21 -5.5q12 0 20 9.5t14 32.5h59q-9 -58 -32.5 -84.5t-60.5 -26.5q-20 0 -34 5t-27 13q-12 8 -21 13.5t-21 5.5q-22 -2 -32 -44h-60z" />
    <glyph glyph-name="Ograve" unicode="&#xd2;" horiz-adv-x="688" 
d="M411 685q67 0 117 -22t83 -60t49 -88.5t16 -108.5q0 -45 -8 -90t-23.5 -87t-38 -79t-52.5 -66q-46 -45 -106.5 -70t-134.5 -25q-65 0 -114.5 22t-83 60t-50.5 88.5t-17 107.5q0 45 8.5 90.5t24.5 87.5t39.5 79.5t53.5 66.5q46 45 107 69.5t130 24.5zM397 587
q-39 0 -72.5 -15.5t-60.5 -42.5q-22 -22 -39.5 -52.5t-29.5 -65t-18 -70t-6 -68.5q0 -38 9 -72t28 -59.5t49.5 -40t72.5 -14.5q37 0 71 15t60 42q22 22 39 53t28.5 66t17.5 71t6 68q0 33 -7 66.5t-24 59.5t-47.5 42.5t-76.5 16.5zM409 832l76 -121h-97l-112 121h133z" />
    <glyph glyph-name="Oacute" unicode="&#xd3;" horiz-adv-x="688" 
d="M411 685q67 0 117 -22t83 -60t49 -88.5t16 -108.5q0 -45 -8 -90t-23.5 -87t-38 -79t-52.5 -66q-46 -45 -106.5 -70t-134.5 -25q-65 0 -114.5 22t-83 60t-50.5 88.5t-17 107.5q0 45 8.5 90.5t24.5 87.5t39.5 79.5t53.5 66.5q46 45 107 69.5t130 24.5zM397 587
q-39 0 -72.5 -15.5t-60.5 -42.5q-22 -22 -39.5 -52.5t-29.5 -65t-18 -70t-6 -68.5q0 -38 9 -72t28 -59.5t49.5 -40t72.5 -14.5q37 0 71 15t60 42q22 22 39 53t28.5 66t17.5 71t6 68q0 33 -7 66.5t-24 59.5t-47.5 42.5t-76.5 16.5zM598 834l-134 -122h-101l98 122h137z" />
    <glyph glyph-name="Ocircumflex" unicode="&#xd4;" horiz-adv-x="688" 
d="M411 685q67 0 117 -22t83 -60t49 -88.5t16 -108.5q0 -45 -8 -90t-23.5 -87t-38 -79t-52.5 -66q-46 -45 -106.5 -70t-134.5 -25q-65 0 -114.5 22t-83 60t-50.5 88.5t-17 107.5q0 45 8.5 90.5t24.5 87.5t39.5 79.5t53.5 66.5q46 45 107 69.5t130 24.5zM397 587
q-39 0 -72.5 -15.5t-60.5 -42.5q-22 -22 -39.5 -52.5t-29.5 -65t-18 -70t-6 -68.5q0 -38 9 -72t28 -59.5t49.5 -40t72.5 -14.5q37 0 71 15t60 42q22 22 39 53t28.5 66t17.5 71t6 68q0 33 -7 66.5t-24 59.5t-47.5 42.5t-76.5 16.5zM487 832l80 -122h-86l-44 66h-2l-65 -66
h-94l122 122h89z" />
    <glyph glyph-name="Otilde" unicode="&#xd5;" horiz-adv-x="688" 
d="M411 685q67 0 117 -22t83 -60t49 -88.5t16 -108.5q0 -45 -8 -90t-23.5 -87t-38 -79t-52.5 -66q-46 -45 -106.5 -70t-134.5 -25q-65 0 -114.5 22t-83 60t-50.5 88.5t-17 107.5q0 45 8.5 90.5t24.5 87.5t39.5 79.5t53.5 66.5q46 45 107 69.5t130 24.5zM397 587
q-39 0 -72.5 -15.5t-60.5 -42.5q-22 -22 -39.5 -52.5t-29.5 -65t-18 -70t-6 -68.5q0 -38 9 -72t28 -59.5t49.5 -40t72.5 -14.5q37 0 71 15t60 42q22 22 39 53t28.5 66t17.5 71t6 68q0 33 -7 66.5t-24 59.5t-47.5 42.5t-76.5 16.5zM293 715q9 56 33.5 85.5t57.5 29.5
q21 0 34.5 -6t27.5 -14q11 -8 21 -13.5t21 -5.5q12 0 20 9.5t14 32.5h59q-9 -58 -32.5 -84.5t-60.5 -26.5q-20 0 -34 5t-27 13q-12 8 -21 13.5t-21 5.5q-22 -2 -32 -44h-60z" />
    <glyph glyph-name="Odieresis" unicode="&#xd6;" horiz-adv-x="688" 
d="M411 685q67 0 117 -22t83 -60t49 -88.5t16 -108.5q0 -45 -8 -90t-23.5 -87t-38 -79t-52.5 -66q-46 -45 -106.5 -70t-134.5 -25q-65 0 -114.5 22t-83 60t-50.5 88.5t-17 107.5q0 45 8.5 90.5t24.5 87.5t39.5 79.5t53.5 66.5q46 45 107 69.5t130 24.5zM397 587
q-39 0 -72.5 -15.5t-60.5 -42.5q-22 -22 -39.5 -52.5t-29.5 -65t-18 -70t-6 -68.5q0 -38 9 -72t28 -59.5t49.5 -40t72.5 -14.5q37 0 71 15t60 42q22 22 39 53t28.5 66t17.5 71t6 68q0 33 -7 66.5t-24 59.5t-47.5 42.5t-76.5 16.5zM336 716q-23 0 -40 15.5t-17 40.5
q0 28 18.5 46t44.5 18t41.5 -17t15.5 -40q0 -28 -18.5 -45.5t-44.5 -17.5zM533 716q-23 0 -40 15.5t-17 40.5q0 28 18.5 46t44.5 18t41.5 -17t15.5 -40q0 -28 -18.5 -45.5t-44.5 -17.5z" />
    <glyph glyph-name="multiply" unicode="&#xd7;" 
d="M103 526l198 -210l197 210l55 -56l-199 -207l199 -207l-55 -56l-198 209l-198 -209l-53 57l197 206l-198 207z" />
    <glyph glyph-name="Oslash" unicode="&#xd8;" horiz-adv-x="686" 
d="M28 -3l74 88q-26 36 -40.5 81t-14.5 107q0 91 32 172.5t89 139.5q48 48 109.5 74t128.5 26q52 0 91 -12t70 -37l75 87l61 -48l-79 -93q50 -67 50 -178q0 -45 -8 -89.5t-23.5 -85t-37.5 -77t-50 -64.5q-46 -47 -108.5 -73t-128.5 -26q-96 0 -155 47l-79 -92zM498 552
q-17 17 -41 26.5t-59 9.5q-38 0 -71.5 -15t-61 -41t-49 -60.5t-33.5 -74.5q-16 -51 -17 -106.5t17 -107.5h3zM232 119q17 -17 40.5 -25t57.5 -8t65.5 13.5t58 37.5t47.5 57.5t34 72.5q16 48 19.5 103t-13.5 110h-3z" />
    <glyph glyph-name="Ugrave" unicode="&#xd9;" horiz-adv-x="639" 
d="M267 674l-75 -393q-8 -40 -8 -82q1 -52 30 -82t81 -30q63 0 104.5 45t61.5 148l75 394h117l-75 -392q-29 -152 -101.5 -222.5t-196.5 -70.5q-48 0 -87 12.5t-66.5 38t-43 65t-15.5 92.5q0 22 2.5 46t6.5 47l73 384h117zM396 832l76 -121h-97l-112 121h133z" />
    <glyph glyph-name="Uacute" unicode="&#xda;" horiz-adv-x="639" 
d="M267 674l-75 -393q-8 -40 -8 -82q1 -52 30 -82t81 -30q63 0 104.5 45t61.5 148l75 394h117l-75 -392q-29 -152 -101.5 -222.5t-196.5 -70.5q-48 0 -87 12.5t-66.5 38t-43 65t-15.5 92.5q0 22 2.5 46t6.5 47l73 384h117zM573 832l-134 -122h-101l98 122h137z" />
    <glyph glyph-name="Ucircumflex" unicode="&#xdb;" horiz-adv-x="639" 
d="M267 674l-75 -393q-8 -40 -8 -82q1 -52 30 -82t81 -30q63 0 104.5 45t61.5 148l75 394h117l-75 -392q-29 -152 -101.5 -222.5t-196.5 -70.5q-48 0 -87 12.5t-66.5 38t-43 65t-15.5 92.5q0 22 2.5 46t6.5 47l73 384h117zM475 832l80 -122h-86l-44 66h-2l-65 -66h-94
l122 122h89z" />
    <glyph glyph-name="Udieresis" unicode="&#xdc;" horiz-adv-x="639" 
d="M267 674l-75 -393q-8 -40 -8 -82q1 -52 30 -82t81 -30q63 0 104.5 45t61.5 148l75 394h117l-75 -392q-29 -152 -101.5 -222.5t-196.5 -70.5q-48 0 -87 12.5t-66.5 38t-43 65t-15.5 92.5q0 22 2.5 46t6.5 47l73 384h117zM316 716q-23 0 -40 15.5t-17 40.5q0 28 18.5 46
t44.5 18t41.5 -17t15.5 -40q0 -28 -18.5 -45.5t-44.5 -17.5zM513 716q-23 0 -40 15.5t-17 40.5q0 28 18.5 46t44.5 18t41.5 -17t15.5 -40q0 -28 -18.5 -45.5t-44.5 -17.5z" />
    <glyph glyph-name="Yacute" unicode="&#xdd;" horiz-adv-x="546" 
d="M155 0l53 277l-131 397h124l53 -192q11 -44 17 -69.5t11 -48.5h2q14 24 30.5 53t39.5 67l121 190h138l-289 -395l-53 -279h-116zM519 832l-134 -122h-101l98 122h137z" />
    <glyph glyph-name="Thorn" unicode="&#xde;" horiz-adv-x="535" 
d="M152 674h114l-24 -126q14 2 32 4t41 2q49 0 88.5 -12t68.5 -38q52 -46 52 -122q0 -62 -24 -108t-63.5 -76t-91.5 -45t-108 -15q-22 0 -39.5 1.5t-31.5 3.5l-28 -143h-114zM184 238q14 -2 30 -3.5t33 -1.5q33 0 62 9.5t50.5 27t34.5 42t13 54.5q0 49 -32 71.5t-86 22.5
q-20 0 -37.5 -2t-27.5 -4z" />
    <glyph glyph-name="germandbls" unicode="&#xdf;" horiz-adv-x="561" 
d="M20 0l86 454q11 58 31.5 107t52.5 84.5t77.5 55.5t105.5 20q39 0 71 -11t55 -31.5t35.5 -48.5t12.5 -62q0 -31 -12 -59t-30 -45q-30 -14 -53 -34t-23 -52q0 -22 8.5 -40t22.5 -38q19 -27 33 -60t14 -68q0 -46 -16 -80.5t-44 -57t-65.5 -34t-79.5 -11.5q-34 0 -61.5 6.5
t-44.5 16.5l29 86q16 -9 36.5 -13.5t38.5 -4.5q39 0 64 21t25 58q0 17 -6.5 35.5t-25.5 45.5q-23 32 -35.5 59t-12.5 56q0 49 31 85t73 56q8 8 13.5 22.5t5.5 37.5q0 28 -18 49.5t-57 21.5q-47 0 -82 -39.5t-51 -124.5l-88 -463h-116z" />
    <glyph glyph-name="agrave" unicode="&#xe0;" horiz-adv-x="540" 
d="M340 0q1 22 3.5 50t5.5 60h-3q-36 -68 -82 -94.5t-92 -26.5q-66 0 -105 46t-39 120q0 62 21.5 123.5t64.5 110t107.5 79t149.5 30.5q40 0 79.5 -6.5t67.5 -15.5l-50 -254q-5 -27 -9 -57t-7 -59.5t-4 -56.5t0 -49h-108zM388 403q-9 2 -20.5 3.5t-27.5 1.5
q-41 0 -75.5 -20.5t-60.5 -53.5t-40.5 -74.5t-14.5 -83.5q0 -38 16 -65.5t54 -27.5q20 0 42 12.5t41.5 37t35 60t24.5 82.5zM331 694l71 -148h-83l-107 148h119z" />
    <glyph glyph-name="aacute" unicode="&#xe1;" horiz-adv-x="540" 
d="M340 0q1 22 3.5 50t5.5 60h-3q-36 -68 -82 -94.5t-92 -26.5q-66 0 -105 46t-39 120q0 62 21.5 123.5t64.5 110t107.5 79t149.5 30.5q40 0 79.5 -6.5t67.5 -15.5l-50 -254q-5 -27 -9 -57t-7 -59.5t-4 -56.5t0 -49h-108zM388 403q-9 2 -20.5 3.5t-27.5 1.5
q-41 0 -75.5 -20.5t-60.5 -53.5t-40.5 -74.5t-14.5 -83.5q0 -38 16 -65.5t54 -27.5q20 0 42 12.5t41.5 37t35 60t24.5 82.5zM516 694l-131 -148h-88l96 148h123z" />
    <glyph glyph-name="acircumflex" unicode="&#xe2;" horiz-adv-x="540" 
d="M340 0q1 22 3.5 50t5.5 60h-3q-36 -68 -82 -94.5t-92 -26.5q-66 0 -105 46t-39 120q0 62 21.5 123.5t64.5 110t107.5 79t149.5 30.5q40 0 79.5 -6.5t67.5 -15.5l-50 -254q-5 -27 -9 -57t-7 -59.5t-4 -56.5t0 -49h-108zM388 403q-9 2 -20.5 3.5t-27.5 1.5
q-41 0 -75.5 -20.5t-60.5 -53.5t-40.5 -74.5t-14.5 -83.5q0 -38 16 -65.5t54 -27.5q20 0 42 12.5t41.5 37t35 60t24.5 82.5zM410 694l72 -148h-79l-41 84h-2l-64 -84h-86l119 148h81z" />
    <glyph glyph-name="atilde" unicode="&#xe3;" horiz-adv-x="540" 
d="M340 0q1 22 3.5 50t5.5 60h-3q-36 -68 -82 -94.5t-92 -26.5q-66 0 -105 46t-39 120q0 62 21.5 123.5t64.5 110t107.5 79t149.5 30.5q40 0 79.5 -6.5t67.5 -15.5l-50 -254q-5 -27 -9 -57t-7 -59.5t-4 -56.5t0 -49h-108zM388 403q-9 2 -20.5 3.5t-27.5 1.5
q-41 0 -75.5 -20.5t-60.5 -53.5t-40.5 -74.5t-14.5 -83.5q0 -38 16 -65.5t54 -27.5q20 0 42 12.5t41.5 37t35 60t24.5 82.5zM208 563q7 53 29.5 83.5t57.5 30.5q20 0 34 -6.5t28 -14.5q11 -7 20.5 -12.5t18.5 -5.5q12 0 19 8.5t12 34.5h59q-8 -57 -29 -84t-59 -27
q-19 0 -34.5 6t-27.5 14q-11 8 -20 13t-19 5q-12 0 -18.5 -12.5t-10.5 -32.5h-60z" />
    <glyph glyph-name="adieresis" unicode="&#xe4;" horiz-adv-x="540" 
d="M340 0q1 22 3.5 50t5.5 60h-3q-36 -68 -82 -94.5t-92 -26.5q-66 0 -105 46t-39 120q0 62 21.5 123.5t64.5 110t107.5 79t149.5 30.5q40 0 79.5 -6.5t67.5 -15.5l-50 -254q-5 -27 -9 -57t-7 -59.5t-4 -56.5t0 -49h-108zM388 403q-9 2 -20.5 3.5t-27.5 1.5
q-41 0 -75.5 -20.5t-60.5 -53.5t-40.5 -74.5t-14.5 -83.5q0 -38 16 -65.5t54 -27.5q20 0 42 12.5t41.5 37t35 60t24.5 82.5zM244 561q-24 0 -41 16t-17 42q0 29 19 47.5t46 18.5q26 0 41.5 -17t15.5 -42q0 -29 -18.5 -47t-45.5 -18zM440 561q-25 0 -42 16t-17 42
q0 29 19 47.5t46 18.5q26 0 41.5 -17t15.5 -42q0 -29 -18 -47t-45 -18z" />
    <glyph glyph-name="aring" unicode="&#xe5;" horiz-adv-x="540" 
d="M340 0q1 22 3.5 50t5.5 60h-3q-36 -68 -82 -94.5t-92 -26.5q-66 0 -105 46t-39 120q0 62 21.5 123.5t64.5 110t107.5 79t149.5 30.5q40 0 79.5 -6.5t67.5 -15.5l-50 -254q-5 -27 -9 -57t-7 -59.5t-4 -56.5t0 -49h-108zM388 403q-9 2 -20.5 3.5t-27.5 1.5
q-41 0 -75.5 -20.5t-60.5 -53.5t-40.5 -74.5t-14.5 -83.5q0 -38 16 -65.5t54 -27.5q20 0 42 12.5t41.5 37t35 60t24.5 82.5zM353 728q43 0 72.5 -23.5t29.5 -68.5q-1 -48 -34.5 -74t-79.5 -26q-42 0 -71.5 24t-30.5 65q-1 47 31.5 75t82.5 28zM349 684q-23 0 -36.5 -16
t-13.5 -39q0 -20 12.5 -34t32.5 -14q23 0 37 15.5t14 38.5q0 20 -12 34.5t-34 14.5z" />
    <glyph glyph-name="ae" unicode="&#xe6;" horiz-adv-x="743" 
d="M663 30q-35 -20 -79.5 -30.5t-90.5 -10.5q-56 0 -99 25t-61 71h-3q-30 -45 -77 -70.5t-106 -25.5q-33 0 -59.5 10t-44.5 28t-28 41.5t-10 50.5q0 52 26.5 89.5t70 61.5t100.5 34.5t117 9.5l3 15q2 12 -0.5 27t-12.5 27.5t-27.5 21t-44.5 8.5q-41 0 -73.5 -12t-58.5 -29
l-20 76q34 22 77.5 36t88.5 14q57 0 93 -23t49 -67h3q29 44 76 67t101 23q40 0 69 -11t48 -29t28 -40.5t9 -45.5q0 -52 -25.5 -84t-69 -48.5t-102 -21t-123.5 -1.5q-3 -22 -2 -43t9 -40q30 -53 106 -53q47 0 77 9.5t59 22.5zM307 236q-26 1 -58 -2.5t-60.5 -14.5
t-47.5 -30.5t-19 -51.5q0 -27 16.5 -42.5t45.5 -15.5q38 0 71 27.5t43 80.5zM614 361q0 20 -15.5 35.5t-46.5 15.5q-28 0 -50.5 -11.5t-39 -28.5t-27 -36.5t-14.5 -36.5q38 -2 73 -1t61.5 7t42.5 19.5t16 36.5z" />
    <glyph glyph-name="ccedilla" unicode="&#xe7;" horiz-adv-x="430" 
d="M368 17q-21 -11 -57 -19t-83 -8q-46 0 -82.5 14t-62 39.5t-39 61t-13.5 79.5q0 64 23 121t64 100t98 68t125 25q32 0 58.5 -6.5t40.5 -12.5l-30 -91q-14 6 -31.5 10.5t-41.5 4.5q-42 0 -76 -18t-58 -47t-37 -65.5t-13 -74.5q0 -55 29 -84.5t78 -29.5q34 0 59.5 7.5
t44.5 15.5zM275 3l-36 -50q25 -6 41.5 -23t16.5 -41q0 -25 -10.5 -42.5t-28 -29t-38.5 -16.5t-42 -5q-23 0 -42 5.5t-30 13.5l22 51q22 -15 53 -15q15 0 27 7.5t12 23.5q0 15 -16 24.5t-53 12.5l57 84h67z" />
    <glyph glyph-name="egrave" unicode="&#xe8;" horiz-adv-x="479" 
d="M402 28q-36 -19 -81.5 -28.5t-90.5 -9.5q-51 0 -88.5 14.5t-62 41t-37 63.5t-12.5 82q0 55 19.5 110t55.5 98.5t87 71t114 27.5q72 0 114.5 -38t42.5 -99q0 -47 -23.5 -78.5t-65.5 -50.5t-101 -26.5t-129 -5.5q-2 -13 1.5 -34t11.5 -35q29 -50 100 -50q42 0 75 9t59 23z
M353 360q0 24 -17 37.5t-45 13.5q-27 0 -49.5 -11t-40 -29t-29 -40t-16.5 -44q45 -1 81.5 2.5t62 11.5t39.5 22.5t14 36.5zM296 694l71 -148h-83l-107 148h119z" />
    <glyph glyph-name="eacute" unicode="&#xe9;" horiz-adv-x="479" 
d="M402 28q-36 -19 -81.5 -28.5t-90.5 -9.5q-51 0 -88.5 14.5t-62 41t-37 63.5t-12.5 82q0 55 19.5 110t55.5 98.5t87 71t114 27.5q72 0 114.5 -38t42.5 -99q0 -47 -23.5 -78.5t-65.5 -50.5t-101 -26.5t-129 -5.5q-2 -13 1.5 -34t11.5 -35q29 -50 100 -50q42 0 75 9t59 23z
M353 360q0 24 -17 37.5t-45 13.5q-27 0 -49.5 -11t-40 -29t-29 -40t-16.5 -44q45 -1 81.5 2.5t62 11.5t39.5 22.5t14 36.5zM474 694l-131 -148h-88l96 148h123z" />
    <glyph glyph-name="ecircumflex" unicode="&#xea;" horiz-adv-x="479" 
d="M402 28q-36 -19 -81.5 -28.5t-90.5 -9.5q-51 0 -88.5 14.5t-62 41t-37 63.5t-12.5 82q0 55 19.5 110t55.5 98.5t87 71t114 27.5q72 0 114.5 -38t42.5 -99q0 -47 -23.5 -78.5t-65.5 -50.5t-101 -26.5t-129 -5.5q-2 -13 1.5 -34t11.5 -35q29 -50 100 -50q42 0 75 9t59 23z
M353 360q0 24 -17 37.5t-45 13.5q-27 0 -49.5 -11t-40 -29t-29 -40t-16.5 -44q45 -1 81.5 2.5t62 11.5t39.5 22.5t14 36.5zM373 694l72 -148h-79l-41 84h-2l-64 -84h-86l119 148h81z" />
    <glyph glyph-name="edieresis" unicode="&#xeb;" horiz-adv-x="479" 
d="M402 28q-36 -19 -81.5 -28.5t-90.5 -9.5q-51 0 -88.5 14.5t-62 41t-37 63.5t-12.5 82q0 55 19.5 110t55.5 98.5t87 71t114 27.5q72 0 114.5 -38t42.5 -99q0 -47 -23.5 -78.5t-65.5 -50.5t-101 -26.5t-129 -5.5q-2 -13 1.5 -34t11.5 -35q29 -50 100 -50q42 0 75 9t59 23z
M353 360q0 24 -17 37.5t-45 13.5q-27 0 -49.5 -11t-40 -29t-29 -40t-16.5 -44q45 -1 81.5 2.5t62 11.5t39.5 22.5t14 36.5zM223 561q-24 0 -41 16t-17 42q0 29 19 47.5t46 18.5q26 0 41.5 -17t15.5 -42q0 -29 -18.5 -47t-45.5 -18zM419 561q-25 0 -42 16t-17 42
q0 29 19 47.5t46 18.5q26 0 41.5 -17t15.5 -42q0 -29 -18 -47t-45 -18z" />
    <glyph glyph-name="igrave" unicode="&#xec;" horiz-adv-x="249" 
d="M20 0l92 487h117l-93 -487h-116zM160 694l71 -148h-83l-107 148h119z" />
    <glyph glyph-name="iacute" unicode="&#xed;" horiz-adv-x="249" 
d="M20 0l92 487h117l-93 -487h-116zM346 694l-131 -148h-88l96 148h123z" />
    <glyph glyph-name="icircumflex" unicode="&#xee;" horiz-adv-x="249" 
d="M20 0l92 487h117l-93 -487h-116zM244 694l72 -148h-79l-41 84h-2l-64 -84h-86l119 148h81z" />
    <glyph glyph-name="idieresis" unicode="&#xef;" horiz-adv-x="249" 
d="M20 0l92 487h117l-93 -487h-116zM94 561q-24 0 -41 16t-17 42q0 29 19 47.5t46 18.5q26 0 41.5 -17t15.5 -42q0 -29 -18.5 -47t-45.5 -18zM290 561q-25 0 -42 16t-17 42q0 29 19 47.5t46 18.5q26 0 41.5 -17t15.5 -42q0 -29 -18 -47t-45 -18z" />
    <glyph glyph-name="eth" unicode="&#xf0;" horiz-adv-x="539" 
d="M240 79q33 0 59.5 17.5t45 46t29 65.5t11.5 75q1 23 -1 38.5t-11 30.5q-9 17 -27 29t-50 12q-33 0 -60 -18.5t-46.5 -48t-29.5 -65.5t-10 -72q0 -45 22.5 -77.5t67.5 -32.5zM138 543l124 54q-17 16 -40 30t-46 25l54 66q39 -16 71 -35.5t62 -43.5l136 58l20 -51l-111 -48
q46 -48 73.5 -115t27.5 -151q0 -77 -21.5 -140t-59 -108t-88 -70t-109.5 -25q-50 0 -87.5 16t-63 43.5t-38.5 64t-13 77.5q0 58 20 109.5t54.5 91t82 63t101.5 24.5q22 1 46.5 -6t43.5 -28l3 2q-12 33 -29.5 61t-42.5 51l-151 -67z" />
    <glyph glyph-name="ntilde" unicode="&#xf1;" horiz-adv-x="550" 
d="M20 0l63 336q9 44 14.5 81.5t10.5 69.5h103l-10 -88h2q34 50 79 74.5t96 24.5q52 0 88 -32.5t36 -101.5q0 -17 -2.5 -39.5t-6.5 -41.5l-54 -283h-116l52 275q2 14 4 29t2 29q0 30 -13 50t-48 20q-20 0 -41.5 -12t-41.5 -34.5t-35.5 -55.5t-23.5 -76l-42 -225h-116z
M202 563q7 53 29.5 83.5t57.5 30.5q20 0 34 -6.5t28 -14.5q11 -7 20.5 -12.5t18.5 -5.5q12 0 19 8.5t12 34.5h59q-8 -57 -29 -84t-59 -27q-19 0 -34.5 6t-27.5 14q-11 8 -20 13t-19 5q-12 0 -18.5 -12.5t-10.5 -32.5h-60z" />
    <glyph glyph-name="ograve" unicode="&#xf2;" horiz-adv-x="543" 
d="M313 498q49 0 86.5 -16.5t62.5 -44t38 -64.5t13 -77q0 -62 -20.5 -117.5t-58 -97.5t-89.5 -67t-114 -25q-46 0 -83 15t-62.5 42t-39.5 63.5t-14 80.5q0 62 20.5 118t57.5 98t89 67t114 25zM299 408q-35 0 -62.5 -21t-46 -52.5t-28.5 -69.5t-10 -72q0 -51 25 -82.5
t70 -31.5q33 0 59.5 20.5t45.5 52t29.5 70t10.5 74.5q0 19 -4.5 38.5t-15.5 36t-28.5 27t-44.5 10.5zM305 694l71 -148h-83l-107 148h119z" />
    <glyph glyph-name="oacute" unicode="&#xf3;" horiz-adv-x="543" 
d="M313 498q49 0 86.5 -16.5t62.5 -44t38 -64.5t13 -77q0 -62 -20.5 -117.5t-58 -97.5t-89.5 -67t-114 -25q-46 0 -83 15t-62.5 42t-39.5 63.5t-14 80.5q0 62 20.5 118t57.5 98t89 67t114 25zM299 408q-35 0 -62.5 -21t-46 -52.5t-28.5 -69.5t-10 -72q0 -51 25 -82.5
t70 -31.5q33 0 59.5 20.5t45.5 52t29.5 70t10.5 74.5q0 19 -4.5 38.5t-15.5 36t-28.5 27t-44.5 10.5zM486 694l-131 -148h-88l96 148h123z" />
    <glyph glyph-name="ocircumflex" unicode="&#xf4;" horiz-adv-x="543" 
d="M313 498q49 0 86.5 -16.5t62.5 -44t38 -64.5t13 -77q0 -62 -20.5 -117.5t-58 -97.5t-89.5 -67t-114 -25q-46 0 -83 15t-62.5 42t-39.5 63.5t-14 80.5q0 62 20.5 118t57.5 98t89 67t114 25zM299 408q-35 0 -62.5 -21t-46 -52.5t-28.5 -69.5t-10 -72q0 -51 25 -82.5
t70 -31.5q33 0 59.5 20.5t45.5 52t29.5 70t10.5 74.5q0 19 -4.5 38.5t-15.5 36t-28.5 27t-44.5 10.5zM390 694l72 -148h-79l-41 84h-2l-64 -84h-86l119 148h81z" />
    <glyph glyph-name="otilde" unicode="&#xf5;" horiz-adv-x="543" 
d="M313 498q49 0 86.5 -16.5t62.5 -44t38 -64.5t13 -77q0 -62 -20.5 -117.5t-58 -97.5t-89.5 -67t-114 -25q-46 0 -83 15t-62.5 42t-39.5 63.5t-14 80.5q0 62 20.5 118t57.5 98t89 67t114 25zM299 408q-35 0 -62.5 -21t-46 -52.5t-28.5 -69.5t-10 -72q0 -51 25 -82.5
t70 -31.5q33 0 59.5 20.5t45.5 52t29.5 70t10.5 74.5q0 19 -4.5 38.5t-15.5 36t-28.5 27t-44.5 10.5zM189 563q7 53 29.5 83.5t57.5 30.5q20 0 34 -6.5t28 -14.5q11 -7 20.5 -12.5t18.5 -5.5q12 0 19 8.5t12 34.5h59q-8 -57 -29 -84t-59 -27q-19 0 -34.5 6t-27.5 14
q-11 8 -20 13t-19 5q-12 0 -18.5 -12.5t-10.5 -32.5h-60z" />
    <glyph glyph-name="odieresis" unicode="&#xf6;" horiz-adv-x="543" 
d="M313 498q49 0 86.5 -16.5t62.5 -44t38 -64.5t13 -77q0 -62 -20.5 -117.5t-58 -97.5t-89.5 -67t-114 -25q-46 0 -83 15t-62.5 42t-39.5 63.5t-14 80.5q0 62 20.5 118t57.5 98t89 67t114 25zM299 408q-35 0 -62.5 -21t-46 -52.5t-28.5 -69.5t-10 -72q0 -51 25 -82.5
t70 -31.5q33 0 59.5 20.5t45.5 52t29.5 70t10.5 74.5q0 19 -4.5 38.5t-15.5 36t-28.5 27t-44.5 10.5zM238 561q-24 0 -41 16t-17 42q0 29 19 47.5t46 18.5q26 0 41.5 -17t15.5 -42q0 -29 -18.5 -47t-45.5 -18zM434 561q-25 0 -42 16t-17 42q0 29 19 47.5t46 18.5
q26 0 41.5 -17t15.5 -42q0 -29 -18 -47t-45 -18z" />
    <glyph glyph-name="divide" unicode="&#xf7;" 
d="M302 377q-29 0 -46.5 18t-17.5 47q0 30 17.5 48t46.5 18t46 -18t18 -48q0 -29 -17.5 -47t-46.5 -18zM49 228v78h506v-78h-506zM302 26q-29 0 -46.5 18t-17.5 47q0 30 17.5 48t46.5 18t46 -18t18 -48q0 -29 -17.5 -47t-46.5 -18z" />
    <glyph glyph-name="oslash" unicode="&#xf8;" horiz-adv-x="543" 
d="M19 -12l59 69q-46 52 -46 137q0 61 20.5 116t57.5 97t88.5 66.5t112.5 24.5q36 0 64.5 -8.5t50.5 -23.5l58 67l39 -34l-57 -67q25 -29 36 -65t11 -70q0 -67 -22 -123.5t-59.5 -97.5t-87.5 -64t-105 -23q-41 0 -70.5 8.5t-52.5 25.5l-61 -71zM359 388q-22 24 -62 24
q-35 0 -61.5 -20t-45.5 -50t-29 -65t-10 -65q-1 -36 10 -60l2 -1zM184 101q24 -26 65 -26q31 0 57 18.5t45.5 47t31 64t11.5 70.5q0 31 -9 60h-3z" />
    <glyph glyph-name="ugrave" unicode="&#xf9;" horiz-adv-x="545" 
d="M524 487l-64 -336q-8 -44 -13.5 -81.5t-10.5 -69.5h-103l10 85h-2q-35 -48 -79 -72t-90 -24q-27 0 -50 7.5t-40 24t-27 42.5t-10 64q0 40 10 87l52 273h116l-50 -266q-8 -38 -8 -67q0 -30 13.5 -49.5t48.5 -19.5q20 0 41 11.5t40 33t33.5 52t21.5 68.5l45 237h116z
M306 694l71 -148h-83l-107 148h119z" />
    <glyph glyph-name="uacute" unicode="&#xfa;" horiz-adv-x="545" 
d="M524 487l-64 -336q-8 -44 -13.5 -81.5t-10.5 -69.5h-103l10 85h-2q-35 -48 -79 -72t-90 -24q-27 0 -50 7.5t-40 24t-27 42.5t-10 64q0 40 10 87l52 273h116l-50 -266q-8 -38 -8 -67q0 -30 13.5 -49.5t48.5 -19.5q20 0 41 11.5t40 33t33.5 52t21.5 68.5l45 237h116z
M485 694l-131 -148h-88l96 148h123z" />
    <glyph glyph-name="ucircumflex" unicode="&#xfb;" horiz-adv-x="545" 
d="M524 487l-64 -336q-8 -44 -13.5 -81.5t-10.5 -69.5h-103l10 85h-2q-35 -48 -79 -72t-90 -24q-27 0 -50 7.5t-40 24t-27 42.5t-10 64q0 40 10 87l52 273h116l-50 -266q-8 -38 -8 -67q0 -30 13.5 -49.5t48.5 -19.5q20 0 41 11.5t40 33t33.5 52t21.5 68.5l45 237h116z
M395 694l72 -148h-79l-41 84h-2l-64 -84h-86l119 148h81z" />
    <glyph glyph-name="udieresis" unicode="&#xfc;" horiz-adv-x="545" 
d="M524 487l-64 -336q-8 -44 -13.5 -81.5t-10.5 -69.5h-103l10 85h-2q-35 -48 -79 -72t-90 -24q-27 0 -50 7.5t-40 24t-27 42.5t-10 64q0 40 10 87l52 273h116l-50 -266q-8 -38 -8 -67q0 -30 13.5 -49.5t48.5 -19.5q20 0 41 11.5t40 33t33.5 52t21.5 68.5l45 237h116z
M238 561q-24 0 -41 16t-17 42q0 29 19 47.5t46 18.5q26 0 41.5 -17t15.5 -42q0 -29 -18.5 -47t-45.5 -18zM434 561q-25 0 -42 16t-17 42q0 29 19 47.5t46 18.5q26 0 41.5 -17t15.5 -42q0 -29 -18 -47t-45 -18z" />
    <glyph glyph-name="yacute" unicode="&#xfd;" horiz-adv-x="472" 
d="M167 487l38 -235q7 -39 11.5 -67.5t7.5 -53.5h2q9 23 19.5 49.5t27.5 66.5l105 240h123l-178 -359q-45 -90 -87 -155t-91 -113q-21 -21 -43 -35.5t-42 -24.5t-37 -16t-28 -8l-27 100q17 5 40 15t46 27q25 18 47 43t39 54q5 10 2 23l-97 449h122zM448 694l-131 -148h-88
l96 148h123z" />
    <glyph glyph-name="thorn" unicode="&#xfe;" horiz-adv-x="547" 
d="M150 710h117l-57 -295h2q24 36 63 59.5t88 23.5q39 0 68 -14.5t48.5 -39t28.5 -57.5t9 -70q0 -67 -21.5 -126.5t-60 -104.5t-90 -71t-111.5 -26q-27 0 -53.5 5.5t-43.5 15.5h-3l-39 -208h-116zM152 102q13 -11 34 -17.5t44 -6.5q34 0 64.5 20t52.5 52.5t35 73.5t13 83
q0 17 -4 34.5t-13 31t-23.5 22t-35.5 8.5q-22 0 -44 -12t-42 -35t-35.5 -58t-24.5 -80z" />
    <glyph glyph-name="ydieresis" unicode="&#xff;" horiz-adv-x="472" 
d="M167 487l38 -235q7 -39 11.5 -67.5t7.5 -53.5h2q9 23 19.5 49.5t27.5 66.5l105 240h123l-178 -359q-45 -90 -87 -155t-91 -113q-21 -21 -43 -35.5t-42 -24.5t-37 -16t-28 -8l-27 100q17 5 40 15t46 27q25 18 47 43t39 54q5 10 2 23l-97 449h122zM194 561q-24 0 -41 16
t-17 42q0 29 19 47.5t46 18.5q26 0 41.5 -17t15.5 -42q0 -29 -18.5 -47t-45.5 -18zM390 561q-25 0 -42 16t-17 42q0 29 19 47.5t46 18.5q26 0 41.5 -17t15.5 -42q0 -29 -18 -47t-45 -18z" />
    <glyph glyph-name="OE" unicode="&#x152;" horiz-adv-x="890" 
d="M807 0h-341q-14 0 -27.5 -1t-30.5 -3q-17 -3 -35 -4t-41 -1q-71 0 -125 22t-90 60.5t-54.5 90.5t-18.5 111q0 81 27 155t79.5 130t128.5 89.5t175 33.5q29 0 47.5 -1.5t35.5 -3.5q21 -2 36 -3t32 -1h315l-19 -99h-263l-33 -177h247l-18 -99h-248l-37 -200h276zM522 576
q-14 5 -31 7t-46 2q-65 0 -116.5 -25t-87 -66.5t-54.5 -96t-19 -114.5q0 -41 11.5 -76.5t35.5 -61.5t60 -41t85 -15q20 0 37.5 2t34.5 6z" />
    <glyph glyph-name="oe" unicode="&#x153;" horiz-adv-x="814" 
d="M737 30q-35 -20 -79.5 -30.5t-86.5 -10.5q-54 0 -98 23.5t-66 75.5h-2q-33 -51 -81 -75t-101 -24q-43 0 -78.5 15t-60.5 42t-39 65t-14 83q0 63 20.5 118.5t56 96.5t84 65t104.5 24q60 0 101 -26.5t59 -74.5h2q32 48 82 74.5t105 26.5q40 0 69 -11.5t48 -30.5t27.5 -42
t8.5 -46q0 -53 -27.5 -85.5t-72 -50t-101 -23.5t-114.5 -5q-3 -18 0 -37.5t11 -35.5q14 -23 40 -36t63 -13q42 0 73 9t57 22zM243 80q34 0 61 21.5t45.5 53.5t28 69.5t9.5 70.5q0 22 -4.5 42.5t-14.5 36.5t-27.5 25.5t-42.5 9.5q-35 0 -62.5 -20t-46 -50.5t-28.5 -68
t-10 -73.5q0 -52 25 -84.5t67 -32.5zM689 359q0 22 -16.5 37t-49.5 15q-26 0 -47 -11t-37 -28.5t-27 -39t-17 -42.5q36 0 71 2t62 9t44 21t17 37z" />
    <glyph glyph-name="Ydieresis" unicode="&#x178;" horiz-adv-x="546" 
d="M155 0l53 277l-131 397h124l53 -192q11 -44 17 -69.5t11 -48.5h2q14 24 30.5 53t39.5 67l121 190h138l-289 -395l-53 -279h-116zM255 716q-23 0 -40 15.5t-17 40.5q0 28 18.5 46t44.5 18t41.5 -17t15.5 -40q0 -28 -18.5 -45.5t-44.5 -17.5zM452 716q-23 0 -40 15.5
t-17 40.5q0 28 18.5 46t44.5 18t41.5 -17t15.5 -40q0 -28 -18.5 -45.5t-44.5 -17.5z" />
    <glyph glyph-name="tilde" unicode="&#x2dc;" horiz-adv-x="389" 
d="M131 563q7 53 29.5 83.5t57.5 30.5q20 0 34 -6.5t28 -14.5q11 -7 20.5 -12.5t18.5 -5.5q12 0 19 8.5t12 34.5h59q-8 -57 -29 -84t-59 -27q-19 0 -34.5 6t-27.5 14q-11 8 -20 13t-19 5q-12 0 -18.5 -12.5t-10.5 -32.5h-60z" />
    <glyph glyph-name="endash" unicode="&#x2013;" horiz-adv-x="500" 
d="M480 293l-15 -78h-440l16 78h439z" />
    <glyph glyph-name="emdash" unicode="&#x2014;" horiz-adv-x="1000" 
d="M980 293l-15 -78h-940l16 78h939z" />
    <glyph glyph-name="quoteleft" unicode="&#x2018;" horiz-adv-x="227" 
d="M67 422q15 34 33.5 69.5t37.5 69.5t38 64t37 53l78 7q-14 -27 -28.5 -59t-28.5 -65t-26 -66.5t-21 -63.5z" />
    <glyph glyph-name="quoteright" unicode="&#x2019;" horiz-adv-x="227" 
d="M285 685q-16 -34 -34 -69.5t-37 -69.5t-38 -64t-37 -53l-78 -7q14 27 28.5 59t28 65t26 66t21.5 63z" />
    <glyph glyph-name="quotedblleft" unicode="&#x201c;" horiz-adv-x="401" 
d="M67 422q15 34 33 69.5t37 69.5t38 64t37 53l78 7q-14 -27 -28.5 -59t-28 -65t-26 -66.5t-21.5 -63.5zM241 422q15 34 33.5 69.5t37.5 69.5t38 64t37 53l78 7q-14 -27 -28.5 -59t-28.5 -65t-26 -66.5t-21 -63.5z" />
    <glyph glyph-name="quotedblright" unicode="&#x201d;" horiz-adv-x="401" 
d="M284 685q-16 -34 -34 -69.5t-37 -69.5t-38 -64t-37 -53l-78 -7q14 27 29 59t28.5 65t25.5 66.5t21 63.5zM459 685q-16 -34 -34 -69.5t-37 -69.5t-38 -64t-37 -53l-78 -7q14 27 28.5 59t28.5 65t26 66.5t21 63.5z" />
    <glyph glyph-name="quotedblbase" unicode="&#x201e;" horiz-adv-x="401" 
d="M-59 -118q15 28 30 61t29 67t26.5 68t21.5 65l125 10q-16 -35 -34.5 -71.5t-38 -71t-39.5 -65.5t-38 -55zM127 -118q15 28 30 61t29 67t26.5 68t21.5 65l125 10q-16 -35 -34.5 -71.5t-38 -71t-39.5 -65.5t-38 -55z" />
    <glyph glyph-name="bullet" unicode="&#x2022;" horiz-adv-x="309" 
d="M158 145q-24 0 -45.5 9t-37.5 25t-25.5 38t-9.5 47q-1 25 8.5 47t25.5 38t38 25.5t46 9.5q25 0 46.5 -9t38 -25.5t26 -38.5t9.5 -47t-9.5 -46.5t-25.5 -37.5t-38 -25.5t-47 -9.5z" />
    <glyph glyph-name="ellipsis" unicode="&#x2026;" horiz-adv-x="1000" 
d="M126 -10q-32 0 -51 20.5t-19 51.5q0 35 23 60.5t59 25.5q32 0 51.5 -20.5t19.5 -53.5q0 -36 -23 -60t-60 -24zM460 -10q-32 0 -51 20.5t-19 51.5q0 35 23 60.5t59 25.5q32 0 51.5 -20.5t19.5 -53.5q0 -36 -23.5 -60t-59.5 -24zM794 -10q-32 0 -51 20.5t-19 51.5
q0 35 22.5 60.5t59.5 25.5q32 0 51 -20.5t19 -53.5q0 -36 -23 -60t-59 -24z" />
    <glyph glyph-name="guilsinglleft" unicode="&#x2039;" horiz-adv-x="258" 
d="M114 250l98 -186h-85l-100 188l140 188h94z" />
    <glyph glyph-name="guilsinglright" unicode="&#x203a;" horiz-adv-x="257" 
d="M55 440h85l100 -188l-140 -188h-94l148 191z" />
    <glyph glyph-name="Euro" unicode="&#x20ac;" horiz-adv-x="519" 
d="M476 23q-23 -14 -63 -24t-88 -10q-59 0 -104.5 19t-77 52.5t-48 80t-17.5 101.5h-70l13 62h61l4 26t6 26h-62l13 62h67q18 51 50.5 95.5t75 77t94 51.5t108.5 19q48 0 81.5 -9.5t55.5 -20.5l-36 -89q-16 8 -43 15t-65 7q-35 0 -66 -12t-56.5 -32.5t-45 -47t-30.5 -54.5
h246l-14 -62h-255q-3 -12 -5.5 -25t-4.5 -27h255l-13 -62h-243q2 -33 12 -61.5t28 -49.5t45 -33t62 -12t67 8.5t49 16.5z" />
    <glyph glyph-name="trademark" unicode="&#x2122;" horiz-adv-x="685" 
d="M337 674v-57h-82v-216h-70v216h-81v57h233zM631 401l-7 138q-1 20 -0.5 43t-0.5 50h-4q-6 -23 -12 -48.5t-11 -46.5l-38 -131h-68l-36 133q-4 18 -8.5 44t-9.5 49h-4q-1 -24 -1 -47.5t-2 -45.5l-7 -138h-67l19 273h107l31 -97q4 -15 8 -32.5t9 -46.5h1q5 22 9.5 41.5
t9.5 37.5l32 97h101l18 -273h-69z" />
    <glyph glyph-name="G_tildecomb" unicode="&#xe000;" horiz-adv-x="651" 
d="M554 30q-35 -12 -89 -24.5t-117 -12.5q-70 0 -126 19.5t-96 59.5q-40 38 -58.5 91t-18.5 111q0 91 34.5 171t100.5 137q56 48 129.5 73.5t158.5 25.5q64 0 108 -10.5t62 -20.5l-36 -98q-24 12 -60.5 20t-82.5 8q-54 0 -102 -17t-86 -49q-46 -39 -72.5 -100.5
t-26.5 -130.5q0 -91 48.5 -141t143.5 -50q27 0 49 4.5t37 10.5l32 169h-119l19 94h232zM291 715q9 56 33.5 85.5t57.5 29.5q21 0 34.5 -6t27.5 -14q11 -8 21 -13.5t21 -5.5q12 0 20 9.5t14 32.5h59q-9 -58 -32.5 -84.5t-60.5 -26.5q-20 0 -34 5t-27 13q-12 8 -21 13.5
t-21 5.5q-22 -2 -32 -44h-60z" />
    <glyph glyph-name="M_uni0302" unicode="&#xe001;" horiz-adv-x="802" 
d="M588 0l45 317q8 52 18 118t23 129h-3q-26 -60 -55 -121.5t-57 -115.5l-166 -319h-90l-35 314q-6 57 -10.5 119.5t-7.5 122.5h-2q-7 -29 -14 -61.5t-14 -65.5t-14 -64t-13 -56l-77 -317h-108l171 674h154l36 -315q4 -45 8 -95.5t5 -98.5h4q18 48 40.5 98.5t44.5 94.5
l163 316h156l-89 -674h-113zM555 832l80 -122h-86l-44 66h-2l-65 -66h-94l122 122h89z" />
    <glyph glyph-name="N_uni0302" unicode="&#xe002;" horiz-adv-x="651" 
d="M24 0l128 674h134l118 -313q22 -62 36 -111t25 -100h2q3 50 9.5 102.5t20.5 125.5l56 296h110l-128 -674h-119l-121 319q-12 33 -21 60.5t-16.5 53t-14 50.5t-12.5 53l-4 -1q-5 -48 -15 -110t-24 -137l-55 -288h-109zM480 832l80 -122h-86l-44 66h-2l-65 -66h-94l122 122
h89z" />
    <glyph glyph-name="f_f_j" unicode="&#xe003;" horiz-adv-x="813" 
d="M768 603q-17 8 -43.5 15.5t-58.5 7.5t-54.5 -9.5t-37.5 -26t-24 -38t-13 -44.5l-3 -21h272l-90 -477q-11 -62 -26.5 -102.5t-38.5 -66.5t-55.5 -38t-67.5 -12t-63 7l13 89q15 -3 35 -3q14 0 26.5 4.5t23.5 17.5t19.5 35t15.5 57l76 399h-157l-75 -397h-116l75 397h-176
l-75 -397h-116l75 397h-64l17 90h64l5 22q8 42 25 80t46 67q24 25 58 39.5t80 14.5q26 0 47.5 -7t32.5 -14l-39 -86q-9 5 -20.5 8.5t-23.5 3.5q-31 0 -53 -20q-15 -15 -24.5 -38.5t-14.5 -51.5l-3 -18h177l4 22q19 101 85 156.5t169 55.5q38 0 73 -8.5t51 -18.5z" />
    <glyph glyph-name="f_j" unicode="&#xe004;" horiz-adv-x="522" 
d="M477 603q-17 8 -43.5 15.5t-58.5 7.5t-54.5 -9.5t-37.5 -26t-24 -38t-13 -44.5l-3 -21h272l-90 -477q-11 -62 -26.5 -102.5t-38.5 -66.5t-55.5 -38t-67.5 -12t-63 7l14 89q13 -3 34 -3q14 0 26.5 4.5t23 17.5t19.5 35t16 57l75 399h-156l-74 -397h-117l75 397h-63l17 90
h64l4 22q19 101 85 156.5t169 55.5q38 0 73 -8.5t51 -18.5z" />
    <glyph glyph-name="g_tildecomb" unicode="&#xe005;" horiz-adv-x="543" 
d="M39 -87q22 -13 58 -21t71 -8q28 0 53 7.5t45.5 24.5t35.5 46t24 71l12 55h-2q-59 -86 -153 -86q-36 0 -64.5 14t-48 37.5t-30 54.5t-10.5 66q0 61 21.5 119t62.5 103.5t100 73.5t135 28q48 0 91.5 -9.5t77.5 -24.5l-74 -402q-14 -72 -36.5 -127t-63.5 -90
q-19 -16 -41 -26.5t-45.5 -16.5t-47.5 -8.5t-47 -2.5q-47 0 -87.5 9t-64.5 24zM391 395q-9 5 -26.5 8.5t-37.5 3.5q-38 0 -70 -19t-55 -49.5t-36 -69t-13 -77.5q0 -19 4 -37t13 -31.5t24 -22t37 -8.5t43 12t39 33.5t31.5 50t19.5 61.5zM208 563q7 53 29.5 83.5t57.5 30.5
q20 0 34 -6.5t28 -14.5q11 -7 20.5 -12.5t18.5 -5.5q12 0 19 8.5t12 34.5h59q-8 -57 -29 -84t-59 -27q-19 0 -34.5 6t-27.5 14q-11 8 -20 13t-19 5q-12 0 -18.5 -12.5t-10.5 -32.5h-60z" />
    <glyph glyph-name="m_uni0302" unicode="&#xe006;" horiz-adv-x="821" 
d="M20 0l62 336q8 44 14 81.5t10 69.5h101l-10 -85h1q35 49 78 72.5t91 23.5q57 0 84.5 -30.5t30.5 -69.5q32 51 76.5 75t95.5 25q50 0 84.5 -32.5t34.5 -97.5q0 -16 -2.5 -39.5t-5.5 -43.5l-54 -285h-113l51 272q2 15 4.5 31t2.5 31q0 31 -14 50t-46 19q-20 0 -40 -12
t-38 -34.5t-32 -53.5t-21 -70l-44 -233h-112l52 276q6 30 6 57q0 28 -11.5 49t-46.5 21q-20 0 -41 -13t-39.5 -36t-32.5 -54.5t-21 -68.5l-42 -231h-113zM533 694l72 -148h-79l-41 84h-2l-64 -84h-86l119 148h81z" />
    <glyph glyph-name="fraction" horiz-adv-x="142" 
d="M-193 -11l489 672h74l-489 -672h-74z" />
    <glyph glyph-name="circumflex" horiz-adv-x="389" 
d="M317 694l72 -148h-79l-41 84h-2l-64 -84h-86l119 148h81z" />
    <glyph glyph-name="ring" horiz-adv-x="390" 
d="M275 728q43 0 72.5 -23.5t29.5 -68.5q-1 -48 -34.5 -74t-79.5 -26q-42 0 -71.5 24t-30.5 65q-1 47 31.5 75t82.5 28zM271 684q-23 0 -36.5 -16t-13.5 -39q0 -20 12.5 -34t32.5 -14q23 0 37 15.5t14 38.5q0 20 -12 34.5t-34 14.5z" />
    <glyph glyph-name="dotlessi" horiz-adv-x="249" 
d="M20 0l92 487h117l-93 -487h-116z" />
    <glyph glyph-name="one.numerator" horiz-adv-x="253" 
d="M107 266l59 310h-2l-75 -32l-8 66l112 46h83l-74 -390h-95z" />
    <glyph glyph-name="two.numerator" horiz-adv-x="322" 
d="M17 266l10 49l74 58q66 50 107 90t41 78q0 18 -12.5 32t-42.5 14q-24 0 -47 -9t-40 -20l-17 60q26 19 61 31t74 12q54 0 89.5 -27.5t35.5 -76.5q0 -30 -13 -56t-35 -49.5t-49.5 -45t-56.5 -42.5l-31 -24v-2h152l-14 -72h-286z" />
    <glyph glyph-name="three.numerator" horiz-adv-x="315" 
d="M95 626q22 15 55 25t71 10q54 0 88 -25.5t34 -63.5q0 -36 -27 -60.5t-67 -35.5v-2q30 -6 53 -28.5t23 -57.5q0 -30 -14 -53.5t-37.5 -40t-55.5 -25t-69 -8.5q-38 0 -72 8.5t-54 22.5l30 63q14 -10 39 -18.5t52 -8.5q38 0 60 17.5t22 43.5q0 28 -25.5 41.5t-61.5 13.5h-19
l12 57h18q16 0 33 3.5t30.5 11t22 17.5t8.5 24q0 16 -11.5 26.5t-39.5 10.5q-24 0 -48.5 -8.5t-39.5 -19.5z" />
    <glyph glyph-name="four.numerator" horiz-adv-x="344" 
d="M200 266l18 97h-184l11 53l209 243h108l-44 -233h53l-13 -63h-52l-19 -97h-87zM248 517q3 18 7.5 36t9.5 34h-2q-13 -18 -24.5 -35t-22.5 -31l-80 -93v-2h94z" />
    <glyph glyph-name="acute.cap" horiz-adv-x="389" 
d="M453 832l-134 -122h-101l98 122h137z" />
    <glyph glyph-name="cedilla.cap" horiz-adv-x="389" 
d="M194 3l-36 -50q26 -6 42 -23t16 -43q0 -24 -11 -41.5t-28 -28.5t-38 -16t-41 -5q-23 0 -42 5.5t-31 14.5l22 50q11 -7 24.5 -11t27.5 -4q15 0 27.5 7.5t12.5 23.5q0 14 -16 24t-53 13l57 84h67z" />
    <glyph glyph-name="circumflex.cap" horiz-adv-x="389" 
d="M349 832l80 -122h-86l-44 66h-2l-65 -66h-94l122 122h89z" />
    <glyph glyph-name="dieresis.cap" horiz-adv-x="389" 
d="M195 716q-23 0 -40 15.5t-17 40.5q0 28 18.5 46t44.5 18t41.5 -17t15.5 -40q0 -28 -18.5 -45.5t-44.5 -17.5zM392 716q-23 0 -40 15.5t-17 40.5q0 28 18.5 46t44.5 18t41.5 -17t15.5 -40q0 -28 -18.5 -45.5t-44.5 -17.5z" />
    <glyph glyph-name="grave.cap" horiz-adv-x="389" 
d="M273 832l76 -121h-97l-112 121h133z" />
    <glyph glyph-name="ring.cap" horiz-adv-x="389" 
d="M302 882q45 0 74 -23.5t29 -66.5q-1 -45 -34 -70.5t-81 -25.5q-42 0 -71 23.5t-30 62.5q-1 45 31 72.5t82 27.5zM299 839q-22 0 -35 -15.5t-13 -38.5q0 -19 11.5 -32t31.5 -13q22 0 35 14.5t13 35.5t-11.5 35t-31.5 14z" />
    <glyph glyph-name="tilde.cap" horiz-adv-x="389" 
d="M156 715q9 56 33.5 85.5t57.5 29.5q21 0 34.5 -6t27.5 -14q11 -8 21 -13.5t21 -5.5q12 0 20 9.5t14 32.5h59q-9 -58 -32.5 -84.5t-60.5 -26.5q-20 0 -34 5t-27 13q-12 8 -21 13.5t-21 5.5q-22 -2 -32 -44h-60z" />
    <glyph glyph-name="uni03BC" horiz-adv-x="543" 
d="M170 207q-23 -123 66 -123q16 0 31.5 8t29 20.5t24 28.5t18.5 32q13 22 17 47l51 267h117l-63 -336q-8 -40 -0.5 -54t29.5 -16l-24 -86l-16 -4t-22 -2q-35 0 -55.5 21.5t-21.5 73.5h-4q-21 -38 -54 -65t-79 -27q-27 0 -49.5 10.5t-33.5 32.5l-10 -54q-4 -20 -8 -44.5
t-7 -49.5t-5 -47.5t-1 -37.5h-105q-2 9 -1.5 27.5t2.5 42.5t6 52t10 58l95 505h116z" />
    <glyph glyph-name="uni20BD.taboldstyle" horiz-adv-x="542" 
d="M227 292h54q43 0 71.5 10t45 25.5t23.5 34.5t7 37q0 30 -23 51.5t-80 21.5q-23 0 -38.5 -1t-26.5 -3zM212 216l-10 -55h213l-12 -66h-214l-18 -95h-110l18 95h-62l13 66h62l10 55h-62l14 76h63l47 248q32 5 73.5 9t94.5 4q55 0 94.5 -11.5t64.5 -31.5t36.5 -46.5
t11.5 -56.5q0 -32 -13.5 -66t-45 -62t-83.5 -45.5t-128 -17.5h-57z" />
    </font>
</defs>
</svg>
