<?xml version="1.0" standalone="no"?>
<!DOCTYPE svg PUBLIC "-//W3C//DTD SVG 1.1//EN" "http://www.w3.org/Graphics/SVG/1.1/DTD/svg11.dtd" >
<svg>
<metadata>
Created by FontForge 20120731 at Mon Jun 22 07:15:54 2015
 By ,,,
(c) 1992, 1994, 1997, 2000, 2004 Adobe Systems Incorporated. All rights reserved.
</metadata>
<defs>
<font id="8348f480337d6287f55cafbdd0950f9458855e4bdf8d1f4fd971689bae59ff7" horiz-adv-x="536" >
  <font-face 
    font-family="8348f480337d6287f55cafbdd0950f9458855e4bdf8d1f4fd971689bae59ff7d"
    font-weight="600"
    font-stretch="normal"
    units-per-em="1000"
    panose-1="2 11 6 3 3 4 3 2 2 4"
    ascent="750"
    descent="-250"
    x-height="487"
    cap-height="674"
    bbox="-161 -250 970 889"
    underline-thickness="50"
    underline-position="-50"
    unicode-range="U+0020-E006"
  />
<missing-glyph horiz-adv-x="500" 
d="M0 700h500v-700h-500v700zM420 650h-340l170 -255zM450 95v510l-170 -255zM420 50l-170 255l-170 -255h340zM50 95l170 255l-170 255v-510z" />
    <glyph glyph-name=".notdef" horiz-adv-x="500" 
d="M0 700h500v-700h-500v700zM420 650h-340l170 -255zM450 95v510l-170 -255zM420 50l-170 255l-170 -255h340zM50 95l170 255l-170 255v-510z" />
    <glyph glyph-name=".null" horiz-adv-x="0" 
 />
    <glyph glyph-name="nonmarkingreturn" horiz-adv-x="333" 
 />
    <glyph glyph-name="space" unicode=" " horiz-adv-x="207" 
 />
    <glyph glyph-name="space" unicode="&#xa0;" horiz-adv-x="207" 
 />
    <glyph glyph-name="exclam" unicode="!" horiz-adv-x="251" 
d="M78 208l-18 466h130l-18 -466h-94zM125 -11q-34 0 -55 22t-20 56q0 35 21 56.5t54 21.5q35 0 55 -21.5t21 -56.5q0 -34 -20.5 -56t-55.5 -22z" />
    <glyph glyph-name="quotedbl" unicode="&#x22;" horiz-adv-x="370" 
d="M155 685l-20 -257h-73l-20 257h113zM328 685l-20 -257h-73l-20 257h113z" />
    <glyph glyph-name="numbersign" unicode="#" horiz-adv-x="526" 
d="M304 264l17 127h-97l-17 -127h97zM93 0l26 186h-82v78h94l18 127h-86v77h97l26 182h75l-25 -182h97l26 182h75l-25 -182h81v-77h-93l-17 -127h84v-77h-97l-25 -187h-77l26 187h-96l-26 -187h-76z" />
    <glyph glyph-name="dollar" unicode="$" 
d="M222 -86v97q-48 2 -91.5 14t-70.5 30l27 94q29 -17 69.5 -30.5t86.5 -13.5q48 0 77 21.5t29 57.5q0 34 -26.5 57.5t-82.5 43.5q-39 14 -71 31t-54.5 38t-35 48t-12.5 62q0 65 42.5 110.5t118.5 59.5v98h82v-93q48 -2 81 -11.5t57 -21.5l-27 -92q-18 8 -51.5 21t-84.5 13
q-26 0 -44.5 -6t-29.5 -16t-16 -22.5t-5 -25.5q0 -31 28.5 -51.5t92.5 -46.5q84 -32 123 -75t39 -110q0 -32 -11 -61t-32.5 -53t-53 -40.5t-72.5 -23.5v-103h-82z" />
    <glyph glyph-name="percent" unicode="%" horiz-adv-x="840" 
d="M199 661q78 0 121 -52.5t43 -140.5q0 -51 -14 -90t-37 -64.5t-54 -38.5t-64 -13q-34 0 -64 13t-52.5 37.5t-36 61t-13.5 83.5q0 46 12.5 83.5t35.5 64.5t54 41.5t69 14.5zM197 592q-19 0 -33 -10t-23.5 -28t-14 -42t-4.5 -51q-1 -57 18.5 -93.5t56.5 -36.5t55 35.5
t18 95.5q0 27 -4 50.5t-12.5 41.5t-22.5 28t-34 10zM196 -11l377 672h70l-377 -672h-70zM647 392q78 0 121 -53t43 -141q0 -51 -14 -89.5t-37 -64.5t-53.5 -39t-64.5 -13t-64 13t-52.5 38t-35.5 61.5t-13 83.5q0 46 12.5 83.5t35 64.5t54 41.5t68.5 14.5zM645 322
q-19 0 -33 -10t-23.5 -28t-14 -42t-4.5 -51q-1 -56 18.5 -93t56.5 -37q38 0 55.5 35.5t17.5 95.5q0 27 -4 51t-12.5 41.5t-22.5 27.5t-34 10z" />
    <glyph glyph-name="ampersand" unicode="&#x26;" horiz-adv-x="645" 
d="M497 0q-13 13 -25.5 26t-27.5 30q-38 -32 -85 -49.5t-105 -17.5q-56 0 -98 16t-69.5 42.5t-41.5 61t-14 70.5q0 68 36 116t94 79v3q-24 29 -39 64t-15 71q0 31 12 62t35.5 56t59 40t82.5 15q36 0 66.5 -10.5t53 -30.5t35 -48t12.5 -62q0 -53 -32 -96t-107 -80l-1 -4
q35 -41 71.5 -82.5t64.5 -71.5q22 34 37 79.5t24 99.5h110q-14 -78 -38.5 -141.5t-66.5 -111.5l56 -62t60 -64h-144zM272 80q36 0 65 12.5t48 32.5q-31 32 -75.5 82t-92.5 105q-12 -8 -24.5 -19t-22 -25t-16 -31t-6.5 -38q0 -51 33.5 -85t90.5 -34zM290 606q-35 0 -53.5 -25
t-18.5 -57q0 -31 13 -56.5t36 -51.5q43 27 66.5 53t23.5 61q0 27 -16 51.5t-51 24.5z" />
    <glyph glyph-name="quotesingle" unicode="'" horiz-adv-x="198" 
d="M155 685l-20 -257h-73l-20 257h113z" />
    <glyph glyph-name="parenleft" unicode="(" horiz-adv-x="301" 
d="M273 693q-48 -72 -80.5 -171.5t-32.5 -235.5q0 -133 33 -232.5t80 -171.5h-90q-21 30 -43 69.5t-39 89.5t-28 111t-11 134t11 134.5t28.5 112t39 90.5t42.5 70h90z" />
    <glyph glyph-name="parenright" unicode=")" horiz-adv-x="301" 
d="M28 -118q48 72 80 172t32 234q0 133 -32.5 233t-79.5 172h89q22 -30 43.5 -69.5t39 -90t28.5 -112t11 -134.5t-11 -134t-28.5 -111t-39 -90t-43.5 -70h-89z" />
    <glyph glyph-name="asterisk" unicode="*" horiz-adv-x="437" 
d="M353 642l-102 -126v-2l156 26v-86l-157 24v-3l103 -122l-77 -44l-59 148l-2 -1l-61 -148l-72 45l101 123v3l-153 -25v86l151 -26l1 3l-100 124l76 44l58 -147h3l58 147z" />
    <glyph glyph-name="plus" unicode="+" horiz-adv-x="596" 
d="M339 532v-226h217v-78h-217v-228h-82v228h-217v78h217v226h82z" />
    <glyph glyph-name="comma" unicode="," horiz-adv-x="236" 
d="M8 -121q10 28 20 61.5t19 68t16 69t12 65.5l129 10q-11 -35 -24 -72t-28 -72t-30 -66.5t-30 -55.5z" />
    <glyph glyph-name="hyphen" unicode="-" horiz-adv-x="315" 
d="M285 309v-85h-255v85h255z" />
    <glyph glyph-name="period" unicode="." horiz-adv-x="236" 
d="M127 -11q-34 0 -55 22.5t-21 56.5q0 35 21.5 57t54.5 22q34 0 55 -22t21 -57q0 -34 -20.5 -56.5t-55.5 -22.5z" />
    <glyph glyph-name="slash" unicode="/" horiz-adv-x="337" 
d="M8 -40l244 725h86l-244 -725h-86z" />
    <glyph glyph-name="zero" unicode="0" 
d="M272 661q59 0 102 -25t71.5 -69t42.5 -105t14 -133q0 -78 -15 -141t-45 -107.5t-74.5 -68t-102.5 -23.5q-56 0 -99 24.5t-72.5 68.5t-44.5 105.5t-15 135.5q0 76 16 138t46 106.5t74.5 69t101.5 24.5zM269 567q-50 0 -81 -60.5t-30 -183.5q-1 -119 29.5 -179.5
t81.5 -60.5q54 0 82 63t28 181q0 114 -27 177t-83 63z" />
    <glyph glyph-name="one" unicode="1" 
d="M236 539h-2l-119 -60l-21 93l158 78h103v-650h-119v539z" />
    <glyph glyph-name="two" unicode="2" 
d="M43 0v75l77 71q57 53 99.5 95.5t70.5 78.5t42 68t14 64q0 22 -6 41.5t-20 34.5t-36 24t-54 9q-43 0 -78.5 -17.5t-60.5 -36.5l-36 87q35 29 86.5 48t113.5 19q54 0 94 -16t67 -43t40 -62.5t13 -75.5q0 -43 -14.5 -82t-40.5 -77t-62 -75.5t-78 -76.5l-57 -49v-2h267v-102
h-441z" />
    <glyph glyph-name="three" unicode="3" 
d="M68 127q9 -6 25 -13t35.5 -13t42 -10t45.5 -4q35 0 60 9t41 24t23 33.5t7 37.5q0 29 -12.5 49.5t-33 34t-47 20t-54.5 6.5h-57v90h55q21 0 44 5t42 16t31 28.5t12 41.5q0 33 -25 57t-79 24q-40 0 -76.5 -13.5t-56.5 -27.5l-28 89q28 20 78 35t109 15q50 0 88 -13
t63.5 -34.5t38.5 -50.5t13 -61q0 -51 -30 -91t-90 -61v-2q30 -5 56 -18.5t45.5 -34.5t30.5 -48.5t11 -60.5q0 -41 -17 -77t-49 -62.5t-79.5 -42t-107.5 -15.5t-108 14t-74 31z" />
    <glyph glyph-name="four" unicode="4" 
d="M314 0v165h-294v80l265 405h145v-392h84v-93h-84v-165h-116zM314 258v177q0 28 1 56t3 57h-4q-15 -31 -28.5 -57t-28.5 -53l-119 -178l-1 -2h177z" />
    <glyph glyph-name="five" unicode="5" 
d="M456 548h-250l-19 -130q11 2 22 2.5t25 0.5q43 0 84 -10t74 -32q37 -23 61 -64t24 -101q0 -47 -18.5 -87.5t-53 -71.5t-83 -48.5t-108.5 -17.5q-57 0 -101.5 12t-70.5 26l25 93q21 -11 59.5 -22.5t83.5 -11.5q27 0 52.5 7.5t45 22.5t31.5 37.5t12 51.5q0 56 -43.5 89.5
t-141.5 33.5q-27 0 -48 -1.5t-41 -4.5l43 328h336v-102z" />
    <glyph glyph-name="six" unicode="6" 
d="M439 563q-14 0 -29 -0.5t-34 -2.5q-51 -6 -89 -24t-65 -43.5t-42.5 -57t-21.5 -65.5h3q24 28 60.5 45.5t85.5 17.5q42 0 78.5 -14.5t63 -42t42 -67t15.5 -88.5q0 -47 -16.5 -89t-46.5 -73.5t-72 -50.5t-94 -19q-59 0 -105 21t-77 58.5t-47 89t-16 111.5q0 94 31 168.5
t82 123.5q90 84 231 96q20 2 35.5 2.5t26.5 -0.5zM276 81q48 0 76.5 37t28.5 96q0 57 -29.5 93t-83.5 36q-35 0 -63.5 -19t-42.5 -48q-8 -16 -8 -39q1 -32 9 -60.5t23 -49.5t37.5 -33.5t52.5 -12.5z" />
    <glyph glyph-name="seven" unicode="7" 
d="M490 650v-79l-275 -571h-130l274 546v2h-306v102h437z" />
    <glyph glyph-name="eight" unicode="8" 
d="M265 -11q-57 0 -100 15t-72.5 40t-44 57t-14.5 66q0 61 32.5 102.5t89.5 66.5v3q-51 25 -75 63t-24 81q0 40 16.5 72.5t46 56t69 36.5t85.5 13q52 0 90.5 -14.5t64 -37.5t37.5 -52.5t12 -59.5q0 -41 -23.5 -81t-76.5 -66v-3q54 -20 89 -61.5t35 -102.5q0 -44 -17.5 -79.5
t-49 -61t-75 -39.5t-95.5 -14zM269 76q49 0 78.5 27.5t29.5 69.5q0 50 -33.5 78.5t-87.5 43.5q-46 -14 -71 -43.5t-25 -70.5q-1 -21 6.5 -40t21.5 -33.5t34.5 -23t46.5 -8.5zM268 576q-47 0 -70.5 -26.5t-23.5 -61.5q0 -40 29.5 -64.5t76.5 -37.5q33 10 57 35.5t24 62.5
q0 17 -5.5 33.5t-16.5 29.5t-28.5 21t-42.5 8z" />
    <glyph glyph-name="nine" unicode="9" 
d="M93 88q14 -2 29.5 -1t38.5 3q36 3 70.5 15.5t61.5 34.5q65 53 83 144l-2 1q-25 -28 -59.5 -43t-82.5 -15q-42 0 -78.5 14.5t-62.5 41.5t-41 64t-15 82q0 46 17 88.5t48 74t74.5 50.5t95.5 19q57 0 100 -21t72.5 -58t44.5 -88t15 -110q0 -105 -31 -179.5t-82 -122.5
q-43 -40 -99.5 -62t-122.5 -27q-21 -2 -40.5 -2.5t-33.5 0.5v97zM264 570q-47 0 -77 -37t-30 -97q1 -51 28.5 -85t78.5 -34q38 0 64.5 15.5t40.5 38.5q3 6 5 14t2 21q0 33 -6 62.5t-19.5 52t-35 36t-51.5 13.5z" />
    <glyph glyph-name="colon" unicode=":" horiz-adv-x="236" 
d="M127 326q-34 0 -55 22t-21 56q0 35 21.5 57t54.5 22q34 0 54.5 -22t21.5 -57q0 -34 -20.5 -56t-55.5 -22zM127 -11q-34 0 -55 22.5t-21 55.5q0 35 21.5 57t54.5 22q34 0 54.5 -22t21.5 -57q0 -33 -20.5 -55.5t-55.5 -22.5z" />
    <glyph glyph-name="semicolon" unicode=";" horiz-adv-x="236" 
d="M8 -121q10 28 20.5 61.5t19 68t15.5 69t12 65.5l129 10q-11 -35 -24.5 -72t-28 -72t-29.5 -66.5t-30 -55.5zM133 326q-34 0 -55 22t-20 56q0 35 21 57t54 22q34 0 54.5 -22t21.5 -57q0 -34 -20.5 -56t-55.5 -22z" />
    <glyph glyph-name="less" unicode="&#x3c;" horiz-adv-x="596" 
d="M61 302l474 230v-90l-376 -175v-2l376 -176v-89l-474 230v72z" />
    <glyph glyph-name="equal" unicode="=" horiz-adv-x="596" 
d="M40 330v79h516v-79h-516zM40 128v78h516v-78h-516z" />
    <glyph glyph-name="greater" unicode="&#x3e;" horiz-adv-x="596" 
d="M535 228l-474 -228v89l382 176v2l-382 176v89l474 -228v-76z" />
    <glyph glyph-name="question" unicode="?" horiz-adv-x="428" 
d="M140 206l-2 26q-4 39 10.5 80t49.5 84q29 34 46 62t17 57q0 32 -20 51t-62 20q-26 0 -53.5 -8t-46.5 -22l-30 88q27 17 68 29t89 12q46 0 80.5 -12.5t56.5 -33.5t33 -48.5t11 -57.5q0 -27 -7.5 -50t-20 -44t-28 -40t-31.5 -37q-29 -35 -42 -67t-11 -68l1 -21h-108z
M191 -11q-34 0 -55 22.5t-21 55.5q0 35 21.5 56.5t54.5 21.5q34 0 54.5 -21.5t21.5 -56.5q0 -33 -20.5 -55.5t-55.5 -22.5z" />
    <glyph glyph-name="at" unicode="@" horiz-adv-x="755" 
d="M463 355q-8 2 -17.5 4t-22.5 2q-29 0 -53.5 -13t-43 -34.5t-29 -50.5t-10.5 -61q0 -31 14 -50t42 -19q18 0 34.5 10.5t30.5 27t23.5 38t13.5 43.5zM536 -66q-44 -21 -86.5 -29.5t-94.5 -8.5q-62 0 -118 21.5t-98 62t-67 99t-25 131.5q0 76 26.5 145.5t74.5 122
t116.5 83.5t152.5 31q66 0 120.5 -21.5t94 -60t61 -91.5t21.5 -116q0 -56 -14.5 -100t-39.5 -74.5t-58.5 -47t-71.5 -16.5q-33 0 -56 19.5t-25 62.5h-3q-49 -82 -134 -82q-47 0 -79 34t-32 94q0 46 17 88.5t48 75t74.5 52t96.5 19.5q33 0 63.5 -6.5t50.5 -16.5l-32 -183
q-18 -98 27 -98q18 -1 36 10t32.5 33t24 55t9.5 76q0 52 -15.5 95.5t-46 75.5t-75.5 50t-103 18q-59 0 -112.5 -22.5t-93.5 -64t-63.5 -100.5t-23.5 -133q0 -63 19 -112t53.5 -83t81 -52t102.5 -18q41 0 79.5 8t68.5 25z" />
    <glyph glyph-name="A" unicode="A" horiz-adv-x="636" 
d="M206 191l-58 -191h-127l216 674h157l219 -674h-132l-61 191h-214zM399 284l-53 166q-10 31 -18 64t-16 62h-2q-8 -29 -15.5 -62.5t-16.5 -63.5l-52 -166h173z" />
    <glyph glyph-name="B" unicode="B" horiz-adv-x="576" 
d="M71 665q29 6 78 10t101 4q69 0 113.5 -9.5t79.5 -33.5q32 -19 51 -51t19 -75q0 -47 -28.5 -86.5t-83.5 -59.5v-2q27 -7 51.5 -20.5t43 -34.5t30 -49t11.5 -63q0 -45 -18 -80t-47 -59q-36 -32 -96.5 -47.5t-153.5 -15.5q-51 0 -89.5 3t-61.5 6v663zM193 399h63
q64 0 98.5 27t34.5 70q0 48 -33.5 70t-92.5 22q-27 0 -43.5 -1.5t-26.5 -3.5v-184zM193 89q24 -3 65 -3q30 0 57 6t47.5 19.5t32.5 35t12 52.5q0 29 -12 50t-32.5 34.5t-48.5 19.5t-60 6h-61v-220z" />
    <glyph glyph-name="C" unicode="C" horiz-adv-x="588" 
d="M554 20q-22 -11 -67.5 -20.5t-106.5 -9.5q-80 0 -144 24t-108.5 68.5t-68 107t-23.5 139.5q0 83 27.5 149t75.5 112t114 70.5t143 24.5q61 0 103 -10t61 -20l-27 -98q-24 11 -57 18.5t-75 7.5q-51 0 -94.5 -16t-75 -47.5t-49 -77.5t-17.5 -107q0 -56 16 -100.5t46 -76.5
t73.5 -49t99.5 -17q38 0 74 7t60 18z" />
    <glyph glyph-name="D" unicode="D" horiz-adv-x="683" 
d="M71 665q41 7 91 10.5t105 3.5q95 0 161.5 -19.5t113.5 -58.5q49 -40 77 -100.5t28 -147.5q0 -91 -28.5 -157.5t-76.5 -110.5q-51 -46 -128.5 -69t-176.5 -23q-54 0 -95 2.5t-71 6.5v663zM194 94q13 -2 31 -2.5t37 -0.5q121 -1 188 64t67 194q1 112 -61 173t-178 61
q-29 0 -50 -2t-34 -5v-482z" />
    <glyph glyph-name="E" unicode="E" horiz-adv-x="515" 
d="M448 299h-254v-198h284v-101h-407v674h392v-101h-269v-174h254v-100z" />
    <glyph glyph-name="F" unicode="F" horiz-adv-x="509" 
d="M71 674h389v-101h-266v-186h248v-101h-248v-286h-123v674z" />
    <glyph glyph-name="G" unicode="G" horiz-adv-x="666" 
d="M611 31q-16 -6 -39.5 -12.5t-51.5 -12.5t-60 -9.5t-66 -3.5q-170 0 -264 90q-45 43 -70 107t-24 141q0 80 27 144.5t76.5 110.5t118.5 70.5t153 24.5q63 0 109.5 -10.5t69.5 -21.5l-27 -99q-28 12 -63.5 20.5t-89.5 8.5t-99 -15.5t-77.5 -46.5t-50.5 -76t-18 -104
q0 -57 17 -102.5t47.5 -77t73.5 -48t96 -16.5q33 0 57 4t36 10v168h-119v97h238v-341z" />
    <glyph glyph-name="H" unicode="H" horiz-adv-x="672" 
d="M194 674v-270h285v270h123v-674h-123v297h-285v-297h-123v674h123z" />
    <glyph glyph-name="I" unicode="I" horiz-adv-x="264" 
d="M194 674v-674h-123v674h123z" />
    <glyph glyph-name="J" unicode="J" horiz-adv-x="392" 
d="M205 674h123v-437q0 -70 -16 -117.5t-45.5 -76.5t-71 -41.5t-91.5 -12.5q-26 0 -54.5 4t-48.5 12l15 99q15 -5 34.5 -8.5t41.5 -3.5q26 0 47 7t35.5 24t22.5 45.5t8 72.5v433z" />
    <glyph glyph-name="K" unicode="K" horiz-adv-x="582" 
d="M71 674h122v-310h3q12 20 24.5 38t24.5 35l176 237h152l-232 -287l247 -387h-144l-191 309l-60 -72v-237h-122v674z" />
    <glyph glyph-name="L" unicode="L" horiz-adv-x="493" 
d="M71 674h123v-571h277v-103h-400v674z" />
    <glyph glyph-name="M" unicode="M" horiz-adv-x="827" 
d="M640 275q-3 66 -6 140t-2 143h-3q-17 -62 -37 -128t-43 -130l-98 -292h-95l-90 288q-20 65 -37 132t-31 130h-2q-2 -66 -5 -142t-7 -145l-15 -271h-115l45 674h162l88 -271q18 -60 33.5 -118.5t28.5 -115.5h3q14 55 30.5 115t36.5 120l93 270h160l39 -674h-120z" />
    <glyph glyph-name="N" unicode="N" horiz-adv-x="676" 
d="M71 0v674h140l174 -289q34 -57 63 -114t52 -112h2q-6 68 -8.5 135t-2.5 145v235h114v-674h-127l-176 296q-32 56 -64 116t-57 117l-3 -1q4 -66 5 -134.5t1 -152.5v-241h-113z" />
    <glyph glyph-name="O" unicode="O" horiz-adv-x="704" 
d="M356 685q74 0 132 -26.5t98.5 -72t61.5 -108t21 -134.5q0 -85 -24.5 -151t-67.5 -111.5t-102 -69t-129 -23.5q-71 0 -128.5 25.5t-98 71.5t-62 109t-21.5 137q0 78 23.5 142.5t65.5 111.5t101 73t130 26zM353 586q-46 0 -81 -20t-58.5 -54t-35.5 -80t-12 -98
q0 -51 12.5 -96t36.5 -78.5t59 -52.5t79 -19q45 0 79.5 19.5t58 53t36 79.5t12.5 99q0 48 -12 92.5t-35 79t-58 55t-81 20.5z" />
    <glyph glyph-name="P" unicode="P" horiz-adv-x="559" 
d="M71 665q33 6 79 10t109 4q133 0 199 -55q30 -25 48 -63t18 -86q0 -98 -58 -153q-37 -37 -92 -54.5t-121 -17.5q-17 0 -32.5 1t-27.5 3v-254h-122v665zM193 351q11 -3 26 -4t34 -1q69 0 108.5 32t39.5 92q0 57 -36.5 86t-100.5 29q-26 0 -43.5 -2t-27.5 -4v-228z" />
    <glyph glyph-name="Q" unicode="Q" horiz-adv-x="704" 
d="M638 -108q-71 20 -135 41t-128 46q-11 4 -22 6.5t-22 3.5q-59 3 -112 26t-94 66t-65 105.5t-24 144.5q0 78 23 143t65.5 112t102 73t131.5 26q73 0 131 -26.5t98 -72.5t61 -108t21 -133q0 -61 -13.5 -112t-36.5 -90t-55 -66.5t-69 -42.5v-4q44 -12 90 -22.5t88 -18.5z
M352 88q45 0 79.5 19.5t58.5 53t36.5 79.5t12.5 99q0 48 -12 93t-35 79t-57.5 54.5t-80.5 20.5t-81.5 -20.5t-59 -55t-35.5 -80t-12 -96.5t12 -95.5t36 -78t59 -53t79 -19.5z" />
    <glyph glyph-name="R" unicode="R" horiz-adv-x="569" 
d="M71 665q35 6 83.5 10t102.5 4q73 0 123.5 -12.5t84.5 -41.5q28 -23 43 -57.5t15 -77.5q0 -33 -10 -60t-27 -48.5t-39 -36.5t-46 -24v-3q36 -14 58.5 -47.5t35.5 -82.5q8 -32 15 -61.5t14 -54.5t13 -43.5t11 -28.5h-127q-8 15 -19.5 55.5t-25.5 103.5q-7 33 -17 55.5
t-24.5 36t-34 19.5t-45.5 7h-62v-277h-122v665zM193 367h73q63 0 99 30t36 81q0 56 -36 82t-96 26q-29 0 -48 -2t-28 -4v-213z" />
    <glyph glyph-name="S" unicode="S" horiz-adv-x="519" 
d="M68 134q30 -17 72.5 -30t90.5 -13q60 0 91.5 25t31.5 67q0 38 -27.5 63.5t-92.5 48.5q-84 30 -133 76.5t-49 119.5q0 41 16.5 76.5t47.5 61.5t75 41t99 15t95.5 -10t66.5 -24l-30 -99q-18 10 -52 21t-82 11q-29 0 -50.5 -7t-35 -18.5t-20 -26t-6.5 -29.5q0 -39 30.5 -62
t98.5 -49q88 -33 131 -80t43 -120q0 -41 -15.5 -77.5t-47 -64t-80 -44t-113.5 -16.5q-54 0 -104 12.5t-78 29.5z" />
    <glyph glyph-name="T" unicode="T" horiz-adv-x="525" 
d="M200 571h-192v103h509v-103h-194v-571h-123v571z" />
    <glyph glyph-name="U" unicode="U" horiz-adv-x="666" 
d="M193 674v-393q0 -99 38 -146t100 -47q67 0 104.5 46.5t37.5 146.5v393h123v-385q0 -78 -19.5 -134.5t-54.5 -93.5t-84.5 -54.5t-110.5 -17.5q-59 0 -106 17t-81 53t-52 92.5t-18 136.5v386h123z" />
    <glyph glyph-name="V" unicode="V" horiz-adv-x="601" 
d="M225 0l-218 674h134l92 -306q20 -64 36 -124t30 -122h2q14 60 31.5 121t37.5 123l98 308h131l-233 -674h-141z" />
    <glyph glyph-name="W" unicode="W" horiz-adv-x="869" 
d="M180 0l-165 674h131l64 -306q13 -62 24.5 -123t19.5 -112h2q8 54 21.5 113t27.5 123l73 305h129l67 -310q13 -60 23 -116.5t18 -111.5h2q9 56 20.5 113.5t25.5 119.5l70 305h125l-181 -674h-132l-70 317q-13 58 -22 108.5t-15 105.5h-2q-9 -54 -19.5 -105t-25.5 -109
l-78 -317h-133z" />
    <glyph glyph-name="X" unicode="X" horiz-adv-x="594" 
d="M432 0l-73 134q-22 39 -37.5 68.5t-29.5 58.5h-3q-12 -29 -26.5 -58.5t-34.5 -68.5l-67 -134h-141l200 341l-192 333h141l73 -139q17 -32 29.5 -58t26.5 -55h2q14 32 25.5 57t27.5 56l72 139h141l-197 -329l205 -345h-142z" />
    <glyph glyph-name="Y" unicode="Y" horiz-adv-x="575" 
d="M224 0v281l-213 393h140l81 -173q17 -38 30.5 -68.5t27.5 -65.5h2q13 32 27.5 64.5t31.5 69.5l81 173h139l-224 -390v-284h-123z" />
    <glyph glyph-name="Z" unicode="Z" horiz-adv-x="566" 
d="M26 68l345 501v3h-314v102h474v-72l-340 -496v-4h345v-102h-510v68z" />
    <glyph glyph-name="bracketleft" unicode="[" horiz-adv-x="301" 
d="M74 -112v797h195v-71h-104v-656h104v-70h-195z" />
    <glyph glyph-name="backslash" unicode="\" horiz-adv-x="335" 
d="M241 -40l-234 725h86l234 -725h-86z" />
    <glyph glyph-name="bracketright" unicode="]" horiz-adv-x="301" 
d="M226 686v-798h-194v71h103v656h-103v71h194z" />
    <glyph glyph-name="asciicircum" unicode="^" horiz-adv-x="596" 
d="M454 182l-155 371h-3l-155 -371h-91l209 468h78l209 -468h-92z" />
    <glyph glyph-name="underscore" unicode="_" horiz-adv-x="500" 
d="M500 -75v-50h-500v50h500z" />
    <glyph glyph-name="grave" unicode="`" horiz-adv-x="300" 
d="M133 698l87 -148h-86l-122 148h121z" />
    <glyph glyph-name="a" unicode="a" horiz-adv-x="508" 
d="M340 0l-8 54h-3q-23 -29 -59.5 -47t-84.5 -18q-37 0 -65.5 12t-48 32.5t-29.5 46.5t-10 54q0 92 77 138.5t212 45.5v8q0 12 -3.5 27t-14 27.5t-30 21.5t-51.5 9q-36 0 -71 -10t-60 -26l-24 80q27 17 72.5 30t103.5 13t97 -17t62 -45.5t32.5 -65.5t9.5 -77v-176
q0 -33 1.5 -63.5t5.5 -53.5h-111zM324 238q-33 1 -63.5 -3t-54 -14t-38 -28t-14.5 -46q0 -36 20.5 -53t49.5 -17q37 0 62.5 20.5t33.5 46.5q2 7 3 14t1 13v67z" />
    <glyph glyph-name="b" unicode="b" horiz-adv-x="585" 
d="M62 0q2 25 3 62t1 75v573h123v-290h2q23 35 62 56.5t94 21.5q45 0 82 -18t64 -50t42 -78t15 -101q0 -66 -19 -115t-50 -81.5t-71 -49t-81 -16.5q-48 0 -88 19.5t-66 64.5h-2l-6 -73h-105zM189 201q0 -16 3 -29q10 -37 39.5 -61.5t69.5 -24.5q58 0 91 43t33 117
q0 32 -7.5 60.5t-23 49.5t-38.5 33.5t-54 12.5q-38 0 -68 -24.5t-41 -65.5q-2 -7 -3 -15t-1 -17v-79z" />
    <glyph glyph-name="c" unicode="c" horiz-adv-x="449" 
d="M424 15q-20 -9 -56 -17t-82 -8q-57 0 -103.5 17.5t-79 50t-50.5 78t-18 102.5q0 55 18.5 102.5t53 82.5t85 55t114.5 20q34 0 66 -6.5t53 -16.5l-22 -92q-15 7 -37.5 13t-55.5 6q-35 0 -63 -12t-47 -33.5t-29 -50.5t-10 -62q0 -38 11.5 -67t31.5 -49t47 -30.5t59 -10.5
t55.5 5.5t41.5 13.5z" />
    <glyph glyph-name="d" unicode="d" horiz-adv-x="581" 
d="M515 710v-573q0 -38 1 -75t3 -62h-110l-5 77h-2q-22 -41 -63.5 -64.5t-95.5 -23.5q-44 0 -81.5 18t-66 50.5t-44.5 78.5t-16 102q0 61 17.5 109.5t47.5 82t69.5 51t83.5 17.5q51 0 85.5 -18.5t51.5 -45.5h2v276h123zM392 284q0 17 -3 32q-8 36 -36 61.5t-70 25.5
q-30 0 -52.5 -12.5t-38.5 -34t-24 -51t-8 -63.5q0 -67 31.5 -110.5t90.5 -43.5q38 0 67.5 23.5t38.5 63.5q4 15 4 36v73z" />
    <glyph glyph-name="e" unicode="e" horiz-adv-x="516" 
d="M153 209q1 -33 13.5 -57t33 -39t47.5 -22.5t56 -7.5q43 0 75 5.5t60 16.5l18 -85q-32 -13 -74.5 -21.5t-95.5 -8.5q-59 0 -106 17.5t-79 49.5t-49 77.5t-17 101.5q0 51 15 98t45 83.5t74.5 58.5t103.5 22t99.5 -22t65 -56.5t35 -76.5t10.5 -82q0 -17 -1 -30.5t-3 -21.5
h-326zM367 295q0 17 -4 37.5t-15.5 38.5t-31 30.5t-50.5 12.5q-29 0 -49.5 -11.5t-34 -29t-20.5 -38.5t-9 -40h214z" />
    <glyph glyph-name="f" unicode="f" horiz-adv-x="319" 
d="M80 0v395h-66v92h66v21q0 48 13.5 92t45.5 74q27 26 61 36.5t66 10.5q25 0 44.5 -3.5t34.5 -8.5l-9 -95q-10 4 -22.5 6.5t-29.5 2.5q-23 0 -38.5 -9t-25.5 -24t-14 -35.5t-4 -42.5v-25h107v-92h-106v-395h-123z" />
    <glyph glyph-name="g" unicode="g" horiz-adv-x="573" 
d="M511 487q-2 -25 -3 -57t-1 -83v-276q0 -77 -17 -131.5t-55 -89.5q-38 -34 -87.5 -46.5t-100.5 -12.5q-47 0 -92.5 9.5t-77.5 29.5l27 93q23 -14 60 -25.5t82 -11.5q30 0 55.5 8t44.5 26t29.5 46t10.5 67v42h-2q-21 -32 -57.5 -52t-84.5 -20q-45 0 -83 18t-65.5 49.5
t-43 75t-15.5 95.5q0 60 18 107.5t48.5 81t70.5 51t84 17.5q56 0 90 -23t51 -53h2l5 65h107zM384 292q0 8 -1 16.5t-3 16.5q-10 34 -35.5 56.5t-64.5 22.5q-52 0 -86 -42t-34 -117q0 -31 8 -58.5t23 -47.5t37 -32t51 -12q35 0 62 20.5t38 53.5q5 22 5 44v79z" />
    <glyph glyph-name="h" unicode="h" horiz-adv-x="572" 
d="M66 710h124v-290h2q23 36 61 56q38 22 84 22q31 0 61.5 -11t54.5 -36t39 -65.5t15 -98.5v-287h-123v273q0 54 -21.5 89t-72.5 35q-36 0 -60.5 -20.5t-34.5 -48.5q-3 -8 -4 -17t-1 -20v-291h-124v710z" />
    <glyph glyph-name="i" unicode="i" horiz-adv-x="256" 
d="M66 0v487h124v-487h-124zM128 690q32 0 50 -19t19 -48q0 -28 -19 -47t-51 -19q-31 0 -49.5 19t-18.5 47q0 29 19 48t50 19z" />
    <glyph glyph-name="j" unicode="j" horiz-adv-x="270" 
d="M-42 -113q30 2 53.5 10.5t38.5 24.5q9 9 15 22t9.5 32.5t5.5 47t2 67.5v396h123v-431q0 -76 -15 -125.5t-48 -82.5q-32 -30 -79 -43.5t-93 -13.5zM144 690q32 0 50 -19t18 -48q0 -27 -18.5 -46.5t-51.5 -19.5q-31 0 -49 19.5t-18 46.5q0 29 18.5 48t50.5 19z" />
    <glyph glyph-name="k" unicode="k" horiz-adv-x="509" 
d="M189 273h2q9 14 19 29t20 28l118 157h148l-180 -199l206 -288h-151l-140 215l-42 -49v-166h-123v710h123v-437z" />
    <glyph glyph-name="l" unicode="l" horiz-adv-x="257" 
d="M66 710h124v-710h-124v710z" />
    <glyph glyph-name="m" unicode="m" horiz-adv-x="848" 
d="M66 342q0 42 -1 77.5t-3 67.5h106l5 -72h3q9 14 22 29t31 27t42 19.5t55 7.5q48 0 83.5 -24.5t51.5 -65.5h2q25 40 60 61q20 14 44 21.5t54 7.5t59.5 -11t52.5 -36t37 -65.5t14 -98.5v-287h-120v269q0 61 -21 95t-66 34q-32 0 -54 -19.5t-32 -45.5q-2 -9 -4 -19.5
t-2 -21.5v-292h-120v282q0 51 -20.5 83.5t-63.5 32.5q-35 0 -57.5 -22t-30.5 -48q-7 -17 -7 -40v-288h-120v342z" />
    <glyph glyph-name="n" unicode="n" horiz-adv-x="572" 
d="M66 342q0 42 -1 77.5t-3 67.5h108l6 -73h3q8 14 21.5 29t33 27t45 20t55.5 8q32 0 63 -11t55.5 -36t39.5 -64.5t15 -97.5v-289h-123v275q0 26 -5 48.5t-16.5 39t-29 26t-42.5 9.5q-37 0 -61.5 -22t-34.5 -50q-3 -8 -4 -18.5t-1 -21.5v-286h-124v342z" />
    <glyph glyph-name="o" unicode="o" horiz-adv-x="564" 
d="M287 498q54 0 99 -18.5t76.5 -51.5t49 -79t17.5 -101q0 -67 -21.5 -116t-57 -80.5t-80.5 -47t-91 -15.5q-52 0 -96.5 17.5t-77.5 49.5t-51.5 78.5t-18.5 105.5q0 60 18.5 108t52 81t80 51t101.5 18zM284 408q-33 0 -56 -14.5t-37.5 -37.5t-21.5 -53t-7 -60
q0 -35 8.5 -65.5t24 -52.5t38 -34.5t50.5 -12.5q26 0 48 12.5t37.5 34.5t24.5 52.5t9 67.5q0 28 -6.5 57.5t-21 52.5t-37 38t-53.5 15z" />
    <glyph glyph-name="p" unicode="p" horiz-adv-x="585" 
d="M66 325q0 48 -1 87.5t-3 74.5h108l6 -75h2q27 42 69 64t98 22q42 0 79.5 -17.5t65 -49.5t44 -78t16.5 -103q0 -66 -19 -115t-50.5 -81.5t-71 -48.5t-81.5 -16q-46 0 -82 18t-55 47h-2v-252h-123v523zM189 204q0 -19 4 -34q9 -38 39 -62t69 -24q59 0 91.5 44.5t32.5 116.5
q0 32 -8 60.5t-23 49.5t-37.5 33.5t-52.5 12.5q-38 0 -69.5 -25t-40.5 -66q-5 -17 -5 -31v-75z" />
    <glyph glyph-name="q" unicode="q" horiz-adv-x="581" 
d="M392 67h-2q-22 -35 -59.5 -56.5t-91.5 -21.5q-41 0 -78 17t-65 49.5t-44.5 78t-16.5 102.5q0 67 19.5 116t50.5 81.5t70 48.5t78 16q51 0 86.5 -20t55.5 -55l2 -1l3 65h119q-2 -33 -3 -68t-1 -73v-544h-123v265zM392 286q0 16 -3 30q-8 35 -35.5 60t-69.5 25
q-30 0 -53 -12t-38.5 -33t-24 -50.5t-8.5 -63.5q0 -33 8 -61.5t23.5 -49.5t38 -33t51.5 -12q38 0 66 22t39 59q6 18 6 38v81z" />
    <glyph glyph-name="r" unicode="r" horiz-adv-x="356" 
d="M66 330q0 50 -1 87t-3 70h107l4 -93h4q18 52 56 78t77 26q9 0 15 -0.5t14 -2.5v-116q-8 2 -16.5 3t-19.5 1q-45 0 -73.5 -25.5t-36.5 -67.5q-2 -8 -3 -17.5t-1 -20.5v-252h-123v330z" />
    <glyph glyph-name="s" unicode="s" horiz-adv-x="417" 
d="M60 113q21 -13 56.5 -24t68.5 -11q41 0 59.5 15t18.5 39q0 25 -17.5 40t-62.5 31q-72 25 -103.5 62t-30.5 80q0 32 13 60t37 48.5t58 32.5t76 12q41 0 74.5 -9t54.5 -20l-24 -87q-16 9 -43.5 18.5t-59.5 9.5q-33 0 -50.5 -14t-17.5 -37t19 -37.5t66 -30.5
q66 -24 97.5 -59.5t32.5 -89.5q0 -66 -50.5 -109t-147.5 -43q-45 0 -83 9.5t-65 24.5z" />
    <glyph glyph-name="t" unicode="t" horiz-adv-x="351" 
d="M207 626v-139h117v-92h-117v-215q0 -45 14 -67.5t49 -22.5q16 0 28 2t20 4l2 -94q-14 -5 -37 -8.5t-52 -3.5q-34 0 -61.5 10.5t-44.5 29.5q-38 41 -38 136v229h-70v92h70v110z" />
    <glyph glyph-name="u" unicode="u" horiz-adv-x="569" 
d="M502 146q0 -44 1 -80t3 -66h-108l-6 74h-2q-8 -13 -21 -28t-32 -27.5t-44.5 -21t-58.5 -8.5t-64 11t-54.5 35.5t-37.5 65t-14 100.5v286h123v-265q0 -61 21 -97t70 -36q37 0 60.5 21.5t33.5 44.5q7 19 7 38v294h123v-341z" />
    <glyph glyph-name="v" unicode="v" horiz-adv-x="508" 
d="M144 487l79 -247q11 -32 18.5 -62t14.5 -60h3q7 30 15 59.5t18 62.5l77 247h130l-186 -487h-121l-181 487h133z" />
    <glyph glyph-name="w" unicode="w" horiz-adv-x="749" 
d="M140 487l51 -221q8 -39 16 -78.5t15 -79.5h2q8 40 18.5 79.5t21.5 77.5l63 222h100l61 -216q11 -43 21 -83t18 -80h2q6 40 14 80t18 83l54 216h121l-153 -487h-114l-58 198q-11 38 -20 74.5t-17 81.5h-2q-8 -45 -17 -82.5t-20 -73.5l-62 -198h-115l-144 487h126z" />
    <glyph glyph-name="x" unicode="x" horiz-adv-x="494" 
d="M148 487l58 -92q12 -20 22.5 -38t21.5 -37h3q11 20 21 39t21 38l54 90h134l-163 -234l166 -253h-139l-60 97q-12 20 -22.5 39.5t-21.5 39.5h-2q-11 -21 -21.5 -40t-22.5 -39l-56 -97h-136l169 248l-163 239h137z" />
    <glyph glyph-name="y" unicode="y" horiz-adv-x="500" 
d="M143 487l88 -261q8 -23 15 -48.5t12 -46.5h3q6 21 12.5 46.5t13.5 49.5l76 260h132l-122 -332q-25 -68 -46.5 -118.5t-42 -87.5t-40 -62.5t-41.5 -44.5q-36 -32 -71 -46t-58 -17l-28 104q16 4 34.5 12t37.5 22q17 11 35.5 31.5t31.5 45.5q8 14 8 22q0 4 -1 9.5t-6 14.5
l-178 447h135z" />
    <glyph glyph-name="z" unicode="z" horiz-adv-x="450" 
d="M20 71l183 234q19 23 35.5 42t36.5 40v2h-237v98h387v-75l-179 -229q-18 -22 -35.5 -42.5t-36.5 -40.5v-2h257v-98h-411v71z" />
    <glyph glyph-name="braceleft" unicode="{" horiz-adv-x="301" 
d="M29 320q26 0 41.5 7t23.5 17t10.5 22.5t2.5 24.5q0 20 -2 40l-4 40q-3 21 -5 41t-2 40q0 71 41 102.5t108 31.5h29v-72h-18q-39 0 -54.5 -20.5t-15.5 -57.5q0 -15 2 -30.5t5 -32.5q2 -17 4 -34.5t2 -37.5q1 -53 -20.5 -78t-59.5 -34v-2q38 -9 59.5 -34.5t20.5 -78.5
q0 -20 -2 -38t-4 -35q-3 -17 -5 -32.5t-2 -30.5q0 -38 16 -58.5t54 -20.5h18v-71h-29q-33 0 -60 7t-47 23.5t-31 42.5t-11 64q0 19 2 39.5t5 40.5q2 20 4 39.5t2 39.5q0 11 -2.5 23t-10.5 22.5t-23.5 18t-41.5 7.5v65z" />
    <glyph glyph-name="bar" unicode="|" horiz-adv-x="263" 
d="M176 750v-1000h-89v1000h89z" />
    <glyph glyph-name="braceright" unicode="}" horiz-adv-x="301" 
d="M271 255q-26 0 -41.5 -7.5t-23.5 -18t-10.5 -22.5t-2.5 -23q0 -20 2.5 -39.5t4.5 -39.5t4.5 -40.5t2.5 -39.5q0 -38 -11 -64t-31 -42.5t-47 -23.5t-60 -7h-29v71h18q38 1 53.5 21t15.5 58q0 15 -2 30.5t-4 32.5t-4 35t-2 38q-1 53 20 78.5t59 34.5v2q-38 9 -59 34t-20 78
q0 20 2 37.5t4 34.5t4 32.5t2 30.5q0 37 -15.5 57t-53.5 21h-18v72h29q67 0 108 -31.5t41 -102.5q0 -20 -2.5 -40t-4.5 -41q-2 -20 -4.5 -40t-2.5 -40q0 -12 2.5 -24.5t10.5 -22.5t23.5 -17t41.5 -7v-65z" />
    <glyph glyph-name="asciitilde" unicode="~" horiz-adv-x="596" 
d="M45 200q-1 45 9 77t27.5 53t41.5 31t53 10q34 0 64 -11.5t76 -35.5q35 -18 60.5 -29t48.5 -11q22 0 33.5 19.5t12.5 62.5h80q2 -48 -7.5 -81t-27 -53t-41 -29t-49.5 -9q-33 0 -64.5 12t-77.5 35q-35 18 -59.5 30.5t-47.5 12.5q-22 0 -36 -18t-16 -66h-80z" />
    <glyph glyph-name="exclamdown" unicode="&#xa1;" horiz-adv-x="251" 
d="M61 -198l18 465h94l18 -465h-130zM126 492q34 0 54.5 -22t20.5 -57q0 -33 -20 -55t-55 -22q-34 0 -55 22t-21 55q0 35 21 57t55 22z" />
    <glyph glyph-name="cent" unicode="&#xa2;" 
d="M274 -13v100q-48 6 -84 24.5t-63 48.5q-26 30 -41 72.5t-15 94.5q0 46 14 87.5t40 74.5t63.5 55t85.5 31v98h82v-94q29 -1 55.5 -7.5t46.5 -14.5l-22 -92q-17 8 -40 14.5t-56 6.5t-60 -11.5t-45.5 -32.5t-28.5 -49t-10 -61q0 -38 11 -66.5t30.5 -47.5t45.5 -29t55 -10
q36 0 61.5 6.5t44.5 14.5l17 -89q-17 -9 -44.5 -16.5t-60.5 -9.5v-98h-82z" />
    <glyph glyph-name="sterling" unicode="&#xa3;" 
d="M53 0v67q22 10 42.5 26.5t36.5 37t25 44.5t9 51q0 14 -1 27t-3 27h-100v85h86q-4 21 -7 45t-3 48q0 46 15.5 83.5t43.5 64t66.5 41t85.5 14.5q41 0 69 -7.5t45 -17.5l-22 -93q-14 8 -36 14t-51 6q-28 0 -47 -8.5t-31 -23.5t-17.5 -34.5t-5.5 -41.5q0 -26 3 -47t8 -43h140
v-85h-129q1 -23 0 -45.5t-7 -43.5q-14 -49 -58 -88v-2h281v-101h-438z" />
    <glyph glyph-name="currency" unicode="&#xa4;" 
d="M268 543q35 0 64.5 -10.5t51.5 -27.5l74 80l57 -58l-83 -75q13 -20 23 -49t10 -68q0 -42 -10.5 -72t-24.5 -49l80 -78l-56 -56l-71 82q-23 -20 -55 -30.5t-62 -10.5q-31 0 -62.5 10t-52.5 29l-69 -80l-56 56l78 75q-14 20 -25 50.5t-11 69.5q0 42 11 71.5t25 49.5l-81 74
l57 59l73 -81q45 39 115 39zM267 459q-47 0 -76 -36t-29 -91q0 -33 10 -56.5t25 -39.5t33.5 -23.5t35.5 -7.5q19 0 37.5 7.5t33.5 23t24 40t9 58.5q0 25 -7 47.5t-20.5 40t-32.5 27.5t-43 10z" />
    <glyph glyph-name="yen" unicode="&#xa5;" 
d="M205 0v168h-156v61h156v67h-156v61h125l-166 293h133l84 -181q14 -28 23 -52t19 -48h2q9 23 19 48.5t23 53.5l87 179h130l-175 -293h124v-61h-157v-67h157v-61h-157v-168h-115z" />
    <glyph glyph-name="brokenbar" unicode="&#xa6;" horiz-adv-x="263" 
d="M176 174v-350h-89v350h89zM176 674v-350h-89v350h89z" />
    <glyph glyph-name="section" unicode="&#xa7;" horiz-adv-x="542" 
d="M148 347q0 -26 22 -47t74 -39q36 -13 67.5 -24t48.5 -21q16 11 24.5 27.5t8.5 35.5q0 25 -18 45.5t-60 35.5q-15 6 -32.5 12.5t-34.5 12.5t-32.5 12.5t-27.5 12.5q-19 -12 -29.5 -28t-10.5 -35zM421 576q-21 11 -52.5 20.5t-74.5 9.5q-44 0 -70 -16.5t-26 -43.5
q0 -30 30 -47.5t85 -34.5q38 -12 70.5 -25.5t56.5 -33t37.5 -46t13.5 -62.5q0 -40 -18.5 -69.5t-50.5 -51.5q14 -11 28 -35t14 -56q0 -43 -19.5 -72.5t-49.5 -48t-67 -27t-72 -8.5q-46 0 -92.5 10.5t-81.5 33.5l27 76q20 -13 59 -27t84 -14q44 0 72 16.5t28 48.5
q0 29 -25.5 48t-87.5 40q-39 13 -73.5 27t-60 33.5t-40 45t-14.5 60.5q0 31 18.5 64t60.5 56q-16 12 -27 36t-12 51q0 36 16 64t43.5 47t64.5 29t79 10q85 0 149 -31z" />
    <glyph glyph-name="dieresis" unicode="&#xa8;" horiz-adv-x="300" 
d="M51 563q-27 0 -44.5 18t-17.5 43q0 26 18 44t45 18q25 0 42 -17.5t17 -44.5q0 -25 -17 -43t-43 -18zM250 563q-27 0 -44 18t-17 43q0 26 17.5 44t43.5 18t43 -17.5t17 -44.5q0 -25 -17 -43t-43 -18z" />
    <glyph glyph-name="copyright" unicode="&#xa9;" horiz-adv-x="677" 
d="M340 648q64 0 119 -24t96 -66t64.5 -98t23.5 -120q0 -65 -23.5 -121.5t-64.5 -98.5t-96 -66t-119 -24t-120 24t-97 66t-65 98.5t-24 121.5q0 64 24 120t65 98t97 66t120 24zM339 598q-52 0 -97 -20t-78.5 -55.5t-52.5 -83t-19 -101.5t19 -101t52.5 -82t78.5 -55t97 -20
q51 0 96 20t78.5 55t52.5 82.5t19 101.5t-19 101t-52.5 82.5t-78.5 55.5t-96 20zM461 445q-10 6 -36 14.5t-61 8.5q-63 0 -97 -35.5t-34 -95.5q0 -57 34.5 -94.5t96.5 -37.5q31 0 57.5 7t43.5 18l14 -45q-26 -18 -59 -25t-65 -7q-44 0 -78 14t-57.5 38.5t-36 57.5t-12.5 71
q0 43 16 77.5t42.5 58.5t61.5 37t73 13t69 -9t41 -18z" />
    <glyph glyph-name="ordfeminine" unicode="&#xaa;" horiz-adv-x="363" 
d="M246 266l-6 37h-2q-17 -17 -42 -29.5t-58 -12.5q-50 0 -77.5 28t-27.5 69q0 56 53 86t146 29v8q0 4 -2 12.5t-9 16.5t-20.5 14t-35.5 6q-26 0 -49 -7t-40 -19l-19 55q20 13 52.5 22.5t71.5 9.5t65.5 -11.5t42.5 -31t23 -45t7 -52.5v-107q0 -22 1.5 -42t4.5 -36h-79z
M234 421q-22 0 -42.5 -2.5t-36.5 -9t-26 -17.5t-10 -28q0 -20 15 -32t35 -12q19 0 34.5 9.5t23.5 23.5q7 11 7 24v44z" />
    <glyph glyph-name="guillemotleft" unicode="&#xab;" horiz-adv-x="444" 
d="M115 252l126 -188h-90l-124 188l123 188h91zM296 252l125 -188h-90l-123 188l123 188h90z" />
    <glyph glyph-name="logicalnot" unicode="&#xac;" horiz-adv-x="596" 
d="M556 412v-299h-82v221h-434v78h516z" />
    <glyph glyph-name="uni00AD" unicode="&#xad;" horiz-adv-x="315" 
d="M285 309v-85h-255v85h255z" />
    <glyph glyph-name="registered" unicode="&#xae;" horiz-adv-x="441" 
d="M197 433h-44v161q10 2 27 3.5t40 1.5q26 0 39 -3.5t21 -8.5q18 -11 18 -35q0 -13 -10 -22.5t-26 -14.5v-2q24 -8 31 -41q4 -18 7 -26t5 -13h-49q-4 5 -6.5 14.5t-5.5 22.5q-4 24 -30 24h-17v-61zM198 525h17q14 0 23.5 5t9.5 16q0 22 -31 22q-6 0 -10.5 -0.5t-8.5 -0.5
v-42zM221 685q36 0 68 -13t55 -36t36.5 -53.5t13.5 -65.5q0 -36 -13.5 -67t-36.5 -54t-55 -36t-68 -13t-67.5 13t-55.5 36t-37.5 54t-13.5 67q0 35 13.5 65.5t37.5 53.5t55.5 36t67.5 13zM221 646q-27 0 -50 -10t-40 -28t-26.5 -41.5t-9.5 -50.5t9.5 -50.5t26.5 -41.5
t40 -28t50 -10t50 10t39.5 28t26 41.5t9.5 50.5t-9.5 50.5t-26 41.5t-39.5 28t-50 10z" />
    <glyph glyph-name="macron" unicode="&#xaf;" horiz-adv-x="300" 
d="M270 655v-71h-239v71h239z" />
    <glyph glyph-name="degree" unicode="&#xb0;" horiz-adv-x="339" 
d="M171 685q33 0 59 -11.5t45 -30.5t29 -44t10 -53q0 -31 -12 -57t-31.5 -44.5t-46 -29t-54.5 -10.5q-32 0 -58 11t-44.5 29.5t-29 43.5t-10.5 53q0 30 11 56t30.5 45.5t45.5 30.5t56 11zM171 626q-18 0 -31.5 -7t-23.5 -18.5t-15 -26.5t-5 -31q0 -33 21.5 -56t53.5 -23
t53.5 23t21.5 58q0 14 -4.5 28.5t-14 26t-23.5 19t-33 7.5z" />
    <glyph glyph-name="plusminus" unicode="&#xb1;" horiz-adv-x="596" 
d="M339 576v-183h217v-78h-217v-187h-82v187h-217v78h217v183h82zM556 78v-78h-516v78h516z" />
    <glyph glyph-name="twosuperior" unicode="&#xb2;" horiz-adv-x="333" 
d="M14 491l62 56q59 54 89.5 88.5t30.5 69.5q0 25 -16.5 41.5t-49.5 16.5q-26 0 -48 -9.5t-37 -20.5l-26 63q23 17 58 29.5t77 12.5q36 0 63 -9.5t45 -26t26.5 -37.5t8.5 -44q0 -27 -10 -50.5t-26.5 -45.5t-38.5 -42.5t-47 -41.5l-28 -23v-3h157v-72h-290v48z" />
    <glyph glyph-name="threesuperior" unicode="&#xb3;" horiz-adv-x="328" 
d="M26 807q20 12 54 21.5t75 9.5q69 0 102 -29t33 -68q0 -31 -22.5 -54.5t-57.5 -34.5v-2q41 -5 68 -30.5t27 -63.5q0 -51 -45 -84.5t-125 -33.5q-39 0 -72.5 8t-53.5 20l21 65q14 -8 41 -17t54 -9q38 0 58.5 17t20.5 39q0 15 -8 26.5t-21.5 18.5t-30.5 10.5t-35 3.5h-29v58
h28q13 0 27.5 2.5t27 8.5t20.5 16t8 24q0 17 -13.5 29.5t-43.5 12.5q-27 0 -50.5 -9t-37.5 -17z" />
    <glyph glyph-name="acute" unicode="&#xb4;" horiz-adv-x="300" 
d="M295 698l-123 -148h-85l87 148h121z" />
    <glyph glyph-name="mu" unicode="&#xb5;" horiz-adv-x="570" 
d="M393 71q-7 -14 -18.5 -28t-27.5 -25.5t-36.5 -18.5t-45.5 -7q-26 0 -49 10t-37 30v-50q0 -20 0.5 -45t1.5 -50t3 -47.5t5 -37.5h-109q-4 10 -6.5 28.5t-4 42.5t-2.5 51t-1 55v508h123v-279q0 -53 21.5 -86t68.5 -33q36 0 61 21t34 45q4 8 5.5 17.5t1.5 20.5v294h123v-339
q0 -36 10 -50t33 -16l-7 -86q-17 -7 -44 -7q-38 0 -64.5 20t-35.5 62h-3z" />
    <glyph glyph-name="paragraph" unicode="&#xb6;" horiz-adv-x="529" 
d="M217 -48v312h-7q-26 0 -57 11.5t-58 35.5t-45 60t-18 84q0 39 12 78.5t44.5 71.5t88 52t142.5 20q43 0 76.5 -2.5t54.5 -7.5v-715h-81v646h-71v-646h-81z" />
    <glyph glyph-name="periodcentered" unicode="&#xb7;" horiz-adv-x="236" 
d="M118 182q-34 0 -55 22t-21 57t21.5 57t54.5 22q34 0 55 -22t21 -57t-20.5 -57t-55.5 -22z" />
    <glyph glyph-name="cedilla" unicode="&#xb8;" horiz-adv-x="300" 
d="M197 3l-30 -50q29 -3 50.5 -22t21.5 -49q0 -23 -9.5 -39t-25 -26t-36.5 -14.5t-43 -4.5t-41.5 5t-33.5 14l18 50q13 -8 27.5 -12t26.5 -4q15 0 27 6.5t12 22.5q0 33 -78 39l45 84h69z" />
    <glyph glyph-name="onesuperior" unicode="&#xb9;" horiz-adv-x="275" 
d="M113 443v310h-2l-76 -35l-14 69l104 46h84v-390h-96z" />
    <glyph glyph-name="ordmasculine" unicode="&#xba;" horiz-adv-x="372" 
d="M187 591q37 0 67.5 -12t52 -34t33 -51.5t11.5 -64.5q0 -43 -14.5 -74.5t-38 -52.5t-53 -31t-60.5 -10q-35 0 -64.5 11.5t-52 32.5t-35 51t-12.5 67q0 38 13 69t35.5 53t52.5 34t65 12zM185 528q-20 0 -34 -9.5t-23 -24.5t-13.5 -33.5t-4.5 -35.5q0 -43 21.5 -72t54.5 -29
q34 0 54.5 28.5t20.5 73.5q0 17 -4.5 35t-14 33t-24 24.5t-33.5 9.5z" />
    <glyph glyph-name="guillemotright" unicode="&#xbb;" horiz-adv-x="444" 
d="M23 440h89l124 -188l-124 -188h-89l126 188zM202 440h89l124 -188l-124 -188h-89l126 188z" />
    <glyph glyph-name="onequarter" unicode="&#xbc;" horiz-adv-x="799" 
d="M130 266v310h-2l-76 -35l-14 69l104 46h84v-390h-96zM157 -11l374 672h71l-374 -672h-71zM617 1v96h-191v53l171 244h110v-234h53v-63h-53v-96h-90zM617 253q0 18 1 35.5t3 34.5h-3q-9 -18 -17.5 -33.5t-17.5 -29.5l-68 -99l2 -1h100v93z" />
    <glyph glyph-name="onehalf" unicode="&#xbd;" horiz-adv-x="799" 
d="M117 266v310h-2l-76 -35l-14 69l104 46h84v-390h-96zM135 -11l374 672h71l-374 -672h-71zM465 49l62 56q59 54 89.5 88.5t30.5 69.5q0 25 -16.5 41.5t-49.5 16.5q-26 0 -48 -9.5t-37 -20.5l-26 63q23 17 58 29.5t77 12.5q36 0 63 -9.5t45 -26t26.5 -37.5t8.5 -44
q0 -27 -10 -50.5t-26.5 -45.5t-38.5 -42.5t-47 -41.5l-28 -23v-3h157v-72h-290v48z" />
    <glyph glyph-name="threequarters" unicode="&#xbe;" horiz-adv-x="799" 
d="M45 630q20 12 54 21.5t75 9.5q69 0 102 -29t33 -68q0 -31 -22.5 -54.5t-57.5 -34.5v-2q41 -5 68 -30.5t27 -63.5q0 -51 -45 -84.5t-125 -33.5q-39 0 -72.5 8t-53.5 20l21 65q14 -8 41 -17t54 -9q38 0 58.5 17t20.5 39q0 15 -8 26.5t-21.5 18.5t-30.5 10.5t-35 3.5h-29v58
h28q13 0 27.5 2.5t27 8.5t20.5 16t8 24q0 17 -13.5 29.5t-43.5 12.5q-27 0 -50.5 -9t-37.5 -17zM191 -11l374 672h71l-374 -672h-71zM627 1v96h-191v53l171 244h110v-234h53v-63h-53v-96h-90zM627 253q0 18 1 35.5t3 34.5h-3q-9 -18 -17.5 -33.5t-17.5 -29.5l-68 -99l2 -1
h100v93z" />
    <glyph glyph-name="questiondown" unicode="&#xbf;" horiz-adv-x="428" 
d="M243 492q34 0 55 -21.5t21 -56.5q0 -34 -20.5 -56t-55.5 -22q-34 0 -55 22t-21 56q0 35 21 56.5t55 21.5zM295 271l2 -25q3 -40 -11.5 -79.5t-49.5 -82.5q-29 -34 -46 -61t-17 -56q0 -32 20.5 -51t62.5 -20q26 0 53 8t47 22l29 -88q-26 -17 -67 -29t-89 -12
q-47 0 -81 12.5t-56 33.5t-33 48.5t-11 57.5q0 27 7.5 50t19.5 43t27.5 39t31.5 37q30 35 42.5 65.5t10.5 66.5v21h108z" />
    <glyph glyph-name="Agrave" unicode="&#xc0;" horiz-adv-x="636" 
d="M206 191l-58 -191h-127l216 674h157l219 -674h-132l-61 191h-214zM399 284l-53 166q-10 31 -18 64t-16 62h-2q-8 -29 -15.5 -62.5t-16.5 -63.5l-52 -166h173zM291 830l88 -119h-99l-124 119h135z" />
    <glyph glyph-name="Aacute" unicode="&#xc1;" horiz-adv-x="636" 
d="M206 191l-58 -191h-127l216 674h157l219 -674h-132l-61 191h-214zM399 284l-53 166q-10 31 -18 64t-16 62h-2q-8 -29 -15.5 -62.5t-16.5 -63.5l-52 -166h173zM477 830l-124 -120h-99l88 120h135z" />
    <glyph glyph-name="Acircumflex" unicode="&#xc2;" horiz-adv-x="636" 
d="M206 191l-58 -191h-127l216 674h157l219 -674h-132l-61 191h-214zM399 284l-53 166q-10 31 -18 64t-16 62h-2q-8 -29 -15.5 -62.5t-16.5 -63.5l-52 -166h173zM366 829l103 -119h-92l-57 65h-2l-56 -65h-90l101 119h93z" />
    <glyph glyph-name="Atilde" unicode="&#xc3;" horiz-adv-x="636" 
d="M206 191l-58 -191h-127l216 674h157l219 -674h-132l-61 191h-214zM399 284l-53 166q-10 31 -18 64t-16 62h-2q-8 -29 -15.5 -62.5t-16.5 -63.5l-52 -166h173zM188 715q-2 56 18 86t55 30q19 0 33 -6t29 -14q12 -8 23.5 -13.5t22.5 -5.5q12 0 18.5 8.5t8.5 32.5h58
q2 -58 -17 -85t-56 -27q-19 0 -34 5.5t-30 13.5q-14 8 -23.5 13t-20.5 5q-22 0 -25 -43h-60z" />
    <glyph glyph-name="Adieresis" unicode="&#xc4;" horiz-adv-x="636" 
d="M206 191l-58 -191h-127l216 674h157l219 -674h-132l-61 191h-214zM399 284l-53 166q-10 31 -18 64t-16 62h-2q-8 -29 -15.5 -62.5t-16.5 -63.5l-52 -166h173zM223 716q-26 0 -43 18t-17 43q0 26 17 43t43 17q25 0 41.5 -17t16.5 -43q0 -25 -16 -43t-42 -18zM420 716
q-26 0 -42.5 18t-16.5 43q0 26 17 43t43 17q25 0 41.5 -17t16.5 -43q0 -25 -16.5 -43t-42.5 -18z" />
    <glyph glyph-name="Aring" unicode="&#xc5;" horiz-adv-x="636" 
d="M206 191l-58 -191h-127l216 674h157l219 -674h-132l-61 191h-214zM399 284l-53 166q-10 31 -18 64t-16 62h-2q-8 -29 -15.5 -62.5t-16.5 -63.5l-52 -166h173zM317 889q53 0 80.5 -27.5t27.5 -67.5q0 -39 -29 -66t-79 -27q-51 0 -79.5 27t-28.5 65q0 40 28 68t80 28z
M316 845q-23 0 -34.5 -16t-11.5 -36q0 -18 12.5 -33t33.5 -15q22 0 34 14.5t12 35.5q0 20 -12 35t-34 15z" />
    <glyph glyph-name="AE" unicode="&#xc6;" horiz-adv-x="832" 
d="M1 0l296 674h473v-101h-281l21 -176h253v-100h-238l25 -196h252v-101h-357l-27 208h-201l-89 -208h-127zM404 307l-21 177q-3 23 -6.5 50.5t-5.5 52.5h-3q-9 -25 -19 -51.5t-20 -50.5l-74 -178h149z" />
    <glyph glyph-name="Ccedilla" unicode="&#xc7;" horiz-adv-x="588" 
d="M554 20q-22 -11 -67.5 -20.5t-106.5 -9.5q-80 0 -144 24t-108.5 68.5t-68 107t-23.5 139.5q0 83 27.5 149t75.5 112t114 70.5t143 24.5q61 0 103 -10t61 -20l-27 -98q-24 11 -57 18.5t-75 7.5q-51 0 -94.5 -16t-75 -47.5t-49 -77.5t-17.5 -107q0 -56 16 -100.5t46 -76.5
t73.5 -49t99.5 -17q38 0 74 7t60 18zM395 5l-28 -52q29 -6 50.5 -25.5t21.5 -52.5q0 -24 -10 -41t-25.5 -27.5t-35.5 -15t-41 -4.5t-42.5 5t-36.5 14l17 54q11 -6 26 -10t30 -4q16 0 27.5 6.5t11.5 20.5q0 32 -79 40l45 92h69z" />
    <glyph glyph-name="Egrave" unicode="&#xc8;" horiz-adv-x="515" 
d="M448 299h-254v-198h284v-101h-407v674h392v-101h-269v-174h254v-100zM250 830l88 -119h-99l-124 119h135z" />
    <glyph glyph-name="Eacute" unicode="&#xc9;" horiz-adv-x="515" 
d="M448 299h-254v-198h284v-101h-407v674h392v-101h-269v-174h254v-100zM430 830l-124 -120h-99l88 120h135z" />
    <glyph glyph-name="Ecircumflex" unicode="&#xca;" horiz-adv-x="515" 
d="M448 299h-254v-198h284v-101h-407v674h392v-101h-269v-174h254v-100zM315 829l103 -119h-92l-57 65h-2l-56 -65h-90l101 119h93z" />
    <glyph glyph-name="Edieresis" unicode="&#xcb;" horiz-adv-x="515" 
d="M448 299h-254v-198h284v-101h-407v674h392v-101h-269v-174h254v-100zM166 716q-26 0 -43 18t-17 43q0 26 17 43t43 17q25 0 41.5 -17t16.5 -43q0 -25 -16 -43t-42 -18zM363 716q-26 0 -42.5 18t-16.5 43q0 26 17 43t43 17q25 0 41.5 -17t16.5 -43q0 -25 -16.5 -43
t-42.5 -18z" />
    <glyph glyph-name="Igrave" unicode="&#xcc;" horiz-adv-x="264" 
d="M194 674v-674h-123v674h123zM109 830l88 -119h-99l-124 119h135z" />
    <glyph glyph-name="Iacute" unicode="&#xcd;" horiz-adv-x="264" 
d="M194 674v-674h-123v674h123zM292 830l-124 -120h-99l88 120h135z" />
    <glyph glyph-name="Icircumflex" unicode="&#xce;" horiz-adv-x="264" 
d="M194 674v-674h-123v674h123zM179 829l103 -119h-92l-57 65h-2l-56 -65h-90l101 119h93z" />
    <glyph glyph-name="Idieresis" unicode="&#xcf;" horiz-adv-x="264" 
d="M194 674v-674h-123v674h123zM35 716q-26 0 -43 18t-17 43q0 26 17 43t43 17q25 0 41.5 -17t16.5 -43q0 -25 -16 -43t-42 -18zM232 716q-26 0 -42.5 18t-16.5 43q0 26 17 43t43 17q25 0 41.5 -17t16.5 -43q0 -25 -16.5 -43t-42.5 -18z" />
    <glyph glyph-name="Eth" unicode="&#xd0;" horiz-adv-x="689" 
d="M1 391h76v276q42 7 91.5 11t104.5 4q96 0 162 -19t113 -58q50 -40 78 -102t28 -150q0 -91 -28.5 -158t-76.5 -111q-51 -47 -129 -70t-177 -23q-54 0 -95 2.5t-71 6.5v294h-76v97zM355 294h-155v-202q13 -2 31 -2.5t38 -0.5q121 0 188 65t67 197q0 115 -61.5 175
t-178.5 60q-29 0 -49.5 -2.5t-34.5 -4.5v-188h155v-97z" />
    <glyph glyph-name="Ntilde" unicode="&#xd1;" horiz-adv-x="676" 
d="M71 0v674h140l174 -289q34 -57 63 -114t52 -112h2q-6 68 -8.5 135t-2.5 145v235h114v-674h-127l-176 296q-32 56 -64 116t-57 117l-3 -1q4 -66 5 -134.5t1 -152.5v-241h-113zM208 715q-2 56 18 86t55 30q19 0 33 -6t29 -14q12 -8 23.5 -13.5t22.5 -5.5q12 0 18.5 8.5
t8.5 32.5h58q2 -58 -17 -85t-56 -27q-19 0 -34 5.5t-30 13.5q-14 8 -23.5 13t-20.5 5q-22 0 -25 -43h-60z" />
    <glyph glyph-name="Ograve" unicode="&#xd2;" horiz-adv-x="704" 
d="M356 685q74 0 132 -26.5t98.5 -72t61.5 -108t21 -134.5q0 -85 -24.5 -151t-67.5 -111.5t-102 -69t-129 -23.5q-71 0 -128.5 25.5t-98 71.5t-62 109t-21.5 137q0 78 23.5 142.5t65.5 111.5t101 73t130 26zM353 586q-46 0 -81 -20t-58.5 -54t-35.5 -80t-12 -98
q0 -51 12.5 -96t36.5 -78.5t59 -52.5t79 -19q45 0 79.5 19.5t58 53t36 79.5t12.5 99q0 48 -12 92.5t-35 79t-58 55t-81 20.5zM328 832l88 -119h-99l-124 119h135z" />
    <glyph glyph-name="Oacute" unicode="&#xd3;" horiz-adv-x="704" 
d="M356 685q74 0 132 -26.5t98.5 -72t61.5 -108t21 -134.5q0 -85 -24.5 -151t-67.5 -111.5t-102 -69t-129 -23.5q-71 0 -128.5 25.5t-98 71.5t-62 109t-21.5 137q0 78 23.5 142.5t65.5 111.5t101 73t130 26zM353 586q-46 0 -81 -20t-58.5 -54t-35.5 -80t-12 -98
q0 -51 12.5 -96t36.5 -78.5t59 -52.5t79 -19q45 0 79.5 19.5t58 53t36 79.5t12.5 99q0 48 -12 92.5t-35 79t-58 55t-81 20.5zM513 832l-124 -120h-99l88 120h135z" />
    <glyph glyph-name="Ocircumflex" unicode="&#xd4;" horiz-adv-x="704" 
d="M356 685q74 0 132 -26.5t98.5 -72t61.5 -108t21 -134.5q0 -85 -24.5 -151t-67.5 -111.5t-102 -69t-129 -23.5q-71 0 -128.5 25.5t-98 71.5t-62 109t-21.5 137q0 78 23.5 142.5t65.5 111.5t101 73t130 26zM353 586q-46 0 -81 -20t-58.5 -54t-35.5 -80t-12 -98
q0 -51 12.5 -96t36.5 -78.5t59 -52.5t79 -19q45 0 79.5 19.5t58 53t36 79.5t12.5 99q0 48 -12 92.5t-35 79t-58 55t-81 20.5zM398 831l103 -119h-92l-57 65h-2l-56 -65h-90l101 119h93z" />
    <glyph glyph-name="Otilde" unicode="&#xd5;" horiz-adv-x="704" 
d="M356 685q74 0 132 -26.5t98.5 -72t61.5 -108t21 -134.5q0 -85 -24.5 -151t-67.5 -111.5t-102 -69t-129 -23.5q-71 0 -128.5 25.5t-98 71.5t-62 109t-21.5 137q0 78 23.5 142.5t65.5 111.5t101 73t130 26zM353 586q-46 0 -81 -20t-58.5 -54t-35.5 -80t-12 -98
q0 -51 12.5 -96t36.5 -78.5t59 -52.5t79 -19q45 0 79.5 19.5t58 53t36 79.5t12.5 99q0 48 -12 92.5t-35 79t-58 55t-81 20.5zM219 716q-2 56 18 86t55 30q19 0 33 -6t29 -14q12 -8 23.5 -13.5t22.5 -5.5q12 0 18.5 8.5t8.5 32.5h58q2 -58 -17 -85t-56 -27q-19 0 -34 5.5
t-30 13.5q-14 8 -23.5 13t-20.5 5q-22 0 -25 -43h-60z" />
    <glyph glyph-name="Odieresis" unicode="&#xd6;" horiz-adv-x="704" 
d="M356 685q74 0 132 -26.5t98.5 -72t61.5 -108t21 -134.5q0 -85 -24.5 -151t-67.5 -111.5t-102 -69t-129 -23.5q-71 0 -128.5 25.5t-98 71.5t-62 109t-21.5 137q0 78 23.5 142.5t65.5 111.5t101 73t130 26zM353 586q-46 0 -81 -20t-58.5 -54t-35.5 -80t-12 -98
q0 -51 12.5 -96t36.5 -78.5t59 -52.5t79 -19q45 0 79.5 19.5t58 53t36 79.5t12.5 99q0 48 -12 92.5t-35 79t-58 55t-81 20.5zM254 716q-26 0 -43 18t-17 43q0 26 17 43t43 17q25 0 41.5 -17t16.5 -43q0 -25 -16 -43t-42 -18zM451 716q-26 0 -42.5 18t-16.5 43q0 26 17 43
t43 17q25 0 41.5 -17t16.5 -43q0 -25 -16.5 -43t-42.5 -18z" />
    <glyph glyph-name="multiply" unicode="&#xd7;" horiz-adv-x="596" 
d="M95 526l203 -207l202 207l56 -56l-202 -207l202 -207l-56 -56l-202 206l-202 -206l-56 56l202 207l-202 207z" />
    <glyph glyph-name="Oslash" unicode="&#xd8;" horiz-adv-x="704" 
d="M68 -2l59 86q-45 46 -68 111t-23 140q0 76 23.5 140.5t65.5 111t100.5 72.5t128.5 26q44 0 83.5 -10.5t74.5 -32.5l57 81l71 -48l-59 -85q44 -47 66 -111t22 -137q0 -85 -25 -151t-67.5 -111t-100 -68t-123.5 -23q-87 0 -156 43l-62 -88zM454 553q-21 17 -46 26t-55 9
q-47 0 -83 -20t-60.5 -54t-37 -80t-12.5 -97q0 -44 9.5 -79t26.5 -70l2 1zM255 120q20 -17 43.5 -25.5t53.5 -8.5q46 0 81.5 19.5t60.5 53.5t38 80t13 100q0 35 -7.5 71t-26.5 71h-2z" />
    <glyph glyph-name="Ugrave" unicode="&#xd9;" horiz-adv-x="666" 
d="M193 674v-393q0 -99 38 -146t100 -47q67 0 104.5 46.5t37.5 146.5v393h123v-385q0 -78 -19.5 -134.5t-54.5 -93.5t-84.5 -54.5t-110.5 -17.5q-59 0 -106 17t-81 53t-52 92.5t-18 136.5v386h123zM313 830l88 -119h-99l-124 119h135z" />
    <glyph glyph-name="Uacute" unicode="&#xda;" horiz-adv-x="666" 
d="M193 674v-393q0 -99 38 -146t100 -47q67 0 104.5 46.5t37.5 146.5v393h123v-385q0 -78 -19.5 -134.5t-54.5 -93.5t-84.5 -54.5t-110.5 -17.5q-59 0 -106 17t-81 53t-52 92.5t-18 136.5v386h123zM492 830l-124 -120h-99l88 120h135z" />
    <glyph glyph-name="Ucircumflex" unicode="&#xdb;" horiz-adv-x="666" 
d="M193 674v-393q0 -99 38 -146t100 -47q67 0 104.5 46.5t37.5 146.5v393h123v-385q0 -78 -19.5 -134.5t-54.5 -93.5t-84.5 -54.5t-110.5 -17.5q-59 0 -106 17t-81 53t-52 92.5t-18 136.5v386h123zM388 829l103 -119h-92l-57 65h-2l-56 -65h-90l101 119h93z" />
    <glyph glyph-name="Udieresis" unicode="&#xdc;" horiz-adv-x="666" 
d="M193 674v-393q0 -99 38 -146t100 -47q67 0 104.5 46.5t37.5 146.5v393h123v-385q0 -78 -19.5 -134.5t-54.5 -93.5t-84.5 -54.5t-110.5 -17.5q-59 0 -106 17t-81 53t-52 92.5t-18 136.5v386h123zM239 716q-26 0 -43 18t-17 43q0 26 17 43t43 17q25 0 41.5 -17t16.5 -43
q0 -25 -16 -43t-42 -18zM436 716q-26 0 -42.5 18t-16.5 43q0 26 17 43t43 17q25 0 41.5 -17t16.5 -43q0 -25 -16.5 -43t-42.5 -18z" />
    <glyph glyph-name="Yacute" unicode="&#xdd;" horiz-adv-x="575" 
d="M224 0v281l-213 393h140l81 -173q17 -38 30.5 -68.5t27.5 -65.5h2q13 32 27.5 64.5t31.5 69.5l81 173h139l-224 -390v-284h-123zM455 828l-124 -120h-99l88 120h135z" />
    <glyph glyph-name="Thorn" unicode="&#xde;" horiz-adv-x="558" 
d="M71 674h121v-126q17 2 38 3.5t51 1.5q118 0 181 -54q29 -26 45 -61.5t16 -77.5q0 -58 -20 -100t-55 -69t-82.5 -40t-101.5 -13q-23 0 -41 1.5t-31 3.5v-143h-121v674zM192 240q14 -3 31.5 -4.5t36.5 -1.5q71 0 106 32t35 84q0 55 -35.5 82t-97.5 27q-27 0 -46 -2t-30 -5
v-212z" />
    <glyph glyph-name="germandbls" unicode="&#xdf;" horiz-adv-x="576" 
d="M66 0v440q0 86 20 138.5t55 84.5q61 58 165 58q41 0 77 -12t63 -35t42.5 -56t15.5 -75q0 -24 -6.5 -46t-16.5 -36q-64 -29 -64 -74q0 -22 11 -38.5t31 -37.5q13 -14 27.5 -29.5t26 -34.5t19 -41.5t7.5 -50.5q0 -74 -50.5 -120t-141.5 -46q-28 0 -56.5 4.5t-49.5 13.5
l17 92q35 -16 76 -16q40 0 60.5 19t20.5 47q0 24 -11 42.5t-33 41.5q-14 13 -27.5 28t-24.5 31.5t-18 35.5t-7 42q0 38 21 70.5t63 53.5q8 18 8 39q0 42 -24 67.5t-66 25.5q-49 0 -77.5 -39.5t-28.5 -137.5v-449h-124z" />
    <glyph glyph-name="agrave" unicode="&#xe0;" horiz-adv-x="508" 
d="M340 0l-8 54h-3q-23 -29 -59.5 -47t-84.5 -18q-37 0 -65.5 12t-48 32.5t-29.5 46.5t-10 54q0 92 77 138.5t212 45.5v8q0 12 -3.5 27t-14 27.5t-30 21.5t-51.5 9q-36 0 -71 -10t-60 -26l-24 80q27 17 72.5 30t103.5 13t97 -17t62 -45.5t32.5 -65.5t9.5 -77v-176
q0 -33 1.5 -63.5t5.5 -53.5h-111zM324 238q-33 1 -63.5 -3t-54 -14t-38 -28t-14.5 -46q0 -36 20.5 -53t49.5 -17q37 0 62.5 20.5t33.5 46.5q2 7 3 14t1 13v67zM219 698l87 -148h-86l-122 148h121z" />
    <glyph glyph-name="aacute" unicode="&#xe1;" horiz-adv-x="508" 
d="M340 0l-8 54h-3q-23 -29 -59.5 -47t-84.5 -18q-37 0 -65.5 12t-48 32.5t-29.5 46.5t-10 54q0 92 77 138.5t212 45.5v8q0 12 -3.5 27t-14 27.5t-30 21.5t-51.5 9q-36 0 -71 -10t-60 -26l-24 80q27 17 72.5 30t103.5 13t97 -17t62 -45.5t32.5 -65.5t9.5 -77v-176
q0 -33 1.5 -63.5t5.5 -53.5h-111zM324 238q-33 1 -63.5 -3t-54 -14t-38 -28t-14.5 -46q0 -36 20.5 -53t49.5 -17q37 0 62.5 20.5t33.5 46.5q2 7 3 14t1 13v67zM400 698l-123 -148h-85l87 148h121z" />
    <glyph glyph-name="acircumflex" unicode="&#xe2;" horiz-adv-x="508" 
d="M340 0l-8 54h-3q-23 -29 -59.5 -47t-84.5 -18q-37 0 -65.5 12t-48 32.5t-29.5 46.5t-10 54q0 92 77 138.5t212 45.5v8q0 12 -3.5 27t-14 27.5t-30 21.5t-51.5 9q-36 0 -71 -10t-60 -26l-24 80q27 17 72.5 30t103.5 13t97 -17t62 -45.5t32.5 -65.5t9.5 -77v-176
q0 -33 1.5 -63.5t5.5 -53.5h-111zM324 238q-33 1 -63.5 -3t-54 -14t-38 -28t-14.5 -46q0 -36 20.5 -53t49.5 -17q37 0 62.5 20.5t33.5 46.5q2 7 3 14t1 13v67zM292 698l97 -148h-84l-54 91h-2l-54 -91h-84l97 148h84z" />
    <glyph glyph-name="atilde" unicode="&#xe3;" horiz-adv-x="508" 
d="M340 0l-8 54h-3q-23 -29 -59.5 -47t-84.5 -18q-37 0 -65.5 12t-48 32.5t-29.5 46.5t-10 54q0 92 77 138.5t212 45.5v8q0 12 -3.5 27t-14 27.5t-30 21.5t-51.5 9q-36 0 -71 -10t-60 -26l-24 80q27 17 72.5 30t103.5 13t97 -17t62 -45.5t32.5 -65.5t9.5 -77v-176
q0 -33 1.5 -63.5t5.5 -53.5h-111zM324 238q-33 1 -63.5 -3t-54 -14t-38 -28t-14.5 -46q0 -36 20.5 -53t49.5 -17q37 0 62.5 20.5t33.5 46.5q2 7 3 14t1 13v67zM114 562q-2 57 19.5 88t56.5 31q18 0 33 -6.5t31 -14.5q12 -7 22.5 -12.5t19.5 -5.5q12 0 18.5 8.5t8.5 34.5h59
q2 -60 -17.5 -88t-57.5 -28q-19 0 -34.5 6.5t-31.5 14.5q-14 8 -22.5 12.5t-17.5 4.5q-23 0 -25 -45h-62z" />
    <glyph glyph-name="adieresis" unicode="&#xe4;" horiz-adv-x="508" 
d="M340 0l-8 54h-3q-23 -29 -59.5 -47t-84.5 -18q-37 0 -65.5 12t-48 32.5t-29.5 46.5t-10 54q0 92 77 138.5t212 45.5v8q0 12 -3.5 27t-14 27.5t-30 21.5t-51.5 9q-36 0 -71 -10t-60 -26l-24 80q27 17 72.5 30t103.5 13t97 -17t62 -45.5t32.5 -65.5t9.5 -77v-176
q0 -33 1.5 -63.5t5.5 -53.5h-111zM324 238q-33 1 -63.5 -3t-54 -14t-38 -28t-14.5 -46q0 -36 20.5 -53t49.5 -17q37 0 62.5 20.5t33.5 46.5q2 7 3 14t1 13v67zM155 563q-27 0 -44.5 18t-17.5 43q0 26 18 44t45 18q25 0 42 -17.5t17 -44.5q0 -25 -17 -43t-43 -18zM354 563
q-27 0 -44 18t-17 43q0 26 17.5 44t43.5 18t43 -17.5t17 -44.5q0 -25 -17 -43t-43 -18z" />
    <glyph glyph-name="aring" unicode="&#xe5;" horiz-adv-x="508" 
d="M340 0l-8 54h-3q-23 -29 -59.5 -47t-84.5 -18q-37 0 -65.5 12t-48 32.5t-29.5 46.5t-10 54q0 92 77 138.5t212 45.5v8q0 12 -3.5 27t-14 27.5t-30 21.5t-51.5 9q-36 0 -71 -10t-60 -26l-24 80q27 17 72.5 30t103.5 13t97 -17t62 -45.5t32.5 -65.5t9.5 -77v-176
q0 -33 1.5 -63.5t5.5 -53.5h-111zM324 238q-33 1 -63.5 -3t-54 -14t-38 -28t-14.5 -46q0 -36 20.5 -53t49.5 -17q37 0 62.5 20.5t33.5 46.5q2 7 3 14t1 13v67zM254 538q-50 0 -79.5 27t-29.5 67q0 42 28.5 70t81.5 28q51 0 78.5 -27.5t27.5 -69.5q0 -41 -29.5 -68t-77.5 -27
zM253 582q23 0 36 15.5t13 36.5q0 20 -13 35.5t-37 15.5q-22 0 -34 -16t-12 -37q0 -18 12.5 -34t34.5 -16z" />
    <glyph glyph-name="ae" unicode="&#xe6;" horiz-adv-x="790" 
d="M437 216q0 -64 40 -99t103 -35q48 0 78.5 8t55.5 19l19 -85q-35 -18 -79.5 -26.5t-90.5 -8.5q-62 0 -112.5 24.5t-73.5 71.5h-3q-26 -45 -72 -70.5t-109 -25.5q-39 0 -69 12t-50.5 32t-31 46.5t-10.5 55.5q0 43 20 76.5t57.5 56t91.5 34t121 11.5v17q0 7 -3.5 20.5
t-14.5 27t-31 23.5t-53 10q-36 0 -70.5 -11.5t-56.5 -25.5l-26 79q29 17 72.5 31t90.5 14q62 0 101 -24t58 -66h2q27 42 69.5 66t98.5 24q55 0 92.5 -22.5t61 -57t34 -75.5t10.5 -79q0 -14 -1 -27t-2 -21h-317zM325 235q-32 1 -63 -3t-55 -14t-39 -28t-15 -45
q0 -33 21.5 -50.5t50.5 -17.5q38 0 62 20t34 46q4 12 4 32v60zM642 301q0 15 -4 34.5t-15 37t-30 30t-48 12.5q-28 0 -48 -11.5t-33.5 -28.5t-20 -37t-6.5 -37h205z" />
    <glyph glyph-name="ccedilla" unicode="&#xe7;" horiz-adv-x="449" 
d="M424 15q-20 -9 -56 -17t-82 -8q-57 0 -103.5 17.5t-79 50t-50.5 78t-18 102.5q0 55 18.5 102.5t53 82.5t85 55t114.5 20q34 0 66 -6.5t53 -16.5l-22 -92q-15 7 -37.5 13t-55.5 6q-35 0 -63 -12t-47 -33.5t-29 -50.5t-10 -62q0 -38 11.5 -67t31.5 -49t47 -30.5t59 -10.5
t55.5 5.5t41.5 13.5zM312 3l-30 -50q29 -3 50.5 -22t21.5 -49q0 -23 -9.5 -39t-25 -26t-36.5 -14.5t-43 -4.5t-41.5 5t-33.5 14l18 50q13 -8 27.5 -12t26.5 -4q15 0 27 6.5t12 22.5q0 33 -78 39l45 84h69z" />
    <glyph glyph-name="egrave" unicode="&#xe8;" horiz-adv-x="516" 
d="M153 209q1 -33 13.5 -57t33 -39t47.5 -22.5t56 -7.5q43 0 75 5.5t60 16.5l18 -85q-32 -13 -74.5 -21.5t-95.5 -8.5q-59 0 -106 17.5t-79 49.5t-49 77.5t-17 101.5q0 51 15 98t45 83.5t74.5 58.5t103.5 22t99.5 -22t65 -56.5t35 -76.5t10.5 -82q0 -17 -1 -30.5t-3 -21.5
h-326zM367 295q0 17 -4 37.5t-15.5 38.5t-31 30.5t-50.5 12.5q-29 0 -49.5 -11.5t-34 -29t-20.5 -38.5t-9 -40h214zM248 698l87 -148h-86l-122 148h121z" />
    <glyph glyph-name="eacute" unicode="&#xe9;" horiz-adv-x="516" 
d="M153 209q1 -33 13.5 -57t33 -39t47.5 -22.5t56 -7.5q43 0 75 5.5t60 16.5l18 -85q-32 -13 -74.5 -21.5t-95.5 -8.5q-59 0 -106 17.5t-79 49.5t-49 77.5t-17 101.5q0 51 15 98t45 83.5t74.5 58.5t103.5 22t99.5 -22t65 -56.5t35 -76.5t10.5 -82q0 -17 -1 -30.5t-3 -21.5
h-326zM367 295q0 17 -4 37.5t-15.5 38.5t-31 30.5t-50.5 12.5q-29 0 -49.5 -11.5t-34 -29t-20.5 -38.5t-9 -40h214zM423 698l-123 -148h-85l87 148h121z" />
    <glyph glyph-name="ecircumflex" unicode="&#xea;" horiz-adv-x="516" 
d="M153 209q1 -33 13.5 -57t33 -39t47.5 -22.5t56 -7.5q43 0 75 5.5t60 16.5l18 -85q-32 -13 -74.5 -21.5t-95.5 -8.5q-59 0 -106 17.5t-79 49.5t-49 77.5t-17 101.5q0 51 15 98t45 83.5t74.5 58.5t103.5 22t99.5 -22t65 -56.5t35 -76.5t10.5 -82q0 -17 -1 -30.5t-3 -21.5
h-326zM367 295q0 17 -4 37.5t-15.5 38.5t-31 30.5t-50.5 12.5q-29 0 -49.5 -11.5t-34 -29t-20.5 -38.5t-9 -40h214zM312 698l97 -148h-84l-54 91h-2l-54 -91h-84l97 148h84z" />
    <glyph glyph-name="edieresis" unicode="&#xeb;" horiz-adv-x="516" 
d="M153 209q1 -33 13.5 -57t33 -39t47.5 -22.5t56 -7.5q43 0 75 5.5t60 16.5l18 -85q-32 -13 -74.5 -21.5t-95.5 -8.5q-59 0 -106 17.5t-79 49.5t-49 77.5t-17 101.5q0 51 15 98t45 83.5t74.5 58.5t103.5 22t99.5 -22t65 -56.5t35 -76.5t10.5 -82q0 -17 -1 -30.5t-3 -21.5
h-326zM367 295q0 17 -4 37.5t-15.5 38.5t-31 30.5t-50.5 12.5q-29 0 -49.5 -11.5t-34 -29t-20.5 -38.5t-9 -40h214zM176 563q-27 0 -44.5 18t-17.5 43q0 26 18 44t45 18q25 0 42 -17.5t17 -44.5q0 -25 -17 -43t-43 -18zM375 563q-27 0 -44 18t-17 43q0 26 17.5 44t43.5 18
t43 -17.5t17 -44.5q0 -25 -17 -43t-43 -18z" />
    <glyph glyph-name="igrave" unicode="&#xec;" horiz-adv-x="256" 
d="M66 0v487h124v-487h-124zM93 698l87 -148h-86l-122 148h121z" />
    <glyph glyph-name="iacute" unicode="&#xed;" horiz-adv-x="256" 
d="M66 0v487h124v-487h-124zM279 698l-123 -148h-85l87 148h121z" />
    <glyph glyph-name="icircumflex" unicode="&#xee;" horiz-adv-x="256" 
d="M66 0v487h124v-487h-124zM171 698l97 -148h-84l-54 91h-2l-54 -91h-84l97 148h84z" />
    <glyph glyph-name="idieresis" unicode="&#xef;" horiz-adv-x="256" 
d="M66 0v487h124v-487h-124zM30 563q-27 0 -44.5 18t-17.5 43q0 26 18 44t45 18q25 0 42 -17.5t17 -44.5q0 -25 -17 -43t-43 -18zM229 563q-27 0 -44 18t-17 43q0 26 17.5 44t43.5 18t43 -17.5t17 -44.5q0 -25 -17 -43t-43 -18z" />
    <glyph glyph-name="eth" unicode="&#xf0;" horiz-adv-x="560" 
d="M278 78q57 0 87.5 46t30.5 118q0 43 -6.5 71t-21.5 48q-14 17 -35.5 28t-51.5 11q-33 0 -55.5 -15.5t-37 -39.5t-20.5 -52.5t-6 -54.5q0 -33 8 -62t23 -51t36.5 -34.5t48.5 -12.5zM88 544l110 50q-44 30 -99 53l54 72q38 -15 76.5 -36t73.5 -44l133 60l26 -52l-105 -48
q80 -65 124 -154q42 -83 42 -190q0 -69 -21 -119.5t-55.5 -83t-78.5 -48t-90 -15.5q-52 0 -96.5 17.5t-77 49.5t-51 78t-18.5 103t19 101.5t51 75.5t74 47.5t88 16.5q22 0 43 -5.5t43 -24.5l2 3q-20 29 -44.5 55t-56.5 49l-143 -64z" />
    <glyph glyph-name="ntilde" unicode="&#xf1;" horiz-adv-x="572" 
d="M66 342q0 42 -1 77.5t-3 67.5h108l6 -73h3q8 14 21.5 29t33 27t45 20t55.5 8q32 0 63 -11t55.5 -36t39.5 -64.5t15 -97.5v-289h-123v275q0 26 -5 48.5t-16.5 39t-29 26t-42.5 9.5q-37 0 -61.5 -22t-34.5 -50q-3 -8 -4 -18.5t-1 -21.5v-286h-124v342zM153 562
q-2 57 19.5 88t56.5 31q18 0 33 -6.5t31 -14.5q12 -7 22.5 -12.5t19.5 -5.5q12 0 18.5 8.5t8.5 34.5h59q2 -60 -17.5 -88t-57.5 -28q-19 0 -34.5 6.5t-31.5 14.5q-14 8 -22.5 12.5t-17.5 4.5q-23 0 -25 -45h-62z" />
    <glyph glyph-name="ograve" unicode="&#xf2;" horiz-adv-x="564" 
d="M287 498q54 0 99 -18.5t76.5 -51.5t49 -79t17.5 -101q0 -67 -21.5 -116t-57 -80.5t-80.5 -47t-91 -15.5q-52 0 -96.5 17.5t-77.5 49.5t-51.5 78.5t-18.5 105.5q0 60 18.5 108t52 81t80 51t101.5 18zM284 408q-33 0 -56 -14.5t-37.5 -37.5t-21.5 -53t-7 -60
q0 -35 8.5 -65.5t24 -52.5t38 -34.5t50.5 -12.5q26 0 48 12.5t37.5 34.5t24.5 52.5t9 67.5q0 28 -6.5 57.5t-21 52.5t-37 38t-53.5 15zM259 698l87 -148h-86l-122 148h121z" />
    <glyph glyph-name="oacute" unicode="&#xf3;" horiz-adv-x="564" 
d="M287 498q54 0 99 -18.5t76.5 -51.5t49 -79t17.5 -101q0 -67 -21.5 -116t-57 -80.5t-80.5 -47t-91 -15.5q-52 0 -96.5 17.5t-77.5 49.5t-51.5 78.5t-18.5 105.5q0 60 18.5 108t52 81t80 51t101.5 18zM284 408q-33 0 -56 -14.5t-37.5 -37.5t-21.5 -53t-7 -60
q0 -35 8.5 -65.5t24 -52.5t38 -34.5t50.5 -12.5q26 0 48 12.5t37.5 34.5t24.5 52.5t9 67.5q0 28 -6.5 57.5t-21 52.5t-37 38t-53.5 15zM429 698l-123 -148h-85l87 148h121z" />
    <glyph glyph-name="ocircumflex" unicode="&#xf4;" horiz-adv-x="564" 
d="M287 498q54 0 99 -18.5t76.5 -51.5t49 -79t17.5 -101q0 -67 -21.5 -116t-57 -80.5t-80.5 -47t-91 -15.5q-52 0 -96.5 17.5t-77.5 49.5t-51.5 78.5t-18.5 105.5q0 60 18.5 108t52 81t80 51t101.5 18zM284 408q-33 0 -56 -14.5t-37.5 -37.5t-21.5 -53t-7 -60
q0 -35 8.5 -65.5t24 -52.5t38 -34.5t50.5 -12.5q26 0 48 12.5t37.5 34.5t24.5 52.5t9 67.5q0 28 -6.5 57.5t-21 52.5t-37 38t-53.5 15zM324 698l97 -148h-84l-54 91h-2l-54 -91h-84l97 148h84z" />
    <glyph glyph-name="otilde" unicode="&#xf5;" horiz-adv-x="564" 
d="M287 498q54 0 99 -18.5t76.5 -51.5t49 -79t17.5 -101q0 -67 -21.5 -116t-57 -80.5t-80.5 -47t-91 -15.5q-52 0 -96.5 17.5t-77.5 49.5t-51.5 78.5t-18.5 105.5q0 60 18.5 108t52 81t80 51t101.5 18zM284 408q-33 0 -56 -14.5t-37.5 -37.5t-21.5 -53t-7 -60
q0 -35 8.5 -65.5t24 -52.5t38 -34.5t50.5 -12.5q26 0 48 12.5t37.5 34.5t24.5 52.5t9 67.5q0 28 -6.5 57.5t-21 52.5t-37 38t-53.5 15zM148 562q-2 57 19.5 88t56.5 31q18 0 33 -6.5t31 -14.5q12 -7 22.5 -12.5t19.5 -5.5q12 0 18.5 8.5t8.5 34.5h59q2 -60 -17.5 -88
t-57.5 -28q-19 0 -34.5 6.5t-31.5 14.5q-14 8 -22.5 12.5t-17.5 4.5q-23 0 -25 -45h-62z" />
    <glyph glyph-name="odieresis" unicode="&#xf6;" horiz-adv-x="564" 
d="M287 498q54 0 99 -18.5t76.5 -51.5t49 -79t17.5 -101q0 -67 -21.5 -116t-57 -80.5t-80.5 -47t-91 -15.5q-52 0 -96.5 17.5t-77.5 49.5t-51.5 78.5t-18.5 105.5q0 60 18.5 108t52 81t80 51t101.5 18zM284 408q-33 0 -56 -14.5t-37.5 -37.5t-21.5 -53t-7 -60
q0 -35 8.5 -65.5t24 -52.5t38 -34.5t50.5 -12.5q26 0 48 12.5t37.5 34.5t24.5 52.5t9 67.5q0 28 -6.5 57.5t-21 52.5t-37 38t-53.5 15zM183 563q-27 0 -44.5 18t-17.5 43q0 26 18 44t45 18q25 0 42 -17.5t17 -44.5q0 -25 -17 -43t-43 -18zM382 563q-27 0 -44 18t-17 43
q0 26 17.5 44t43.5 18t43 -17.5t17 -44.5q0 -25 -17 -43t-43 -18z" />
    <glyph glyph-name="divide" unicode="&#xf7;" horiz-adv-x="596" 
d="M298 377q-29 0 -46.5 18t-17.5 47q0 30 17.5 48t46.5 18t46.5 -18t17.5 -48q0 -29 -17.5 -47t-46.5 -18zM40 228v78h516v-78h-516zM298 26q-29 0 -46.5 18t-17.5 47q0 30 17.5 48t46.5 18t46.5 -18t17.5 -48q0 -29 -17.5 -47t-46.5 -18z" />
    <glyph glyph-name="oslash" unicode="&#xf8;" horiz-adv-x="564" 
d="M283 498q67 0 121 -30l44 65l47 -33l-44 -65q38 -34 58 -81.5t20 -107.5q0 -66 -21.5 -114.5t-56 -80t-79 -47t-89.5 -15.5q-33 0 -63.5 7t-56.5 22l-46 -66l-45 36l44 63q-38 32 -59.5 80t-21.5 111q0 59 18.5 106.5t51.5 80.5t78.5 51t99.5 18zM349 385q-26 23 -68 23
q-34 0 -58 -15t-39.5 -38.5t-22.5 -53t-7 -58.5q0 -26 6 -51t20 -47h2zM217 101q26 -23 64 -23q60 0 94.5 46t34.5 119q0 20 -5 46t-19 49h-3z" />
    <glyph glyph-name="ugrave" unicode="&#xf9;" horiz-adv-x="569" 
d="M502 146q0 -44 1 -80t3 -66h-108l-6 74h-2q-8 -13 -21 -28t-32 -27.5t-44.5 -21t-58.5 -8.5t-64 11t-54.5 35.5t-37.5 65t-14 100.5v286h123v-265q0 -61 21 -97t70 -36q37 0 60.5 21.5t33.5 44.5q7 19 7 38v294h123v-341zM256 698l87 -148h-86l-122 148h121z" />
    <glyph glyph-name="uacute" unicode="&#xfa;" horiz-adv-x="569" 
d="M502 146q0 -44 1 -80t3 -66h-108l-6 74h-2q-8 -13 -21 -28t-32 -27.5t-44.5 -21t-58.5 -8.5t-64 11t-54.5 35.5t-37.5 65t-14 100.5v286h123v-265q0 -61 21 -97t70 -36q37 0 60.5 21.5t33.5 44.5q7 19 7 38v294h123v-341zM439 698l-123 -148h-85l87 148h121z" />
    <glyph glyph-name="ucircumflex" unicode="&#xfb;" horiz-adv-x="569" 
d="M502 146q0 -44 1 -80t3 -66h-108l-6 74h-2q-8 -13 -21 -28t-32 -27.5t-44.5 -21t-58.5 -8.5t-64 11t-54.5 35.5t-37.5 65t-14 100.5v286h123v-265q0 -61 21 -97t70 -36q37 0 60.5 21.5t33.5 44.5q7 19 7 38v294h123v-341zM326 698l97 -148h-84l-54 91h-2l-54 -91h-84
l97 148h84z" />
    <glyph glyph-name="udieresis" unicode="&#xfc;" horiz-adv-x="569" 
d="M502 146q0 -44 1 -80t3 -66h-108l-6 74h-2q-8 -13 -21 -28t-32 -27.5t-44.5 -21t-58.5 -8.5t-64 11t-54.5 35.5t-37.5 65t-14 100.5v286h123v-265q0 -61 21 -97t70 -36q37 0 60.5 21.5t33.5 44.5q7 19 7 38v294h123v-341zM188 563q-27 0 -44.5 18t-17.5 43q0 26 18 44
t45 18q25 0 42 -17.5t17 -44.5q0 -25 -17 -43t-43 -18zM387 563q-27 0 -44 18t-17 43q0 26 17.5 44t43.5 18t43 -17.5t17 -44.5q0 -25 -17 -43t-43 -18z" />
    <glyph glyph-name="yacute" unicode="&#xfd;" horiz-adv-x="500" 
d="M143 487l88 -261q8 -23 15 -48.5t12 -46.5h3q6 21 12.5 46.5t13.5 49.5l76 260h132l-122 -332q-25 -68 -46.5 -118.5t-42 -87.5t-40 -62.5t-41.5 -44.5q-36 -32 -71 -46t-58 -17l-28 104q16 4 34.5 12t37.5 22q17 11 35.5 31.5t31.5 45.5q8 14 8 22q0 4 -1 9.5t-6 14.5
l-178 447h135zM413 698l-123 -148h-85l87 148h121z" />
    <glyph glyph-name="thorn" unicode="&#xfe;" horiz-adv-x="585" 
d="M189 710v-291h2q23 36 61.5 57.5t92.5 21.5q41 1 78 -16t65.5 -49.5t45 -79t16.5 -104.5q0 -68 -20 -117t-51.5 -80.5t-71 -47t-78.5 -15.5q-46 0 -81.5 18t-56.5 48h-2v-253h-123v908h123zM189 196q0 -11 3.5 -23.5t8.5 -22.5q13 -30 40.5 -48t60.5 -18q56 0 89.5 44
t33.5 119q0 32 -8 60t-23.5 49t-37.5 33t-50 12q-35 0 -64 -19.5t-43 -54.5q-4 -9 -7 -21.5t-3 -23.5v-86z" />
    <glyph glyph-name="ydieresis" unicode="&#xff;" horiz-adv-x="500" 
d="M143 487l88 -261q8 -23 15 -48.5t12 -46.5h3q6 21 12.5 46.5t13.5 49.5l76 260h132l-122 -332q-25 -68 -46.5 -118.5t-42 -87.5t-40 -62.5t-41.5 -44.5q-36 -32 -71 -46t-58 -17l-28 104q16 4 34.5 12t37.5 22q17 11 35.5 31.5t31.5 45.5q8 14 8 22q0 4 -1 9.5t-6 14.5
l-178 447h135zM163 563q-27 0 -44.5 18t-17.5 43q0 26 18 44t45 18q25 0 42 -17.5t17 -44.5q0 -25 -17 -43t-43 -18zM362 563q-27 0 -44 18t-17 43q0 26 17.5 44t43.5 18t43 -17.5t17 -44.5q0 -25 -17 -43t-43 -18z" />
    <glyph glyph-name="OE" unicode="&#x152;" horiz-adv-x="917" 
d="M879 0h-364q-14 0 -30 -2t-34 -4t-38 -3.5t-45 -1.5q-83 0 -145 27.5t-103.5 74t-62.5 109t-21 132.5q0 82 24.5 147t69 111t106 70.5t136.5 24.5q27 0 49 -1.5t40 -3.5q19 -2 34.5 -4t29.5 -2h339v-101h-269v-174h254v-100h-254v-198h284v-101zM472 572q-34 14 -91 14
q-47 0 -87 -17t-68.5 -49.5t-44 -79t-15.5 -104.5q0 -55 14.5 -100.5t43.5 -78.5t70.5 -51t95.5 -18q23 0 45 3t37 9v472z" />
    <glyph glyph-name="oe" unicode="&#x153;" horiz-adv-x="866" 
d="M512 211q2 -62 43.5 -95.5t102.5 -33.5q45 0 75 8t58 19l19 -85q-18 -10 -39.5 -16.5t-44 -10.5t-44.5 -6t-41 -2q-58 0 -106 22.5t-79 76.5h-3q-29 -51 -79 -75t-106 -24q-49 0 -91.5 17.5t-74 50t-49.5 79.5t-18 106q0 58 18 105.5t50.5 81t76.5 51.5t96 18
q57 0 105 -25.5t72 -74.5h2q29 50 74.5 75t99.5 25q58 0 97.5 -22.5t63.5 -57t34 -76t10 -80.5q0 -16 -1 -29.5t-3 -21.5h-318zM281 408q-34 0 -56.5 -15t-36.5 -39t-20 -53.5t-6 -57.5q0 -35 8.5 -65t23.5 -52.5t37 -35t49 -12.5q55 0 86 45.5t31 120.5q0 31 -6.5 60.5
t-21 52.5t-36.5 37t-52 14zM718 296q0 16 -3.5 36.5t-14.5 38.5t-31 30.5t-51 12.5q-27 0 -47 -11.5t-33 -29t-19.5 -38.5t-7.5 -39h207z" />
    <glyph glyph-name="Ydieresis" unicode="&#x178;" horiz-adv-x="575" 
d="M224 0v281l-213 393h140l81 -173q17 -38 30.5 -68.5t27.5 -65.5h2q13 32 27.5 64.5t31.5 69.5l81 173h139l-224 -390v-284h-123zM198 713q-26 0 -43 18t-17 43q0 26 17 43t43 17q25 0 41.5 -17t16.5 -43q0 -25 -16 -43t-42 -18zM395 713q-26 0 -42.5 18t-16.5 43
q0 26 17 43t43 17q25 0 41.5 -17t16.5 -43q0 -25 -16.5 -43t-42.5 -18z" />
    <glyph glyph-name="tilde" unicode="&#x2dc;" horiz-adv-x="300" 
d="M16 562q-2 57 19.5 88t56.5 31q18 0 33 -6.5t31 -14.5q12 -7 22.5 -12.5t19.5 -5.5q12 0 18.5 8.5t8.5 34.5h59q2 -60 -17.5 -88t-57.5 -28q-19 0 -34.5 6.5t-31.5 14.5q-14 8 -22.5 12.5t-17.5 4.5q-23 0 -25 -45h-62z" />
    <glyph glyph-name="endash" unicode="&#x2013;" horiz-adv-x="500" 
d="M470 293v-78h-440v78h440z" />
    <glyph glyph-name="emdash" unicode="&#x2014;" horiz-adv-x="1000" 
d="M970 293v-78h-940v78h940z" />
    <glyph glyph-name="quoteleft" unicode="&#x2018;" horiz-adv-x="236" 
d="M30 422q10 34 23 69.5t27.5 69.5t29 64t28.5 53l76 7q-20 -55 -37.5 -124t-27.5 -130z" />
    <glyph glyph-name="quoteright" unicode="&#x2019;" horiz-adv-x="236" 
d="M213 685q-10 -34 -23 -69.5t-27 -69.5t-29 -64t-29 -53l-75 -7q10 27 19.5 59t18 65t15 66.5t11.5 63.5z" />
    <glyph glyph-name="quotedblleft" unicode="&#x201c;" horiz-adv-x="409" 
d="M30 422q10 34 23 69.5t27 69.5t29 64t29 53l75 7q-20 -55 -37.5 -124t-27.5 -130zM204 422q10 34 23 69.5t27 69.5t29 64t29 53l76 7q-10 -27 -20 -59t-18.5 -65t-15.5 -66.5t-11 -63.5z" />
    <glyph glyph-name="quotedblright" unicode="&#x201d;" horiz-adv-x="409" 
d="M213 685q-11 -34 -23.5 -69.5t-27 -69.5t-29 -64t-28.5 -53l-76 -7q20 55 37.5 124t27.5 130zM387 685q-10 -34 -23 -69.5t-27.5 -69.5t-29 -64t-28.5 -53l-76 -7q10 27 19.5 59t18 65t15.5 66.5t12 63.5z" />
    <glyph glyph-name="quotedblbase" unicode="&#x201e;" horiz-adv-x="412" 
d="M17 -110q10 27 20 59t18.5 65t15 66t11.5 63l119 10q-10 -34 -23 -69.5t-27 -69.5t-29 -64t-29 -53zM192 -110q10 27 19.5 59t18 65t15.5 66t12 63l119 10q-11 -34 -24 -69.5t-27 -69.5t-29 -64t-29 -53z" />
    <glyph glyph-name="bullet" unicode="&#x2022;" horiz-adv-x="313" 
d="M156 142q-24 0 -45.5 9t-37.5 25t-25.5 37.5t-9.5 47.5q-1 25 8.5 47t25.5 38t38 25t46 9q25 0 46.5 -9t37.5 -25t25.5 -38t9.5 -47t-9 -46.5t-25 -37.5t-38 -25.5t-47 -9.5z" />
    <glyph glyph-name="ellipsis" unicode="&#x2026;" horiz-adv-x="1000" 
d="M166 -11q-33 0 -54.5 22.5t-20.5 56.5q0 35 21 57t55 22t54.5 -22t21.5 -57q0 -34 -21 -56.5t-56 -22.5zM500 -11q-34 0 -55 22.5t-21 56.5q0 35 21.5 57t54.5 22q34 0 55 -22t21 -57q0 -34 -20.5 -56.5t-55.5 -22.5zM834 -11q-34 0 -55.5 22.5t-20.5 56.5q0 35 21 57
t55 22t54.5 -22t21.5 -57q0 -34 -20.5 -56.5t-55.5 -22.5z" />
    <glyph glyph-name="guilsinglleft" unicode="&#x2039;" horiz-adv-x="264" 
d="M115 252l126 -188h-90l-124 188l123 188h91z" />
    <glyph glyph-name="guilsinglright" unicode="&#x203a;" horiz-adv-x="264" 
d="M23 440h89l124 -188l-124 -188h-89l125 188z" />
    <glyph glyph-name="Euro" unicode="&#x20ac;" 
d="M513 29q-25 -15 -65 -27.5t-88 -12.5q-69 0 -127.5 26t-98.5 77q-50 57 -63 149h-64v61h56v16q0 9 0.5 18.5t1.5 17.5h-58v62h67q9 46 28.5 84t46.5 67q41 45 95 69.5t121 24.5q45 0 81.5 -9.5t61.5 -21.5l-25 -93q-20 11 -49 19t-63 8q-38 0 -70 -13.5t-57 -41.5
q-16 -17 -27 -40.5t-17 -52.5h262v-62h-274q-2 -8 -2 -17v-18v-17h276v-61h-265q10 -62 43 -98q26 -28 60.5 -41t73.5 -13q37 0 69 10t49 20z" />
    <glyph glyph-name="trademark" unicode="&#x2122;" horiz-adv-x="636" 
d="M262 674v-57h-82v-216h-70v216h-82v57h234zM556 401l-8 138v43t-1 50h-4q-5 -23 -11.5 -48.5t-11.5 -46.5l-38 -131h-68l-35 133q-4 18 -9 44t-10 49h-4q0 -24 -0.5 -47.5t-1.5 -45.5l-8 -138h-66l18 273h107l31 -97q5 -15 8.5 -32.5t8.5 -46.5h2q8 41 18 79l33 97h101
l17 -273h-68z" />
    <glyph glyph-name="G_tildecomb" unicode="&#xe000;" horiz-adv-x="666" 
d="M611 31q-16 -6 -39.5 -12.5t-51.5 -12.5t-60 -9.5t-66 -3.5q-170 0 -264 90q-45 43 -70 107t-24 141q0 80 27 144.5t76.5 110.5t118.5 70.5t153 24.5q63 0 109.5 -10.5t69.5 -21.5l-27 -99q-28 12 -63.5 20.5t-89.5 8.5t-99 -15.5t-77.5 -46.5t-50.5 -76t-18 -104
q0 -57 17 -102.5t47.5 -77t73.5 -48t96 -16.5q33 0 57 4t36 10v168h-119v97h238v-341zM245 715q-2 56 18 86t55 30q19 0 33 -6t29 -14q12 -8 23.5 -13.5t22.5 -5.5q12 0 18.5 8.5t8.5 32.5h58q2 -58 -17 -85t-56 -27q-19 0 -34 5.5t-30 13.5q-14 8 -23.5 13t-20.5 5
q-22 0 -25 -43h-60z" />
    <glyph glyph-name="M_uni0302" unicode="&#xe001;" horiz-adv-x="827" 
d="M640 275q-3 66 -6 140t-2 143h-3q-17 -62 -37 -128t-43 -130l-98 -292h-95l-90 288q-20 65 -37 132t-31 130h-2q-2 -66 -5 -142t-7 -145l-15 -271h-115l45 674h162l88 -271q18 -60 33.5 -118.5t28.5 -115.5h3q14 55 30.5 115t36.5 120l93 270h160l39 -674h-120zM459 829
l103 -119h-92l-57 65h-2l-56 -65h-90l101 119h93z" />
    <glyph glyph-name="N_uni0302" unicode="&#xe002;" horiz-adv-x="676" 
d="M71 0v674h140l174 -289q34 -57 63 -114t52 -112h2q-6 68 -8.5 135t-2.5 145v235h114v-674h-127l-176 296q-32 56 -64 116t-57 117l-3 -1q4 -66 5 -134.5t1 -152.5v-241h-113zM384 829l103 -119h-92l-57 65h-2l-56 -65h-90l101 119h93z" />
    <glyph glyph-name="f_f_j" unicode="&#xe003;" horiz-adv-x="852" 
d="M718 600q-17 9 -43 16t-57 7q-32 0 -53.5 -9t-35 -25t-19 -37t-5.5 -45v-20h290v-431q0 -76 -15 -125.5t-49 -82.5q-32 -30 -78.5 -43.5t-92.5 -13.5l-12 96q29 2 53 10.5t39 24.5q9 9 15 22t9.5 32.5t5.5 47t2 67.5v304h-166v-395h-124v395h-179v-395h-123v395h-66v92
h66v14q0 45 14 86.5t47 73.5q23 22 56.5 35.5t79.5 13.5q26 0 48.5 -6t36.5 -13l-29 -89q-10 5 -24 9t-28 4q-33 0 -52 -21q-15 -16 -21 -40t-6 -50v-17h180v23q0 49 16.5 88t47.5 66.5t74.5 42t97.5 14.5q35 0 71 -8t58 -20z" />
    <glyph glyph-name="f_j" unicode="&#xe004;" horiz-adv-x="557" 
d="M80 0v395h-66v92h66v23q0 49 16.5 88t47 66.5t74.5 42t98 14.5q36 0 74.5 -8.5t59.5 -22.5l-27 -93q-17 10 -44.5 18t-62.5 8q-32 0 -54 -9t-35.5 -25t-19 -37t-5.5 -45v-20h291v-431q0 -76 -15.5 -125.5t-48.5 -82.5q-32 -30 -79 -43.5t-93 -13.5l-12 96q30 2 54 10.5
t38 24.5q9 9 15 22t9.5 32.5t5.5 47t2 67.5v304h-166v-395h-123z" />
    <glyph glyph-name="g_tildecomb" unicode="&#xe005;" horiz-adv-x="573" 
d="M511 487q-2 -25 -3 -57t-1 -83v-276q0 -77 -17 -131.5t-55 -89.5q-38 -34 -87.5 -46.5t-100.5 -12.5q-47 0 -92.5 9.5t-77.5 29.5l27 93q23 -14 60 -25.5t82 -11.5q30 0 55.5 8t44.5 26t29.5 46t10.5 67v42h-2q-21 -32 -57.5 -52t-84.5 -20q-45 0 -83 18t-65.5 49.5
t-43 75t-15.5 95.5q0 60 18 107.5t48.5 81t70.5 51t84 17.5q56 0 90 -23t51 -53h2l5 65h107zM384 292q0 8 -1 16.5t-3 16.5q-10 34 -35.5 56.5t-64.5 22.5q-52 0 -86 -42t-34 -117q0 -31 8 -58.5t23 -47.5t37 -32t51 -12q35 0 62 20.5t38 53.5q5 22 5 44v79zM152 562
q-2 57 19.5 88t56.5 31q18 0 33 -6.5t31 -14.5q12 -7 22.5 -12.5t19.5 -5.5q12 0 18.5 8.5t8.5 34.5h59q2 -60 -17.5 -88t-57.5 -28q-19 0 -34.5 6.5t-31.5 14.5q-14 8 -22.5 12.5t-17.5 4.5q-23 0 -25 -45h-62z" />
    <glyph glyph-name="m_uni0302" unicode="&#xe006;" horiz-adv-x="848" 
d="M66 342q0 42 -1 77.5t-3 67.5h106l5 -72h3q9 14 22 29t31 27t42 19.5t55 7.5q48 0 83.5 -24.5t51.5 -65.5h2q25 40 60 61q20 14 44 21.5t54 7.5t59.5 -11t52.5 -36t37 -65.5t14 -98.5v-287h-120v269q0 61 -21 95t-66 34q-32 0 -54 -19.5t-32 -45.5q-2 -9 -4 -19.5
t-2 -21.5v-292h-120v282q0 51 -20.5 83.5t-63.5 32.5q-35 0 -57.5 -22t-30.5 -48q-7 -17 -7 -40v-288h-120v342zM466 698l97 -148h-84l-54 91h-2l-54 -91h-84l97 148h84z" />
    <glyph glyph-name="fraction" horiz-adv-x="124" 
d="M-161 -11l374 672h71l-374 -672h-71z" />
    <glyph glyph-name="circumflex" horiz-adv-x="300" 
d="M192 698l97 -148h-84l-54 91h-2l-54 -91h-84l97 148h84z" />
    <glyph glyph-name="ring" horiz-adv-x="300" 
d="M142 538q-50 0 -79.5 27t-29.5 67q0 42 28.5 70t81.5 28q51 0 78.5 -27.5t27.5 -69.5q0 -41 -29.5 -68t-77.5 -27zM141 582q23 0 36 15.5t13 36.5q0 20 -13 35.5t-37 15.5q-22 0 -34 -16t-12 -37q0 -18 12.5 -34t34.5 -16z" />
    <glyph glyph-name="dotlessi" horiz-adv-x="256" 
d="M66 0v487h124v-487h-124z" />
    <glyph glyph-name="one.numerator" horiz-adv-x="275" 
d="M113 266v310h-2l-76 -35l-14 69l104 46h84v-390h-96z" />
    <glyph glyph-name="two.numerator" horiz-adv-x="333" 
d="M14 314l62 56q59 54 89.5 88.5t30.5 69.5q0 25 -16.5 41.5t-49.5 16.5q-26 0 -48 -9.5t-37 -20.5l-26 63q23 17 58 29.5t77 12.5q36 0 63 -9.5t45 -26t26.5 -37.5t8.5 -44q0 -27 -10 -50.5t-26.5 -45.5t-38.5 -42.5t-47 -41.5l-28 -23v-3h157v-72h-290v48z" />
    <glyph glyph-name="three.numerator" horiz-adv-x="328" 
d="M26 630q20 12 54 21.5t75 9.5q69 0 102 -29t33 -68q0 -31 -22.5 -54.5t-57.5 -34.5v-2q41 -5 68 -30.5t27 -63.5q0 -51 -45 -84.5t-125 -33.5q-39 0 -72.5 8t-53.5 20l21 65q14 -8 41 -17t54 -9q38 0 58.5 17t20.5 39q0 15 -8 26.5t-21.5 18.5t-30.5 10.5t-35 3.5h-29v58
h28q13 0 27.5 2.5t27 8.5t20.5 16t8 24q0 17 -13.5 29.5t-43.5 12.5q-27 0 -50.5 -9t-37.5 -17z" />
    <glyph glyph-name="four.numerator" horiz-adv-x="372" 
d="M209 266v96h-191v53l171 244h110v-234h53v-63h-53v-96h-90zM209 518q0 18 1 35.5t3 34.5h-3q-9 -18 -17.5 -33.5t-17.5 -29.5l-68 -99l2 -1h100v93z" />
    <glyph glyph-name="acute.cap" horiz-adv-x="300" 
d="M312 830l-124 -120h-99l88 120h135z" />
    <glyph glyph-name="cedilla.cap" horiz-adv-x="300" 
d="M199 5l-28 -52q29 -6 50.5 -25.5t21.5 -52.5q0 -24 -10 -41t-25.5 -27.5t-35.5 -15t-41 -4.5t-42.5 5t-36.5 14l17 54q11 -6 26 -10t30 -4q16 0 27.5 6.5t11.5 20.5q0 32 -79 40l45 92h69z" />
    <glyph glyph-name="circumflex.cap" horiz-adv-x="300" 
d="M196 829l103 -119h-92l-57 65h-2l-56 -65h-90l101 119h93z" />
    <glyph glyph-name="dieresis.cap" horiz-adv-x="300" 
d="M52 716q-26 0 -43 18t-17 43q0 26 17 43t43 17q25 0 41.5 -17t16.5 -43q0 -25 -16 -43t-42 -18zM249 716q-26 0 -42.5 18t-16.5 43q0 26 17 43t43 17q25 0 41.5 -17t16.5 -43q0 -25 -16.5 -43t-42.5 -18z" />
    <glyph glyph-name="grave.cap" horiz-adv-x="300" 
d="M127 830l88 -119h-99l-124 119h135z" />
    <glyph glyph-name="ring.cap" horiz-adv-x="400" 
d="M201 886q53 0 80.5 -27.5t27.5 -67.5q0 -39 -29 -66t-79 -27q-51 0 -79.5 27t-28.5 65q0 40 28 68t80 28zM200 842q-23 0 -34.5 -16t-11.5 -36q0 -18 12.5 -33t33.5 -15q22 0 34 14.5t12 35.5q0 20 -12 35t-34 15z" />
    <glyph glyph-name="tilde.cap" horiz-adv-x="300" 
d="M17 715q-2 56 18 86t55 30q19 0 33 -6t29 -14q12 -8 23.5 -13.5t22.5 -5.5q12 0 18.5 8.5t8.5 32.5h58q2 -58 -17 -85t-56 -27q-19 0 -34 5.5t-30 13.5q-14 8 -23.5 13t-20.5 5q-22 0 -25 -43h-60z" />
    <glyph glyph-name="uni03BC" horiz-adv-x="570" 
d="M393 71q-7 -14 -18.5 -28t-27.5 -25.5t-36.5 -18.5t-45.5 -7q-26 0 -49 10t-37 30v-50q0 -20 0.5 -45t1.5 -50t3 -47.5t5 -37.5h-109q-4 10 -6.5 28.5t-4 42.5t-2.5 51t-1 55v508h123v-279q0 -53 21.5 -86t68.5 -33q36 0 61 21t34 45q4 8 5.5 17.5t1.5 20.5v294h123v-339
q0 -36 10 -50t33 -16l-7 -86q-17 -7 -44 -7q-38 0 -64.5 20t-35.5 62h-3z" />
    <glyph glyph-name="uni20BD.taboldstyle" horiz-adv-x="547" 
d="M207 295h53q37 0 61.5 7.5t39.5 20t21 28.5t6 33q0 34 -27.5 58.5t-89.5 24.5q-23 0 -39 -1t-25 -3v-168zM207 215v-55h217v-69h-217v-91h-119v91h-63v69h63v55h-63v80h63v245q32 5 75 9t100 4q118 0 180.5 -45.5t62.5 -120.5q0 -36 -13.5 -67t-43 -54.5t-75.5 -37
t-111 -13.5h-56z" />
    </font>
</defs>
</svg>
