<?xml version="1.0" standalone="no"?>
<!DOCTYPE svg PUBLIC "-//W3C//DTD SVG 1.1//EN" "http://www.w3.org/Graphics/SVG/1.1/DTD/svg11.dtd" >
<svg>
<metadata>
Created by FontForge 20120731 at Mon Jun 22 07:15:54 2015
 By ,,,
(c) 1992, 1994, 1997, 2000, 2004 Adobe Systems Incorporated. All rights reserved.
</metadata>
<defs>
<font id="cf3e1b0a9b33ca38efc7160de34ce24c6d863f32c1ad3794c2a040922a1c704" horiz-adv-x="573" >
  <font-face 
    font-family="cf3e1b0a9b33ca38efc7160de34ce24c6d863f32c1ad3794c2a040922a1c7041"
    font-weight="900"
    font-stretch="normal"
    units-per-em="1000"
    panose-1="2 11 9 3 3 4 3 2 2 4"
    ascent="750"
    descent="-250"
    x-height="492"
    cap-height="674"
    bbox="-166 -250 970 906"
    underline-thickness="50"
    underline-position="-50"
    unicode-range="U+0020-E006"
  />
<missing-glyph horiz-adv-x="500" 
d="M0 700h500v-700h-500v700zM420 650h-340l170 -255zM450 95v510l-170 -255zM420 50l-170 255l-170 -255h340zM50 95l170 255l-170 255v-510z" />
    <glyph glyph-name=".notdef" horiz-adv-x="500" 
d="M0 700h500v-700h-500v700zM420 650h-340l170 -255zM450 95v510l-170 -255zM420 50l-170 255l-170 -255h340zM50 95l170 255l-170 255v-510z" />
    <glyph glyph-name=".null" horiz-adv-x="0" 
 />
    <glyph glyph-name="nonmarkingreturn" horiz-adv-x="333" 
 />
    <glyph glyph-name="space" unicode=" " horiz-adv-x="198" 
 />
    <glyph glyph-name="space" unicode="&#xa0;" horiz-adv-x="198" 
 />
    <glyph glyph-name="exclam" unicode="!" horiz-adv-x="284" 
d="M75 232l-26 442h186l-26 -442h-134zM142 -11q-46 0 -74.5 29t-28.5 74q0 46 28.5 75t74.5 29t73.5 -29t28.5 -75q0 -45 -27.5 -74t-74.5 -29z" />
    <glyph glyph-name="quotedbl" unicode="&#x22;" horiz-adv-x="423" 
d="M184 685l-25 -284h-105l-25 284h155zM395 685l-26 -284h-104l-26 284h156z" />
    <glyph glyph-name="numbersign" unicode="#" 
d="M324 278l14 98h-85l-15 -98h86zM92 0l26 171h-81v107h99l15 98h-83v107h100l25 167h101l-25 -167h86l25 167h102l-25 -167h79v-107h-96l-14 -98h81v-107h-100l-24 -171h-103l25 171h-85l-25 -171h-103z" />
    <glyph glyph-name="dollar" unicode="$" 
d="M228 -88v93q-53 3 -100.5 15.5t-76.5 27.5l32 138q34 -17 79 -30.5t97 -13.5q38 0 62.5 11t24.5 35q0 23 -24 39.5t-80 33.5q-41 13 -75 29.5t-59 39t-38.5 51.5t-13.5 67q0 69 45.5 119t131.5 67v93h113v-85q52 -2 88.5 -11t63.5 -21l-32 -133q-20 8 -57 21t-94 13
q-44 0 -60.5 -13.5t-16.5 -29.5q0 -19 27.5 -35t90.5 -38q94 -32 133 -77t39 -113q0 -70 -47.5 -122t-138.5 -69v-102h-114z" />
    <glyph glyph-name="percent" unicode="%" horiz-adv-x="919" 
d="M218 661q45 0 80 -15t58.5 -41.5t35.5 -61.5t12 -74q0 -51 -16 -89.5t-42.5 -65t-61 -40t-71.5 -13.5q-40 0 -74 14t-59 39.5t-39.5 62t-14.5 80.5q0 41 13 78t37.5 65t60.5 44.5t81 16.5zM216 565q-32 0 -45 -30t-13 -74q0 -47 15 -75.5t44 -28.5q55 0 55 104
q0 45 -12.5 74.5t-43.5 29.5zM227 -11l370 672h93l-370 -672h-93zM706 391q45 0 80 -15.5t58.5 -41.5t35.5 -61t12 -75q0 -51 -16 -89.5t-42.5 -65t-61 -40t-71.5 -13.5q-40 0 -74 14t-59 40t-39.5 62t-14.5 81q0 41 13 78t37.5 65t60.5 44.5t81 16.5zM704 295
q-32 0 -45 -30t-13 -75q0 -47 14.5 -75.5t44.5 -28.5q55 0 55 104q0 46 -13 75.5t-43 29.5z" />
    <glyph glyph-name="ampersand" unicode="&#x26;" horiz-adv-x="710" 
d="M494 0q-9 10 -18.5 20t-17.5 21q-29 -20 -73.5 -36t-106.5 -16q-66 0 -113 17t-77 44.5t-43.5 61.5t-13.5 69q0 66 34 114t93 78v3q-20 21 -35 55t-15 71q0 33 13.5 65.5t40.5 58.5t67.5 42.5t95.5 16.5q42 0 78 -11.5t62.5 -33t41.5 -52t15 -67.5q0 -51 -30.5 -94
t-96.5 -77l-1 -4q23 -25 46 -52t44 -47q20 30 34 71.5t20 78.5h160q-14 -76 -42 -141t-76 -118q29 -35 59.5 -69.5t62.5 -68.5h-208zM302 119q24 0 43 6.5t30 15.5q-32 30 -66.5 68t-69.5 77q-17 -14 -27.5 -32.5t-10.5 -42.5q0 -37 26.5 -64.5t74.5 -27.5zM320 575
q-25 0 -38 -17.5t-13 -38.5t10.5 -42t33.5 -45q30 23 43.5 42.5t13.5 42.5q0 20 -12.5 39t-37.5 19z" />
    <glyph glyph-name="quotesingle" unicode="'" horiz-adv-x="213" 
d="M184 685l-25 -284h-105l-25 284h155z" />
    <glyph glyph-name="parenleft" unicode="(" horiz-adv-x="328" 
d="M287 690q-37 -68 -64 -168.5t-27 -234.5q0 -132 27 -232.5t64 -169.5h-123q-18 28 -37 67.5t-34.5 90t-25 111.5t-9.5 133q0 73 10 134.5t25 111.5t34 89.5t37 67.5h123z" />
    <glyph glyph-name="parenright" unicode=")" horiz-adv-x="328" 
d="M41 -115q37 68 63.5 169.5t26.5 233.5q0 133 -26.5 233.5t-63.5 168.5h122q18 -28 37 -67t34.5 -89.5t25.5 -111.5t10 -134q0 -72 -10 -133.5t-25.5 -111.5t-34.5 -89.5t-37 -68.5h-122z" />
    <glyph glyph-name="asterisk" unicode="*" horiz-adv-x="471" 
d="M390 628l-112 -128v-3l163 38v-116l-165 31v-2l114 -125l-100 -58l-56 160l-2 -1l-54 -159l-99 58l113 127l-1 1l-161 -32v116l159 -38l1 3l-111 128l101 57l53 -159h2l56 159z" />
    <glyph glyph-name="plus" unicode="+" horiz-adv-x="596" 
d="M354 532v-211h202v-108h-202v-213h-112v213h-202v108h202v211h112z" />
    <glyph glyph-name="comma" unicode="," horiz-adv-x="283" 
d="M-5 -117q55 154 79 303l179 10q-28 -82 -62.5 -158t-76.5 -145z" />
    <glyph glyph-name="hyphen" unicode="-" horiz-adv-x="328" 
d="M298 318v-117h-268v117h268z" />
    <glyph glyph-name="period" unicode="." horiz-adv-x="283" 
d="M152 -11q-46 0 -74.5 29.5t-28.5 75.5q0 47 29 76t74 29t73.5 -28.5t29.5 -76.5q0 -46 -28.5 -75.5t-74.5 -29.5z" />
    <glyph glyph-name="slash" unicode="/" horiz-adv-x="326" 
d="M24 -40l186 725h115l-186 -725h-115z" />
    <glyph glyph-name="zero" unicode="0" 
d="M288 661q71 0 119.5 -29t78.5 -76.5t43 -107.5t13 -122q0 -72 -15.5 -133.5t-47 -106.5t-79.5 -71t-114 -26q-70 0 -118.5 28.5t-79 75.5t-44 107t-13.5 124q0 66 14.5 127t45 107.5t79.5 74.5t118 28zM288 525q-35 0 -56 -47t-21 -153q-1 -106 20 -153.5t57 -47.5
q35 0 54.5 47.5t19.5 153.5q0 103 -19.5 151.5t-54.5 48.5z" />
    <glyph glyph-name="one" unicode="1" 
d="M236 491h-2l-128 -57l-29 134l185 82h148v-650h-174v491z" />
    <glyph glyph-name="two" unicode="2" 
d="M41 0v109l90 79q99 86 149 142.5t51 106.5q0 35 -23.5 57.5t-73.5 22.5q-41 0 -76.5 -16.5t-62.5 -35.5l-49 129q38 27 96.5 47t128.5 20q114 0 177 -56.5t63 -153.5q0 -39 -13 -74t-34 -66.5t-48 -59t-56 -50.5l-64 -51v-2h227v-148h-482z" />
    <glyph glyph-name="three" unicode="3" 
d="M71 170q10 -5 26.5 -12t37 -13t44 -10t46.5 -4q48 0 77 17t29 52q0 20 -9.5 34.5t-25.5 24.5t-37 14.5t-43 4.5h-67v128h64q17 0 35 3t33 9.5t24.5 18t9.5 28.5q0 25 -22.5 40t-65.5 15q-20 0 -40.5 -4t-39 -9.5t-33.5 -12t-25 -11.5l-34 129q31 20 88.5 34.5t125.5 14.5
q54 0 96.5 -12.5t71.5 -35t44.5 -52.5t15.5 -65q0 -52 -29 -90.5t-89 -59.5v-2q29 -5 54.5 -18t44 -33t29.5 -46.5t11 -57.5q0 -45 -19.5 -81.5t-56 -63t-88 -41t-114.5 -14.5q-67 0 -120 13.5t-83 32.5z" />
    <glyph glyph-name="four" unicode="4" 
d="M309 0v146h-282v116l226 388h226v-371h72v-133h-72v-146h-170zM309 279v112q0 31 1.5 63t3.5 67h-4q-16 -33 -30.5 -65t-32.5 -66l-55 -109l-1 -2h118z" />
    <glyph glyph-name="five" unicode="5" 
d="M495 503h-255l-9 -71q11 2 20 2h18q51 0 100 -12.5t85 -39.5q72 -54 72 -162q0 -45 -19.5 -86.5t-57 -73.5t-92.5 -51.5t-126 -19.5q-62 0 -111 11t-78 25l30 134q23 -10 64 -20t85 -10q21 0 42 4t38.5 13.5t28.5 25t11 38.5q0 45 -42 68.5t-139 23.5q-26 0 -46 -1.5
t-40 -3.5l42 353h379v-147z" />
    <glyph glyph-name="six" unicode="6" 
d="M475 521q-13 2 -26 1.5t-30 -1.5q-50 -2 -86 -13t-60.5 -27.5t-39 -38t-21.5 -44.5h4q48 41 129 41q40 0 77 -13.5t65 -40.5t45 -67t17 -92q0 -50 -19 -93t-52.5 -75t-79 -50.5t-99.5 -18.5q-71 0 -122 24t-84 63.5t-48.5 91.5t-15.5 108q0 91 31 164.5t86 123.5
q104 92 269 95q22 2 35.5 1t24.5 -2v-137zM296 120q33 0 51.5 28t18.5 69q0 17 -4.5 34.5t-14 31t-24.5 22t-37 8.5q-27 0 -46.5 -14t-27.5 -34q-5 -10 -5 -38q1 -20 6.5 -39t16.5 -34t27 -24.5t39 -9.5z" />
    <glyph glyph-name="seven" unicode="7" 
d="M526 650v-112l-261 -538h-192l262 500v2h-290v148h481z" />
    <glyph glyph-name="eight" unicode="8" 
d="M281 -11q-67 0 -114.5 16.5t-78 43t-44.5 59t-14 64.5q0 58 29.5 97t80.5 62v2q-45 24 -67 61t-22 80t18.5 77.5t50.5 59t76 37.5t95 13q61 0 104.5 -15.5t70.5 -40t39.5 -55t12.5 -59.5q0 -42 -22.5 -79.5t-66.5 -60.5v-2q21 -8 41.5 -21.5t37 -33t26.5 -45.5t10 -59
q0 -45 -18 -82t-52 -63.5t-83 -41t-110 -14.5zM289 111q32 0 51.5 19t19.5 48q0 35 -24.5 58.5t-60.5 32.5q-29 -8 -45.5 -29t-16.5 -51q0 -15 5.5 -29t15.5 -25t24 -17.5t31 -6.5zM284 541q-32 0 -48 -18.5t-16 -43.5q0 -26 23 -45t55 -30q20 5 36 24t16 43
q0 27 -15.5 48.5t-50.5 21.5z" />
    <glyph glyph-name="nine" unicode="9" 
d="M87 130q15 -2 28 -2t36 1q34 1 66.5 9t57.5 22q32 18 52.5 43.5t28.5 53.5l-3 2q-20 -18 -49 -27.5t-71 -9.5q-40 0 -77.5 13t-66 39t-46 64t-17.5 88q0 48 19 91t53 75t80.5 50.5t102.5 18.5q68 0 117 -23.5t80.5 -63t46.5 -90.5t15 -105q0 -100 -29.5 -173t-85.5 -124
q-99 -89 -274 -92q-17 -1 -34.5 0t-29.5 2v138zM277 531q-31 0 -52 -25.5t-20 -68.5q0 -17 4.5 -33t14 -29t24 -20.5t34.5 -7.5q26 0 42.5 9.5t24.5 22.5q4 7 5 16t1 24q0 19 -3.5 39t-12.5 36t-24.5 26.5t-37.5 10.5z" />
    <glyph glyph-name="colon" unicode=":" horiz-adv-x="283" 
d="M152 299q-46 0 -74 29.5t-28 74.5q0 46 28.5 75t73.5 29t73 -28.5t29 -75.5q0 -45 -28 -74.5t-74 -29.5zM152 -11q-46 0 -74 29.5t-28 74.5t28.5 74.5t73.5 29.5t73 -28.5t29 -75.5q0 -45 -28 -74.5t-74 -29.5z" />
    <glyph glyph-name="semicolon" unicode=";" horiz-adv-x="283" 
d="M-5 -117q55 154 79 303l178 10q-28 -82 -62.5 -158t-76.5 -145zM156 299q-46 0 -74 29.5t-28 74.5q0 46 28.5 75t73.5 29q46 0 73.5 -28.5t28.5 -75.5q0 -45 -27.5 -74.5t-74.5 -29.5z" />
    <glyph glyph-name="less" unicode="&#x3c;" horiz-adv-x="596" 
d="M54 316l488 216v-122l-352 -143v-2l352 -143v-122l-488 216v100z" />
    <glyph glyph-name="equal" unicode="=" horiz-adv-x="596" 
d="M40 319v108h516v-108h-516zM40 108v107h516v-107h-516z" />
    <glyph glyph-name="greater" unicode="&#x3e;" horiz-adv-x="596" 
d="M542 212l-488 -212v122l362 143v2l-362 144v121l488 -212v-108z" />
    <glyph glyph-name="question" unicode="?" horiz-adv-x="463" 
d="M137 230l-1 26q-1 38 12 74.5t45 74.5q20 24 37 46.5t17 44.5q0 20 -15 33t-48 15q-25 0 -52 -7.5t-47 -21.5l-38 129q29 15 73.5 28t104.5 13q52 0 90.5 -13t63.5 -34.5t37 -50.5t12 -61q0 -30 -8.5 -55t-21.5 -45t-28 -36.5t-28 -30.5q-48 -51 -48 -114l-1 -15h-156z
M211 -11q-46 0 -74 29t-28 74q0 46 28.5 74.5t73.5 29.5q46 0 74 -29t29 -75q0 -45 -28 -74t-75 -29z" />
    <glyph glyph-name="at" unicode="@" horiz-adv-x="784" 
d="M452 335q-11 3 -23 3q-21 0 -39 -10t-31.5 -27.5t-21 -40t-7.5 -47.5q0 -56 42 -56q21 0 42 24.5t26 66.5zM555 -70q-23 -10 -44.5 -16.5t-43.5 -10.5t-46 -5.5t-51 -1.5q-62 0 -119.5 21.5t-101 62.5t-69.5 99.5t-26 132.5q0 76 27 145t76.5 121t119.5 83t155 31
q66 0 122.5 -21.5t97.5 -60t64 -91.5t23 -116q0 -54 -14.5 -98.5t-40.5 -75.5t-61.5 -48t-78.5 -17q-38 0 -61 18.5t-29 54.5h-3q-22 -35 -53.5 -54t-69.5 -19q-51 0 -82.5 35t-31.5 98q0 46 16 87.5t46 73t73 50.5t98 19q34 0 70 -7t54 -18l-28 -187q-6 -38 -1.5 -56.5
t24.5 -19.5q15 -1 31 8t29.5 29t22 51t8.5 74q0 46 -15 87t-45 71t-74 47.5t-102 17.5q-56 0 -107 -21t-90 -60t-62 -94.5t-23 -125.5q0 -63 19 -111t52.5 -81t80.5 -49.5t103 -16.5q36 0 74.5 7.5t68.5 21.5z" />
    <glyph glyph-name="A" unicode="A" horiz-adv-x="675" 
d="M239 156l-38 -156h-187l196 674h240l201 -674h-195l-43 156h-174zM388 290l-31 121q-8 29 -16.5 66t-16.5 67h-2q-8 -30 -15 -67.5t-15 -66.5l-29 -120h125z" />
    <glyph glyph-name="B" unicode="B" horiz-adv-x="631" 
d="M62 665q15 3 38.5 5.5t52 4.5t60 3t62.5 1q72 0 119 -6.5t87 -26.5q39 -18 65 -53.5t26 -84.5q0 -43 -25 -81t-85 -61v-2q63 -17 97.5 -60.5t34.5 -103.5q0 -48 -20.5 -84.5t-54.5 -62.5q-38 -29 -104.5 -44.5t-174.5 -15.5q-62 0 -106 3t-72 8v661zM241 415h36
q58 0 86 19t28 51q0 30 -22.5 47.5t-68.5 17.5q-23 0 -36.5 -1t-22.5 -3v-131zM241 127q10 -2 22.5 -2h29.5q45 0 78 19.5t33 63.5q0 43 -34.5 61t-85.5 18h-43v-160z" />
    <glyph glyph-name="C" unicode="C" horiz-adv-x="602" 
d="M567 17q-20 -9 -64.5 -18t-105.5 -9q-95 0 -163.5 27.5t-112.5 73.5t-65.5 107t-21.5 128q0 89 30.5 156.5t82 112.5t119.5 67.5t143 22.5q59 0 103.5 -9.5t65.5 -20.5l-35 -142q-23 9 -53.5 16.5t-71.5 7.5q-39 0 -74 -11.5t-62 -36t-42.5 -62t-15.5 -89.5
q0 -93 51.5 -146t145.5 -53q33 0 66.5 6t54.5 14z" />
    <glyph glyph-name="D" unicode="D" horiz-adv-x="710" 
d="M62 665q44 7 99.5 10.5t115.5 3.5q97 0 162 -16.5t115 -50.5q56 -38 89 -101.5t33 -157.5q0 -51 -9 -93.5t-25 -77t-37.5 -61t-46.5 -45.5q-56 -44 -136 -63.5t-180 -19.5q-66 0 -110 3t-70 8v661zM243 135q7 -2 18 -2h20q44 -1 81 11t64 38.5t42.5 67.5t15.5 98
q0 49 -14 85.5t-38.5 60.5t-59 35.5t-74.5 11.5q-22 0 -35 -1t-20 -3v-402z" />
    <glyph glyph-name="E" unicode="E" horiz-adv-x="552" 
d="M485 272h-242v-124h271v-148h-452v674h438v-147h-257v-109h242v-146z" />
    <glyph glyph-name="F" unicode="F" horiz-adv-x="545" 
d="M62 674h433v-147h-252v-125h237v-146h-237v-256h-181v674z" />
    <glyph glyph-name="G" unicode="G" horiz-adv-x="697" 
d="M646 32q-19 -6 -45 -13t-56.5 -13t-64 -9.5t-66.5 -3.5q-100 0 -169 23.5t-115 67.5q-48 45 -72 108t-24 136q0 88 31 154t84 110t125 66.5t154 22.5q69 0 119 -10t76 -23l-36 -144q-29 12 -65.5 20t-94.5 8q-42 0 -78.5 -11t-64.5 -35t-44 -61t-16 -88q0 -47 14.5 -84
t40 -62.5t60.5 -39t77 -13.5q18 0 34 2t22 4v116h-90v140h264v-368z" />
    <glyph glyph-name="H" unicode="H" horiz-adv-x="705" 
d="M243 674v-249h219v249h180v-674h-180v267h-219v-267h-181v674h181z" />
    <glyph glyph-name="I" unicode="I" horiz-adv-x="305" 
d="M243 674v-674h-181v674h181z" />
    <glyph glyph-name="J" unicode="J" horiz-adv-x="429" 
d="M191 674h181v-416q0 -74 -17 -125t-50 -83t-80.5 -46.5t-108.5 -14.5q-28 0 -61 4t-58 12l19 145q17 -5 37 -8t42 -3t39.5 5.5t30 19t19.5 36.5t7 58v416z" />
    <glyph glyph-name="K" unicode="K" horiz-adv-x="646" 
d="M62 674h179v-286h2q11 19 22 37.5t22 36.5l129 212h222l-214 -287l222 -387h-209l-142 273l-54 -69v-204h-179v674z" />
    <glyph glyph-name="L" unicode="L" horiz-adv-x="528" 
d="M62 674h181v-523h259v-151h-440v674z" />
    <glyph glyph-name="M" unicode="M" horiz-adv-x="865" 
d="M632 241q-2 58 -3 125.5t0 146.5h-3q-16 -67 -35 -137.5t-36 -126.5l-67 -235h-141l-57 234q-13 55 -27.5 125.5t-25.5 139.5h-2q-3 -72 -6 -143t-5 -129l-10 -241h-166l41 674h243l45 -181q14 -57 27.5 -121t24.5 -126h4q14 62 30 128t31 120l50 180h238l34 -674h-176z
" />
    <glyph glyph-name="N" unicode="N" horiz-adv-x="705" 
d="M62 0v674h213l107 -207q28 -51 55.5 -113.5t50.5 -122.5h3q-8 67 -11 137.5t-3 146.5v159h165v-674h-190l-114 224q-29 54 -59.5 118t-54.5 126h-3q6 -137 6 -302v-166h-165z" />
    <glyph glyph-name="O" unicode="O" horiz-adv-x="730" 
d="M369 685q81 0 142.5 -28t102.5 -75t61.5 -109t20.5 -129q0 -81 -23.5 -147t-67.5 -112t-106.5 -71t-140.5 -25t-138.5 27.5t-102 74.5t-62.5 109.5t-21 132.5q0 73 23.5 137.5t67 112t105.5 75t139 27.5zM366 542q-32 0 -58 -15t-44.5 -42t-28.5 -65t-10 -84
q0 -95 38 -149.5t104 -54.5q33 0 58.5 15t43 42.5t27 65.5t9.5 83q0 43 -9.5 80.5t-27.5 65t-43.5 43t-58.5 15.5z" />
    <glyph glyph-name="P" unicode="P" horiz-adv-x="602" 
d="M62 665q37 6 91 10t132 4q144 0 213 -53q35 -26 56 -68.5t21 -94.5q0 -51 -16.5 -94t-48.5 -72q-42 -37 -99 -53.5t-126 -16.5q-13 0 -24.5 0.5t-19.5 1.5v-229h-179v665zM241 367q8 -1 17.5 -1.5t23.5 -0.5q54 0 84.5 25t30.5 69q0 38 -25.5 61t-76.5 23q-20 0 -33.5 -1
t-20.5 -3v-172z" />
    <glyph glyph-name="Q" unicode="Q" horiz-adv-x="730" 
d="M647 -123q-37 11 -70 22.5t-65.5 23.5t-65.5 26t-69 29q-11 5 -24 7.5t-25 3.5q-56 4 -109 27t-94 65.5t-66 105t-25 145.5q0 73 23 137.5t66.5 112.5t106 75.5t141.5 27.5q81 0 141.5 -28t101.5 -75t61.5 -108.5t20.5 -128.5q0 -54 -11.5 -100.5t-31.5 -84t-46 -64
t-56 -41.5v-5q34 -11 71.5 -19.5t75.5 -16.5zM366 132q33 0 59 15t43.5 42t27 65t9.5 84q0 44 -9.5 81.5t-27.5 64.5t-43.5 42.5t-58.5 15.5q-32 0 -58 -15.5t-44.5 -42.5t-28.5 -64.5t-10 -82.5t10 -83t28 -65t44 -42t59 -15z" />
    <glyph glyph-name="R" unicode="R" horiz-adv-x="617" 
d="M62 665q38 6 94 10t124 4q78 0 134 -11.5t94 -40.5q32 -25 49.5 -61t17.5 -86q0 -32 -10.5 -58.5t-27.5 -47.5t-37.5 -35.5t-40.5 -21.5v-4q34 -14 53.5 -45t32.5 -75q8 -26 16 -55.5t15 -57t13.5 -49t11.5 -31.5h-185q-8 15 -20 53.5t-27 101.5q-7 30 -15.5 49.5t-20 30
t-27 14.5t-36.5 4h-29v-253h-179v665zM241 382h47q51 0 79 23t28 61t-24 58.5t-69 21.5q-26 0 -40 -1t-21 -3v-160z" />
    <glyph glyph-name="S" unicode="S" horiz-adv-x="561" 
d="M74 180q31 -16 77.5 -29t97.5 -13q47 0 69.5 14.5t22.5 40.5q0 25 -24.5 41.5t-81.5 36.5q-86 30 -137.5 79t-51.5 124q0 45 18.5 83.5t53 67t84.5 44.5t114 16q61 0 105 -10t78 -25l-38 -144q-22 10 -59 21t-88 11q-42 0 -63.5 -13.5t-21.5 -36.5q0 -13 7 -22.5
t21.5 -18.5t37.5 -18t55 -21q91 -33 133.5 -82.5t42.5 -120.5q0 -44 -17.5 -83t-53 -68t-89.5 -46.5t-128 -17.5q-61 0 -115 13t-83 28z" />
    <glyph glyph-name="T" unicode="T" horiz-adv-x="570" 
d="M193 523h-172v151h528v-151h-175v-523h-181v523z" />
    <glyph glyph-name="U" unicode="U" horiz-adv-x="697" 
d="M242 674v-382q0 -77 26 -118.5t80 -41.5q107 0 107 160v382h181v-372q0 -157 -75 -235t-218 -78q-139 0 -210.5 77.5t-71.5 240.5v367h181z" />
    <glyph glyph-name="V" unicode="V" horiz-adv-x="671" 
d="M226 0l-214 674h198l71 -265q17 -57 30.5 -113.5t25.5 -122.5h2q13 63 27 121t29 112l73 268h192l-221 -674h-213z" />
    <glyph glyph-name="W" unicode="W" horiz-adv-x="906" 
d="M170 0l-155 674h194l39 -250q9 -59 18 -122t17 -115h2q8 57 18 117t21 122l43 248h193l42 -260q9 -58 16 -111.5t14 -110.5h2q8 57 16.5 115.5t17.5 118.5l40 248h183l-166 -674h-197l-45 264q-8 45 -14.5 93.5t-13.5 108.5h-2q-8 -60 -15.5 -109t-16.5 -94l-51 -263
h-200z" />
    <glyph glyph-name="X" unicode="X" horiz-adv-x="631" 
d="M410 0l-50 110q-14 32 -26 60t-26 57h-2q-9 -29 -20 -56.5t-23 -59.5l-45 -111h-205l189 341l-183 333h208l45 -107q14 -30 24 -56t21 -55h3q11 33 19.5 57.5t19.5 52.5l42 108h206l-184 -329l196 -345h-209z" />
    <glyph glyph-name="Y" unicode="Y" horiz-adv-x="629" 
d="M220 0v272l-213 402h207l57 -152q14 -35 24.5 -63.5t21.5 -60.5h2q10 31 20.5 60t22.5 64l56 152h203l-221 -395v-279h-180z" />
    <glyph glyph-name="Z" unicode="Z" horiz-adv-x="588" 
d="M21 96l298 425v4h-270v149h504v-103l-289 -418v-4h294v-149h-537v96z" />
    <glyph glyph-name="bracketleft" unicode="[" horiz-adv-x="328" 
d="M63 -113v797h213v-96h-86v-604h86v-97h-213z" />
    <glyph glyph-name="backslash" unicode="\" horiz-adv-x="326" 
d="M187 -40l-171 725h115l171 -725h-115z" />
    <glyph glyph-name="bracketright" unicode="]" horiz-adv-x="328" 
d="M265 686v-798h-213v97h86v605h-86v96h213z" />
    <glyph glyph-name="asciicircum" unicode="^" horiz-adv-x="596" 
d="M436 172l-137 343h-3l-138 -343h-123l211 478h105l211 -478h-126z" />
    <glyph glyph-name="underscore" unicode="_" horiz-adv-x="500" 
d="M500 -75v-50h-500v50h500z" />
    <glyph glyph-name="grave" unicode="`" horiz-adv-x="300" 
d="M156 706l85 -156h-122l-123 156h160z" />
    <glyph glyph-name="a" unicode="a" horiz-adv-x="548" 
d="M339 0l-10 43h-3q-26 -29 -61.5 -41.5t-75.5 -12.5q-38 0 -68 12.5t-51 34t-32 49.5t-11 59q0 49 21 85t59 59.5t90 35t115 11.5v4q0 7 -3.5 14.5t-12.5 13.5t-24.5 10t-39.5 4q-39 0 -77 -11.5t-62 -25.5l-32 115q24 12 75.5 28t128.5 16q63 0 106.5 -16.5t70.5 -46
t39 -69t12 -85.5v-166q0 -37 1.5 -69t6.5 -51h-162zM318 225q-55 0 -85 -16t-30 -48q0 -23 14 -35t37 -12q20 0 38 12.5t24 32.5q2 6 2 12.5v13.5v40z" />
    <glyph glyph-name="b" unicode="b" horiz-adv-x="610" 
d="M52 0q2 24 3 67t1 89v554h180v-268h2q21 28 56.5 44.5t83.5 16.5q44 0 81 -17.5t64 -49.5t42 -77.5t14 -102.5q0 -67 -19.5 -117t-51 -83.5t-72 -50t-83.5 -16.5q-39 0 -77 16t-63 58h-2l-7 -63h-152zM236 214q0 -7 0.5 -13.5t1.5 -11.5q5 -23 24.5 -41t46.5 -18
q40 0 63.5 29.5t23.5 88.5q0 51 -21 84t-66 33q-26 0 -46 -17.5t-25 -43.5q-1 -6 -1.5 -12t-0.5 -12v-66z" />
    <glyph glyph-name="c" unicode="c" horiz-adv-x="452" 
d="M433 10q-23 -10 -58.5 -15t-77.5 -5q-61 0 -110.5 17.5t-84 50t-53 79t-18.5 105.5q0 52 18 99.5t54 83.5t90 57t126 21q27 0 57.5 -4t56.5 -13l-26 -133q-13 5 -31.5 9t-45.5 4q-51 0 -83 -32t-32 -86q0 -30 9.5 -52t26 -37t38 -22t45.5 -7q23 0 42.5 2.5t36.5 9.5z" />
    <glyph glyph-name="d" unicode="d" horiz-adv-x="610" 
d="M554 710v-554q0 -46 1 -88.5t3 -67.5h-160l-7 67h-2q-25 -42 -65.5 -60t-83.5 -18t-81 18t-66.5 51t-45 80t-16.5 105q0 62 18 110.5t48.5 81.5t70 50.5t83.5 17.5q41 0 72.5 -12t48.5 -35h2v254h180zM374 280v11t-1 12q-5 26 -24 44.5t-48 18.5q-23 0 -39 -9.5
t-27 -25.5t-16 -38t-5 -46q0 -57 24.5 -86t62.5 -29q27 0 46 17t24 42q3 15 3 33v56z" />
    <glyph glyph-name="e" unicode="e" horiz-adv-x="539" 
d="M202 183q5 -29 41.5 -45t84.5 -16q35 0 68.5 4t66.5 15l23 -120q-45 -18 -91.5 -24.5t-92.5 -6.5q-131 0 -201 66.5t-70 184.5q0 43 14.5 89.5t45 84.5t79 63t116.5 25q60 0 102.5 -20.5t70.5 -55t41 -80t13 -96.5q0 -23 -2.5 -41t-4.5 -27h-304zM347 305q0 10 -3 24
t-10.5 26.5t-21.5 21t-35 8.5q-20 0 -34 -8t-23 -20t-14 -26t-6 -26h147z" />
    <glyph glyph-name="f" unicode="f" horiz-adv-x="363" 
d="M77 0v360h-63v132h63v17q0 20 3.5 42t11.5 43.5t20 41t29 34.5q31 29 69.5 40t73.5 11q26 0 46 -2t37 -7l-4 -138q-20 6 -46 6q-29 0 -45 -18.5t-16 -45.5v-24h90v-132h-88v-360h-181z" />
    <glyph glyph-name="g" unicode="g" horiz-adv-x="596" 
d="M545 492q-2 -23 -3.5 -57.5t-1.5 -94.5v-268q0 -65 -16 -123t-60 -97q-43 -36 -97 -48.5t-111 -12.5q-51 0 -99.5 9.5t-83.5 27.5l34 136q23 -13 61.5 -24.5t80.5 -11.5q48 0 81 27t33 84v22h-2q-23 -29 -54.5 -42t-68.5 -13q-45 0 -83 17t-65.5 48.5t-43 75.5t-15.5 98
q0 58 17.5 105.5t48 81.5t71 52.5t86.5 18.5q45 0 76 -16.5t51 -46.5h2l6 52h156zM360 289q0 5 -0.5 11.5t-1.5 11.5q-6 26 -22.5 41t-41.5 15q-32 0 -56 -30.5t-24 -89.5q0 -48 21 -79.5t59 -31.5q25 0 41.5 14.5t21.5 34.5q2 8 2.5 18.5t0.5 18.5v66z" />
    <glyph glyph-name="h" unicode="h" horiz-adv-x="599" 
d="M56 710h180v-270h2q24 28 58 46q16 8 35.5 12.5t39.5 4.5q84 0 128 -56.5t44 -161.5v-285h-180v265q0 44 -15 68.5t-49 24.5q-26 0 -39 -12.5t-19 -26.5q-3 -6 -4 -14.5t-1 -14.5v-290h-180v710z" />
    <glyph glyph-name="i" unicode="i" horiz-adv-x="292" 
d="M56 0v492h180v-492h-180zM146 713q42 0 66.5 -24t25.5 -61q0 -36 -25 -61t-68 -25q-42 0 -66.5 25t-24.5 61q0 37 25 61t67 24z" />
    <glyph glyph-name="j" unicode="j" horiz-adv-x="312" 
d="M-37 -69q29 3 51 9.5t36 20.5q16 16 22.5 49.5t6.5 100.5v381h180v-419q0 -85 -19 -136.5t-54 -83.5q-36 -32 -89.5 -47t-116.5 -15zM169 713q42 0 66.5 -24t24.5 -61q1 -36 -24 -61t-69 -25q-42 0 -66 25t-24 61q0 37 25 61t67 24z" />
    <glyph glyph-name="k" unicode="k" horiz-adv-x="575" 
d="M236 292h2q8 17 16 31.5t16 28.5l81 140h215l-170 -198l195 -294h-222l-97 188l-36 -48v-140h-180v710h180v-418z" />
    <glyph glyph-name="l" unicode="l" horiz-adv-x="292" 
d="M56 710h180v-710h-180v710z" />
    <glyph glyph-name="m" unicode="m" horiz-adv-x="871" 
d="M56 325q0 49 -1 91t-3 76h151l7 -61h4q7 9 18.5 21.5t29 23.5t41.5 19t56 8q48 0 82.5 -20.5t50.5 -57.5h2q15 19 31.5 33.5t36.5 24.5q38 20 87 20q80 0 123.5 -55t43.5 -158v-290h-175v263q0 46 -14 71t-44 25q-22 0 -35.5 -12.5t-19.5 -29.5q-3 -8 -4 -18t-1 -18v-281
h-175v268q0 42 -13.5 66.5t-43.5 24.5q-25 0 -37.5 -14t-17.5 -27q-4 -8 -4.5 -17.5t-0.5 -18.5v-282h-175v325z" />
    <glyph glyph-name="n" unicode="n" horiz-adv-x="599" 
d="M56 325q0 49 -1 91t-3 76h155l8 -63h4q7 10 19 22.5t30.5 24t42.5 19.5t55 8q87 0 132 -55.5t45 -157.5v-290h-180v268q0 43 -15.5 66.5t-47.5 23.5q-26 0 -39.5 -14.5t-19.5 -28.5q-3 -7 -4 -16.5t-1 -19.5v-279h-180v325z" />
    <glyph glyph-name="o" unicode="o" horiz-adv-x="589" 
d="M302 503q58 0 105 -18.5t80.5 -52t52 -80t18.5 -101.5q0 -67 -22 -116.5t-59 -81.5t-85 -48t-100 -16q-55 0 -102.5 17t-83 50t-55.5 80t-20 107q0 58 18.5 106t54 82.5t85.5 53t113 18.5zM296 376q-22 0 -37 -11t-24.5 -29.5t-13.5 -42t-4 -47.5q0 -55 19 -92.5
t61 -37.5q36 0 55.5 35t19.5 95q0 25 -4.5 48.5t-13.5 41.5t-23.5 29t-34.5 11z" />
    <glyph glyph-name="p" unicode="p" horiz-adv-x="610" 
d="M56 325q0 49 -1 90.5t-3 76.5h155l8 -62h2q56 73 159 73q39 0 75.5 -16.5t65 -49t45.5 -79t17 -106.5q0 -68 -20 -117.5t-52 -81.5t-72 -48t-80 -16q-42 0 -72.5 14t-44.5 33h-2v-234h-180v523zM236 215q0 -17 3 -30q5 -24 24 -41.5t46 -17.5q41 0 64 32t23 86
q0 52 -21 85.5t-64 33.5q-27 0 -47.5 -19t-25.5 -45q-2 -5 -2 -11v-12v-61z" />
    <glyph glyph-name="q" unicode="q" horiz-adv-x="610" 
d="M374 56h-2q-47 -67 -139 -67q-39 0 -75 17t-64.5 49t-45.5 78.5t-17 106.5q0 65 18.5 114t49 82t69 50t78.5 17q44 0 76 -14t55 -47l2 -1l4 51h175q-2 -38 -3 -76.5t-1 -76.5v-537h-180v254zM374 282v10t-2 10q-5 25 -23.5 43t-47.5 18q-45 0 -66 -33t-21 -84
q0 -57 24.5 -86.5t61.5 -29.5q28 0 47 17.5t24 40.5q2 7 2.5 14.5t0.5 14.5v65z" />
    <glyph glyph-name="r" unicode="r" horiz-adv-x="403" 
d="M56 326q0 59 -1 97t-3 69h154l6 -89h4q10 28 25.5 47t34 31t37 17t34.5 5q12 0 19 -0.5t17 -2.5v-169q-10 2 -21 3.5t-25 1.5q-40 0 -65.5 -16t-32.5 -46q-3 -14 -3 -31v-243h-180v326z" />
    <glyph glyph-name="s" unicode="s" horiz-adv-x="451" 
d="M60 151q10 -6 26.5 -13t35.5 -12t38.5 -8.5t36.5 -3.5q29 0 41 6.5t12 20.5t-12 22t-52 21q-81 26 -113 66.5t-31 83.5q0 37 15 68t42.5 53.5t67 35t87.5 12.5q46 0 84.5 -8.5t62.5 -19.5l-29 -122q-17 8 -48 17.5t-61 9.5q-49 0 -49 -28q0 -12 15 -21.5t59 -23.5
q73 -24 103.5 -61.5t31.5 -91.5q0 -35 -14 -65t-41.5 -52t-70 -34.5t-99.5 -12.5q-51 0 -95 9.5t-73 24.5z" />
    <glyph glyph-name="t" unicode="t" horiz-adv-x="383" 
d="M253 632v-140h102v-132h-102v-141q0 -45 12.5 -64t44.5 -19q14 0 24.5 1t18.5 3v-137q-16 -5 -44 -9t-63 -4q-40 0 -71.5 12t-51.5 32q-23 23 -34.5 60t-11.5 94v172h-61v132h61v100z" />
    <glyph glyph-name="u" unicode="u" horiz-adv-x="598" 
d="M541 168q0 -53 1 -94.5t3 -73.5h-155l-8 65h-4q-7 -10 -18.5 -23t-29.5 -25t-43 -20t-58 -8q-83 0 -128.5 53t-45.5 160v290h180v-261q0 -97 63 -97q26 0 39.5 14t18.5 28q5 9 5 26v290h180v-324z" />
    <glyph glyph-name="v" unicode="v" horiz-adv-x="551" 
d="M204 492l53 -209q8 -29 13 -58l10 -58h3q5 30 9.5 57.5t12.5 58.5l49 209h189l-179 -492h-181l-175 492h196z" />
    <glyph glyph-name="w" unicode="w" horiz-adv-x="769" 
d="M191 492l29 -181q6 -37 12 -78t12 -85h2q7 44 16 85.5t17 76.5l39 182h141l37 -175q9 -42 17.5 -83.5t15.5 -85.5h2q5 44 11 86.5t13 84.5l30 173h176l-147 -492h-170l-34 146q-8 35 -13.5 68.5t-13.5 81.5h-2q-5 -48 -11.5 -82t-14.5 -66l-36 -148h-170l-141 492h183z
" />
    <glyph glyph-name="x" unicode="x" horiz-adv-x="544" 
d="M204 492l39 -72q10 -18 19 -36t17 -35h3q8 20 16 38l16 36l33 69h195l-159 -233l160 -259h-204l-39 79q-9 17 -17 34.5t-15 35.5h-3q-8 -19 -16 -36t-15 -34l-36 -79h-197l163 251l-161 241h201z" />
    <glyph glyph-name="y" unicode="y" horiz-adv-x="545" 
d="M205 492l59 -221q5 -20 10.5 -44.5t10.5 -42.5h4q5 19 9 43t9 44l45 221h192l-105 -312q-28 -78 -51.5 -132t-44.5 -92t-40.5 -62.5t-39.5 -42.5q-42 -37 -85.5 -52.5t-77.5 -18.5l-37 152q14 2 29 6.5t32 11.5t33.5 20.5t24.5 24.5q10 12 10 22q0 9 -7 27l-180 448h200z
" />
    <glyph glyph-name="z" unicode="z" horiz-adv-x="486" 
d="M24 103l126 153q23 26 41.5 47t41.5 44v3h-193v142h414v-107l-118 -144q-22 -26 -43.5 -50t-44.5 -46v-2h215v-143h-439v103z" />
    <glyph glyph-name="braceleft" unicode="{" horiz-adv-x="328" 
d="M31 331q25 1 40 8t22.5 16.5t9.5 20.5t2 21q0 17 -1.5 36.5t-3.5 39.5t-3 39.5t-1 37.5q0 72 41 104t114 32h41v-97h-18q-29 0 -41 -17.5t-12 -47.5q0 -11 1 -23.5t3 -26.5t3 -30.5t1 -35.5q1 -60 -22.5 -85t-68.5 -34v-2q22 -5 39.5 -12.5t29 -21.5t17 -35t5.5 -51
q0 -20 -1 -36.5t-3 -30.5t-3 -26t-1 -23q0 -30 11 -48t42 -18h18v-97h-42q-70 0 -112 31t-42 105q0 18 1 37.5t3 39.5t3.5 39.5t1.5 37.5q0 10 -2 21t-9.5 20.5t-22.5 16t-40 8.5v87z" />
    <glyph glyph-name="bar" unicode="|" horiz-adv-x="302" 
d="M213 750v-1000h-124v1000h124z" />
    <glyph glyph-name="braceright" unicode="}" horiz-adv-x="328" 
d="M296 244q-25 -2 -39.5 -8.5t-22 -16t-9.5 -20.5t-2 -21q0 -18 1.5 -37.5t3.5 -39.5t3 -39.5t1 -37.5q0 -74 -42 -105t-112 -31h-42v97h17q32 1 43 18.5t11 47.5q0 11 -1 23t-3 26t-3 30.5t-1 36.5q-1 30 4.5 51t17 35t29 21.5t40.5 12.5v2q-46 9 -69.5 34t-21.5 85
q0 19 1 35.5t3 30.5t3 26.5t1 23.5q0 30 -12 47t-41 18h-18v97h41q73 0 114 -32t41 -104q0 -18 -1 -37.5t-3 -39.5t-3.5 -39.5t-1.5 -36.5q0 -10 2 -21t9.5 -20.5t22 -16.5t39.5 -8v-87z" />
    <glyph glyph-name="asciitilde" unicode="~" horiz-adv-x="596" 
d="M40 184q0 56 11 94.5t31 62.5t47 35t60 11q38 0 69 -13t69 -36q32 -19 50.5 -29t32.5 -10q13 0 23 17t12 64h111q2 -59 -8 -98.5t-29.5 -63t-46 -33.5t-57.5 -10q-39 0 -71 13.5t-67 35.5q-32 20 -51 30.5t-33 10.5q-15 0 -26.5 -15.5t-15.5 -65.5h-111z" />
    <glyph glyph-name="exclamdown" unicode="&#xa1;" horiz-adv-x="284" 
d="M50 -198l26 445h134l25 -445h-185zM142 497q46 0 74.5 -29t28.5 -74q-1 -45 -28.5 -74t-73.5 -29t-74.5 29t-28.5 74t28.5 74t73.5 29z" />
    <glyph glyph-name="cent" unicode="&#xa2;" 
d="M284 -10v96q-48 8 -85.5 28t-64.5 51q-27 32 -41 73.5t-14 89.5q0 43 13 84t39 74.5t64.5 57.5t89.5 35v93h113v-87q20 -2 43.5 -5.5t45.5 -11.5l-25 -132q-33 15 -83 15q-54 0 -84.5 -31t-30.5 -85q0 -30 9.5 -52.5t26 -36.5t37.5 -21t45 -7q53 0 92 15l20 -130
q-20 -9 -44.5 -13.5t-51.5 -6.5v-93h-114z" />
    <glyph glyph-name="sterling" unicode="&#xa3;" 
d="M49 0v95q18 6 37.5 19t36 30.5t27 39t10.5 46.5v13.5t-2 12.5h-96v121h74q-6 34 -6 70q0 48 17.5 87.5t49 67.5t76 43.5t98.5 15.5q42 0 73 -7.5t48 -16.5l-26 -136q-16 8 -36.5 13t-46.5 5t-42.5 -7t-26 -18.5t-13.5 -26t-4 -29.5q0 -26 8 -61h135v-121h-119
q-1 -14 -3.5 -26.5t-7.5 -25.5q-7 -14 -17 -28t-24 -28v-2h253v-146h-473z" />
    <glyph glyph-name="currency" unicode="&#xa4;" 
d="M287 557q35 0 64.5 -8.5t52.5 -24.5l79 87l76 -78l-91 -81q11 -19 21 -46t10 -70t-10.5 -71.5t-24.5 -47.5l89 -85l-75 -75l-75 92q-23 -19 -55 -29t-62 -10q-31 0 -62.5 9.5t-54.5 28.5l-74 -91l-75 75l87 83q-13 20 -24 48.5t-11 70.5q0 45 11 72t22 46l-91 80l76 80
l81 -90q46 35 116 35zM286 439q-32 0 -56.5 -27t-24.5 -77q0 -26 7 -46t18.5 -33.5t26 -20t29.5 -6.5q30 0 55.5 26.5t25.5 80.5q0 46 -24.5 74.5t-56.5 28.5z" />
    <glyph glyph-name="yen" unicode="&#xa5;" 
d="M198 0v153h-156v81h156v60h-156v80h115l-162 276h194l56 -140q13 -32 22.5 -60.5t19.5 -56.5h2q11 26 20.5 56t22.5 61l56 140h189l-167 -276h115v-80h-158v-60h158v-81h-158v-153h-169z" />
    <glyph glyph-name="brokenbar" unicode="&#xa6;" horiz-adv-x="302" 
d="M213 174v-350h-124v350h124zM213 674v-350h-124v350h124z" />
    <glyph glyph-name="section" unicode="&#xa7;" horiz-adv-x="579" 
d="M177 339q0 -44 79 -70q33 -12 67.5 -22.5t51.5 -18.5q11 6 19 17.5t8 24.5q0 18 -14.5 34t-46.5 28q-16 6 -35 13t-37 13t-34 11.5t-26 10.5q-12 -4 -22 -15t-10 -26zM460 549q-24 10 -57.5 18t-80.5 8q-44 0 -63 -10t-19 -26q0 -17 22.5 -30.5t75.5 -28.5
q43 -13 80.5 -28t64.5 -36t42.5 -50t15.5 -69t-21.5 -71t-55.5 -51q15 -11 31 -35t16 -59q0 -49 -24 -81t-59.5 -50.5t-76.5 -26t-76 -7.5q-45 0 -99.5 9t-100.5 37l32 107q12 -7 30 -14.5t39 -13.5t44 -10t46 -4q37 0 59.5 9t22.5 29t-24 33.5t-75 28.5q-41 12 -78.5 26.5
t-67 35t-47 49t-17.5 68.5q0 35 22 70t65 54q-16 13 -28.5 39t-12.5 55q0 40 18 70t49.5 50t74 30.5t91.5 10.5q44 0 85.5 -6t80.5 -23z" />
    <glyph glyph-name="dieresis" unicode="&#xa8;" horiz-adv-x="300" 
d="M41 551q-35 0 -58 23.5t-23 55.5q0 35 23 57t58 22q32 0 54 -22t22 -57q0 -32 -22 -55.5t-54 -23.5zM262 551q-35 0 -57.5 23.5t-22.5 55.5q0 35 22.5 57t57.5 22q33 0 55 -22t22 -57q0 -32 -22 -55.5t-55 -23.5z" />
    <glyph glyph-name="copyright" unicode="&#xa9;" horiz-adv-x="677" 
d="M340 648q64 0 120 -24t97.5 -66t65.5 -98t24 -120q0 -65 -24 -121.5t-65.5 -98.5t-97.5 -66t-120 -24q-65 0 -121.5 24t-98.5 66t-66 98.5t-24 121.5q0 64 24 120t66 98t98.5 66t121.5 24zM339 585q-49 0 -92 -19.5t-75 -53t-50.5 -78t-18.5 -95.5t18.5 -95.5t50.5 -78
t75 -52.5t92 -19t92 19t75 52.5t50.5 78t18.5 95.5t-18.5 95.5t-50.5 78t-75 53t-92 19.5zM458 432q-9 5 -35.5 13.5t-58.5 8.5q-54 0 -86 -29.5t-32 -87.5q0 -53 33 -85.5t84 -32.5q30 0 56 6.5t43 17.5l16 -58q-26 -17 -58.5 -24.5t-65.5 -7.5q-45 0 -79.5 14t-58 38.5
t-36 57.5t-12.5 71q0 43 16 77.5t43 58.5t62.5 37t74.5 13q18 0 35.5 -2.5t32.5 -6.5t26 -9t16 -10z" />
    <glyph glyph-name="ordfeminine" unicode="&#xaa;" horiz-adv-x="392" 
d="M248 266l-7 30h-2q-40 -35 -98 -35q-50 0 -79.5 28.5t-29.5 70.5q0 30 14.5 51.5t40.5 36t62 22t80 7.5v6q0 2 -2 7t-7.5 9.5t-16.5 8t-29 3.5q-29 0 -54 -8t-42 -17l-22 73q18 10 53.5 21t86.5 11q42 0 72 -11t48.5 -30t27 -44.5t8.5 -53.5v-108q0 -23 1 -44t4 -34h-109
zM233 411q-37 0 -59.5 -10.5t-22.5 -29.5q0 -14 10.5 -23.5t27.5 -9.5q12 0 24.5 7.5t17.5 19.5q2 5 2 10v10v26z" />
    <glyph glyph-name="guillemotleft" unicode="&#xab;" horiz-adv-x="484" 
d="M142 252l113 -193h-121l-108 193l108 194h121zM349 252l113 -193h-121l-108 193l108 194h121z" />
    <glyph glyph-name="logicalnot" unicode="&#xac;" horiz-adv-x="596" 
d="M556 433v-333h-112v225h-404v108h516z" />
    <glyph glyph-name="uni00AD" unicode="&#xad;" horiz-adv-x="328" 
d="M298 318v-117h-268v117h268z" />
    <glyph glyph-name="registered" unicode="&#xae;" horiz-adv-x="476" 
d="M219 430h-55v156l28 3.5t46 2.5q29 0 43.5 -3.5t23.5 -9.5q17 -12 17 -34q0 -11 -10.5 -21t-27.5 -14v-2q27 -8 34 -41q4 -17 6.5 -25t4.5 -12h-61q-4 5 -6.5 13.5t-4.5 17.5q-3 22 -24 22h-14v-53zM221 519h12q14 0 20 5t6 13q0 9 -6.5 13t-17.5 4q-4 0 -7.5 -0.5
t-6.5 -0.5v-34zM239 685q38 0 71 -14t57.5 -37.5t38.5 -55.5t14 -68q0 -37 -14 -69t-38.5 -56t-57.5 -38t-71 -14t-71.5 14t-58 38t-39 56t-14.5 69q0 36 14.5 68t39 55.5t58 37.5t71.5 14zM238 638q-27 0 -49.5 -10t-39 -27.5t-26 -41t-9.5 -50.5t9.5 -50.5t26 -41
t39 -27.5t49.5 -10t50 10t39.5 27.5t26 41.5t9.5 51t-9.5 50t-26 40.5t-39.5 27.5t-50 10z" />
    <glyph glyph-name="macron" unicode="&#xaf;" horiz-adv-x="300" 
d="M281 675v-95h-261v95h261z" />
    <glyph glyph-name="degree" unicode="&#xb0;" horiz-adv-x="373" 
d="M187 685q35 0 64.5 -12t50.5 -33t33 -48.5t12 -58.5q0 -33 -13 -61.5t-35 -49t-51 -32t-62 -11.5q-35 0 -64 12t-50.5 32.5t-33.5 48t-12 59.5t12.5 60t34 49t51 33t63.5 12zM186 606q-29 0 -48.5 -22t-19.5 -53t19.5 -52t49.5 -21q29 0 48.5 20.5t19.5 52.5
q0 30 -18.5 52.5t-50.5 22.5z" />
    <glyph glyph-name="plusminus" unicode="&#xb1;" horiz-adv-x="596" 
d="M354 582v-164h202v-107h-202v-166h-112v166h-202v107h202v164h112zM556 108v-108h-516v108h516z" />
    <glyph glyph-name="twosuperior" unicode="&#xb2;" horiz-adv-x="369" 
d="M16 508l61 54q27 24 48.5 42t35.5 32.5t21.5 28t7.5 28.5q0 19 -14.5 29t-37.5 10q-24 0 -47 -7t-40 -19l-34 89q26 18 66.5 30.5t89.5 12.5q77 0 119 -34t42 -90q0 -26 -9.5 -47.5t-24.5 -39.5t-34.5 -34t-38.5 -32l-21 -15v-3h135v-100h-325v65z" />
    <glyph glyph-name="threesuperior" unicode="&#xb3;" horiz-adv-x="366" 
d="M24 806q23 14 63 23t88 9q76 0 115 -28.5t39 -71.5q0 -34 -24.5 -56t-60.5 -33v-2q42 -4 70.5 -27.5t28.5 -61.5q0 -56 -52 -88t-138 -32q-43 0 -81.5 7.5t-61.5 21.5l24 89q17 -8 45.5 -17t55.5 -9q25 0 44.5 9t19.5 27q0 20 -23.5 30.5t-55.5 10.5h-31v78h28
q12 0 25 1.5t23.5 5t17 10t6.5 15.5q0 29 -48 29q-26 0 -52 -8t-41 -16z" />
    <glyph glyph-name="acute" unicode="&#xb4;" horiz-adv-x="300" 
d="M309 706l-122 -156h-123l86 156h159z" />
    <glyph glyph-name="mu" unicode="&#xb5;" horiz-adv-x="598" 
d="M383 64q-11 -26 -39.5 -48t-73.5 -22q-29 0 -53 19v-35q0 -20 0.5 -44.5t2 -49t3.5 -46.5t5 -36h-159q-3 8 -5.5 27t-4 43.5t-2.5 52t-1 53.5v514h180v-268q0 -47 15.5 -69.5t43.5 -22.5q23 0 40 14.5t22 28.5q3 5 4 12t1 15v290h180v-321q0 -28 10 -37.5t30 -10.5
l-10 -122q-10 -6 -27 -9t-38 -3q-48 0 -77.5 20t-43.5 55h-3z" />
    <glyph glyph-name="paragraph" unicode="&#xb6;" horiz-adv-x="556" 
d="M195 -46v310h-6q-18 0 -45 11.5t-52 34.5t-43 58.5t-18 83.5q0 39 12 79.5t45.5 73.5t93 53.5t153.5 20.5q48 0 88 -2.5t66 -9.5v-713h-111v616h-72v-616h-111z" />
    <glyph glyph-name="periodcentered" unicode="&#xb7;" horiz-adv-x="283" 
d="M142 153q-46 0 -74.5 29t-28.5 76q0 46 29 75.5t74 29.5t73.5 -28.5t29.5 -76.5q0 -47 -28.5 -76t-74.5 -29z" />
    <glyph glyph-name="cedilla" unicode="&#xb8;" horiz-adv-x="300" 
d="M209 5l-25 -46q29 -4 51 -23t22 -51q0 -26 -10.5 -43t-28.5 -27.5t-41 -15t-48 -4.5q-54 0 -86 21l22 62q14 -8 29 -12.5t26 -4.5q12 0 22 5t10 18q0 12 -16.5 21.5t-61.5 12.5l41 87h94z" />
    <glyph glyph-name="onesuperior" unicode="&#xb9;" horiz-adv-x="324" 
d="M122 443v280h-1l-83 -35l-17 96l120 49h119v-390h-138z" />
    <glyph glyph-name="ordmasculine" unicode="&#xba;" horiz-adv-x="399" 
d="M201 591q39 0 71 -12t54 -34t34 -51.5t12 -63.5q0 -42 -14.5 -74t-38.5 -53t-56 -31.5t-66 -10.5q-36 0 -67 11.5t-54 32.5t-36.5 51t-13.5 68q0 37 12.5 67.5t35.5 52.5t55 34.5t72 12.5zM199 506q-14 0 -23 -8t-14.5 -20t-8 -26t-2.5 -27q0 -31 11.5 -55t36.5 -24
t36.5 23t11.5 58q0 15 -3.5 29t-9.5 25t-15 18t-20 7z" />
    <glyph glyph-name="guillemotright" unicode="&#xbb;" horiz-adv-x="484" 
d="M23 446h119l110 -194l-110 -193h-119l113 193zM227 446h119l110 -194l-110 -193h-119l113 193z" />
    <glyph glyph-name="onequarter" unicode="&#xbc;" horiz-adv-x="863" 
d="M134 266v280h-1l-83 -35l-17 96l120 49h119v-390h-138zM188 -11l365 672h94l-365 -672h-94zM651 1v85h-193v73l160 236h160v-224h49v-85h-49v-85h-127zM651 226q0 20 2 39.5t3 39.5h-3q-9 -20 -18.5 -37.5t-18.5 -32.5l-38 -63l3 -1h70v55z" />
    <glyph glyph-name="onehalf" unicode="&#xbd;" horiz-adv-x="863" 
d="M122 266v280h-1l-83 -35l-17 96l120 49h119v-390h-138zM162 -11l365 672h94l-365 -672h-94zM504 66l61 54q27 24 48.5 42t35.5 32.5t21.5 28t7.5 28.5q0 19 -14.5 29t-37.5 10q-24 0 -47 -7t-40 -19l-34 89q26 18 66.5 30.5t89.5 12.5q77 0 119 -34t42 -90
q0 -26 -9.5 -47.5t-24.5 -39.5t-34.5 -34t-38.5 -32l-21 -15v-3h135v-100h-325v65z" />
    <glyph glyph-name="threequarters" unicode="&#xbe;" horiz-adv-x="863" 
d="M40 629q23 14 63 23t88 9q76 0 115 -28.5t39 -71.5q0 -34 -24.5 -56t-60.5 -33v-2q42 -4 70.5 -27.5t28.5 -61.5q0 -56 -52 -88t-138 -32q-43 0 -81.5 7.5t-61.5 21.5l24 89q17 -8 45.5 -17t55.5 -9q25 0 44.5 9t19.5 27q0 20 -23.5 30.5t-55.5 10.5h-31v78h28
q12 0 25 1.5t23.5 5t17 10t6.5 15.5q0 29 -48 29q-26 0 -52 -8t-41 -16zM217 -11l365 672h94l-365 -672h-94zM660 1v85h-193v73l160 236h160v-224h49v-85h-49v-85h-127zM660 226q0 20 2 39.5t3 39.5h-3q-9 -20 -18.5 -37.5t-18.5 -32.5l-38 -63l3 -1h70v55z" />
    <glyph glyph-name="questiondown" unicode="&#xbf;" horiz-adv-x="463" 
d="M252 498q46 0 74.5 -29t28.5 -75q0 -45 -28 -74t-74 -29t-74 29t-29 74q0 46 28.5 75t73.5 29zM327 250l1 -25q1 -38 -12.5 -73.5t-45.5 -73.5q-20 -24 -36.5 -44.5t-16.5 -42.5q0 -21 15 -34t48 -14q25 0 52 7.5t47 21.5l37 -129q-28 -15 -72.5 -28t-104.5 -13
q-52 0 -90.5 13t-63.5 34.5t-37 50.5t-12 61q0 30 8.5 54.5t21.5 44t28 35.5t28 30q25 26 36.5 52.5t11.5 58.5v14h157z" />
    <glyph glyph-name="Agrave" unicode="&#xc0;" horiz-adv-x="675" 
d="M239 156l-38 -156h-187l196 674h240l201 -674h-195l-43 156h-174zM388 290l-31 121q-8 29 -16.5 66t-16.5 67h-2q-8 -30 -15 -67.5t-15 -66.5l-29 -120h125zM332 836l80 -124h-143l-121 124h184z" />
    <glyph glyph-name="Aacute" unicode="&#xc1;" horiz-adv-x="675" 
d="M239 156l-38 -156h-187l196 674h240l201 -674h-195l-43 156h-174zM388 290l-31 121q-8 29 -16.5 66t-16.5 67h-2q-8 -30 -15 -67.5t-15 -66.5l-29 -120h125zM516 836l-120 -126h-144l81 126h183z" />
    <glyph glyph-name="Acircumflex" unicode="&#xc2;" horiz-adv-x="675" 
d="M239 156l-38 -156h-187l196 674h240l201 -674h-195l-43 156h-174zM388 290l-31 121q-8 29 -16.5 66t-16.5 67h-2q-8 -30 -15 -67.5t-15 -66.5l-29 -120h125zM403 836l99 -126h-121l-45 59h-2l-44 -59h-121l99 126h135z" />
    <glyph glyph-name="Atilde" unicode="&#xc3;" horiz-adv-x="675" 
d="M239 156l-38 -156h-187l196 674h240l201 -674h-195l-43 156h-174zM388 290l-31 121q-8 29 -16.5 66t-16.5 67h-2q-8 -30 -15 -67.5t-15 -66.5l-29 -120h125zM194 714q-2 72 20.5 105.5t60.5 33.5q21 0 36.5 -6t28.5 -13q13 -8 23.5 -14t19.5 -6q13 0 18.5 9t8.5 35h78
q2 -76 -20 -106.5t-64 -30.5q-23 0 -39 6t-28 12q-13 8 -21.5 13t-19.5 5q-8 0 -14.5 -10t-8.5 -33h-79z" />
    <glyph glyph-name="Adieresis" unicode="&#xc4;" horiz-adv-x="675" 
d="M239 156l-38 -156h-187l196 674h240l201 -674h-195l-43 156h-174zM388 290l-31 121q-8 29 -16.5 66t-16.5 67h-2q-8 -30 -15 -67.5t-15 -66.5l-29 -120h125zM233 709q-33 0 -55.5 22.5t-22.5 54.5t22.5 54t55.5 22q31 0 52.5 -22t21.5 -54t-21.5 -54.5t-52.5 -22.5z
M450 709q-34 0 -55.5 22.5t-21.5 54.5t22 54t55 22q32 0 53.5 -22t21.5 -54t-21.5 -54.5t-53.5 -22.5z" />
    <glyph glyph-name="Aring" unicode="&#xc5;" horiz-adv-x="675" 
d="M239 156l-38 -156h-187l196 674h240l201 -674h-195l-43 156h-174zM388 290l-31 121q-8 29 -16.5 66t-16.5 67h-2q-8 -30 -15 -67.5t-15 -66.5l-29 -120h125zM332 906q62 0 91.5 -29.5t29.5 -72.5t-31 -72t-90 -29t-90.5 29t-31.5 71t31 72.5t91 30.5zM330 848
q-21 0 -31.5 -14t-10.5 -31t11 -30t31 -13q21 0 32.5 12.5t11.5 30.5q0 17 -11.5 31t-32.5 14z" />
    <glyph glyph-name="AE" unicode="&#xc6;" horiz-adv-x="902" 
d="M4 0l278 674h553v-147h-272l14 -113h256v-146h-233l17 -120h259v-148h-414l-21 161h-193l-58 -161h-186zM420 305l-19 150q-6 45 -12 93h-3q-8 -26 -16 -51t-14 -45l-55 -147h119z" />
    <glyph glyph-name="Ccedilla" unicode="&#xc7;" horiz-adv-x="602" 
d="M567 17q-20 -9 -64.5 -18t-105.5 -9q-95 0 -163.5 27.5t-112.5 73.5t-65.5 107t-21.5 128q0 89 30.5 156.5t82 112.5t119.5 67.5t143 22.5q59 0 103.5 -9.5t65.5 -20.5l-35 -142q-23 9 -53.5 16.5t-71.5 7.5q-39 0 -74 -11.5t-62 -36t-42.5 -62t-15.5 -89.5
q0 -93 51.5 -146t145.5 -53q33 0 66.5 6t54.5 14zM421 8l-21 -50q29 -8 51.5 -27.5t22.5 -56.5q0 -28 -11.5 -47t-29.5 -30t-40.5 -16t-44.5 -5q-25 0 -49 4.5t-43 15.5l21 69q11 -6 27.5 -10t29.5 -4q14 0 23.5 5t9.5 17q0 14 -17 22.5t-62 13.5l41 99h92z" />
    <glyph glyph-name="Egrave" unicode="&#xc8;" horiz-adv-x="552" 
d="M485 272h-242v-124h271v-148h-452v674h438v-147h-257v-109h242v-146zM291 836l80 -124h-143l-121 124h184z" />
    <glyph glyph-name="Eacute" unicode="&#xc9;" horiz-adv-x="552" 
d="M485 272h-242v-124h271v-148h-452v674h438v-147h-257v-109h242v-146zM467 836l-120 -126h-144l81 126h183z" />
    <glyph glyph-name="Ecircumflex" unicode="&#xca;" horiz-adv-x="552" 
d="M485 272h-242v-124h271v-148h-452v674h438v-147h-257v-109h242v-146zM356 836l99 -126h-121l-45 59h-2l-44 -59h-121l99 126h135z" />
    <glyph glyph-name="Edieresis" unicode="&#xcb;" horiz-adv-x="552" 
d="M485 272h-242v-124h271v-148h-452v674h438v-147h-257v-109h242v-146zM172 709q-33 0 -55.5 22.5t-22.5 54.5t22.5 54t55.5 22q31 0 52.5 -22t21.5 -54t-21.5 -54.5t-52.5 -22.5zM389 709q-34 0 -55.5 22.5t-21.5 54.5t22 54t55 22q32 0 53.5 -22t21.5 -54t-21.5 -54.5
t-53.5 -22.5z" />
    <glyph glyph-name="Igrave" unicode="&#xcc;" horiz-adv-x="305" 
d="M243 674v-674h-181v674h181zM155 836l80 -124h-143l-121 124h184z" />
    <glyph glyph-name="Iacute" unicode="&#xcd;" horiz-adv-x="305" 
d="M243 674v-674h-181v674h181zM333 836l-120 -126h-144l81 126h183z" />
    <glyph glyph-name="Icircumflex" unicode="&#xce;" horiz-adv-x="305" 
d="M243 674v-674h-181v674h181zM220 836l99 -126h-121l-45 59h-2l-44 -59h-121l99 126h135z" />
    <glyph glyph-name="Idieresis" unicode="&#xcf;" horiz-adv-x="305" 
d="M243 674v-674h-181v674h181zM45 709q-33 0 -55.5 22.5t-22.5 54.5t22.5 54t55.5 22q31 0 52.5 -22t21.5 -54t-21.5 -54.5t-52.5 -22.5zM262 709q-34 0 -55.5 22.5t-21.5 54.5t22 54t55 22q32 0 53.5 -22t21.5 -54t-21.5 -54.5t-53.5 -22.5z" />
    <glyph glyph-name="Eth" unicode="&#xd0;" horiz-adv-x="719" 
d="M5 414h66v253q44 7 99.5 11t115.5 4q97 0 162 -15t115 -50q56 -38 89 -104t33 -159q0 -52 -9 -95t-25 -78t-37.5 -62t-46.5 -46q-56 -44 -136 -63.5t-180 -19.5q-66 0 -110 3t-70 8v273h-66v140zM365 274h-113v-142q7 -2 18 -2h20q45 0 82 12t64 38.5t42 67.5t15 100
q0 52 -13.5 89.5t-38.5 61t-59 34.5t-75 11q-22 0 -35 -1.5t-20 -3.5v-125h113v-140z" />
    <glyph glyph-name="Ntilde" unicode="&#xd1;" horiz-adv-x="705" 
d="M62 0v674h213l107 -207q28 -51 55.5 -113.5t50.5 -122.5h3q-8 67 -11 137.5t-3 146.5v159h165v-674h-190l-114 224q-29 54 -59.5 118t-54.5 126h-3q6 -137 6 -302v-166h-165zM207 714q-2 72 20.5 105.5t60.5 33.5q21 0 36.5 -6t28.5 -13q13 -8 23.5 -14t19.5 -6
q13 0 18.5 9t8.5 35h78q2 -76 -20 -106.5t-64 -30.5q-23 0 -39 6t-28 12q-13 8 -21.5 13t-19.5 5q-8 0 -14.5 -10t-8.5 -33h-79z" />
    <glyph glyph-name="Ograve" unicode="&#xd2;" horiz-adv-x="730" 
d="M369 685q81 0 142.5 -28t102.5 -75t61.5 -109t20.5 -129q0 -81 -23.5 -147t-67.5 -112t-106.5 -71t-140.5 -25t-138.5 27.5t-102 74.5t-62.5 109.5t-21 132.5q0 73 23.5 137.5t67 112t105.5 75t139 27.5zM366 542q-32 0 -58 -15t-44.5 -42t-28.5 -65t-10 -84
q0 -95 38 -149.5t104 -54.5q33 0 58.5 15t43 42.5t27 65.5t9.5 83q0 43 -9.5 80.5t-27.5 65t-43.5 43t-58.5 15.5zM367 836l80 -124h-143l-121 124h184z" />
    <glyph glyph-name="Oacute" unicode="&#xd3;" horiz-adv-x="730" 
d="M369 685q81 0 142.5 -28t102.5 -75t61.5 -109t20.5 -129q0 -81 -23.5 -147t-67.5 -112t-106.5 -71t-140.5 -25t-138.5 27.5t-102 74.5t-62.5 109.5t-21 132.5q0 73 23.5 137.5t67 112t105.5 75t139 27.5zM366 542q-32 0 -58 -15t-44.5 -42t-28.5 -65t-10 -84
q0 -95 38 -149.5t104 -54.5q33 0 58.5 15t43 42.5t27 65.5t9.5 83q0 43 -9.5 80.5t-27.5 65t-43.5 43t-58.5 15.5zM552 836l-120 -126h-144l81 126h183z" />
    <glyph glyph-name="Ocircumflex" unicode="&#xd4;" horiz-adv-x="730" 
d="M369 685q81 0 142.5 -28t102.5 -75t61.5 -109t20.5 -129q0 -81 -23.5 -147t-67.5 -112t-106.5 -71t-140.5 -25t-138.5 27.5t-102 74.5t-62.5 109.5t-21 132.5q0 73 23.5 137.5t67 112t105.5 75t139 27.5zM366 542q-32 0 -58 -15t-44.5 -42t-28.5 -65t-10 -84
q0 -95 38 -149.5t104 -54.5q33 0 58.5 15t43 42.5t27 65.5t9.5 83q0 43 -9.5 80.5t-27.5 65t-43.5 43t-58.5 15.5zM433 836l99 -126h-121l-45 59h-2l-44 -59h-121l99 126h135z" />
    <glyph glyph-name="Otilde" unicode="&#xd5;" horiz-adv-x="730" 
d="M369 685q81 0 142.5 -28t102.5 -75t61.5 -109t20.5 -129q0 -81 -23.5 -147t-67.5 -112t-106.5 -71t-140.5 -25t-138.5 27.5t-102 74.5t-62.5 109.5t-21 132.5q0 73 23.5 137.5t67 112t105.5 75t139 27.5zM366 542q-32 0 -58 -15t-44.5 -42t-28.5 -65t-10 -84
q0 -95 38 -149.5t104 -54.5q33 0 58.5 15t43 42.5t27 65.5t9.5 83q0 43 -9.5 80.5t-27.5 65t-43.5 43t-58.5 15.5zM219 713q-2 72 20.5 105.5t60.5 33.5q21 0 36.5 -6t28.5 -13q13 -8 23.5 -14t19.5 -6q13 0 18.5 9t8.5 35h78q2 -76 -20 -106.5t-64 -30.5q-23 0 -39 6
t-28 12q-13 8 -21.5 13t-19.5 5q-8 0 -14.5 -10t-8.5 -33h-79z" />
    <glyph glyph-name="Odieresis" unicode="&#xd6;" horiz-adv-x="730" 
d="M369 685q81 0 142.5 -28t102.5 -75t61.5 -109t20.5 -129q0 -81 -23.5 -147t-67.5 -112t-106.5 -71t-140.5 -25t-138.5 27.5t-102 74.5t-62.5 109.5t-21 132.5q0 73 23.5 137.5t67 112t105.5 75t139 27.5zM366 542q-32 0 -58 -15t-44.5 -42t-28.5 -65t-10 -84
q0 -95 38 -149.5t104 -54.5q33 0 58.5 15t43 42.5t27 65.5t9.5 83q0 43 -9.5 80.5t-27.5 65t-43.5 43t-58.5 15.5zM258 709q-33 0 -55.5 22.5t-22.5 54.5t22.5 54t55.5 22q31 0 52.5 -22t21.5 -54t-21.5 -54.5t-52.5 -22.5zM475 709q-34 0 -55.5 22.5t-21.5 54.5t22 54
t55 22q32 0 53.5 -22t21.5 -54t-21.5 -54.5t-53.5 -22.5z" />
    <glyph glyph-name="multiply" unicode="&#xd7;" horiz-adv-x="596" 
d="M115 526l183 -187l184 187l74 -76l-183 -187l183 -186l-75 -77l-183 187l-183 -187l-75 77l183 186l-183 187z" />
    <glyph glyph-name="Oslash" unicode="&#xd8;" horiz-adv-x="730" 
d="M75 -1l55 84q-48 48 -72 114t-24 141q0 71 23 134t66.5 110.5t104.5 75t138 27.5q78 0 140 -27l54 81l101 -68l-54 -83q45 -48 67 -113t22 -134q0 -80 -24 -145t-67.5 -111t-104.5 -71t-135 -25q-71 0 -133 25l-60 -90zM424 530q-26 15 -58 15q-69 0 -110 -55.5
t-41 -152.5q0 -25 3.5 -49t12.5 -50h1zM315 142q10 -7 23.5 -10t27.5 -3q69 0 109 55.5t40 153.5q0 22 -2.5 43.5t-8.5 44.5l-2 1z" />
    <glyph glyph-name="Ugrave" unicode="&#xd9;" horiz-adv-x="697" 
d="M242 674v-382q0 -77 26 -118.5t80 -41.5q107 0 107 160v382h181v-372q0 -157 -75 -235t-218 -78q-139 0 -210.5 77.5t-71.5 240.5v367h181zM353 836l80 -124h-143l-121 124h184z" />
    <glyph glyph-name="Uacute" unicode="&#xda;" horiz-adv-x="697" 
d="M242 674v-382q0 -77 26 -118.5t80 -41.5q107 0 107 160v382h181v-372q0 -157 -75 -235t-218 -78q-139 0 -210.5 77.5t-71.5 240.5v367h181zM523 836l-120 -126h-144l81 126h183z" />
    <glyph glyph-name="Ucircumflex" unicode="&#xdb;" horiz-adv-x="697" 
d="M242 674v-382q0 -77 26 -118.5t80 -41.5q107 0 107 160v382h181v-372q0 -157 -75 -235t-218 -78q-139 0 -210.5 77.5t-71.5 240.5v367h181zM429 836l99 -126h-121l-45 59h-2l-44 -59h-121l99 126h135z" />
    <glyph glyph-name="Udieresis" unicode="&#xdc;" horiz-adv-x="697" 
d="M242 674v-382q0 -77 26 -118.5t80 -41.5q107 0 107 160v382h181v-372q0 -157 -75 -235t-218 -78q-139 0 -210.5 77.5t-71.5 240.5v367h181zM249 709q-33 0 -55.5 22.5t-22.5 54.5t22.5 54t55.5 22q31 0 52.5 -22t21.5 -54t-21.5 -54.5t-52.5 -22.5zM466 709
q-34 0 -55.5 22.5t-21.5 54.5t22 54t55 22q32 0 53.5 -22t21.5 -54t-21.5 -54.5t-53.5 -22.5z" />
    <glyph glyph-name="Yacute" unicode="&#xdd;" horiz-adv-x="629" 
d="M220 0v272l-213 402h207l57 -152q14 -35 24.5 -63.5t21.5 -60.5h2q10 31 20.5 60t22.5 64l56 152h203l-221 -395v-279h-180zM502 836l-120 -126h-144l81 126h183z" />
    <glyph glyph-name="Thorn" unicode="&#xde;" horiz-adv-x="601" 
d="M62 674h178v-117q11 1 27.5 2t49.5 1q60 0 106.5 -12.5t81.5 -41.5q33 -27 51 -66.5t18 -85.5q0 -66 -22 -111.5t-59 -73t-85.5 -40t-101.5 -12.5q-26 0 -42 2l-24 3v-122h-178v674zM240 262q9 -2 24 -4t33 -2q53 0 76 24.5t23 60.5q0 38 -24.5 60.5t-74.5 22.5
q-22 0 -35.5 -1t-21.5 -3v-158z" />
    <glyph glyph-name="germandbls" unicode="&#xdf;" horiz-adv-x="622" 
d="M56 0v422q0 86 20.5 141t58.5 90q35 32 83.5 50t111.5 18q49 0 91.5 -14t73.5 -39t48.5 -60.5t17.5 -78.5q0 -21 -6 -44t-18 -38q-28 -14 -40 -31.5t-12 -32.5q0 -14 6 -27.5t22 -30.5q12 -13 25.5 -28.5t25 -34.5t19.5 -42.5t8 -52.5q0 -80 -54.5 -129t-156.5 -49
q-27 0 -57.5 3t-50.5 11l21 132q22 -11 63 -11q25 0 39 10t14 27q0 13 -6.5 24.5t-21.5 28.5q-11 12 -24.5 26.5t-25 32.5t-19.5 39t-8 47q0 38 19.5 71.5t57.5 54.5q7 14 7 31q0 26 -17.5 47.5t-49.5 21.5q-17 0 -32.5 -7t-27 -24t-18.5 -45t-7 -70v-439h-180z" />
    <glyph glyph-name="agrave" unicode="&#xe0;" horiz-adv-x="548" 
d="M339 0l-10 43h-3q-26 -29 -61.5 -41.5t-75.5 -12.5q-38 0 -68 12.5t-51 34t-32 49.5t-11 59q0 49 21 85t59 59.5t90 35t115 11.5v4q0 7 -3.5 14.5t-12.5 13.5t-24.5 10t-39.5 4q-39 0 -77 -11.5t-62 -25.5l-32 115q24 12 75.5 28t128.5 16q63 0 106.5 -16.5t70.5 -46
t39 -69t12 -85.5v-166q0 -37 1.5 -69t6.5 -51h-162zM318 225q-55 0 -85 -16t-30 -48q0 -23 14 -35t37 -12q20 0 38 12.5t24 32.5q2 6 2 12.5v13.5v40zM262 706l85 -156h-122l-123 156h160z" />
    <glyph glyph-name="aacute" unicode="&#xe1;" horiz-adv-x="548" 
d="M339 0l-10 43h-3q-26 -29 -61.5 -41.5t-75.5 -12.5q-38 0 -68 12.5t-51 34t-32 49.5t-11 59q0 49 21 85t59 59.5t90 35t115 11.5v4q0 7 -3.5 14.5t-12.5 13.5t-24.5 10t-39.5 4q-39 0 -77 -11.5t-62 -25.5l-32 115q24 12 75.5 28t128.5 16q63 0 106.5 -16.5t70.5 -46
t39 -69t12 -85.5v-166q0 -37 1.5 -69t6.5 -51h-162zM318 225q-55 0 -85 -16t-30 -48q0 -23 14 -35t37 -12q20 0 38 12.5t24 32.5q2 6 2 12.5v13.5v40zM443 706l-122 -156h-123l86 156h159z" />
    <glyph glyph-name="acircumflex" unicode="&#xe2;" horiz-adv-x="548" 
d="M339 0l-10 43h-3q-26 -29 -61.5 -41.5t-75.5 -12.5q-38 0 -68 12.5t-51 34t-32 49.5t-11 59q0 49 21 85t59 59.5t90 35t115 11.5v4q0 7 -3.5 14.5t-12.5 13.5t-24.5 10t-39.5 4q-39 0 -77 -11.5t-62 -25.5l-32 115q24 12 75.5 28t128.5 16q63 0 106.5 -16.5t70.5 -46
t39 -69t12 -85.5v-166q0 -37 1.5 -69t6.5 -51h-162zM318 225q-55 0 -85 -16t-30 -48q0 -23 14 -35t37 -12q20 0 38 12.5t24 32.5q2 6 2 12.5v13.5v40zM331 706l101 -156h-113l-47 84h-2l-47 -84h-114l102 156h120z" />
    <glyph glyph-name="atilde" unicode="&#xe3;" horiz-adv-x="548" 
d="M339 0l-10 43h-3q-26 -29 -61.5 -41.5t-75.5 -12.5q-38 0 -68 12.5t-51 34t-32 49.5t-11 59q0 49 21 85t59 59.5t90 35t115 11.5v4q0 7 -3.5 14.5t-12.5 13.5t-24.5 10t-39.5 4q-39 0 -77 -11.5t-62 -25.5l-32 115q24 12 75.5 28t128.5 16q63 0 106.5 -16.5t70.5 -46
t39 -69t12 -85.5v-166q0 -37 1.5 -69t6.5 -51h-162zM318 225q-55 0 -85 -16t-30 -48q0 -23 14 -35t37 -12q20 0 38 12.5t24 32.5q2 6 2 12.5v13.5v40zM113 554q-3 70 21 106.5t66 36.5q20 0 36.5 -6t30.5 -14q12 -8 22.5 -14t19.5 -6q13 0 18.5 9t7.5 36h80
q2 -77 -22.5 -108.5t-65.5 -31.5q-23 0 -40 7t-33 15l-19.5 12t-16.5 4q-22 0 -23 -46h-82z" />
    <glyph glyph-name="adieresis" unicode="&#xe4;" horiz-adv-x="548" 
d="M339 0l-10 43h-3q-26 -29 -61.5 -41.5t-75.5 -12.5q-38 0 -68 12.5t-51 34t-32 49.5t-11 59q0 49 21 85t59 59.5t90 35t115 11.5v4q0 7 -3.5 14.5t-12.5 13.5t-24.5 10t-39.5 4q-39 0 -77 -11.5t-62 -25.5l-32 115q24 12 75.5 28t128.5 16q63 0 106.5 -16.5t70.5 -46
t39 -69t12 -85.5v-166q0 -37 1.5 -69t6.5 -51h-162zM318 225q-55 0 -85 -16t-30 -48q0 -23 14 -35t37 -12q20 0 38 12.5t24 32.5q2 6 2 12.5v13.5v40zM165 551q-35 0 -58 23.5t-23 55.5q0 35 23 57t58 22q32 0 54 -22t22 -57q0 -32 -22 -55.5t-54 -23.5zM386 551
q-35 0 -57.5 23.5t-22.5 55.5q0 35 22.5 57t57.5 22q33 0 55 -22t22 -57q0 -32 -22 -55.5t-55 -23.5z" />
    <glyph glyph-name="aring" unicode="&#xe5;" horiz-adv-x="548" 
d="M339 0l-10 43h-3q-26 -29 -61.5 -41.5t-75.5 -12.5q-38 0 -68 12.5t-51 34t-32 49.5t-11 59q0 49 21 85t59 59.5t90 35t115 11.5v4q0 7 -3.5 14.5t-12.5 13.5t-24.5 10t-39.5 4q-39 0 -77 -11.5t-62 -25.5l-32 115q24 12 75.5 28t128.5 16q63 0 106.5 -16.5t70.5 -46
t39 -69t12 -85.5v-166q0 -37 1.5 -69t6.5 -51h-162zM318 225q-55 0 -85 -16t-30 -48q0 -23 14 -35t37 -12q20 0 38 12.5t24 32.5q2 6 2 12.5v13.5v40zM277 540q-57 0 -89.5 28.5t-32.5 70.5q0 43 31 72.5t92 29.5q60 0 89 -28.5t29 -72.5t-31 -72t-88 -28zM276 595
q22 0 33 13.5t11 31.5q0 17 -11 31.5t-34 14.5q-21 0 -31.5 -15t-10.5 -32q0 -16 11 -30t32 -14z" />
    <glyph glyph-name="ae" unicode="&#xe6;" horiz-adv-x="816" 
d="M482 190q4 -29 36.5 -49t86.5 -20q44 0 75 6.5t63 19.5l23 -120q-46 -23 -94.5 -30.5t-93.5 -7.5q-61 0 -111 20.5t-77 58.5h-4q-31 -35 -74.5 -57t-108.5 -22q-41 0 -73.5 12.5t-55.5 34t-35 51t-12 62.5q0 46 21.5 80.5t59.5 57t91 33.5t115 11v12q0 3 -3.5 9.5
t-13 12.5t-26 10.5t-42.5 4.5q-39 0 -74.5 -12t-58.5 -25l-34 113q25 13 72 30t110 17q114 0 164 -69h2q31 33 72.5 51t93.5 18q54 0 94.5 -20.5t66.5 -55t39 -80t13 -96.5q0 -17 -1 -34t-3 -27h-303zM320 223q-59 0 -88 -16t-29 -45q0 -24 15.5 -36t37.5 -12
q20 0 35.5 11.5t23.5 26.5q5 9 5 28v43zM625 310q0 9 -2.5 22t-10 25.5t-21 21t-36.5 8.5q-20 0 -34 -8t-23 -20t-13 -25.5t-4 -23.5h144z" />
    <glyph glyph-name="ccedilla" unicode="&#xe7;" horiz-adv-x="452" 
d="M433 10q-23 -10 -58.5 -15t-77.5 -5q-61 0 -110.5 17.5t-84 50t-53 79t-18.5 105.5q0 52 18 99.5t54 83.5t90 57t126 21q27 0 57.5 -4t56.5 -13l-26 -133q-13 5 -31.5 9t-45.5 4q-51 0 -83 -32t-32 -86q0 -30 9.5 -52t26 -37t38 -22t45.5 -7q23 0 42.5 2.5t36.5 9.5z
M336 5l-25 -46q29 -4 51 -23t22 -51q0 -26 -10.5 -43t-28.5 -27.5t-41 -15t-48 -4.5q-54 0 -86 21l22 62q14 -8 29 -12.5t26 -4.5q12 0 22 5t10 18q0 12 -16.5 21.5t-61.5 12.5l41 87h94z" />
    <glyph glyph-name="egrave" unicode="&#xe8;" horiz-adv-x="539" 
d="M202 183q5 -29 41.5 -45t84.5 -16q35 0 68.5 4t66.5 15l23 -120q-45 -18 -91.5 -24.5t-92.5 -6.5q-131 0 -201 66.5t-70 184.5q0 43 14.5 89.5t45 84.5t79 63t116.5 25q60 0 102.5 -20.5t70.5 -55t41 -80t13 -96.5q0 -23 -2.5 -41t-4.5 -27h-304zM347 305q0 10 -3 24
t-10.5 26.5t-21.5 21t-35 8.5q-20 0 -34 -8t-23 -20t-14 -26t-6 -26h147zM272 706l85 -156h-122l-123 156h160z" />
    <glyph glyph-name="eacute" unicode="&#xe9;" horiz-adv-x="539" 
d="M202 183q5 -29 41.5 -45t84.5 -16q35 0 68.5 4t66.5 15l23 -120q-45 -18 -91.5 -24.5t-92.5 -6.5q-131 0 -201 66.5t-70 184.5q0 43 14.5 89.5t45 84.5t79 63t116.5 25q60 0 102.5 -20.5t70.5 -55t41 -80t13 -96.5q0 -23 -2.5 -41t-4.5 -27h-304zM347 305q0 10 -3 24
t-10.5 26.5t-21.5 21t-35 8.5q-20 0 -34 -8t-23 -20t-14 -26t-6 -26h147zM458 706l-122 -156h-123l86 156h159z" />
    <glyph glyph-name="ecircumflex" unicode="&#xea;" horiz-adv-x="539" 
d="M202 183q5 -29 41.5 -45t84.5 -16q35 0 68.5 4t66.5 15l23 -120q-45 -18 -91.5 -24.5t-92.5 -6.5q-131 0 -201 66.5t-70 184.5q0 43 14.5 89.5t45 84.5t79 63t116.5 25q60 0 102.5 -20.5t70.5 -55t41 -80t13 -96.5q0 -23 -2.5 -41t-4.5 -27h-304zM347 305q0 10 -3 24
t-10.5 26.5t-21.5 21t-35 8.5q-20 0 -34 -8t-23 -20t-14 -26t-6 -26h147zM340 706l101 -156h-113l-47 84h-2l-47 -84h-114l102 156h120z" />
    <glyph glyph-name="edieresis" unicode="&#xeb;" horiz-adv-x="539" 
d="M202 183q5 -29 41.5 -45t84.5 -16q35 0 68.5 4t66.5 15l23 -120q-45 -18 -91.5 -24.5t-92.5 -6.5q-131 0 -201 66.5t-70 184.5q0 43 14.5 89.5t45 84.5t79 63t116.5 25q60 0 102.5 -20.5t70.5 -55t41 -80t13 -96.5q0 -23 -2.5 -41t-4.5 -27h-304zM347 305q0 10 -3 24
t-10.5 26.5t-21.5 21t-35 8.5q-20 0 -34 -8t-23 -20t-14 -26t-6 -26h147zM176 551q-35 0 -58 23.5t-23 55.5q0 35 23 57t58 22q32 0 54 -22t22 -57q0 -32 -22 -55.5t-54 -23.5zM397 551q-35 0 -57.5 23.5t-22.5 55.5q0 35 22.5 57t57.5 22q33 0 55 -22t22 -57
q0 -32 -22 -55.5t-55 -23.5z" />
    <glyph glyph-name="igrave" unicode="&#xec;" horiz-adv-x="292" 
d="M56 0v492h180v-492h-180zM129 706l85 -156h-122l-123 156h160z" />
    <glyph glyph-name="iacute" unicode="&#xed;" horiz-adv-x="292" 
d="M56 0v492h180v-492h-180zM320 706l-122 -156h-123l86 156h159z" />
    <glyph glyph-name="icircumflex" unicode="&#xee;" horiz-adv-x="292" 
d="M56 0v492h180v-492h-180zM208 706l101 -156h-113l-47 84h-2l-47 -84h-114l102 156h120z" />
    <glyph glyph-name="idieresis" unicode="&#xef;" horiz-adv-x="292" 
d="M56 0v492h180v-492h-180zM38 551q-35 0 -58 23.5t-23 55.5q0 35 23 57t58 22q32 0 54 -22t22 -57q0 -32 -22 -55.5t-54 -23.5zM259 551q-35 0 -57.5 23.5t-22.5 55.5q0 35 22.5 57t57.5 22q33 0 55 -22t22 -57q0 -32 -22 -55.5t-55 -23.5z" />
    <glyph glyph-name="eth" unicode="&#xf0;" horiz-adv-x="589" 
d="M296 116q39 0 57.5 34.5t18.5 90.5q0 36 -4.5 58.5t-14.5 35.5q-21 27 -56 27q-23 0 -38.5 -12t-24.5 -30t-13 -40t-4 -41q0 -24 4.5 -46.5t14 -39.5t24.5 -27t36 -10zM73 533l100 43q-22 13 -44 23t-45 20l78 98q42 -14 83.5 -34t80.5 -45l143 59l34 -65l-105 -43
q76 -61 120 -147q21 -41 30.5 -86.5t9.5 -96.5q0 -69 -22.5 -120t-59 -84.5t-84 -49.5t-97.5 -16q-56 0 -104 17t-83.5 49.5t-56 78.5t-20.5 104q0 53 19 96t52 73t77 46t94 16q24 0 47 -10l2 3q-17 19 -35.5 35.5t-38.5 28.5l-144 -61z" />
    <glyph glyph-name="ntilde" unicode="&#xf1;" horiz-adv-x="599" 
d="M56 325q0 49 -1 91t-3 76h155l8 -63h4q7 10 19 22.5t30.5 24t42.5 19.5t55 8q87 0 132 -55.5t45 -157.5v-290h-180v268q0 43 -15.5 66.5t-47.5 23.5q-26 0 -39.5 -14.5t-19.5 -28.5q-3 -7 -4 -16.5t-1 -19.5v-279h-180v325zM150 554q-3 70 21 106.5t66 36.5q20 0 36.5 -6
t30.5 -14q12 -8 22.5 -14t19.5 -6q13 0 18.5 9t7.5 36h80q2 -77 -22.5 -108.5t-65.5 -31.5q-23 0 -40 7t-33 15l-19.5 12t-16.5 4q-22 0 -23 -46h-82z" />
    <glyph glyph-name="ograve" unicode="&#xf2;" horiz-adv-x="589" 
d="M302 503q58 0 105 -18.5t80.5 -52t52 -80t18.5 -101.5q0 -67 -22 -116.5t-59 -81.5t-85 -48t-100 -16q-55 0 -102.5 17t-83 50t-55.5 80t-20 107q0 58 18.5 106t54 82.5t85.5 53t113 18.5zM296 376q-22 0 -37 -11t-24.5 -29.5t-13.5 -42t-4 -47.5q0 -55 19 -92.5
t61 -37.5q36 0 55.5 35t19.5 95q0 25 -4.5 48.5t-13.5 41.5t-23.5 29t-34.5 11zM287 706l85 -156h-122l-123 156h160z" />
    <glyph glyph-name="oacute" unicode="&#xf3;" horiz-adv-x="589" 
d="M302 503q58 0 105 -18.5t80.5 -52t52 -80t18.5 -101.5q0 -67 -22 -116.5t-59 -81.5t-85 -48t-100 -16q-55 0 -102.5 17t-83 50t-55.5 80t-20 107q0 58 18.5 106t54 82.5t85.5 53t113 18.5zM296 376q-22 0 -37 -11t-24.5 -29.5t-13.5 -42t-4 -47.5q0 -55 19 -92.5
t61 -37.5q36 0 55.5 35t19.5 95q0 25 -4.5 48.5t-13.5 41.5t-23.5 29t-34.5 11zM466 706l-122 -156h-123l86 156h159z" />
    <glyph glyph-name="ocircumflex" unicode="&#xf4;" horiz-adv-x="589" 
d="M302 503q58 0 105 -18.5t80.5 -52t52 -80t18.5 -101.5q0 -67 -22 -116.5t-59 -81.5t-85 -48t-100 -16q-55 0 -102.5 17t-83 50t-55.5 80t-20 107q0 58 18.5 106t54 82.5t85.5 53t113 18.5zM296 376q-22 0 -37 -11t-24.5 -29.5t-13.5 -42t-4 -47.5q0 -55 19 -92.5
t61 -37.5q36 0 55.5 35t19.5 95q0 25 -4.5 48.5t-13.5 41.5t-23.5 29t-34.5 11zM355 706l101 -156h-113l-47 84h-2l-47 -84h-114l102 156h120z" />
    <glyph glyph-name="otilde" unicode="&#xf5;" horiz-adv-x="589" 
d="M302 503q58 0 105 -18.5t80.5 -52t52 -80t18.5 -101.5q0 -67 -22 -116.5t-59 -81.5t-85 -48t-100 -16q-55 0 -102.5 17t-83 50t-55.5 80t-20 107q0 58 18.5 106t54 82.5t85.5 53t113 18.5zM296 376q-22 0 -37 -11t-24.5 -29.5t-13.5 -42t-4 -47.5q0 -55 19 -92.5
t61 -37.5q36 0 55.5 35t19.5 95q0 25 -4.5 48.5t-13.5 41.5t-23.5 29t-34.5 11zM144 554q-3 70 21 106.5t66 36.5q20 0 36.5 -6t30.5 -14q12 -8 22.5 -14t19.5 -6q13 0 18.5 9t7.5 36h80q2 -77 -22.5 -108.5t-65.5 -31.5q-23 0 -40 7t-33 15l-19.5 12t-16.5 4q-22 0 -23 -46
h-82z" />
    <glyph glyph-name="odieresis" unicode="&#xf6;" horiz-adv-x="589" 
d="M302 503q58 0 105 -18.5t80.5 -52t52 -80t18.5 -101.5q0 -67 -22 -116.5t-59 -81.5t-85 -48t-100 -16q-55 0 -102.5 17t-83 50t-55.5 80t-20 107q0 58 18.5 106t54 82.5t85.5 53t113 18.5zM296 376q-22 0 -37 -11t-24.5 -29.5t-13.5 -42t-4 -47.5q0 -55 19 -92.5
t61 -37.5q36 0 55.5 35t19.5 95q0 25 -4.5 48.5t-13.5 41.5t-23.5 29t-34.5 11zM185 551q-35 0 -58 23.5t-23 55.5q0 35 23 57t58 22q32 0 54 -22t22 -57q0 -32 -22 -55.5t-54 -23.5zM406 551q-35 0 -57.5 23.5t-22.5 55.5q0 35 22.5 57t57.5 22q33 0 55 -22t22 -57
q0 -32 -22 -55.5t-55 -23.5z" />
    <glyph glyph-name="divide" unicode="&#xf7;" horiz-adv-x="596" 
d="M298 361q-37 0 -59 22.5t-22 59.5q0 38 22.5 60t58.5 22q37 0 59 -22t23 -60q0 -37 -22 -59.5t-60 -22.5zM40 213v108h516v-108h-516zM298 9q-37 0 -59 22.5t-22 59.5q0 38 22.5 60t58.5 22q37 0 59 -22t23 -60q0 -37 -22 -59.5t-60 -22.5z" />
    <glyph glyph-name="oslash" unicode="&#xf8;" horiz-adv-x="589" 
d="M294 503q68 0 117 -23l49 73l59 -41l-47 -70q42 -33 64 -82.5t22 -112.5q0 -65 -22 -113.5t-59 -80.5t-84 -48t-97 -16q-31 0 -59.5 5.5t-53.5 16.5l-51 -75l-57 45l45 67q-42 32 -65.5 81.5t-23.5 116.5q0 57 18.5 104t53 81t83 53t108.5 19zM334 363q-18 13 -40 13
q-25 0 -42.5 -12t-28 -30.5t-15 -42t-4.5 -45.5q0 -15 2 -30.5t7 -28.5l3 -1zM257 130q14 -14 39 -14q43 0 66 34.5t23 91.5q0 14 -1.5 29.5t-5.5 28.5l-3 1z" />
    <glyph glyph-name="ugrave" unicode="&#xf9;" horiz-adv-x="598" 
d="M541 168q0 -53 1 -94.5t3 -73.5h-155l-8 65h-4q-7 -10 -18.5 -23t-29.5 -25t-43 -20t-58 -8q-83 0 -128.5 53t-45.5 160v290h180v-261q0 -97 63 -97q26 0 39.5 14t18.5 28q5 9 5 26v290h180v-324zM288 706l85 -156h-122l-123 156h160z" />
    <glyph glyph-name="uacute" unicode="&#xfa;" horiz-adv-x="598" 
d="M541 168q0 -53 1 -94.5t3 -73.5h-155l-8 65h-4q-7 -10 -18.5 -23t-29.5 -25t-43 -20t-58 -8q-83 0 -128.5 53t-45.5 160v290h180v-261q0 -97 63 -97q26 0 39.5 14t18.5 28q5 9 5 26v290h180v-324zM473 706l-122 -156h-123l86 156h159z" />
    <glyph glyph-name="ucircumflex" unicode="&#xfb;" horiz-adv-x="598" 
d="M541 168q0 -53 1 -94.5t3 -73.5h-155l-8 65h-4q-7 -10 -18.5 -23t-29.5 -25t-43 -20t-58 -8q-83 0 -128.5 53t-45.5 160v290h180v-261q0 -97 63 -97q26 0 39.5 14t18.5 28q5 9 5 26v290h180v-324zM360 706l101 -156h-113l-47 84h-2l-47 -84h-114l102 156h120z" />
    <glyph glyph-name="udieresis" unicode="&#xfc;" horiz-adv-x="598" 
d="M541 168q0 -53 1 -94.5t3 -73.5h-155l-8 65h-4q-7 -10 -18.5 -23t-29.5 -25t-43 -20t-58 -8q-83 0 -128.5 53t-45.5 160v290h180v-261q0 -97 63 -97q26 0 39.5 14t18.5 28q5 9 5 26v290h180v-324zM193 551q-35 0 -58 23.5t-23 55.5q0 35 23 57t58 22q32 0 54 -22t22 -57
q0 -32 -22 -55.5t-54 -23.5zM414 551q-35 0 -57.5 23.5t-22.5 55.5q0 35 22.5 57t57.5 22q33 0 55 -22t22 -57q0 -32 -22 -55.5t-55 -23.5z" />
    <glyph glyph-name="yacute" unicode="&#xfd;" horiz-adv-x="545" 
d="M205 492l59 -221q5 -20 10.5 -44.5t10.5 -42.5h4q5 19 9 43t9 44l45 221h192l-105 -312q-28 -78 -51.5 -132t-44.5 -92t-40.5 -62.5t-39.5 -42.5q-42 -37 -85.5 -52.5t-77.5 -18.5l-37 152q14 2 29 6.5t32 11.5t33.5 20.5t24.5 24.5q10 12 10 22q0 9 -7 27l-180 448h200z
M461 706l-122 -156h-123l86 156h159z" />
    <glyph glyph-name="thorn" unicode="&#xfe;" horiz-adv-x="610" 
d="M236 710v-271h2q20 29 55 46.5t83 17.5q37 1 73.5 -15t65.5 -48t46.5 -80t17.5 -111q0 -68 -20.5 -117.5t-53 -81t-71.5 -46.5t-75 -15q-45 0 -74.5 14.5t-46.5 34.5h-2v-236h-180v908h180zM236 204q0 -11 4 -25t12 -23q11 -13 25.5 -21.5t31.5 -8.5q40 0 63.5 32
t23.5 89q0 51 -21.5 83.5t-60.5 32.5q-46 0 -68 -39q-4 -8 -7 -19t-3 -20v-81z" />
    <glyph glyph-name="ydieresis" unicode="&#xff;" horiz-adv-x="545" 
d="M205 492l59 -221q5 -20 10.5 -44.5t10.5 -42.5h4q5 19 9 43t9 44l45 221h192l-105 -312q-28 -78 -51.5 -132t-44.5 -92t-40.5 -62.5t-39.5 -42.5q-42 -37 -85.5 -52.5t-77.5 -18.5l-37 152q14 2 29 6.5t32 11.5t33.5 20.5t24.5 24.5q10 12 10 22q0 9 -7 27l-180 448h200z
M175 551q-35 0 -58 23.5t-23 55.5q0 35 23 57t58 22q32 0 54 -22t22 -57q0 -32 -22 -55.5t-54 -23.5zM396 551q-35 0 -57.5 23.5t-22.5 55.5q0 35 22.5 57t57.5 22q33 0 55 -22t22 -57q0 -32 -22 -55.5t-55 -23.5z" />
    <glyph glyph-name="OE" unicode="&#x152;" horiz-adv-x="954" 
d="M915 0h-396q-14 0 -28.5 -1.5t-31.5 -3.5t-37 -4t-45 -2q-90 0 -155 28.5t-106.5 76t-61.5 109.5t-20 128q0 80 24.5 145t70 111.5t109 72t141.5 25.5q28 0 50.5 -1.5t40.5 -3.5q20 -2 35 -4t27 -2h369v-147h-257v-109h243v-146h-243v-124h271v-148zM464 529
q-26 13 -67 13q-32 0 -63 -12t-55 -37.5t-39 -64t-15 -91.5q0 -45 12 -82.5t35 -64.5t57.5 -42.5t78.5 -15.5q14 0 29.5 3t26.5 8v386z" />
    <glyph glyph-name="oe" unicode="&#x153;" horiz-adv-x="871" 
d="M539 187q5 -29 40 -47t82 -18q43 0 74.5 6.5t63.5 18.5l23 -120q-23 -12 -48.5 -19.5t-50.5 -11.5t-48 -5.5t-39 -1.5q-51 0 -96.5 15.5t-80.5 58.5h-2q-33 -38 -80 -56t-101 -18q-50 0 -94.5 17.5t-78 50.5t-53 80.5t-19.5 108.5q0 57 19 104.5t52.5 81.5t80.5 52.5
t104 18.5q49 0 95 -18.5t72 -56.5h2q31 38 74 56.5t94 18.5q58 0 100 -20.5t69 -55t39.5 -80t12.5 -96.5q0 -19 -1.5 -37.5t-3.5 -26.5h-301zM298 376q-24 0 -39.5 -11.5t-25 -30t-13 -42t-3.5 -46.5q0 -27 4.5 -50.5t14 -41.5t24.5 -28t35 -10q39 0 58 35.5t19 95.5
q0 26 -4.5 49.5t-13.5 41t-23 28t-33 10.5zM679 306q0 10 -2 23.5t-9 26t-21 21t-38 8.5q-19 0 -33 -8t-23 -20t-13 -26t-4 -25h143z" />
    <glyph glyph-name="Ydieresis" unicode="&#x178;" horiz-adv-x="629" 
d="M220 0v272l-213 402h207l57 -152q14 -35 24.5 -63.5t21.5 -60.5h2q10 31 20.5 60t22.5 64l56 152h203l-221 -395v-279h-180zM216 709q-33 0 -55.5 22.5t-22.5 54.5t22.5 54t55.5 22q31 0 52.5 -22t21.5 -54t-21.5 -54.5t-52.5 -22.5zM433 709q-34 0 -55.5 22.5
t-21.5 54.5t22 54t55 22q32 0 53.5 -22t21.5 -54t-21.5 -54.5t-53.5 -22.5z" />
    <glyph glyph-name="tilde" unicode="&#x2dc;" horiz-adv-x="300" 
d="M0 554q-3 70 21 106.5t66 36.5q20 0 36.5 -6t30.5 -14q12 -8 22.5 -14t19.5 -6q13 0 18.5 9t7.5 36h80q2 -77 -22.5 -108.5t-65.5 -31.5q-23 0 -40 7t-33 15l-19.5 12t-16.5 4q-22 0 -23 -46h-82z" />
    <glyph glyph-name="endash" unicode="&#x2013;" horiz-adv-x="500" 
d="M470 308v-108h-440v108h440z" />
    <glyph glyph-name="emdash" unicode="&#x2014;" horiz-adv-x="1000" 
d="M970 308v-108h-940v108h940z" />
    <glyph glyph-name="quoteleft" unicode="&#x2018;" horiz-adv-x="284" 
d="M23 391q26 78 58.5 148.5t73.5 136.5l108 9q-26 -73 -45 -143t-30 -142z" />
    <glyph glyph-name="quoteright" unicode="&#x2019;" horiz-adv-x="284" 
d="M261 685q-26 -78 -58.5 -148.5t-72.5 -136.5l-108 -9q26 73 45 143.5t30 141.5z" />
    <glyph glyph-name="quotedblleft" unicode="&#x201c;" horiz-adv-x="497" 
d="M22 391q26 78 58.5 148.5t73.5 136.5l107 9q-26 -73 -44.5 -143t-29.5 -142zM238 391q26 78 58.5 148.5t73.5 136.5l107 9q-26 -73 -44.5 -143t-29.5 -142z" />
    <glyph glyph-name="quotedblright" unicode="&#x201d;" horiz-adv-x="497" 
d="M260 685q-26 -78 -58.5 -148.5t-73.5 -136.5l-107 -9q26 73 44.5 143.5t29.5 141.5zM476 685q-26 -78 -58.5 -148.5t-73.5 -136.5l-107 -9q26 73 44.5 143.5t29.5 141.5z" />
    <glyph glyph-name="quotedblbase" unicode="&#x201e;" horiz-adv-x="503" 
d="M13 -98q26 73 45 143t30 142l165 9q-52 -155 -132 -285zM229 -98q26 73 45 143t30 142l165 9q-52 -155 -132 -285z" />
    <glyph glyph-name="bullet" unicode="&#x2022;" horiz-adv-x="362" 
d="M181 119q-29 0 -55 10.5t-45 29.5t-30 45t-11 56t11 56.5t30 45.5t45 30t55 11t55 -11t45 -30t30 -45t11 -56t-11 -56t-30 -45t-44.5 -30t-55.5 -11z" />
    <glyph glyph-name="ellipsis" unicode="&#x2026;" horiz-adv-x="1000" 
d="M166 -11q-45 0 -74 29.5t-29 75.5q0 47 29 76t74 29q46 0 74 -28.5t29 -76.5q0 -46 -28 -75.5t-75 -29.5zM500 -11q-45 0 -74 29.5t-29 75.5q0 47 29 76t74 29q46 0 74 -28.5t29 -76.5q0 -46 -28 -75.5t-75 -29.5zM834 -11q-45 0 -74 29.5t-29 75.5q0 47 29 76t74 29
q46 0 74 -28.5t29 -76.5q0 -46 -28 -75.5t-75 -29.5z" />
    <glyph glyph-name="guilsinglleft" unicode="&#x2039;" horiz-adv-x="277" 
d="M142 252l113 -193h-121l-108 193l108 194h121z" />
    <glyph glyph-name="guilsinglright" unicode="&#x203a;" horiz-adv-x="277" 
d="M22 446h119l110 -194l-109 -193h-120l113 193z" />
    <glyph glyph-name="Euro" unicode="&#x20ac;" 
d="M539 26q-26 -14 -68.5 -25.5t-90.5 -11.5q-80 0 -148.5 31.5t-113.5 93.5q-17 23 -29 50.5t-20 61.5h-66v80h54v17q0 6 0.5 12t0.5 12h-55v81h68q9 35 25.5 65.5t37.5 56.5q45 53 107.5 82t138.5 29q45 0 86 -8t71 -21l-32 -135q-20 8 -49 15.5t-62 7.5q-34 0 -65 -13
t-53 -42q-6 -8 -10.5 -17t-9.5 -20h236v-81h-254q-1 -6 -1 -12.5v-13.5v-15h255v-80h-238q5 -14 11 -25t13 -19q23 -26 55 -37t69 -11q32 0 63 8t47 16z" />
    <glyph glyph-name="trademark" unicode="&#x2122;" horiz-adv-x="663" 
d="M269 674v-76h-75v-197h-96v197h-73v76h244zM562 401l-3 102q-1 26 0 55t0 64h-5q-7 -32 -13 -62l-11 -55l-19 -99h-89l-14 99q-3 22 -7.5 54t-9.5 63h-5q-1 -32 -1 -62.5t-2 -56.5l-4 -102h-89l15 273h148l7 -38q2 -16 5.5 -36.5t9.5 -59.5h1q5 28 10 50.5t10 45.5l8 38
h137l12 -273h-91z" />
    <glyph glyph-name="G_tildecomb" unicode="&#xe000;" horiz-adv-x="697" 
d="M646 32q-19 -6 -45 -13t-56.5 -13t-64 -9.5t-66.5 -3.5q-100 0 -169 23.5t-115 67.5q-48 45 -72 108t-24 136q0 88 31 154t84 110t125 66.5t154 22.5q69 0 119 -10t76 -23l-36 -144q-29 12 -65.5 20t-94.5 8q-42 0 -78.5 -11t-64.5 -35t-44 -61t-16 -88q0 -47 14.5 -84
t40 -62.5t60.5 -39t77 -13.5q18 0 34 2t22 4v116h-90v140h264v-368zM247 714q-2 72 20.5 105.5t60.5 33.5q21 0 36.5 -6t28.5 -13q13 -8 23.5 -14t19.5 -6q13 0 18.5 9t8.5 35h78q2 -76 -20 -106.5t-64 -30.5q-23 0 -39 6t-28 12q-13 8 -21.5 13t-19.5 5q-8 0 -14.5 -10
t-8.5 -33h-79z" />
    <glyph glyph-name="M_uni0302" unicode="&#xe001;" horiz-adv-x="865" 
d="M632 241q-2 58 -3 125.5t0 146.5h-3q-16 -67 -35 -137.5t-36 -126.5l-67 -235h-141l-57 234q-13 55 -27.5 125.5t-25.5 139.5h-2q-3 -72 -6 -143t-5 -129l-10 -241h-166l41 674h243l45 -181q14 -57 27.5 -121t24.5 -126h4q14 62 30 128t31 120l50 180h238l34 -674h-176z
M500 836l99 -126h-121l-45 59h-2l-44 -59h-121l99 126h135z" />
    <glyph glyph-name="N_uni0302" unicode="&#xe002;" horiz-adv-x="705" 
d="M62 0v674h213l107 -207q28 -51 55.5 -113.5t50.5 -122.5h3q-8 67 -11 137.5t-3 146.5v159h165v-674h-190l-114 224q-29 54 -59.5 118t-54.5 126h-3q6 -137 6 -302v-166h-165zM420 836l99 -126h-121l-45 59h-2l-44 -59h-121l99 126h135z" />
    <glyph glyph-name="f_f_j" unicode="&#xe003;" horiz-adv-x="920" 
d="M780 562q-19 8 -44.5 13t-56.5 5q-57 0 -80 -21t-23 -53v-14h305v-419q0 -85 -19.5 -136.5t-54.5 -83.5q-36 -32 -89.5 -47t-116.5 -15l-17 140q29 3 51 9.5t36 20.5q17 16 23 49.5t6 100.5v249h-122v-360h-181v360h-139v-360h-181v360h-63v132h63v8q0 42 15 83.5
t50 72.5q26 24 64 39t92 15q26 0 48.5 -4.5t36.5 -9.5l-38 -129q-16 7 -35 7q-23 0 -37 -14q-10 -9 -13.5 -23.5t-3.5 -28.5v-16h141v18q0 52 20.5 91.5t57.5 66t87.5 40t109.5 13.5q37 0 77 -6t66 -18z" />
    <glyph glyph-name="f_j" unicode="&#xe004;" horiz-adv-x="613" 
d="M77 0v360h-63v132h63v18q0 52 20.5 91.5t57.5 66t87.5 40t109.5 13.5q41 0 84.5 -7.5t68.5 -21.5l-31 -136q-19 9 -48 16.5t-67 7.5q-57 0 -80 -21t-23 -53v-14h305v-419q0 -85 -19.5 -136.5t-54.5 -83.5q-36 -32 -89.5 -47t-116.5 -15l-17 140q29 3 51 9.5t36 20.5
q17 16 23 49.5t6 100.5v249h-122v-360h-181z" />
    <glyph glyph-name="g_tildecomb" unicode="&#xe005;" horiz-adv-x="596" 
d="M545 492q-2 -23 -3.5 -57.5t-1.5 -94.5v-268q0 -65 -16 -123t-60 -97q-43 -36 -97 -48.5t-111 -12.5q-51 0 -99.5 9.5t-83.5 27.5l34 136q23 -13 61.5 -24.5t80.5 -11.5q48 0 81 27t33 84v22h-2q-23 -29 -54.5 -42t-68.5 -13q-45 0 -83 17t-65.5 48.5t-43 75.5t-15.5 98
q0 58 17.5 105.5t48 81.5t71 52.5t86.5 18.5q45 0 76 -16.5t51 -46.5h2l6 52h156zM360 289q0 5 -0.5 11.5t-1.5 11.5q-6 26 -22.5 41t-41.5 15q-32 0 -56 -30.5t-24 -89.5q0 -48 21 -79.5t59 -31.5q25 0 41.5 14.5t21.5 34.5q2 8 2.5 18.5t0.5 18.5v66zM148 554
q-3 70 21 106.5t66 36.5q20 0 36.5 -6t30.5 -14q12 -8 22.5 -14t19.5 -6q13 0 18.5 9t7.5 36h80q2 -77 -22.5 -108.5t-65.5 -31.5q-23 0 -40 7t-33 15l-19.5 12t-16.5 4q-22 0 -23 -46h-82z" />
    <glyph glyph-name="m_uni0302" unicode="&#xe006;" horiz-adv-x="871" 
d="M56 325q0 49 -1 91t-3 76h151l7 -61h4q7 9 18.5 21.5t29 23.5t41.5 19t56 8q48 0 82.5 -20.5t50.5 -57.5h2q15 19 31.5 33.5t36.5 24.5q38 20 87 20q80 0 123.5 -55t43.5 -158v-290h-175v263q0 46 -14 71t-44 25q-22 0 -35.5 -12.5t-19.5 -29.5q-3 -8 -4 -18t-1 -18v-281
h-175v268q0 42 -13.5 66.5t-43.5 24.5q-25 0 -37.5 -14t-17.5 -27q-4 -8 -4.5 -17.5t-0.5 -18.5v-282h-175v325zM496 706l101 -156h-113l-47 84h-2l-47 -84h-114l102 156h120z" />
    <glyph glyph-name="fraction" horiz-adv-x="127" 
d="M-166 -11l365 672h94l-365 -672h-94z" />
    <glyph glyph-name="circumflex" horiz-adv-x="300" 
d="M211 706l101 -156h-113l-47 84h-2l-47 -84h-114l102 156h120z" />
    <glyph glyph-name="ring" horiz-adv-x="300" 
d="M142 540q-57 0 -89.5 28.5t-32.5 70.5q0 43 31 72.5t92 29.5q60 0 89 -28.5t29 -72.5t-31 -72t-88 -28zM141 595q22 0 33 13.5t11 31.5q0 17 -11 31.5t-34 14.5q-21 0 -31.5 -15t-10.5 -32q0 -16 11 -30t32 -14z" />
    <glyph glyph-name="dotlessi" horiz-adv-x="292" 
d="M56 0v492h180v-492h-180z" />
    <glyph glyph-name="one.numerator" horiz-adv-x="324" 
d="M122 266v280h-1l-83 -35l-17 96l120 49h119v-390h-138z" />
    <glyph glyph-name="two.numerator" horiz-adv-x="369" 
d="M16 331l61 54q27 24 48.5 42t35.5 32.5t21.5 28t7.5 28.5q0 19 -14.5 29t-37.5 10q-24 0 -47 -7t-40 -19l-34 89q26 18 66.5 30.5t89.5 12.5q77 0 119 -34t42 -90q0 -26 -9.5 -47.5t-24.5 -39.5t-34.5 -34t-38.5 -32l-21 -15v-3h135v-100h-325v65z" />
    <glyph glyph-name="three.numerator" horiz-adv-x="366" 
d="M24 629q23 14 63 23t88 9q76 0 115 -28.5t39 -71.5q0 -34 -24.5 -56t-60.5 -33v-2q42 -4 70.5 -27.5t28.5 -61.5q0 -56 -52 -88t-138 -32q-43 0 -81.5 7.5t-61.5 21.5l24 89q17 -8 45.5 -17t55.5 -9q25 0 44.5 9t19.5 27q0 20 -23.5 30.5t-55.5 10.5h-31v78h28
q12 0 25 1.5t23.5 5t17 10t6.5 15.5q0 29 -48 29q-26 0 -52 -8t-41 -16z" />
    <glyph glyph-name="four.numerator" horiz-adv-x="413" 
d="M215 266v85h-193v73l160 236h160v-224h49v-85h-49v-85h-127zM215 491q0 20 2 39.5t3 39.5h-3q-9 -20 -18.5 -37.5t-18.5 -32.5l-38 -63l3 -1h70v55z" />
    <glyph glyph-name="acute.cap" horiz-adv-x="300" 
d="M326 836l-120 -126h-144l81 126h183z" />
    <glyph glyph-name="cedilla.cap" horiz-adv-x="300" 
d="M211 8l-21 -50q29 -8 51.5 -27.5t22.5 -56.5q0 -28 -11.5 -47t-29.5 -30t-40.5 -16t-44.5 -5q-25 0 -49 4.5t-43 15.5l21 69q11 -6 27.5 -10t29.5 -4q14 0 23.5 5t9.5 17q0 14 -17 22.5t-62 13.5l41 99h92z" />
    <glyph glyph-name="circumflex.cap" horiz-adv-x="300" 
d="M218 836l99 -126h-121l-45 59h-2l-44 -59h-121l99 126h135z" />
    <glyph glyph-name="dieresis.cap" horiz-adv-x="300" 
d="M43 709q-33 0 -55.5 22.5t-22.5 54.5t22.5 54t55.5 22q31 0 52.5 -22t21.5 -54t-21.5 -54.5t-52.5 -22.5zM260 709q-34 0 -55.5 22.5t-21.5 54.5t22 54t55 22q32 0 53.5 -22t21.5 -54t-21.5 -54.5t-53.5 -22.5z" />
    <glyph glyph-name="grave.cap" horiz-adv-x="300" 
d="M165 836l80 -124h-143l-121 124h184z" />
    <glyph glyph-name="ring.cap" horiz-adv-x="400" 
d="M201 901q62 0 91.5 -29.5t29.5 -72.5t-31 -72t-90 -29t-90.5 29t-31.5 71t31 72.5t91 30.5zM199 843q-21 0 -31.5 -14t-10.5 -31t11 -30t31 -13q21 0 32.5 12.5t11.5 30.5q0 17 -11.5 31t-32.5 14z" />
    <glyph glyph-name="tilde.cap" horiz-adv-x="300" 
d="M4 714q-2 72 20.5 105.5t60.5 33.5q21 0 36.5 -6t28.5 -13q13 -8 23.5 -14t19.5 -6q13 0 18.5 9t8.5 35h78q2 -76 -20 -106.5t-64 -30.5q-23 0 -39 6t-28 12q-13 8 -21.5 13t-19.5 5q-8 0 -14.5 -10t-8.5 -33h-79z" />
    <glyph glyph-name="uni03BC" horiz-adv-x="598" 
d="M383 64q-11 -26 -39.5 -48t-73.5 -22q-29 0 -53 19v-35q0 -20 0.5 -44.5t2 -49t3.5 -46.5t5 -36h-159q-3 8 -5.5 27t-4 43.5t-2.5 52t-1 53.5v514h180v-268q0 -47 15.5 -69.5t43.5 -22.5q23 0 40 14.5t22 28.5q3 5 4 12t1 15v290h180v-321q0 -28 10 -37.5t30 -10.5
l-10 -122q-10 -6 -27 -9t-38 -3q-48 0 -77.5 20t-43.5 55h-3z" />
    <glyph glyph-name="uni20BD.taboldstyle" horiz-adv-x="575" 
d="M246 333h31q28 0 46.5 6t29.5 15.5t15 21.5t4 24q0 26 -20.5 44.5t-62.5 18.5q-33 0 -43 -3v-127zM246 220v-49h204v-95h-204v-76h-174v76h-53v95h53v49h-53v113h53v237q35 5 84 9.5t118 4.5t120 -14t84.5 -38.5t50 -57.5t16.5 -70q0 -39 -15.5 -73t-48 -58.5t-82 -38.5
t-118.5 -14h-35z" />
    </font>
</defs>
</svg>
